<?xml version="1.0" encoding="utf-8"?>
<!-- Generator: Adobe Illustrator 19.0.0, SVG Export Plug-In . SVG Version: 6.00 Build 0)  -->
<svg version="1.0" id="Layer_1" xmlns="http://www.w3.org/2000/svg" xmlns:xlink="http://www.w3.org/1999/xlink" x="0px" y="0px"
	 viewBox="-19 1.8 243.8 280.6" style="enable-background:new -19 1.8 243.8 280.6;" xml:space="preserve">
<style type="text/css">
	.st0{fill:#0090C1;fill-opacity:0.4;}
	.st1{fill:#0090C1;}
</style>
<g id="Layer_x0020_1">
	<polygon class="st0" points="37.5,179.9 102.9,217.7 168.3,179.9 140.2,163.7 102.9,185.2 65.6,163.7 	"/>
	<polygon class="st1" points="102.9,131.5 93.6,136.8 93.6,147.5 102.9,152.8 112.2,147.5 112.2,136.8 	"/>
	<polygon class="st1" points="102.9,1.8 -18.6,72 -18.6,212.3 9.4,196.1 9.4,88.2 9.4,88.2 48,65.9 102.9,34.2 160.9,67.7 
		196.3,88.2 196.3,196.1 224.4,212.3 224.4,72 	"/>
	<polygon class="st0" points="-18.6,212.3 102.9,282.5 224.4,212.3 196.3,196.1 102.9,250.1 9.4,196.1 	"/>
	<polygon class="st1" points="168.3,104.4 168.3,179.9 140.2,163.7 140.2,120.6 102.9,99.1 65.6,120.6 65.6,163.7 37.5,179.9 
		37.5,104.4 102.9,66.6 	"/>
	<polygon class="st1" points="102.9,131.5 93.6,136.8 93.6,147.5 102.9,152.8 112.2,147.5 112.2,136.8 	"/>
</g>
</svg>
