<?xml version="1.0" encoding="utf-8"?>
<!-- Generator: Adobe Illustrator 19.0.0, SVG Export Plug-In . SVG Version: 6.00 Build 0)  -->
<svg version="1.1" id="Layer_1" xmlns="http://www.w3.org/2000/svg" xmlns:xlink="http://www.w3.org/1999/xlink" x="0px" y="0px"
	 viewBox="0 0 283.5 136.1" style="enable-background:new 0 0 283.5 136.1;" xml:space="preserve">
<style type="text/css">
	.st0{fill:#00BEDF;}
	.st1{fill:#231F20;}
	.st2{font-family:'FrutigerLT-Cn';}
	.st3{font-size:11.5821px;}
	.st4{letter-spacing:0.9;}
</style>
<g>
	<polygon class="st0" points="282,1 282,16.3 260.7,29.9 260.7,34.9 282,21.3 282,36.3 260.7,49.9 260.7,54.8 282,41.2 282,56.9 
		238.2,84.5 238.2,29 	"/>
	<polygon class="st1" points="194.3,1 282,56.9 282,82.2 258.2,67 258.2,71.8 282,87.2 282,112.5 207.1,64.7 207.1,29 194.3,21.3 	
		"/>
	<polygon class="st0" points="194.3,56.9 213.9,44.3 213.9,74.5 218.2,71.8 218.2,41.7 238.2,29 238.2,84.5 194.3,112.5 	"/>
</g>
<polygon class="st1" points="85,55.3 81.3,55.3 72.8,55.3 64.8,55.3 56.3,55.3 52.6,55.3 48.8,55.3 48.8,68.5 56.3,68.5 56.3,62.4 
	64.8,62.4 64.8,94.2 59.1,94.2 59.1,101.1 78.4,101.1 78.4,94.2 72.8,94.2 72.8,62.4 81.3,62.4 81.3,68.5 88.7,68.5 88.7,55.3 "/>
<polygon class="st1" points="119.6,55.3 92.9,55.3 92.9,62.4 98.2,62.4 98.2,94.2 92.9,94.2 92.9,101.1 119.6,101.1 123.3,101.1 
	127,101.1 127,87.8 119.6,87.8 119.6,94.2 105.9,94.2 105.9,81.2 119.6,81.2 119.6,74.5 105.9,74.5 105.9,62.4 119.6,62.4 
	119.6,68.5 127,68.5 127,62.4 127,55.3 "/>
<path class="st1" d="M27.5,62.4h5.4v23.1l0,0c-0.1,5-4.2,9-9.2,9h-0.1c-5,0-9.1-4-9.2-9V62.4h5.4v-7.2H1.4v7.2h5v23.1v1.1
	c0,8.5,6.9,15.4,15.4,15.4h3.6c8.5,0,15.4-6.9,15.4-15.4v-1.1V62.4h5v-7.2H27.5V62.4z"/>
<path class="st1" d="M154.5,54.5L154.5,54.5c-12.3,0-22.2,10.6-22.2,23.7c0,13.1,9.9,23.7,22.2,23.7l0,0c8.1,0,15.3-3.1,20.3-7.9
	v-0.7v-8.2h-2.8h-4.7v5.5c-3.2,2.5-7.4,3.9-11.9,3.9l0,0c-8.2,0-14.9-7.3-14.9-16.3c0-9,6.7-16.3,14.9-16.3v0
	c4.5,0,8.7,1.5,11.9,3.9v5.6h4.7h2.8v-8.2v-0.8C169.7,57.6,162.5,54.5,154.5,54.5z"/>
<text transform="matrix(1.07 0 0 1 3.1212 120.4167)"><tspan x="0" y="0" class="st1 st2 st3 st4">UNIVERSIDAD DE INGENIERÍA</tspan><tspan x="79.7" y="13.4" class="st1 st2 st3 st4">Y TECNOLOGÍA</tspan></text>
</svg>
