<?xml version="1.0" encoding="utf-8"?>
<!-- Generator: Adobe Illustrator 19.0.0, SVG Export Plug-In . SVG Version: 6.00 Build 0)  -->
<svg version="1.1" id="Layer_1" xmlns="http://www.w3.org/2000/svg" xmlns:xlink="http://www.w3.org/1999/xlink" x="0px" y="0px"
	 viewBox="0 0 286.3 70.9" style="enable-background:new 0 0 286.3 70.9;" xml:space="preserve">
<style type="text/css">
	.st0{fill:#1A52A0;}
	.st1{fill:#929497;}
</style>
<g>
	<path class="st0" d="M1.7,59.4c1-2.7,3.4-4.5,6.2-4.5c2.5,0,5.5,2.2,6.5,4.7c1.2,3.2,0,6.9-2.8,8.3c-3.1,1.6-7,0.7-9-2.1
		c-0.5-0.7-1-1.4-1-2.3c-0.6-0.4,0-1.2-0.5-1.7c0-0.3,0-0.6,0-0.9C1.7,60.6,1.1,59.8,1.7,59.4z"/>
	<path class="st0" d="M1.7,59.4C1.5,59.9,2,60.7,1.2,61c0-0.6,0-1.2,0-1.8C1.4,59.2,1.5,59.3,1.7,59.4z"/>
	<path class="st0" d="M1.2,61.9C2,62.3,1.5,63,1.7,63.6c-0.2,0.1-0.3,0.1-0.5,0.2C1.2,63.1,1.2,62.5,1.2,61.9z"/>
	<path class="st0" d="M161.5,31.4c-1.9,0.1-3.8,0.2-5.5-0.1c-0.7-0.6-0.5-1.2-0.5-1.8c0-3.1,0-6.1,0-9.2c0-0.6,0-1.2-0.1-1.8
		c-0.4-2.5-2.3-3.4-4.5-2.3c-1,0.5-1.5,1.1-2.7,3.1c0,3.8,0,7.8,0,11.9c-1.9,0.6-3.7,0.2-5.5,0.3c-0.7-0.6-0.5-1.3-0.5-2
		c0-3,0-5.9,0-8.9c0-0.8,0-1.7-0.2-2.5c-0.5-1.8-1.5-2.5-3.4-2.1c-2.1,0.4-3.6,2.2-3.6,4.4c0,2.8,0,5.6,0,8.5c0,0.8,0.2,1.5-0.3,2.5
		c-1.8,0.4-3.7,0.2-5.6,0.1c-0.5-1.7-0.6-17-0.1-19.7c1.8,0,3.7,0,5.5,0c0.7,0.4,0.4,1.2,0.9,1.7c0.2-0.1,0.5-0.1,0.6-0.2
		c1.5-1.2,3.2-1.7,5.1-1.9c2.7-0.2,4.9,0.7,6.4,2.9c0.9,0.2,1.3-0.4,1.7-0.8c2.2-1.8,4.7-2.4,7.5-2c2.6,0.4,4.2,2,4.9,4.5
		c0.2,0.7,0.4,1.5,0.4,2.3c0,4.1,0,8.2,0,12.4C161.8,30.8,161.6,31.1,161.5,31.4z"/>
	<path class="st0" d="M178.3,31.4c-0.6-0.9-0.4-1.7-0.4-2.5c0-2.7,0-5.5,0-8.2c0-0.8,0-1.5-0.2-2.3c-0.5-2.4-2.2-3.2-4.4-2.1
		c-1,0.5-1.6,1.1-2.7,3c0,3.8,0,7.8,0,12c-2,0.4-3.9,0.1-5.7,0.2c-0.6-1.5-0.8-15.6-0.3-19.7c1.8-0.3,3.7-0.1,5.4-0.1
		c0.9,0.4,0.6,1.3,1.1,1.8c5.2-3,8.9-3,12.3,0.9c0.7,0.1,1-0.5,1.5-0.9c2.1-1.7,4.6-2.3,7.3-1.9c2.6,0.4,4.2,1.9,5,4.4
		c0.2,0.7,0.4,1.3,0.4,2c0,4.3,0,8.5,0,12.8c0,0.2-0.2,0.4-0.3,0.8c-1.9,0.2-3.8,0.2-5.6,0c-0.5-0.9-0.4-1.7-0.4-2.5
		c0-2.5,0-5,0-7.6c0-0.5,0-1.1,0-1.6c-0.1-2.7-1-3.9-2.8-3.9c-2.1,0-4.2,1.9-4.4,3.9c0,0.5,0,0.9,0,1.4c0,2.6,0,5.2,0,7.8
		c0,0.7,0.2,1.5-0.4,2.4C181.9,31.6,180.1,31.6,178.3,31.4z"/>
	<path class="st0" d="M104.2,4.2c0.1,2.2,0.2,4.3-0.1,6.4c-1.2,0-1.8-0.6-2.5-1c-2.9-1.2-5.9-2-9.1-1.5C86.4,9,84.3,14.2,85.2,19
		c0.8,4.2,3.8,6.6,8,6.8c3.2,0.2,6.2-0.7,9-2.2c0.6-0.3,1.2-1,2.3-0.9c0.1,2.1,0.1,4.2,0,6.2c-0.4,0.3-0.7,0.6-1,0.8
		c-5.1,2.5-10.5,3.3-16,1.5c-7.4-2.3-10.7-9.1-10.1-15.8c0.8-8.9,8-13,14.3-13.4C96,1.6,100.1,2,104.2,4.2z"/>
	<path class="st0" d="M226.1,4.3c0.2,2,0.2,4,0,5.9c-0.7,0.5-1.1,0.1-1.6-0.2c-2-1.1-4.1-1.7-6.3-2C216.1,7.7,214,8,212,8.8
		c-2.7,1.1-4.2,3.1-4.8,5.9c-1.4,6.3,2.5,11.1,8.9,11.1c2.9,0,5.5-0.9,8.1-2.2c0.7-0.3,1.3-0.7,2.2-1.2c0.3,2.3,0.1,4.3,0.1,6
		c-0.4,0.8-0.8,1-1.3,1.3c-4.9,2.3-10,3-15.3,1.5c-6.2-1.8-10-7.4-10.4-13.1C198.6,7.5,206.8,2,214.5,1.9c2.9-0.1,5.8,0.1,8.6,1
		C224.1,3.2,225.1,3.5,226.1,4.3z"/>
	<path class="st0" d="M17.2,53c1.6,1.8,3.5,1.9,5.5,1.5c1.4-0.3,2.3-1.2,2.6-2.6c0.3-1.1,0.5-2.2,0.8-3.2c2.2-0.7,4.1,0,5.4,1.9
		c1.2,1.8,1.3,3.9,0,5.5c-1.3,1.6-2.9,3-4.5,4.2c-2.8,2-5.9,3.5-9.1,4.8c-0.3,0.1-0.6,0.1-0.8,0.1c-0.7-0.4-0.5-1-0.5-1.5
		c0-0.5,0-1.1,0-1.6c0.1-5.7-2.6-8.7-8.4-9.3c-1.1-0.1-2.3,0.1-3.3-0.3c-0.6-1,0-1.7,0.3-2.4c3.1-7.2,8.5-12,15.9-14.4
		c3.2-1,6.5-1.7,9.8-1.9c0.9-0.1,1.8-0.3,2.7,0.6c-1.2,0.9-2.5,1.5-3.7,2c-4.2,2-7.8,4.8-10.5,8.6C17.9,47.4,16.7,50,17.2,53z"/>
	<path class="st0" d="M44.4,21.4c-2.7,0.3-4.3-0.5-5.4-2.6c-1.1-2-0.8-3.7,0.8-5.7c1.2-1.4,2.5-2.6,4.1-3.7c3.1-2.1,6.5-3.5,9.8-4.8
		c0.8,0.5,0.6,1,0.6,1.6c0,0.9-0.1,1.8-0.2,2.7c-0.1,3.6,1.7,6.3,5.1,7.6c1.5,0.6,3.1,0.8,4.7,0.9c0.7,0.1,1.6-0.3,2.1,0.5
		c-2.5,11.1-15.9,19.2-29,17.8c1.1-1.2,2.4-1.6,3.7-2.2c3-1.3,5.6-3.1,7.9-5.4c1.4-1.4,2.7-2.9,3.7-4.6c1.1-2,1.8-4,1.5-6.3
		c-1.1-1.4-2.6-1.9-4.2-1.9c-2.4-0.1-3.5,0.8-4.2,3C45.1,19.3,45.2,20.4,44.4,21.4z"/>
	<path class="st1" d="M53.4,53.1c1.5-1.2,1.9-2.8,1.8-4.6c-0.1-2.1-0.9-3-2.9-3.6c-1-0.3-2.1-0.5-3.1-0.7c-0.7-2.2-0.1-4.1,1.8-5.4
		c1.8-1.3,4-1.4,5.7-0.1c1.7,1.3,3.1,2.9,4.3,4.7c2.1,3,3.6,6.3,4.8,9.6c-0.3,0.8-0.8,0.7-1.3,0.6c-0.8,0-1.5,0-2.3-0.1
		c-4.6-0.6-8.1,2.5-8.9,7c-0.2,1.2-0.3,2.4-0.4,3.6c0,0.4,0,0.9-0.5,1.2c-10.8-2.5-19-14.7-17.9-28.8c1,0.6,1.2,1.6,1.6,2.4
		c1.7,3.7,3.9,7.1,7,9.8c1.4,1.3,2.9,2.5,4.6,3.3C49.5,53,51.3,53.5,53.4,53.1z"/>
	<path class="st1" d="M18,4.6c11,2.2,19.4,14.9,18.3,28.5c-1-0.5-1.2-1.5-1.6-2.4c-1.4-2.8-2.8-5.6-5-7.8c-2.6-2.6-5.3-5.1-9-6
		c-2.4-0.6-3.3-0.4-4.2,1.1c-1.1,1.6-1.1,4.6-0.1,5.9c0.5,0.6,1.2,0.9,1.9,1.1c1.1,0.4,2.4,0.3,3.4,1.1c0.5,2.4-0.2,4-2.2,5.2
		c-1.9,1.2-3.7,1.2-5.5-0.3c-2.5-2-4.5-4.5-6.1-7.3c-1.2-2.2-2.2-4.5-2.9-6.9c0.8-1,1.8-0.5,2.6-0.4c3.1,0.3,5.8-0.3,7.9-2.7
		c1.7-1.9,2-4.2,2.3-6.6C17.7,6.4,17.5,5.5,18,4.6z"/>
	<path class="st1" d="M240.6,42.3c0.3,2.1,0.3,21.5,0,24c-0.5,0.3-1,0.1-1.5,0.2c-0.4,0-0.9,0-1.5,0c0-6.7,0-13.3,0-20
		c-0.9,0-0.9,0.7-1.1,1.1c-1.6,3.3-3.3,6.7-4.9,10.1c-0.4,0.7-0.6,1.6-1.6,1.9c-1.2,0.1-1.5-0.8-1.9-1.6c-1.7-3.4-3.3-6.9-5-10.3
		c-0.2-0.4-0.3-0.9-0.9-1.2c-0.4,2.2-0.1,4.3-0.2,6.4c-0.1,2.3,0,4.6,0,6.9c0,2.2,0,4.4,0,6.6c-1.1,0-2,0-2.9,0
		c-0.4-1.5-0.5-20.5-0.1-24.1c1.3,0,2.7,0,4.2,0c1.3,2,2.2,4.2,3.3,6.4c1.1,2.1,2.1,4.2,3.1,6.3c1,0.1,1-0.6,1.3-1.1
		c1.5-3.2,3-6.3,4.5-9.5c0.3-0.7,0.5-1.5,1.3-2C237.9,42.3,239.2,42.3,240.6,42.3z"/>
	<path class="st1" d="M201,54.5c0,3.2,0,6.1,0,9.2c4.2,0,8.4,0,12.7,0c0,1,0,1.7,0,2.5c-1.5,0.4-12.5,0.5-15.9,0.1c0-8,0-15.9,0-24
		c5.3,0,10.5,0,15.8,0c0,0.8,0,1.6,0,2.6c-4.2,0-8.3,0-12.6,0c0,2.3,0,4.5,0,6.8c4.1,0,8.3,0,12.4,0c0.6,0.9,0.2,1.8,0.4,2.7
		C209.5,54.5,205.3,54.5,201,54.5z"/>
	<path class="st0" d="M265.1,13c-0.1,1.7-0.8,3.3-1.3,4.8c-0.7,0.5-1.1,0.1-1.6-0.1c-2.4-0.9-4.1-0.4-5.5,1.7
		c-1.1,1.5-1.6,3.2-1.7,5.1c0,2.3,0.2,4.5-0.2,6.9c-1.9,0.1-3.8,0.3-5.8-0.1c0-6.6,0-13,0-19.6c1.9-0.3,3.8-0.1,5.7-0.1
		c0.5,1.4,0.1,2.8,0.4,4.3c1.1-0.7,1.5-1.7,2.1-2.4C259.6,10.9,262.1,10.7,265.1,13z"/>
	<path class="st1" d="M144.3,43.9c0.3,1.2,0.3,2.2,0.1,3.2c-0.7,0.3-1.1-0.2-1.5-0.5c-2.5-1.8-5.2-2.4-8.2-2.1
		c-2.9,0.3-5,1.9-6.1,4.5c-1.5,3.6-1.5,7.3,0.2,10.9c1.3,2.8,3.7,4.1,6.8,4.3c2.8,0.2,5.3-0.5,7.6-2.1c0.4-0.3,0.7-0.6,1.3-0.5
		c0.4,0.9,0.2,1.9,0.1,3c-2.9,1.7-6.1,2.6-9.5,2.3c-1-0.1-2-0.3-2.9-0.6c-4.1-1.2-6.2-4.1-7.2-8.1c-0.6-2.5-0.5-5,0-7.5
		c0.9-4.4,4.1-7.6,8.5-8.5C137.3,41.3,140.9,42.2,144.3,43.9z"/>
	<path class="st0" d="M69.6,8.6c0,3.5-2.9,6.5-6.3,6.5c-4.7,0-7.5-4.1-7.5-7.7c0-3.2,3.2-6.2,6.7-6.3C65.6,1.2,69.6,3.7,69.6,8.6z"
		/>
	<path class="st1" d="M9.1,1c3.3,0,6.4,3.2,6.4,6.5c0,3.7-3.8,7.2-7.7,7.2c-3.5,0-6.2-3-6.1-6.8C1.6,4,4.9,1,9.1,1z"/>
	<path class="st1" d="M62.3,68.9c-3.8,0-6.9-2.8-6.9-6.2c0-3.9,3.4-7.3,7.5-7.3c3.7,0,6.6,2.8,6.4,6.5
		C69.2,65.3,66.7,69.1,62.3,68.9z"/>
	<path class="st1" d="M255.9,66.5c-1.1,0-2,0-3,0c-0.3-1.9-0.3-3.9-0.1-5.8c0.3-3.1-0.6-5.8-2.3-8.3c-2.1-3.1-4-6.3-6-9.5
		c1-0.9,2.1-0.4,3.2-0.4c2.3,3.3,4.1,7,6.6,10.5c1.6-1.8,2.4-3.6,3.5-5.3c1.1-1.7,2-3.4,3-5c1.8-0.3,1.8-0.3,3.5,0.1
		c-2.8,4.4-5.6,8.7-8.3,13.1C255.9,59.2,255.9,62.7,255.9,66.5z"/>
	<g>
		<path class="st1" d="M183.8,42.8c-3.8-0.9-7.7-0.6-11.6-0.6c0,8.1,0,16.1,0,24.2c2.7,0,5.4,0.1,8,0c1.3,0,2.6-0.2,3.8-0.6
			c5.2-1.3,8.3-5.1,8.6-11.1C192.8,49,190.2,44.4,183.8,42.8z M189.5,53.7c-0.1,1.2,0.1,2.4-0.2,3.6c-1,3.6-4.1,6.2-8,6.4
			c-1.9,0.1-3.8,0-5.9,0c0-6.3,0-12.4,0-18.8c2.6,0.1,5.3-0.3,7.9,0.5C187.1,46.5,189.7,49.9,189.5,53.7z"/>
	</g>
	<g>
		<path class="st1" d="M113.1,42.3c-1.5,0-2.6,0-4.1,0c-2.9,8-5.8,15.9-8.7,24c1.2,0.3,2.1,0.3,3,0.2c1.3-2.1,1.4-4.7,2.8-6.7
			c3.4,0,6.7,0,10.2,0c1.2,2.1,1.5,4.7,2.7,6.7c1.5,0.2,1.5,0.2,2.9-0.4C118.9,58.1,116.2,50,113.1,42.3z M106.9,56.8
			c1.4-3.7,2.7-7.3,4-11c0.2,0,0.4,0,0.5,0c1.3,3.6,2.6,7.2,3.9,11C112.5,56.8,109.8,56.8,106.9,56.8z"/>
	</g>
	<g>
		<path class="st1" d="M159.4,42.3c-1.5,0-2.7,0-4.1,0c-2.9,7.9-5.8,15.8-8.6,23.7c1.1,0.7,2,0.4,2.9,0.4c1.2-2.1,1.5-4.6,2.7-6.7
			c3.4,0,6.8,0,10.2,0c1.2,2.1,1.5,4.7,2.8,6.8c0.7,0,1.4,0,2.1,0c0.2,0,0.4-0.2,0.8-0.4C165.2,58.1,162.4,50.1,159.4,42.3z
			 M153.1,56.8c1.4-3.8,2.7-7.4,4-11c1.1,1.2,3.4,7,4.3,11C158.8,56.8,156.1,56.8,153.1,56.8z"/>
	</g>
	<g>
		<path class="st0" d="M122.5,12.9c-2.6-1.6-5.4-1.8-8.4-1.5c-4.9,0.6-8.3,4.2-8.8,9c-0.5,5,2.2,9.3,6.9,10.8
			c1.3,0.4,2.7,0.5,4.2,0.5c0.4,0,1,0,1.6-0.1c4.4-0.4,7.9-3.5,8.9-7.7C128,19.6,126.2,15.2,122.5,12.9z M120.1,24.4
			c-0.7,1.8-2.3,2.8-4.1,2.7c-1.9-0.1-3.1-1.1-3.8-2.8c-0.4-0.9-0.4-1.8-0.4-2.7c0.1-1,0.1-2,0.5-2.9c0.8-1.7,2-2.6,3.9-2.6
			c1.8,0,3,1,3.7,2.5C120.9,20.5,120.9,22.5,120.1,24.4z"/>
	</g>
	<g>
		<path class="st0" d="M247.7,27.2c-0.7-0.4-1.5,0.3-2.4-0.4c0-0.6,0-1.3,0-2.1c0-2.3,0.1-4.6,0-6.9c-0.2-4-2.1-6-6-6.4
			c-1.8-0.2-3.7-0.1-5.5,0.1c-2,0.3-3.8,0.8-5.4,2.2c-0.2,1.4-0.5,2.8-0.2,4.2c0.9,0.1,1.5-0.5,2.1-0.9c1.9-1.2,3.9-1.7,6.1-1.4
			c1.7,0.3,2.1,0.8,2.3,2.8c-0.5,0.6-1.3,0.7-2,0.9c-2,0.6-3.9,1.2-5.8,2.1c-1,0.5-2,1.1-2.7,2c-2.3,2.8-0.7,7.5,2.9,8.1
			c2.1,0.4,4.3,0.3,6.2-0.8c0.5-0.3,1-0.7,1.7-0.6c2.6,2.1,6,2,8.9-0.2C248.1,28.5,248.1,28.5,247.7,27.2z M238.9,26.4
			c-2.6,2.2-4.2,2-5.4-0.5c0.8-2.5,2.9-3,5-3.6C239.3,23.7,238.7,25.1,238.9,26.4z"/>
	</g>
	<g>
		<path class="st0" d="M277.8,22.7c2.3,0,4.5,0.1,6.7-0.1c0.8-5.1-2-9.7-6.5-11c-2.4-0.6-4.9-0.6-7.2,0.2c-3.6,1.2-5.7,3.7-6.3,7.4
			c-0.3,1.5-0.2,3,0.1,4.5c0.6,3.3,2.4,5.7,5.5,7.1c1.4,0.6,2.9,0.9,4.4,0.9c3.5,0.1,6.8-0.4,9.7-2.5c0.3-1.2,0.2-2.4,0-3.8
			c-1,0.5-1.8,0.8-2.5,1.2c-2.1,1-4.4,1.3-6.7,0.9c-2.5-0.5-3.8-1.9-4-4.8C273.3,22.6,275.5,22.8,277.8,22.7z M271.1,19.7
			c0.1-2.6,1.4-4,3.5-4.1c2.1-0.1,3.3,1.1,3.6,3.7C275.9,20,273.5,19.5,271.1,19.7z"/>
	</g>
</g>
</svg>
