<?xml version="1.0" encoding="utf-8"?>
<!-- Generator: Adobe Illustrator 19.0.0, SVG Export Plug-In . SVG Version: 6.00 Build 0)  -->
<svg version="1.0" id="Layer_1" xmlns="http://www.w3.org/2000/svg" xmlns:xlink="http://www.w3.org/1999/xlink" x="0px" y="0px"
	 viewBox="0 0 283.5 147.4" style="enable-background:new 0 0 283.5 147.4;" xml:space="preserve">
<style type="text/css">
	.st0{fill:#2C6EB6;stroke:#FFFFFF;stroke-miterlimit:10;}
	.st1{fill:#FFFFFF;}
</style>
<circle id="XMLID_5_" class="st0" cx="226.7" cy="56.9" r="48"/>
<g id="XMLID_28_">
	<path id="XMLID_29_" class="st1" d="M26.4,89.6c-3.4,0-6.3-1-8.8-2.9c-2.5-1.9-4.5-4.7-5.8-8.5c-1.4-3.7-2.1-8.1-2.1-13.1
		c0-7.7,1.5-13.7,4.6-18c3.1-4.3,7.3-6.5,12.7-6.5c2.6,0,5,0.5,7,1.6c2,1.1,3.8,2.8,5.5,5.3h0.3c-0.5-3.7-0.8-7.4-0.8-11.1V23.7
		h16.5v65H43.1l-3.5-6H39C36.2,87.3,32,89.6,26.4,89.6z M33.1,76.7c2.6,0,4.5-0.8,5.5-2.5c1.1-1.6,1.6-4.2,1.7-7.6v-1.3
		c0-4.2-0.6-7.1-1.8-8.9c-1.2-1.8-3.1-2.7-5.6-2.7c-2.1,0-3.8,1-5,3c-1.2,2-1.8,4.9-1.8,8.6c0,3.7,0.6,6.5,1.8,8.4
		C29.1,75.7,30.8,76.7,33.1,76.7z"/>
	<path id="XMLID_32_" class="st1" d="M97.8,88.7V62.9c0-6.3-1.9-9.5-5.6-9.5c-2.7,0-4.6,1.1-5.9,3.4c-1.3,2.2-1.9,6-1.9,11.2v20.8
		H68v-65h16.3V33c0,4.2-0.2,8.9-0.7,14.3h0.8c1.6-2.5,3.4-4.2,5.6-5.2c2.1-1,4.6-1.5,7.5-1.5c5.3,0,9.4,1.5,12.3,4.6
		c2.9,3,4.4,7.3,4.4,12.8v30.8H97.8z"/>
	<path id="XMLID_34_" class="st1" d="M126.2,29.6c0-2.5,0.7-4.3,2-5.5c1.4-1.2,3.6-1.8,6.6-1.8c3,0,5.2,0.6,6.6,1.8
		c1.4,1.2,2.1,3,2.1,5.4c0,4.8-2.9,7.2-8.7,7.2C129.1,36.8,126.2,34.4,126.2,29.6z M143,88.7h-16.3V41.4H143V88.7z"/>
	<path id="XMLID_37_" class="st1" d="M192.2,74.2c0,5.1-1.7,8.9-5.2,11.5c-3.5,2.6-8.4,3.9-14.9,3.9c-3.5,0-6.6-0.2-9.1-0.6
		c-2.6-0.4-5.2-1.1-7.9-2.1V73.9c2.5,1.1,5.3,2,8.3,2.8c3,0.7,5.7,1.1,8.1,1.1c3.5,0,5.3-0.8,5.3-2.4c0-0.8-0.5-1.6-1.5-2.2
		c-1-0.7-3.9-1.9-8.6-3.8c-4.3-1.8-7.4-3.8-9.1-6.1c-1.7-2.3-2.6-5.1-2.6-8.6c0-4.4,1.7-7.8,5.1-10.3c3.4-2.4,8.2-3.7,14.4-3.7
		c3.1,0,6,0.3,8.8,1c2.7,0.7,5.6,1.7,8.5,3l-4.4,10.5c-2.2-1-4.5-1.8-6.9-2.5c-2.4-0.7-4.4-1-5.9-1c-2.7,0-4,0.7-4,2
		c0,0.8,0.5,1.5,1.4,2.1c0.9,0.6,3.6,1.7,8.1,3.5c3.3,1.4,5.8,2.7,7.4,4c1.6,1.3,2.8,2.8,3.6,4.6C191.8,69.5,192.2,71.7,192.2,74.2z
		"/>
</g>
<g id="XMLID_25_">
	<path id="XMLID_26_" class="st1" d="M250.5,88H205V76.9l15.3-15.5c4.4-4.6,7.2-7.7,8.6-9.4c1.3-1.7,2.3-3.1,2.8-4.3
		c0.5-1.2,0.8-2.5,0.8-3.8c0-1.6-0.5-2.9-1.6-3.9c-1.1-0.9-2.5-1.4-4.5-1.4c-2,0-4,0.6-6,1.7c-2,1.1-4.3,2.8-6.9,5l-9.3-10.9
		c3.2-2.9,6-5,8.2-6.2c2.2-1.2,4.6-2.2,7.2-2.9c2.6-0.7,5.5-1,8.7-1c4.1,0,7.7,0.7,10.9,2.1c3.2,1.4,5.7,3.5,7.4,6.1
		c1.8,2.6,2.6,5.6,2.6,8.9c0,2.5-0.3,4.7-0.9,6.8c-0.6,2.1-1.6,4.1-2.9,6.2c-1.3,2-3,4.1-5.1,6.4c-2.1,2.2-6.7,6.5-13.6,12.7V74
		h23.8V88z"/>
</g>
<g id="XMLID_2_">
	<path id="XMLID_7_" class="st1" d="M28.1,130l-1.2-4.5H19l-1.2,4.5h-7.2l7.9-24.4h8.7l8,24.4H28.1z M25.5,120.1l-1-4
		c-0.2-0.9-0.5-2-0.9-3.4c-0.3-1.4-0.6-2.4-0.7-3c-0.1,0.6-0.3,1.5-0.6,2.8c-0.3,1.3-0.9,3.8-1.9,7.7H25.5z"/>
	<path id="XMLID_10_" class="st1" d="M62.7,130.3c-3.1,0-5.4-0.8-7-2.5s-2.4-4-2.4-7.2c0-3.1,0.9-5.5,2.6-7.3
		c1.7-1.7,4.2-2.6,7.3-2.6c2.2,0,4.2,0.5,6.2,1.4l-1.9,4.8c-0.8-0.3-1.5-0.6-2.2-0.8c-0.7-0.2-1.4-0.3-2.1-0.3
		c-1.1,0-1.9,0.4-2.4,1.2c-0.6,0.8-0.9,2-0.9,3.5c0,3,1.1,4.5,3.3,4.5c1.9,0,3.7-0.6,5.5-1.7v5.2C67.1,129.8,65.1,130.3,62.7,130.3z
		"/>
	<path id="XMLID_12_" class="st1" d="M101.4,130l-1.2-2.5H100c-0.9,1.1-1.8,1.8-2.7,2.2c-0.9,0.4-2.1,0.6-3.5,0.6
		c-1.8,0-3.2-0.5-4.2-1.6c-1-1.1-1.5-2.6-1.5-4.5c0-2,0.7-3.5,2.1-4.5c1.4-1,3.4-1.5,6.1-1.7l3.1-0.1v-0.3c0-1.5-0.8-2.3-2.3-2.3
		c-1.4,0-3.1,0.5-5.2,1.4l-1.9-4.3c2.2-1.1,5-1.7,8.3-1.7c2.4,0,4.3,0.6,5.6,1.8c1.3,1.2,2,2.9,2,5V130H101.4z M96.6,125.8
		c0.8,0,1.5-0.2,2-0.7c0.6-0.5,0.8-1.1,0.8-1.9v-1.5l-1.5,0.1c-2.1,0.1-3.2,0.9-3.2,2.4C94.7,125.2,95.4,125.8,96.6,125.8z"/>
	<path id="XMLID_15_" class="st1" d="M132.8,130.3c-1.3,0-2.5-0.4-3.5-1.1c-1-0.8-1.8-1.9-2.3-3.4c-0.5-1.5-0.8-3.2-0.8-5.2
		c0-3.1,0.6-5.4,1.8-7.2s2.9-2.6,5.1-2.6c1.1,0,2,0.2,2.8,0.6c0.8,0.4,1.5,1.1,2.2,2.1h0.1c-0.2-1.5-0.3-2.9-0.3-4.4v-5h6.5V130
		h-4.9l-1.4-2.4h-0.2C136.7,129.4,135,130.3,132.8,130.3z M135.5,125.2c1,0,1.8-0.3,2.2-1c0.4-0.7,0.7-1.7,0.7-3v-0.5
		c0-1.7-0.2-2.8-0.7-3.5s-1.2-1.1-2.2-1.1c-0.9,0-1.5,0.4-2,1.2c-0.5,0.8-0.7,1.9-0.7,3.4c0,1.5,0.2,2.6,0.7,3.3
		S134.6,125.2,135.5,125.2z"/>
	<path id="XMLID_18_" class="st1" d="M174.6,130.3c-3.1,0-5.6-0.8-7.3-2.5c-1.7-1.7-2.6-4-2.6-7.1c0-3.2,0.8-5.6,2.4-7.3
		s3.9-2.5,6.9-2.5c2.8,0,5,0.7,6.6,2.2c1.5,1.5,2.3,3.6,2.3,6.4v2.9h-11.6c0,1.1,0.4,1.9,1.2,2.5c0.7,0.6,1.7,0.9,3,0.9
		c1.1,0,2.2-0.1,3.1-0.3c1-0.2,2-0.6,3.1-1.1v4.7c-1,0.5-2.1,0.9-3.2,1.1C177.4,130.2,176.1,130.3,174.6,130.3z M174.2,115.3
		c-0.8,0-1.4,0.2-1.9,0.7c-0.5,0.5-0.8,1.2-0.9,2.3h5.6c0-0.9-0.3-1.6-0.8-2.2C175.7,115.6,175,115.3,174.2,115.3z"/>
	<path id="XMLID_21_" class="st1" d="M226.2,130v-10.2c0-1.3-0.2-2.2-0.5-2.9c-0.3-0.6-0.9-1-1.7-1c-1,0-1.7,0.4-2.2,1.3
		c-0.5,0.9-0.7,2.2-0.7,4v8.8h-6.5v-10.2c0-1.3-0.2-2.2-0.5-2.9c-0.3-0.6-0.9-1-1.6-1c-1,0-1.8,0.5-2.2,1.4s-0.7,2.4-0.7,4.4v8.2
		h-6.5v-18.8h4.9l0.8,2.3h0.4c0.5-0.9,1.2-1.5,2.2-2c0.9-0.5,2-0.7,3.2-0.7c2.7,0,4.6,0.8,5.7,2.5h0.5c0.5-0.8,1.3-1.4,2.2-1.8
		c0.9-0.4,2-0.7,3.1-0.7c2.2,0,3.9,0.6,4.9,1.7c1.1,1.1,1.6,2.9,1.6,5.2V130H226.2z"/>
	<path id="XMLID_23_" class="st1" d="M251.5,111.2h6.8l3.2,10.8c0.2,0.6,0.3,1.2,0.3,2h0.1c0.1-0.8,0.2-1.4,0.4-2l3.3-10.8h6.6
		l-7.4,20c-1,2.5-2.1,4.3-3.5,5.4c-1.4,1.1-3.2,1.6-5.4,1.6c-0.9,0-1.7-0.1-2.7-0.3v-5.1c0.6,0.1,1.3,0.2,2,0.2
		c0.6,0,1.1-0.1,1.5-0.3c0.4-0.2,0.8-0.5,1.1-0.9c0.3-0.4,0.7-1.1,1-2L251.5,111.2z"/>
</g>
<g id="XMLID_6_">
</g>
<g id="XMLID_75_">
</g>
<g id="XMLID_76_">
</g>
<g id="XMLID_77_">
</g>
<g id="XMLID_78_">
</g>
<g id="XMLID_79_">
</g>
</svg>
