<?xml version="1.0" encoding="utf-8"?>
<!-- Generator: Adobe Illustrator 19.0.0, SVG Export Plug-In . SVG Version: 6.00 Build 0)  -->
<svg version="1.1" id="Layer_1" xmlns="http://www.w3.org/2000/svg" xmlns:xlink="http://www.w3.org/1999/xlink" x="0px" y="0px"
	 viewBox="0 0 283.5 51" style="enable-background:new 0 0 283.5 51;" xml:space="preserve">
<style type="text/css">
	.st0{fill:#FFFFFF;stroke:#C7C8CA;stroke-width:0.99;}
	.st1{fill:#FFFFFF;}
	.st2{clip-path:url(#XMLID_109_);fill:#FFFFFF;}
	.st3{font-family:'TitilliumWeb-Bold';}
	.st4{font-size:31.4537px;}
</style>
<g id="XMLID_1_">
	<line id="XMLID_4_" class="st0" x1="126.5" y1="1.1" x2="126.5" y2="50"/>
	<g id="XMLID_69_">
		<path id="XMLID_66_" class="st1" d="M31.6,32.7h1.9l1.4,5.9h-1l-0.3-1.2h-2.1l-0.3,1.2h-1L31.6,32.7z M31.7,36.5h1.7l-0.7-2.9
			h-0.3L31.7,36.5z"/>
		<g id="XMLID_5_">
			<defs>
				<rect id="XMLID_6_" x="1" y="8.6" width="111.5" height="32.1"/>
			</defs>
			<use xlink:href="#XMLID_6_"  style="overflow:visible;fill:#FFFFFF;"/>
			<clipPath id="XMLID_109_">
				<use xlink:href="#XMLID_6_"  style="overflow:visible;"/>
			</clipPath>
			<path id="XMLID_65_" class="st2" d="M38.5,35.3c0,0-1-0.1-1.5-0.1c-0.4,0-0.7,0.2-0.7,0.5c0,0.3,0.2,0.3,0.8,0.5
				c1.1,0.2,1.5,0.5,1.5,1.3c0,1-0.7,1.4-1.7,1.4c-0.6,0-1.6-0.2-1.6-0.2l0-0.8c0,0,1,0.1,1.4,0.1c0.6,0,0.8-0.1,0.8-0.5
				c0-0.3-0.1-0.3-0.8-0.5c-1-0.2-1.5-0.4-1.5-1.3c0-1,0.8-1.3,1.6-1.3c0.6,0,1.6,0.2,1.6,0.2L38.5,35.3z"/>
			<polygon id="XMLID_64_" class="st2" points="39.6,38.6 39.6,32.6 40.6,32.6 40.6,36 41,36 42,34.4 43.1,34.4 41.9,36.4 
				43.2,38.6 42.1,38.6 41.1,36.9 40.6,37 40.6,38.6 			"/>
			<path id="XMLID_60_" class="st2" d="M48.3,32.7c1,0,1.8,0.4,1.8,1.5c0,0.8-0.2,1.1-0.7,1.4c0.5,0.2,0.8,0.6,0.8,1.4
				c0,1.2-0.8,1.7-1.9,1.7h-2.2v-5.9H48.3z M47.1,33.6v1.6h1.1c0.5,0,0.8-0.3,0.8-0.8c0-0.5-0.3-0.8-0.8-0.8H47.1z M47.1,36.1v1.6
				h1.1c0.5,0,0.9-0.3,0.9-0.8c0-0.6-0.5-0.8-0.9-0.8H47.1z"/>
			<path id="XMLID_57_" class="st2" d="M51.4,32.7h1v1h-1V32.7z M51.4,34.4h1v4.3h-1V34.4z"/>
			<path id="XMLID_53_" class="st2" d="M53.1,39.4c0-0.4,0.2-0.7,0.6-1c-0.2-0.1-0.3-0.3-0.3-0.6c0-0.2,0.3-0.7,0.3-0.7
				c-0.3-0.2-0.6-0.6-0.6-1.3c0-1,0.8-1.5,1.7-1.5c0.3,0,0.8,0.1,0.8,0.1l1.3,0v0.8h-0.6c0.1,0.1,0.2,0.3,0.2,0.6
				c0,1.1-0.6,1.5-1.7,1.5c-0.1,0-0.2,0-0.3,0c0,0-0.1,0.3-0.1,0.4c0,0.3,0.1,0.3,0.8,0.3c1.2,0,1.8,0.3,1.8,1.3
				c0,1.1-0.9,1.5-1.9,1.5C53.9,40.7,53.1,40.4,53.1,39.4 M54.4,38.7c-0.2,0.2-0.3,0.3-0.3,0.6c0,0.4,0.4,0.5,1,0.5
				c0.6,0,1-0.2,1-0.6c0-0.4-0.3-0.5-0.9-0.5C54.9,38.8,54.4,38.7,54.4,38.7 M55.6,35.8c0-0.5-0.2-0.7-0.7-0.7
				c-0.5,0-0.7,0.2-0.7,0.7c0,0.4,0.2,0.7,0.7,0.7S55.6,36.3,55.6,35.8"/>
			<path id="XMLID_49_" class="st2" d="M57.6,39.4c0-0.4,0.2-0.7,0.6-1c-0.2-0.1-0.3-0.3-0.3-0.6c0-0.2,0.3-0.7,0.3-0.7
				c-0.3-0.2-0.6-0.6-0.6-1.3c0-1,0.8-1.5,1.7-1.5c0.3,0,0.8,0.1,0.8,0.1l1.3,0v0.8h-0.6c0.1,0.1,0.2,0.3,0.2,0.6
				c0,1.1-0.6,1.5-1.7,1.5c-0.1,0-0.2,0-0.3,0c0,0-0.1,0.3-0.1,0.4c0,0.3,0.1,0.3,0.8,0.3c1.2,0,1.8,0.3,1.8,1.3
				c0,1.1-0.9,1.5-1.9,1.5C58.4,40.7,57.6,40.4,57.6,39.4 M58.8,38.7c-0.2,0.2-0.3,0.3-0.3,0.6c0,0.4,0.4,0.5,1,0.5
				c0.6,0,1-0.2,1-0.6c0-0.4-0.3-0.5-0.9-0.5C59.3,38.8,58.8,38.7,58.8,38.7 M60,35.8c0-0.5-0.2-0.7-0.7-0.7c-0.5,0-0.7,0.2-0.7,0.7
				c0,0.4,0.2,0.7,0.7,0.7S60,36.3,60,35.8"/>
			<path id="XMLID_46_" class="st2" d="M65.5,37.8l0,0.7c0,0-0.8,0.2-1.6,0.2c-1.3,0-1.8-0.8-1.8-2.2c0-1.4,0.6-2.3,1.8-2.3
				c1.2,0,1.8,0.7,1.8,1.9l-0.1,0.7h-2.5c0,0.6,0.2,1,0.9,1C64.6,37.9,65.5,37.8,65.5,37.8 M64.7,36.2c0-0.7-0.2-1.1-0.8-1.1
				c-0.6,0-0.8,0.4-0.8,1.1H64.7z"/>
			<path id="XMLID_45_" class="st2" d="M66.8,34.4h1v0.5c0,0,0.5-0.4,1.2-0.6v1c-0.8,0.2-1.2,0.4-1.2,0.4v2.9h-1V34.4z"/>
			<path id="XMLID_42_" class="st2" d="M74.6,38.7c-0.1,0-0.3,0-0.5,0c-1.8,0-2.3-1-2.3-3c0-2,0.6-3.1,2.3-3.1
				c1.8,0,2.3,1.1,2.3,3.1c0,1.3-0.2,2.2-0.9,2.6l0.6,1.1l-0.9,0.4L74.6,38.7z M75.4,35.7c0-1.4-0.3-2.2-1.3-2.2
				c-1,0-1.3,0.7-1.3,2.2c0,1.4,0.3,2.1,1.3,2.1C75.1,37.8,75.4,37.2,75.4,35.7"/>
			<path id="XMLID_41_" class="st2" d="M80.9,34.4v4.3h-1v-0.2c0,0-0.6,0.3-1.1,0.3c-1.1,0-1.4-0.6-1.4-2.1v-2.2h1v2.2
				c0,0.9,0.1,1.3,0.7,1.3c0.4,0,0.9-0.2,0.9-0.2v-3.3H80.9z"/>
			<path id="XMLID_38_" class="st2" d="M85.1,37.8l0,0.7c0,0-0.8,0.2-1.6,0.2c-1.3,0-1.8-0.8-1.8-2.2c0-1.4,0.6-2.3,1.8-2.3
				c1.2,0,1.8,0.7,1.8,1.9l-0.1,0.7h-2.5c0,0.6,0.2,1,0.9,1C84.2,37.9,85.1,37.8,85.1,37.8 M84.3,36.2c0-0.7-0.2-1.1-0.8-1.1
				c-0.6,0-0.8,0.4-0.8,1.1H84.3z"/>
			<path id="XMLID_37_" class="st2" d="M89.2,35.3c0,0-1-0.1-1.5-0.1c-0.4,0-0.7,0.2-0.7,0.5c0,0.3,0.2,0.3,0.8,0.5
				c1.1,0.2,1.5,0.5,1.5,1.3c0,1-0.7,1.4-1.7,1.4c-0.6,0-1.6-0.2-1.6-0.2l0-0.8c0,0,1,0.1,1.4,0.1c0.6,0,0.8-0.1,0.8-0.5
				c0-0.3-0.1-0.3-0.8-0.5c-1-0.2-1.5-0.4-1.5-1.3c0-1,0.8-1.3,1.6-1.3c0.6,0,1.6,0.2,1.6,0.2L89.2,35.3z"/>
			<path id="XMLID_36_" class="st2" d="M91.6,35.2V37c0,0.6,0.1,0.8,0.4,0.8c0.2,0,0.6,0,0.6,0l0,0.8c0,0-0.5,0.1-0.8,0.1
				c-0.9,0-1.3-0.5-1.3-1.6v-1.9h-0.5v-0.9h0.5v-1.2h1v1.2h1.1v0.9H91.6z"/>
			<path id="XMLID_33_" class="st2" d="M93.7,32.7h1v1h-1V32.7z M93.7,34.4h1v4.3h-1V34.4z"/>
			<path id="XMLID_30_" class="st2" d="M99.3,36.5c0,1.3-0.4,2.2-1.9,2.2c-1.5,0-1.9-0.9-1.9-2.2c0-1.3,0.4-2.2,1.9-2.2
				C98.9,34.3,99.3,35.2,99.3,36.5 M98.3,36.5c0-0.8-0.2-1.4-0.9-1.4c-0.7,0-0.9,0.5-0.9,1.4c0,0.8,0.1,1.4,0.9,1.4
				C98.2,37.9,98.3,37.3,98.3,36.5"/>
			<path id="XMLID_29_" class="st2" d="M100.2,38.6v-4.3h1v0.2c0,0,0.6-0.3,1.1-0.3c1.1,0,1.4,0.8,1.4,2.1v2.2h-1v-2.2
				c0-0.7-0.1-1.3-0.7-1.3c-0.4,0-0.9,0.2-0.9,0.2v3.3H100.2z"/>
			<path id="XMLID_28_" class="st2" d="M107.7,35.3c0,0-1-0.1-1.5-0.1c-0.4,0-0.7,0.2-0.7,0.5c0,0.3,0.2,0.3,0.8,0.5
				c1.1,0.2,1.5,0.5,1.5,1.3c0,1-0.7,1.4-1.7,1.4c-0.6,0-1.6-0.2-1.6-0.2l0-0.8c0,0,1,0.1,1.4,0.1c0.6,0,0.8-0.1,0.8-0.5
				c0-0.3-0.1-0.3-0.8-0.5c-1-0.2-1.5-0.4-1.5-1.3c0-1,0.8-1.3,1.6-1.3c0.6,0,1.6,0.2,1.6,0.2L107.7,35.3z"/>
			<path id="XMLID_27_" class="st2" d="M93.7,13.2c-1.1,0-2.1,0.1-3.1,0.4c-0.5,0.1-0.9,0.3-1.3,0.5c-0.1-0.1-0.2-0.2-0.3-0.3
				c-0.4-0.4-0.9-0.6-1.4-0.6h-2.1V29h4.1v-8.2c0-1.6,0.3-2.2,0.8-2.8c0.5-0.5,1.4-0.8,2.5-0.8h1.8v-4H93.7"/>
			<path id="XMLID_26_" class="st2" d="M18.7,8.6h-2.1V27c0,0.5,0.2,1,0.6,1.4c0.4,0.4,0.9,0.6,1.4,0.6h2.1V10.5
				c0-0.5-0.2-1-0.6-1.4C19.7,8.8,19.2,8.6,18.7,8.6"/>
			<path id="XMLID_23_" class="st2" d="M29.4,25.8c2.4,0,3.2-2.6,3.2-4.7s-0.8-4.8-3.2-4.8c-2.4,0-3.2,2.6-3.2,4.8
				S27,25.8,29.4,25.8 M29.4,12.8c4.6,0,7.2,3.1,7.2,8.2c0,5.1-2.6,8.1-7.2,8.1c-4.7,0-7.2-3-7.2-8.1C22.2,15.9,24.7,12.8,29.4,12.8
				"/>
			<path id="XMLID_22_" class="st2" d="M8.2,25.8C5.7,25.8,5,23.2,5,21s0.7-4.8,3.2-4.8c1.3,0,2.1,0.7,2.6,1.7H15
				c-0.9-3.3-3.2-5.1-6.8-5.1C3.5,12.8,1,15.9,1,21c0,5.1,2.5,8.1,7.2,8.1c3.6,0,6-1.9,6.8-5.1h-2.8c0,0-0.8,0-1.2,0.4
				C10.3,25.1,9.7,25.8,8.2,25.8"/>
			<path id="XMLID_21_" class="st2" d="M51.2,13.8c-0.4-0.4-0.9-0.6-1.4-0.6h-2.1v9.9c0,0.9-0.3,1.6-0.9,2.1
				c-0.6,0.4-1.2,0.6-1.9,0.6c-0.7,0-1.3-0.2-1.9-0.6c-0.6-0.4-0.9-1.1-0.9-2.1v-7.9c0-0.5-0.2-1-0.6-1.4c-0.4-0.4-0.9-0.6-1.4-0.6
				h-2.1v9.2c0,2.8,0.8,4.5,2.2,5.5c1.4,1,2.9,1.3,4.6,1.3c1.7,0,3.3-0.3,4.6-1.3c1.4-1,2.2-2.7,2.2-5.5v-7.2
				C51.8,14.7,51.6,14.2,51.2,13.8"/>
			<path id="XMLID_18_" class="st2" d="M67.5,9.1c-0.4-0.4-0.9-0.6-1.4-0.6H64v5.8c-0.6-0.6-1.9-1.6-3.9-1.6c-4.2,0-6.6,3.1-6.6,8.2
				c0,5.1,2.5,8.1,7.3,8.1c4.7,0,7.3-3,7.3-8.1h0V10.5C68,10,67.8,9.5,67.5,9.1 M60.7,25.8c-2.5,0-3.2-2.6-3.2-4.7s0.8-4.8,3.2-4.8
				c2.5,0,3.3,2.6,3.3,4.7v0.1h0C64,23.2,63.2,25.8,60.7,25.8"/>
			<path id="XMLID_15_" class="st2" d="M83.9,20.1c0,0.3-0.1,0.6-0.2,0.9c-0.1,0.2-0.2,0.3-0.3,0.5c-0.4,0.4-0.8,0.6-1.4,0.6h-8.3
				c0.1,1.9,1.1,3.7,3.1,3.7c1.5,0,2.1-0.6,2.9-1.3c0.4-0.4,1.2-0.4,1.2-0.4h2.8c-0.9,3.2-3.2,5.1-6.8,5.1c-4.7,0-7.2-3-7.2-8.1
				c0-5.1,2.5-8.2,7.2-8.2c3.6,0,6,1.9,6.8,5.1c0.2,0.6,0.3,1.2,0.3,1.9L83.9,20.1z M76.8,16.3c-1.7,0-2.8,1.3-3,2.8h5.9
				C79.7,17.5,78.4,16.3,76.8,16.3"/>
			<path id="XMLID_12_" class="st2" d="M108.4,17.2c0-1.4-0.6-2.5-1.7-3.3c-1.1-0.7-2.7-1.1-4.9-1.1c-2,0-3.5,0.4-4.5,1.3
				c-0.9,0.8-1.5,1.8-1.7,3h3.9c0.2-0.5,0.5-0.8,1-0.9c0.4-0.2,0.9-0.2,1.5-0.2c0.7,0,1.2,0.1,1.7,0.3c0.6,0.2,0.9,0.6,0.9,1.1
				c0,0.6-0.9,1.2-2.6,1.4c-2.1,0.3-3.7,0.5-5.2,1.6c-1,0.7-1.6,2-1.6,3.6c0,1.7,0.5,3,1.6,3.8c0.9,0.7,2.4,1.3,4.9,1.3
				c2.2,0,3.8-0.5,4.9-1.2c1.1-0.8,1.8-1.7,1.8-3.3V17.2z M104,24.9c-0.6,0.6-1.5,0.9-2.6,0.9c-0.3,0-1.4-0.1-1.9-0.5
				C99.2,25,99,24.6,99,24.1c0-0.4,0.1-0.8,0.4-1.1c0.6-0.6,1.2-0.7,2.6-1c0.9-0.2,2-0.5,2.6-0.9v1.2
				C104.6,23.4,104.6,24.2,104,24.9"/>
			<path id="XMLID_7_" class="st2" d="M111,12.9c0.9,0,1.6,0.7,1.6,1.6c0,0.9-0.6,1.6-1.6,1.6c-0.9,0-1.6-0.7-1.6-1.6
				C109.4,13.7,110,12.9,111,12.9 M111,15.9c0.7,0,1.3-0.6,1.3-1.4c0-0.8-0.6-1.4-1.3-1.4c-0.7,0-1.3,0.6-1.3,1.4
				C109.6,15.3,110.2,15.9,111,15.9 M111,14.8h-0.3v0.7h-0.3v-1.9h0.6c0.5,0,0.7,0.1,0.7,0.6c0,0.3-0.1,0.5-0.3,0.6l0.3,0.7h-0.4
				L111,14.8z M110.6,14.5h0.4c0.2,0,0.3-0.1,0.3-0.3c0-0.2-0.1-0.3-0.4-0.3h-0.3V14.5z"/>
		</g>
	</g>
	<text id="XMLID_3_" transform="matrix(1 0 0 1 141.7893 32.4203)" class="st1 st3 st4">classroom</text>
</g>
</svg>
