<?xml version="1.0" encoding="UTF-8"?>
<!DOCTYPE svg PUBLIC "-//W3C//DTD SVG 1.1//EN" "http://www.w3.org/Graphics/SVG/1.1/DTD/svg11.dtd">
<!-- Creator: CorelDRAW X7 -->
<svg xmlns="http://www.w3.org/2000/svg" xml:space="preserve" width="100mm" height="27mm" version="1.1" style="shape-rendering:geometricPrecision; text-rendering:geometricPrecision; image-rendering:optimizeQuality; fill-rule:evenodd; clip-rule:evenodd"
viewBox="0 0 10000 2700"
 xmlns:xlink="http://www.w3.org/1999/xlink">
 <defs>
  <style type="text/css">
   <![CDATA[
    .fil0 {fill:#FEFEFE;fill-rule:nonzero}
   ]]>
  </style>
 </defs>
 <g id="Layer_x0020_1">
  <metadata id="CorelCorpID_0Corel-Layer"/>
  <g id="_799188080">
   <path class="fil0" d="M4851 2575l393 0 0 -115 -48 0 0 70 -221 0 0 -202 202 0 0 -45 -202 0 0 -198 206 0 0 66 49 0 0 -112 -379 0 0 45 70 0 0 447 -70 0 0 44zm477 -270c0,155 120,279 273,279 68,0 128,-22 176,-63l65 67 32 -33 -66 -67c43,-48 67,-113 67,-186 0,-155 -120,-272 -274,-272 -153,0 -273,119 -273,275l0 0zm56 0c0,-130 95,-226 217,-226 125,0 220,97 220,225 0,57 -19,109 -50,149l-81 -84 -31 33 81 83c-37,33 -91,51 -139,51 -122,0 -217,-102 -217,-231l0 0zm628 73c0,51 9,92 32,126 35,52 98,80 174,80 74,0 135,-28 171,-80 22,-32 34,-77 34,-126l0 -294 71 0 0 -45 -194 0 0 45 70 0 0 292c0,38 -8,70 -24,97 -23,41 -70,63 -128,63 -58,0 -104,-22 -129,-61 -16,-25 -24,-59 -24,-98l0 -293 70 0 0 -45 -193 0 0 45 70 0 0 294zm548 197l194 0 0 -44 -70 0 0 -447 70 0 0 -45 -194 0 0 45 70 0 0 447 -70 0 0 44zm387 0l194 0 0 -44 -70 0 0 -446 149 0 0 87 49 0 0 -133 -450 0 0 133 48 0 0 -87 151 0 0 446 -71 0 0 44zm495 0l194 0 0 -44 -70 0 0 -186 158 -261 52 0 0 -45 -168 0 0 45 59 0 -116 195 -8 13c-2,3 -2,5 -3,7l-2 0c0,-2 -1,-4 -3,-7l-7 -13 -116 -195 59 0 0 -45 -169 0 0 45 53 0 158 261 0 186 -71 0 0 44z"/>
   <path class="fil0" d="M4929 239c0,61 44,101 108,101 63,0 107,-40 107,-101l0 -176 -38 0 0 175c0,43 -28,67 -70,67 -41,0 -68,-24 -68,-66l0 -176 -39 0 0 176zm285 96l38 0 0 -176c0,-16 -2,-40 -2,-40l0 0c0,0 13,25 23,40l122 176 37 0 0 -272 -38 0 0 177c0,15 3,39 3,39l-1 0c0,0 -13,-24 -23,-39l-121 -177 -38 0 0 272zm292 0l38 0 0 -272 -38 0 0 272zm179 0l38 0 100 -272 -40 0 -69 193c-5,14 -10,37 -10,37l-1 0c0,0 -5,-23 -10,-37l-68 -193 -41 0 101 272zm177 0l165 0 0 -33 -126 0 0 -87 97 0 0 -34 -97 0 0 -85 120 0 0 -33 -159 0 0 272zm222 0l38 0 0 -108 58 0 57 108 44 0 -58 -105c-5,-9 -8,-13 -8,-13l0 0c29,-10 49,-39 49,-74 0,-36 -18,-63 -46,-74 -11,-4 -23,-6 -51,-6l-83 0 0 272zm38 -141l0 -98 44 0c21,0 30,3 37,6 14,8 22,22 22,42 0,31 -19,50 -49,50l-54 0zm188 110c0,0 32,36 90,36 54,0 87,-35 87,-77 0,-88 -132,-73 -132,-129 0,-22 20,-40 49,-40 35,0 60,23 60,23l17 -31c0,0 -26,-28 -77,-28 -51,0 -88,34 -88,76 0,84 132,71 132,130 0,26 -21,41 -47,41 -40,0 -69,-30 -69,-30l-22 29zm232 31l38 0 0 -272 -38 0 0 272zm170 0l38 0 0 -239 94 0 0 -33 -225 0 0 33 93 0 0 239zm237 0l38 0 0 -115 91 -157 -43 0 -50 90c-8,15 -16,34 -16,34l-1 0c0,0 -8,-19 -17,-34l-50 -90 -43 0 91 157 0 115zm250 -138c0,81 61,143 140,143 79,0 140,-62 140,-143 0,-78 -61,-139 -140,-139 -79,0 -140,61 -140,139zm39 0c0,-59 46,-104 101,-104 56,0 100,45 100,104 0,62 -44,108 -100,108 -55,0 -101,-46 -101,-108zm296 138l39 0 0 -116 95 0 0 -33 -95 0 0 -90 112 0 0 -33 -151 0 0 272z"/>
   <path class="fil0" d="M2915 1144c0,230 163,406 404,406 120,0 309,-46 309,-169l0 -191 -222 0 0 45 174 0 0 140c0,101 -182,129 -266,129 -206,0 -349,-154 -349,-358 0,-204 137,-362 353,-362 107,0 243,42 243,125l0 60 49 0 0 -75c0,-100 -156,-156 -290,-156 -245,0 -405,178 -405,406zm899 269c0,87 38,126 106,126 12,0 20,0 28,-1 4,-1 9,-1 12,-1l1 -44c-3,0 -5,0 -9,1 -3,1 -12,1 -24,1 -54,0 -67,-43 -67,-86l0 -657 -152 0 0 43 105 0 0 618zm232 -160c0,167 131,297 291,297 160,0 290,-130 290,-297 0,-164 -130,-291 -290,-291 -160,0 -291,127 -291,291zm50 0c0,-139 107,-245 241,-245 133,0 241,106 241,245 0,143 -108,251 -241,251 -134,0 -241,-108 -241,-251zm694 284l47 0 0 -64c0,-15 -1,-27 -2,-36l-2 -14 2 0c10,24 25,44 44,63 31,31 78,64 150,64 147,0 251,-116 251,-294 0,-175 -93,-294 -242,-294 -78,0 -128,32 -159,63 -19,19 -34,41 -44,64l-2 0 2 -13c1,-8 2,-21 2,-33l0 -291 -154 0 0 43 107 0 0 742zm46 -280c0,-176 96,-249 200,-249 113,0 195,97 195,248 0,157 -89,248 -200,248 -131,0 -195,-122 -195,-247l0 0zm551 127c0,117 98,166 188,166 76,0 123,-35 155,-70 19,-20 33,-42 44,-68l2 0 -2 13c-2,9 -3,21 -3,37l0 13c0,44 19,62 65,62l74 0 0 -44 -67 0c-17,0 -25,-8 -25,-25l0 -299c0,-138 -65,-207 -195,-207 -61,0 -110,14 -142,31 -19,9 -36,19 -51,31l27 38c14,-10 29,-20 46,-28 31,-13 70,-27 119,-27 89,0 149,43 149,163l0 25 -37 0c-95,0 -347,3 -347,189l0 0zm49 -6c0,-150 258,-140 299,-140l36 0 0 31c0,112 -66,237 -196,237 -91,0 -139,-61 -139,-128l0 0zm604 35c0,87 39,126 106,126 12,0 20,0 28,-1 4,-1 9,-1 12,-1l1 -44c-3,0 -5,0 -9,1 -3,1 -12,1 -24,1 -54,0 -66,-43 -66,-86l0 -657 -153 0 0 43 105 0 0 618zm516 124l262 0 0 -45 -107 0 0 -327 498 0 0 327 -106 0 0 45 261 0 0 -45 -107 0 0 -696 107 0 0 -44 -261 0 0 44 106 0 0 324 -498 0 0 -324 107 0 0 -44 -262 0 0 44 107 0 0 696 -107 0 0 45zm904 -280c0,179 132,293 290,293 61,0 111,-20 145,-39 21,-11 39,-24 54,-38l-26 -40c-12,13 -28,25 -46,35 -30,18 -74,36 -127,36 -130,0 -240,-93 -240,-256l449 0c0,-3 0,-6 1,-10 2,-5 2,-14 2,-20 0,-136 -76,-256 -229,-256 -144,0 -273,107 -273,295zm53 -52c21,-132 116,-199 219,-199 94,0 175,61 180,199l-399 0zm552 179c0,117 98,166 188,166 76,0 124,-35 155,-70 19,-20 34,-42 44,-68l2 0 -2 13c-1,9 -3,21 -3,37l0 13c0,44 20,62 65,62l75 0 0 -44 -68 0c-17,0 -24,-8 -24,-25l0 -299c0,-138 -66,-207 -196,-207 -61,0 -110,14 -142,31 -19,9 -36,19 -50,31l26 38c14,-10 30,-20 46,-28 31,-13 70,-27 119,-27 89,0 149,43 149,163l0 25 -37 0c-95,0 -347,3 -347,189l0 0zm49 -6c0,-150 258,-140 300,-140l35 0 0 31c0,112 -66,237 -196,237 -91,0 -139,-61 -139,-128l0 0zm605 35c0,87 38,126 105,126 12,0 20,0 28,-1 5,-1 9,-1 12,-1l2 -44c-4,0 -6,0 -9,1 -4,1 -13,1 -25,1 -54,0 -66,-43 -66,-86l0 -657 -153 0 0 43 106 0 0 618zm301 -79c0,186 120,207 179,207 10,0 16,0 20,-1 3,-1 5,-1 8,-1l0 -44c-1,0 -4,0 -7,1 -3,1 -9,1 -19,1 -45,0 -134,-19 -134,-167l0 -310 147 0 0 -44 -147 0 0 -156 -47 0 0 156 -106 0 0 44 106 0 0 314zm260 203l249 0 0 -44 -101 0 0 -230c0,-148 106,-255 236,-255 126,0 138,91 138,190l0 339 148 0 0 -44 -101 0 0 -312c0,-131 -38,-219 -185,-219 -139,0 -220,106 -238,158l-2 0 2 -13c1,-8 2,-20 2,-32l0 -323 -153 0 0 43 106 0 0 698 -101 0 0 44z"/>
   <polygon class="fil0" points="2692,229 4428,229 4428,264 2692,264 "/>
   <polygon class="fil0" points="2692,2304 4428,2304 4428,2339 2692,2339 "/>
   <polygon class="fil0" points="8112,229 9848,229 9848,264 8112,264 "/>
   <polygon class="fil0" points="8112,2304 9848,2304 9848,2339 8112,2339 "/>
   <path class="fil0" d="M2144 193c0,0 -319,-176 -1005,-176 -687,0 -1006,176 -1006,176l-44 231 0 0c0,0 363,-158 1050,-158 690,0 1050,158 1050,158l-45 -231z"/>
   <path class="fil0" d="M2189 513l-3 -22 -21 -7c-327,-102 -671,-153 -1025,-153 -367,0 -733,55 -1033,154l-20 6 -3 22c-2,12 -3,23 -4,35 -1,4 -2,9 -3,15 -1,9 -2,18 -3,27 -3,28 -6,54 -8,81 -11,113 -13,170 -14,179 -7,100 3,327 50,534 32,133 49,186 73,251 4,9 7,18 10,26 5,12 10,25 15,39 24,64 56,127 88,184 0,0 0,1 0,1 9,17 19,33 28,48 5,9 10,18 16,27 203,333 471,574 794,717l14 6 14 -7c247,-114 586,-327 801,-696 228,-392 307,-886 234,-1467zm-967 1724c-9,-47 -105,-244 -121,-284 -1,7 64,319 7,453 -6,15 -98,-139 -98,-124 3,58 13,170 7,242 0,8 -149,-68 -208,-111 -183,-132 -211,-175 -247,-219 -22,-27 -84,-105 -153,-230 -31,-56 -70,-281 -70,-281 -12,48 -12,184 -12,184 -26,-27 -81,-329 -89,-450 0,0 -15,242 -23,220 -140,-376 -133,-692 -125,-788 7,-99 17,-167 26,-211 21,-11 49,-25 83,-41 75,-36 155,-68 168,-74 51,-23 109,-35 169,-41 94,-8 194,1 279,15 14,2 39,6 53,9 17,4 -36,-49 -36,-49 92,4 154,58 163,61 0,0 -17,-74 -54,-96 122,11 262,8 287,147 -9,-50 114,-162 106,-174 58,93 76,316 55,427 -2,9 -6,18 -12,22 86,69 127,112 169,194 16,30 34,80 48,93 15,15 185,140 263,244 2,2 -8,23 -23,53 -40,-28 -122,-58 -118,-41 0,0 46,95 74,127 -24,44 -49,90 -70,124 -24,9 -59,14 -80,17 -91,10 -190,-65 -268,-23 -63,34 8,189 46,208 60,22 107,-60 136,-52 28,6 -6,74 -6,74 0,0 -175,250 -264,390 12,-176 -16,-520 -112,-751 94,-30 -29,-304 -24,-448 0,-14 -18,-8 -14,-20 -27,81 -50,154 -50,258 0,228 123,400 146,615 12,118 15,227 -8,331zm-576 -1431l0 0c111,-76 219,43 265,121 12,-44 26,-86 26,-141 -66,-68 -252,-77 -291,20zm150 413l0 0c8,-23 15,-46 23,-69 -83,-17 -122,-296 -173,-344 37,74 88,364 150,413zm699 -125l0 0c-30,-12 -107,9 -148,29 77,-16 171,70 181,56 10,-14 -4,-73 -33,-85z"/>
  </g>
 </g>
</svg>
