<?xml version="1.0" encoding="UTF-8"?>
<!DOCTYPE svg PUBLIC "-//W3C//DTD SVG 1.1//EN" "http://www.w3.org/Graphics/SVG/1.1/DTD/svg11.dtd">
<!-- Creator: CorelDRAW X7 -->
<svg xmlns="http://www.w3.org/2000/svg" xml:space="preserve" width="81mm" height="100mm" version="1.1" style="shape-rendering:geometricPrecision; text-rendering:geometricPrecision; image-rendering:optimizeQuality; fill-rule:evenodd; clip-rule:evenodd"
viewBox="0 0 8100 10000"
 xmlns:xlink="http://www.w3.org/1999/xlink">
 <defs>
  <style type="text/css">
   <![CDATA[
    .fil1 {fill:#C42927;fill-rule:nonzero}
    .fil0 {fill:#474143;fill-rule:nonzero}
   ]]>
  </style>
 </defs>
 <g id="Layer_x0020_1">
  <metadata id="CorelCorpID_0Corel-Layer"/>
  <g id="_794968112">
   <path class="fil0" d="M7808 704c0,0 -1187,-654 -3735,-654 -2552,0 -3735,654 -3735,654l-164 855 -1 3c0,0 1348,-589 3900,-589 2562,0 3899,589 3899,589l-164 -858z"/>
   <path class="fil1" d="M7973 1890l-11 -82 -78 -25c-1212,-377 -2493,-568 -3807,-568 -1362,0 -2724,203 -3835,571l-76 25 -11 79c-6,44 -11,88 -16,131 -4,16 -7,34 -9,54 -4,36 -8,70 -11,104 -12,100 -22,200 -31,300 -40,417 -49,631 -51,662 -29,372 11,1217 184,1986 119,493 182,689 273,931 12,33 24,66 37,99 17,44 35,91 54,142 91,239 207,473 326,685 0,1 1,2 2,4 34,61 69,121 103,178 20,34 38,68 59,101 756,1237 1749,2132 2950,2661l52 22 52 -24c917,-423 2177,-1216 2975,-2585 849,-1457 1141,-3291 869,-5451zm-3590 6404c-33,-172 -393,-905 -450,-1053 -6,23 236,1184 27,1683 -23,54 -367,-519 -364,-462 11,214 46,631 25,900 -2,28 -553,-254 -773,-413 -680,-490 -785,-651 -918,-813 -83,-101 -313,-392 -567,-854 -116,-210 -259,-1044 -259,-1044 -47,178 -48,682 -48,682 -94,-98 -298,-1223 -331,-1670 0,0 -53,898 -84,815 -520,-1395 -492,-2568 -466,-2925 28,-368 66,-621 97,-784 79,-40 182,-92 308,-153 282,-134 579,-252 627,-274 187,-85 403,-132 627,-152 350,-31 720,2 1036,54 53,8 145,24 195,35 66,14 -131,-182 -131,-182 341,13 571,214 606,225 0,0 -65,-276 -201,-354 454,38 974,26 1063,545 -32,-185 424,-602 396,-646 214,342 284,1172 205,1586 -8,32 -22,66 -46,82 318,253 474,413 630,718 57,113 126,298 175,346 58,56 690,521 979,908 6,7 -29,85 -84,197 -150,-106 -455,-216 -439,-155 0,0 169,353 274,472 -88,164 -184,336 -261,463 -88,32 -217,52 -298,61 -337,37 -705,-241 -995,-84 -231,124 30,701 172,772 221,82 397,-224 505,-192 103,20 -21,272 -21,272 0,0 -653,932 -981,1449 43,-653 -60,-1928 -418,-2789 349,-112 -106,-1128 -89,-1665 2,-52 -64,-28 -51,-71 -99,299 -187,570 -187,955 0,849 457,1488 543,2288 46,435 55,840 -28,1227zm-2141 -5315l0 0c411,-281 815,161 983,449 46,-162 98,-318 100,-524 -247,-250 -937,-285 -1083,75zm558 1535l0 0c30,-84 57,-172 85,-259 -310,-60 -453,-1096 -643,-1276 139,274 326,1354 558,1535zm2594 -465l0 0c-111,-43 -397,33 -546,109 283,-60 632,257 671,206 38,-50 -14,-271 -125,-315z"/>
  </g>
 </g>
</svg>
