<?xml version="1.0" encoding="utf-8"?>
<!-- Generator: Adobe Illustrator 19.0.0, SVG Export Plug-In . SVG Version: 6.00 Build 0)  -->
<svg version="1.1" id="Layer_1" xmlns="http://www.w3.org/2000/svg" xmlns:xlink="http://www.w3.org/1999/xlink" x="0px" y="0px"
	 viewBox="0 0 221.1 283.5" style="enable-background:new 0 0 221.1 283.5;" xml:space="preserve">
<style type="text/css">
	.st0{fill:#FFFFFF;}
	.st1{fill:#BCBEC0;}
</style>
<g id="XMLID_18_">
	<polygon id="XMLID_3_" class="st0" points="221,1.4 221,40 167.3,74.3 167.3,86.7 221,52.4 221,90.2 167.3,124.5 167.3,136.9 
		221,102.7 221,142.2 110.6,211.6 110.6,71.8 	"/>
	<polygon id="XMLID_2_" class="st1" points="0.1,1.4 221,142.2 221,205.9 160.9,167.6 160.9,179.6 221,218.4 221,282 32.4,161.8 
		32.4,71.8 0.1,52.4 	"/>
	<polygon id="XMLID_1_" class="st0" points="0.1,142.2 49.4,110.4 49.4,186.4 60.3,179.6 60.3,103.8 110.6,71.8 110.6,211.6 
		0.1,282 	"/>
</g>
</svg>
