<?xml version="1.0" encoding="utf-8"?>
<!-- Generator: Adobe Illustrator 19.0.0, SVG Export Plug-In . SVG Version: 6.00 Build 0)  -->
<svg version="1.0" id="Layer_1" xmlns="http://www.w3.org/2000/svg" xmlns:xlink="http://www.w3.org/1999/xlink" x="0px" y="0px"
	 viewBox="0 0 283.5 283.5" style="enable-background:new 0 0 283.5 283.5;" xml:space="preserve">
<style type="text/css">
	.st0{fill:#FFFFFF;}
</style>
<path id="XMLID_5_" class="st0" d="M0.1,0v283.5h283.5V0H0.1z M216.4,244.6H69.2v-36.1l49.5-50.1c14.2-14.8,23.4-24.9,27.7-30.3
	c4.3-5.4,7.4-10.1,9.1-13.9c1.7-3.9,2.6-8,2.6-12.2c0-5.3-1.7-9.4-5.1-12.5c-3.4-3.1-8.2-4.6-14.4-4.6c-6.4,0-12.8,1.8-19.4,5.5
	c-6.5,3.7-13.9,9-22.1,16.2L67,71.3c10.5-9.3,19.2-16,26.4-20c7.1-4,14.9-7.1,23.2-9.2c8.4-2.1,17.8-3.2,28.2-3.2
	c13.1,0,24.9,2.3,35.2,6.9c10.3,4.6,18.3,11.2,24,19.8c5.7,8.6,8.5,18.2,8.5,28.8c0,8-1,15.3-3,22.1c-2,6.8-5.1,13.4-9.2,19.9
	c-4.2,6.5-9.7,13.4-16.6,20.6c-6.9,7.2-21.6,20.9-44,41.1v1.4h76.7V244.6z"/>
<g id="XMLID_1_">
</g>
<g id="XMLID_2_">
</g>
<g id="XMLID_6_">
</g>
<g id="XMLID_7_">
</g>
<g id="XMLID_8_">
</g>
<g id="XMLID_9_">
</g>
</svg>
