<?xml version="1.0" encoding="utf-8"?>
<!-- Generator: Adobe Illustrator 19.0.0, SVG Export Plug-In . SVG Version: 6.00 Build 0)  -->
<svg version="1.1" id="Layer_1" xmlns="http://www.w3.org/2000/svg" xmlns:xlink="http://www.w3.org/1999/xlink" x="0px" y="0px"
	 viewBox="0 0 283.5 155.9" style="enable-background:new 0 0 283.5 155.9;" xml:space="preserve">
<style type="text/css">
	.st0{fill:#1E5388;}
	.st1{fill:#2E70B8;stroke:#FFFFFF;stroke-width:0.9991;}
	.st2{enable-background:new    ;}
	.st3{fill:#FFFFFF;}
</style>
<rect id="rect3753_1_" x="0" y="-0.9" inkscape:export-ydpi="90" inkscape:export-xdpi="90" class="st0" width="283.5" height="157.8">
</rect>
<g id="layer2_1_" inkscape:groupmode="layer" inkscape:label="two">
	
		<path id="path3793_1_" sodipodi:rx="74.64286" sodipodi:type="arc" sodipodi:cy="491.64789" sodipodi:cx="336.07144" sodipodi:ry="68.571426" class="st1" d="
		M274.3,59c0,29.5-24,53.4-53.6,53.4c-29.6,0-53.6-23.9-53.6-53.3c0,0,0,0,0,0c0-29.5,24-53.4,53.6-53.4
		C250.3,5.6,274.3,29.5,274.3,59C274.3,58.9,274.3,59,274.3,59z"/>
</g>
<g id="layer1_1_" inkscape:groupmode="layer" inkscape:label="text">
	<g id="XMLID_1_" class="st2">
		<path id="XMLID_19_" class="st3" d="M28.2,90.9c-5.8,0-10.4-2.3-13.7-6.9c-3.3-4.6-5-11-5-19.2c0-8.3,1.7-14.8,5.1-19.4
			c3.4-4.6,8-6.9,14-6.9c6.2,0,11,2.5,14.3,7.4h0.4c-0.7-3.8-1-7.1-1-10.1V19.6h13.6V90H45.5l-2.6-6.6h-0.6
			C39.2,88.4,34.5,90.9,28.2,90.9z M33,79.9c3.5,0,6-1,7.6-3.1c1.6-2.1,2.5-5.5,2.6-10.5v-1.5c0-5.4-0.8-9.3-2.5-11.7
			s-4.3-3.5-8-3.5c-3,0-5.4,1.3-7,3.9c-1.7,2.6-2.5,6.4-2.5,11.4c0,5,0.8,8.7,2.5,11.2S29.8,79.9,33,79.9z"/>
		<path id="XMLID_22_" class="st3" d="M115.7,90h-13.5V60.4c0-7.3-2.7-11-8-11c-3.8,0-6.5,1.3-8.2,3.9c-1.7,2.6-2.5,6.9-2.5,12.8V90
			H70V19.6h13.5v14.4c0,1.1-0.1,3.7-0.3,7.9l-0.3,4.1h0.7c3-4.9,7.8-7.4,14.4-7.4c5.8,0,10.2,1.6,13.2,4.8c3,3.2,4.5,7.8,4.5,13.8
			V90z"/>
		<path id="XMLID_24_" class="st3" d="M129,26.3c0-4.5,2.5-6.7,7.4-6.7c4.9,0,7.4,2.2,7.4,6.7c0,2.1-0.6,3.8-1.8,5
			c-1.2,1.2-3.1,1.8-5.5,1.8C131.5,33.1,129,30.8,129,26.3z M143.1,90h-13.5V39.4h13.5V90z"/>
		<path id="XMLID_27_" class="st3" d="M191.8,75c0,5.2-1.8,9.1-5.3,11.9c-3.5,2.7-8.8,4.1-15.8,4.1c-3.6,0-6.7-0.2-9.2-0.7
			c-2.5-0.5-4.9-1.2-7.1-2.2V76.5c2.5,1.2,5.3,2.2,8.5,3c3.1,0.8,5.9,1.2,8.3,1.2c4.9,0,7.4-1.4,7.4-4.3c0-1.1-0.3-2-1-2.6
			c-0.7-0.7-1.8-1.4-3.4-2.3c-1.6-0.9-3.7-1.9-6.4-3c-3.8-1.6-6.6-3.1-8.4-4.5c-1.8-1.4-3.1-3-3.9-4.8c-0.8-1.8-1.2-4-1.2-6.6
			c0-4.5,1.7-8,5.1-10.4c3.4-2.5,8.2-3.7,14.5-3.7c6,0,11.8,1.3,17.4,4l-4.1,10c-2.5-1.1-4.8-2-7-2.7c-2.2-0.7-4.4-1-6.6-1
			c-4,0-6,1.1-6,3.3c0,1.2,0.6,2.3,1.9,3.2c1.3,0.9,4.1,2.2,8.4,4c3.9,1.6,6.7,3.1,8.5,4.5s3.1,3,4,4.8
			C191.4,70.3,191.8,72.5,191.8,75z"/>
		<path id="XMLID_29_" class="st3" d="M244.2,90h-45.3v-9.7l16.3-16.8c4.8-5,8-8.5,9.4-10.5c1.5-1.9,2.5-3.7,3.2-5.4
			c0.6-1.7,1-3.4,1-5.2c0-2.7-0.7-4.6-2.1-5.9c-1.4-1.3-3.3-1.9-5.7-1.9c-2.5,0-4.9,0.6-7.3,1.8c-2.4,1.2-4.8,2.9-7.4,5l-7.4-9
			c3.2-2.8,5.8-4.7,7.9-5.9c2.1-1.1,4.4-2,6.9-2.6c2.5-0.6,5.3-0.9,8.3-0.9c4,0,7.6,0.8,10.7,2.3c3.1,1.5,5.5,3.6,7.2,6.3
			c1.7,2.7,2.6,5.8,2.6,9.3c0,3-0.5,5.9-1.6,8.6c-1,2.7-2.7,5.4-4.9,8.2s-6.1,6.8-11.6,12l-8.3,8v0.6h28.2V90z"/>
	</g>
</g>
<g id="XMLID_2_">
	<path id="XMLID_17_" class="st3" d="M206.8,137.1c-2.2,0-4.4,0-6.6,0c-0.2-0.2-0.1-0.4-0.1-0.6c0-5.8,0-11.5,0-17.3
		c0-0.2-0.1-0.4,0.1-0.6c2.2,0,4.3,0,6.6,0c0,0.6,0,1.2,0,1.9c1.1-0.6,2-1.2,2.9-1.6c2.2-1.1,4.6-1.2,6.8-0.2
		c1.1,0.5,2.1,1.5,3.1,2.3c1.4-0.7,2.9-1.7,4.6-2.4c1.7-0.7,3.5-0.7,5.3-0.2c2.6,0.7,4.1,2.7,4.2,5.9c0.1,4.3,0,8.5,0,12.9
		c-2.2,0-4.4,0-6.6,0c-0.2-0.1-0.2-0.3-0.2-0.5c0-3,0-6,0-9.1c0-0.2,0-0.3,0.1-0.4c0-0.4,0-0.7,0-1.1c0,0,0-0.1,0-0.1
		c0,0,0-0.1,0-0.1c0.1-2.6-1.3-3.1-3.6-3c-0.9,0.1-1.9,0.5-2.7,0.9c-0.2,0.1-0.4,0.6-0.4,0.9c0,3.8,0,7.6,0,11.3c0,0.3,0,0.7,0,1.1
		c-2.2,0-4.4,0-6.6,0c-0.2-0.1-0.1-0.3-0.1-0.5c0-3.2,0-6.5,0-9.7c0-0.1,0-0.2,0.1-0.3c0-0.3,0-0.6,0-0.9c0-0.1,0-0.1,0-0.2
		c-0.2-1.9-0.8-2.5-2.7-2.6c-1.5-0.1-2.8,0.3-4,1.2c0.1,0.2,0.1,0.4,0.1,0.6c0,3.9,0,7.9,0,11.8C206.9,136.7,207.1,137,206.8,137.1z
		"/>
	<path id="XMLID_16_" class="st3" d="M249.5,118.5c2.2,0,4.3,0,6.4,0c0.3,0,0.6,0.4,0.7,0.7c1.4,3.3,2.8,6.7,4.1,10.1
		c0.1,0.4,0.3,0.7,0.5,1.2c1.5-3.8,2.9-7.4,4.3-11c0.3-0.7,0.6-1,1.4-1c1.9,0.1,3.7,0,5.7,0c-0.9,2-1.8,4-2.6,5.9
		c-2.8,6.3-5.6,12.5-8.4,18.8c-0.3,0.6-0.6,0.8-1.3,0.8c-2,0-4,0-6.2,0c0.9-1.9,1.6-3.7,2.5-5.4c0.6-1.1,0.6-2,0.1-3.1
		c-2.4-5.4-4.7-10.9-7.1-16.4C249.6,118.9,249.6,118.8,249.5,118.5z"/>
	<path id="XMLID_15_" class="st3" d="M71.1,130.9c0,1.8,0,3.4,0,4.9c0,0.2-0.3,0.5-0.5,0.6c-4.6,1.8-9.2,1.9-13.8-0.2
		c-3.7-1.7-5.5-5.6-4.8-9.9c0.7-4.4,3.5-7.1,8.4-8c3.3-0.6,6.6-0.3,9.8,0.9c0.6,0.2,0.8,0.5,0.8,1.1c-0.1,1.4,0,2.8,0,4.5
		c-0.6-0.3-1.1-0.4-1.5-0.7c-2.3-1.6-4.7-2.3-7.4-1.5c-1.5,0.4-2.4,1.4-2.9,2.9c-0.5,1.4-0.5,2.9-0.2,4.3c0.5,2.1,2.1,3.4,4.4,3.6
		c2.3,0.2,4.5-0.3,6.4-1.8C70,131.2,70.5,131.2,71.1,130.9z"/>
	<path id="XMLID_12_" class="st3" d="M37.5,136.8c-3.2-7.9-6.5-15.9-9.7-23.8c-0.1-0.3-0.6-0.5-0.9-0.5c-2.1,0-4.2,0-6.4,0
		c-0.8,0-1.2,0.2-1.5,0.9c-3,7.5-6.1,15.1-9.2,22.6c-0.1,0.4-0.3,0.7-0.4,1.2c2.3,0,4.4,0,6.6,0c0.2,0,0.6-0.3,0.7-0.5
		c0.5-1.2,1-2.5,1.4-3.7c0.2-0.5,0.4-0.7,1-0.7c2.9,0,5.8,0,8.7,0c0.5,0,0.7,0.2,0.9,0.6c0.5,1.4,1.1,2.9,1.6,4.3c2.4,0,4.8,0,7.2,0
		C37.5,137,37.5,136.9,37.5,136.8z M20.1,127.6c1.1-2.9,2.2-5.7,3.3-8.8c1.1,3,2.2,5.9,3.3,8.8C24.5,127.6,22.4,127.6,20.1,127.6z"
		/>
	<path id="XMLID_9_" class="st3" d="M138.1,111.4c0,2.6,0,5.1,0,7.8c-0.8-0.3-1.5-0.6-2.2-0.8c-4.5-1.4-9.4,0.5-11.5,4.5
		c-1.1,2.2-1.3,4.6-1,7c1,8,8.2,9,12.6,6.6c0.7-0.4,1.3-0.8,2.1-1.3c0,0.7,0,1.3,0,1.8c2.2,0,4.3,0,6.5,0c0-8.6,0-17.2,0-25.6
		C142.5,111.4,140.3,111.4,138.1,111.4z M138.1,131.6c0,0.2-0.2,0.6-0.4,0.7c-1.5,0.8-3.1,1.1-4.8,0.7c-1.2-0.3-2-1.1-2.4-2.3
		c-0.5-1.6-0.5-3.3-0.1-4.9c0.5-1.9,2-3.2,4-3.3c1.2-0.1,2.4,0.1,3.8,0.2C138.2,125.8,138.2,128.7,138.1,131.6z"/>
	<path id="XMLID_6_" class="st3" d="M106.7,136.6c0-4.1,0-8.2,0-12.3c0-0.2,0.1-0.4-0.1-0.6c-0.4-3-2.4-4.5-5.2-5.1
		c-4.4-0.9-8.7-0.5-13.1,0.3c-0.2,0-0.4,0.2-0.4,0.4c0,1.4,0,2.8,0,4.3c1.4-0.4,2.5-0.7,3.7-1c2.3-0.6,4.6-0.6,6.9,0.1
		c1.2,0.4,1.6,1.1,1.5,2.3c-1.2,0.1-2.5,0.2-3.7,0.3c-2.3,0.2-4.6,0.4-6.8,1.5c-1.6,0.8-2.8,1.9-3.2,3.7c-0.7,3,0.8,5.8,3.8,6.8
		c2.9,1,5.8,0.6,8.5-1c0.5-0.3,0.9-0.6,1.5-1c0,0.7,0,1.3,0,1.9c2.2,0,4.4,0,6.5,0C106.8,137,106.7,136.8,106.7,136.6z M100,131.9
		c0,0.2-0.2,0.5-0.4,0.6c-1.6,1-3.4,1.3-5.2,0.9c-0.8-0.2-1.5-0.6-1.6-1.6c-0.1-1.2,0.2-1.9,1.2-2.4c0.6-0.3,1.2-0.4,1.8-0.5
		c1.3-0.2,2.7-0.3,4.2-0.5C100,129.7,100.1,130.8,100,131.9z"/>
	<path id="XMLID_3_" class="st3" d="M181.8,131.6c-0.7,0.3-1.3,0.7-2,0.9c-3,1.2-6,1.4-9,0.2c-1.6-0.7-2.5-2.2-2.4-3.7
		c4.9,0,9.8,0,15,0c-0.1-1.4,0-2.7-0.2-4c-0.5-3.2-2.2-5.4-5.3-6.3c-3.5-1.1-7.1-1-10.5,0.4c-3.8,1.5-5.8,4.9-5.7,9.2
		c0.1,4,2.2,7,6.1,8.3c4.9,1.7,9.9,1.3,14.8-0.4c0.2-0.1,0.4-0.3,0.4-0.5c0-1.5,0-2.9,0-4.6C182.5,131.4,182.1,131.4,181.8,131.6z
		 M173.2,121.7c2.4,0.1,3.8,1.5,3.5,3.8c-2.5,0-5.1,0-7.7,0c-0.2,0-0.4,0-0.6-0.1C168.3,123,170.2,121.6,173.2,121.7z"/>
</g>
</svg>
