<?xml version="1.0" encoding="UTF-8"?>
<!DOCTYPE svg PUBLIC "-//W3C//DTD SVG 1.1//EN" "http://www.w3.org/Graphics/SVG/1.1/DTD/svg11.dtd">
<!-- Creator: CorelDRAW X7 -->
<svg xmlns="http://www.w3.org/2000/svg" xml:space="preserve" width="100mm" height="100mm" version="1.1" style="shape-rendering:geometricPrecision; text-rendering:geometricPrecision; image-rendering:optimizeQuality; fill-rule:evenodd; clip-rule:evenodd"
viewBox="0 0 10000 10000"
 xmlns:xlink="http://www.w3.org/1999/xlink">
 <defs>
  <style type="text/css">
   <![CDATA[
    .fil3 {fill:#FEFEFE}
    .fil7 {fill:#EBECEC}
    .fil5 {fill:#D9DADA}
    .fil8 {fill:#C5C6C6}
    .fil6 {fill:#B2B3B3}
    .fil0 {fill:#9D9E9E}
    .fil2 {fill:#5B5B5B}
    .fil1 {fill:#FEFEFE;fill-opacity:0.501961}
    .fil4 {fill:#FEFEFE;fill-rule:nonzero;fill-opacity:0.501961}
   ]]>
  </style>
 </defs>
 <g id="Layer_x0020_1">
  <metadata id="CorelCorpID_0Corel-Layer"/>
  <g id="_951383200">
   <rect class="fil0" x="4209" y="6274" width="1220" height="458"/>
   <path class="fil1" d="M2475 913c447,0 809,362 809,809 0,447 -362,810 -809,810 -448,0 -810,-363 -810,-810 0,-447 362,-809 810,-809z"/>
   <path class="fil1" d="M8723 3474c569,0 1030,460 1030,1029 0,568 -461,1029 -1030,1029 -568,0 -1029,-461 -1029,-1029 0,-569 461,-1029 1029,-1029z"/>
   <path class="fil2" d="M2601 2931l4436 0c66,0 121,54 121,121l0 3136c0,66 -55,121 -121,121l-4436 0c-67,0 -122,-55 -122,-121l0 -3136c0,-67 55,-121 122,-121zm99 156l4237 0 0 2577 -4237 0 0 -2577z"/>
   <path class="fil3" d="M7158 5873l0 315c0,66 -55,121 -121,121l-4436 0c-67,0 -122,-55 -122,-121l0 -315 4679 0z"/>
   <polygon class="fil0" points="7158,5820 7158,5873 2479,5873 2479,5820 "/>
   <rect class="fil3" x="3974" y="6673" width="1689" height="119" rx="353" ry="76"/>
   <path class="fil4" d="M4819 847l24 0 24 1 25 0 24 1 24 0 24 1 25 1 14 1c25,1 45,22 44,47 -2,26 -23,45 -48,44l-14 -1 -24 -1 -24 -1 -23 0 -24 -1 -24 0 -23 0 -24 0 -24 0 -24 0 -24 0 -23 1 -24 0 -24 1 -18 1c-25,1 -47,-18 -48,-44 -1,-25 19,-46 44,-47l19 -1 24 -1 24 0 25 -1 24 0 24 -1 25 0zm-441 26c25,-3 47,15 50,40 3,25 -14,47 -39,50l-16 2 -23 3 -23 3 -23 3 -23 4 -23 3 -23 4 -23 3 -2 1c-25,4 -48,-13 -52,-38 -5,-24 12,-48 37,-52l2 -1 24 -4 23 -3 24 -4 23 -3 24 -3 23 -3 24 -3 16 -2zm-454 81c24,-6 49,9 55,34 6,24 -9,49 -34,55l-2 0 -22 6 -22 5 -22 6 -22 6 -22 6 -22 6 -22 6 -18 6c-24,7 -49,-7 -56,-31 -7,-24 6,-50 30,-57l19 -5 22 -7 22 -6 23 -6 22 -6 23 -6 23 -6 22 -5 3 -1zm-441 137c24,-9 50,3 59,26 9,24 -3,50 -27,59l-4 2 -21 8 -21 8 -21 8 -21 9 -21 8 -20 9 -21 9 -16 7c-24,10 -50,-1 -60,-24 -11,-23 0,-50 23,-60l17 -7 21 -9 21 -9 22 -9 21 -8 21 -9 22 -8 21 -9 5 -1zm-421 189c23,-12 50,-3 62,19 12,23 3,50 -19,62l-2 1 -19 10 -20 11 -20 11 -19 10 -19 11 -20 11 -19 11 -19 12 0 0c-22,13 -50,6 -63,-16 -13,-22 -6,-50 16,-63l0 0 20 -11 20 -12 20 -11 19 -11 20 -11 20 -11 21 -11 20 -11 1 -1zm-394 240c21,-15 49,-10 64,11 14,21 9,49 -11,64l-15 10 -18 13 -18 13 -18 13 -18 13 -18 13 -18 13 -17 14 -6 4c-20,15 -48,12 -64,-8 -15,-20 -12,-49 8,-64l6 -5 18 -14 18 -13 19 -14 18 -13 18 -13 19 -14 18 -13 15 -10zm-362 286c19,-17 48,-16 65,3 16,19 15,48 -4,65l-7 6 -17 15 -16 15 -16 15 -16 15 -16 15 -16 15 -16 16 -11 11c-18,18 -47,17 -65,0 -18,-18 -17,-47 1,-65l11 -11 17 -16 16 -16 16 -15 17 -16 16 -15 17 -16 17 -15 7 -6zm-324 327c16,-19 45,-20 64,-4 19,17 21,46 4,64l0 1 -15 17 -14 16 -15 17 -14 17 -14 17 -14 17 -14 18 -14 17 -1 2c-16,19 -44,23 -64,7 -20,-15 -24,-44 -8,-64l2 -2 14 -18 14 -17 15 -18 14 -17 15 -18 14 -17 15 -17 15 -17 1 -1zm-283 365c14,-21 42,-26 63,-12 21,14 27,42 12,63l-8 13 -12 18 -13 19 -12 18 -12 19 -12 18 -11 19 -12 19 -5 9c-13,21 -41,28 -63,15 -22,-13 -28,-41 -15,-63l5 -9 12 -19 12 -19 12 -20 13 -19 12 -19 13 -19 12 -18 9 -13zm-236 396c11,-22 39,-31 61,-19 23,11 32,39 20,61l-4 8 -10 20 -10 20 -10 20 -10 20 -9 20 -10 20 -9 21 -6 13c-11,23 -38,33 -61,23 -23,-10 -33,-37 -23,-60l7 -15 10 -20 9 -21 10 -21 10 -20 10 -21 10 -20 11 -21 4 -8zm-186 423c9,-24 35,-36 59,-27 23,8 36,35 27,58l-2 6 -8 21 -8 22 -7 21 -7 21 -7 22 -7 21 -7 22 -5 15c-8,24 -33,37 -57,30 -24,-8 -38,-33 -30,-57l5 -16 7 -22 7 -22 7 -22 8 -22 7 -22 8 -22 8 -21 2 -6zm-132 442c6,-25 30,-40 55,-34 24,5 39,30 34,54l-2 9 -5 23 -5 22 -5 22 -5 23 -4 22 -5 23 -4 23 -2 10c-4,24 -28,41 -53,37 -25,-5 -41,-29 -37,-53l2 -11 5 -23 4 -23 5 -23 5 -23 4 -23 6 -23 5 -23 2 -9zm-77 455c2,-25 25,-44 50,-41 25,3 43,25 40,50l-2 20 -2 24 -2 23 -2 23 -2 24 -2 23 -1 23 -1 20c-2,25 -23,44 -48,43 -26,-2 -45,-23 -43,-48l1 -20 1 -24 2 -24 2 -24 2 -24 2 -24 3 -24 2 -20zm-21 461c-1,-26 19,-46 44,-47 25,0 46,20 47,45l0 18 1 24 0 24 1 23 1 24 1 23 1 24 2 20c1,25 -18,47 -43,48 -25,2 -47,-17 -48,-42l-2 -21 -1 -24 -1 -24 -1 -24 -1 -24 -1 -25 0 -24 0 -18zm34 459c-4,-24 14,-48 39,-51 25,-4 48,14 51,39l2 13 3 23 4 23 3 22 4 23 4 23 4 23 4 22 1 6c5,24 -12,48 -36,53 -25,5 -49,-11 -54,-36l-1 -6 -4 -23 -4 -24 -4 -23 -4 -23 -3 -24 -4 -23 -3 -24 -2 -13zm90 453c-6,-24 8,-49 32,-56 25,-7 50,8 56,32l6 21 6 22 6 22 6 22 7 21 6 22 7 22 7 21 0 0c7,24 -6,50 -30,58 -24,7 -49,-6 -57,-30l0 0 -7 -22 -7 -22 -7 -23 -6 -22 -7 -22 -6 -23 -6 -22 -6 -21zm145 438c-9,-23 2,-50 25,-60 24,-9 50,2 60,25l8 21 9 21 9 21 8 20 9 21 9 21 9 20 10 20 0 1c11,23 1,50 -22,61 -23,10 -50,0 -61,-23l0 -1 -10 -21 -9 -20 -9 -21 -9 -21 -9 -22 -9 -21 -9 -21 -9 -21zm198 417c-12,-22 -4,-50 18,-62 22,-13 50,-5 62,17l9 17 11 19 11 19 11 20 11 19 12 19 11 19 12 19 3 5c13,21 7,49 -15,63 -21,13 -49,6 -62,-15l-4 -5 -12 -20 -11 -19 -12 -20 -12 -20 -11 -19 -11 -20 -12 -20 -9 -16zm248 389c-15,-20 -11,-49 10,-64 20,-15 48,-10 63,10l7 10 13 18 14 18 13 17 13 18 14 17 13 18 14 17 9 11c15,19 12,48 -7,64 -20,15 -49,12 -64,-7l-9 -11 -14 -18 -14 -18 -14 -18 -14 -18 -13 -18 -14 -18 -13 -18 -7 -10zm292 356c-17,-18 -16,-47 3,-64 18,-17 47,-16 64,2l3 3 15 16 15 16 15 16 16 16 15 15 16 16 15 16 16 15c18,17 18,46 1,64 -17,19 -46,19 -64,2l-1 -1 -16 -16 -16 -15 -16 -17 -16 -16 -15 -16 -16 -16 -16 -17 -15 -16 -3 -3zm130 133l63 -66m142 252c-20,-17 -22,-45 -6,-65 16,-19 45,-22 64,-5l13 11 17 14 17 14 17 14 18 13 17 14 17 14 18 13 7 5c20,16 24,44 8,64 -15,20 -43,24 -63,9l-8 -5 -18 -14 -17 -14 -18 -14 -18 -14 -18 -15 -17 -14 -17 -14 -13 -11zm370 275c-21,-14 -28,-42 -14,-63 14,-21 42,-27 63,-14l8 5 19 12 18 12 19 12 19 12 19 11 19 12 19 11 14 8c21,13 29,41 16,63 -13,21 -41,29 -62,16l-15 -8 -19 -12 -20 -12 -19 -12 -19 -12 -20 -12 -19 -12 -19 -12 -7 -5zm401 228c-23,-11 -32,-38 -21,-61 11,-23 38,-32 61,-21l3 2 20 9 20 10 20 9 20 10 21 9 20 9 21 9 18 8c23,10 34,37 24,60 -10,23 -37,34 -60,24l-19 -8 -21 -9 -21 -10 -21 -9 -21 -10 -20 -10 -21 -10 -20 -10 -3 -1zm425 177c-23,-8 -36,-34 -28,-58 8,-24 34,-36 58,-28l2 1 21 7 21 7 22 7 21 7 22 7 22 6 21 7 20 6c24,7 38,32 31,56 -7,24 -32,38 -57,31l-20 -6 -22 -6 -22 -7 -22 -7 -22 -7 -22 -7 -22 -8 -22 -7 -2 -1zm445 124c-25,-5 -40,-30 -35,-54 5,-25 29,-41 54,-35l5 1 23 5 22 4 23 4 22 5 23 4 23 4 22 4 14 2c25,4 42,27 38,52 -4,25 -28,42 -53,38l-14 -2 -23 -4 -23 -4 -23 -5 -23 -4 -24 -5 -23 -4 -23 -5 -5 -1zm456 68c-25,-2 -43,-24 -41,-49 2,-25 24,-44 49,-42l18 2 23 2 24 1 23 2 24 1 23 2 24 1 21 0c25,1 45,23 44,48 -1,25 -22,45 -48,44l-21 -1 -24 -1 -24 -2 -25 -1 -24 -2 -24 -2 -23 -1 -19 -2zm461 12c-25,1 -46,-18 -47,-44 -1,-25 19,-46 44,-47l17 0 24 -1 23 -1 24 -2 23 -1 24 -2 23 -1 22 -2c25,-2 47,16 49,42 2,25 -16,47 -41,49l-23 1 -24 2 -24 2 -24 1 -24 2 -24 1 -25 1 -17 0zm460 -43c-25,4 -49,-13 -53,-38 -4,-25 13,-48 38,-52l10 -2 23 -3 23 -4 22 -4 23 -4 23 -5 22 -4 23 -4 8 -2c25,-6 49,10 55,35 5,24 -11,49 -36,54l-9 2 -23 4 -23 5 -23 4 -24 5 -23 4 -23 4 -23 3 -10 2zm450 -99c-24,7 -49,-7 -56,-31 -7,-25 7,-50 31,-57l16 -5 22 -6 22 -7 21 -6 22 -7 22 -7 21 -7 21 -7 5 -2c24,-8 50,5 58,29 8,23 -5,49 -29,58l-4 1 -22 8 -22 7 -22 7 -22 7 -23 7 -22 6 -22 7 -17 5zm435 -154c-23,10 -50,-1 -60,-24 -10,-23 1,-50 24,-60l16 -7 21 -9 20 -9 21 -9 20 -9 20 -10 21 -9 20 -10 5 -2c23,-11 50,-2 61,21 11,22 2,49 -21,61l-6 2 -20 10 -21 10 -21 10 -21 9 -21 10 -21 9 -21 9 -16 7zm413 -206c-22,12 -50,5 -62,-17 -13,-21 -6,-49 16,-62l11 -7 19 -11 20 -11 19 -12 19 -11 18 -12 19 -12 19 -12 10 -6c21,-14 49,-8 63,13 14,22 8,50 -14,63l-10 7 -19 12 -19 12 -20 12 -19 12 -20 12 -19 12 -20 11 -11 7zm384 -255c-20,15 -48,11 -64,-9 -15,-20 -11,-49 9,-64l5 -3 18 -14 17 -13 18 -14 17 -14 17 -13 17 -14 17 -14 15 -13c20,-16 49,-13 65,6 16,19 13,48 -6,64l-16 13 -17 14 -18 15 -17 14 -18 14 -18 14 -18 14 -18 13 -5 4zm351 -300c-18,18 -47,17 -64,-1 -18,-18 -18,-47 0,-64l14 -14 16 -15 16 -16 15 -16 16 -15 15 -16 16 -16 15 -16 4 -5c17,-18 46,-19 64,-2 19,17 20,46 3,65l-5 4 -15 17 -16 16 -16 16 -16 16 -16 17 -16 15 -16 16 -14 14zm312 -340c-16,20 -45,23 -65,7 -19,-16 -22,-45 -6,-64l6 -9 14 -17 14 -17 14 -18 13 -17 13 -18 14 -17 13 -18 9 -12c14,-20 43,-25 63,-10 21,15 25,43 10,64l-9 12 -13 18 -14 18 -14 18 -13 18 -14 18 -14 18 -15 18 -6 8zm268 -375c-14,21 -42,27 -63,14 -22,-13 -28,-41 -15,-63l2 -2 12 -19 11 -19 12 -19 11 -19 11 -19 11 -20 11 -19 11 -19c12,-22 40,-30 62,-17 22,12 30,40 18,62l-11 19 -12 20 -11 19 -12 20 -11 20 -12 19 -12 20 -12 19 -1 3zm220 -406c-11,23 -38,33 -61,22 -23,-10 -33,-37 -22,-60l9 -19 9 -20 9 -20 9 -21 9 -21 9 -20 8 -21 9 -21 1 -2c9,-24 36,-35 59,-26 24,10 35,36 26,60l-2 3 -8 21 -9 21 -9 22 -9 21 -10 21 -9 20 -10 21 -8 19zm169 -429c-8,24 -34,37 -58,29 -24,-7 -37,-33 -29,-57l6 -19 7 -21 6 -22 7 -22 6 -21 6 -22 7 -22 6 -22 0 -2c6,-24 31,-39 56,-32 24,6 39,31 32,56l0 2 -7 22 -6 23 -6 22 -7 22 -7 23 -6 22 -7 22 -6 19zm114 -447c-4,25 -28,41 -53,36 -25,-5 -41,-28 -36,-53l0 -2 4 -23 5 -22 4 -23 3 -23 4 -23 4 -22 3 -23 2 -17c4,-25 27,-42 52,-39 25,4 42,27 39,52l-3 17 -3 23 -4 24 -4 23 -4 23 -4 24 -4 23 -4 23 -1 2zm60 -458c-2,25 -24,45 -49,43 -25,-2 -44,-23 -42,-48l1 -17 1 -23 1 -24 1 -23 1 -24 1 -23 1 -24 0 -23c1,-25 22,-45 47,-44 25,0 45,21 45,46l-1 23 -1 25 0 24 -1 24 -2 24 -1 24 -1 24 -1 16zm3 -461c1,25 -18,47 -43,48 -25,2 -47,-18 -48,-43l-1 -15 -1 -24 -2 -23 -2 -23 -2 -24 -2 -23 -2 -23 -2 -24 0 0c-3,-25 15,-48 40,-51 25,-2 48,16 51,41l0 1 2 24 2 24 2 24 2 24 2 24 2 24 1 24 1 15zm-52 -458c4,25 -13,48 -37,53 -25,4 -49,-12 -53,-37l-1 -7 -5 -22 -4 -23 -4 -23 -5 -22 -4 -23 -5 -22 -5 -22 -3 -13c-6,-24 10,-49 34,-54 25,-6 49,9 55,34l3 13 5 23 5 23 5 23 4 23 5 23 4 23 4 23 2 7zm-109 -449c8,24 -6,50 -30,57 -24,8 -49,-6 -57,-30l-3 -12 -7 -21 -7 -22 -7 -21 -7 -22 -8 -21 -7 -21 -8 -22 -3 -8c-8,-24 4,-50 27,-59 24,-9 50,4 59,27l3 9 8 22 8 22 7 22 7 22 8 22 7 22 7 22 3 12zm-162 -432c10,23 0,50 -23,61 -23,10 -50,0 -60,-23l-5 -11 -9 -20 -10 -21 -9 -20 -10 -20 -10 -20 -10 -20 -10 -20 -5 -11c-11,-22 -2,-49 20,-61 22,-11 50,-3 61,20l6 11 10 20 10 21 10 20 10 21 10 21 9 20 10 21 5 11zm-214 -408c13,21 6,49 -15,63 -22,13 -50,6 -63,-16l-4 -6 -11 -19 -12 -19 -12 -19 -12 -18 -12 -19 -12 -18 -12 -19 -10 -15c-14,-20 -9,-49 12,-63 21,-14 49,-9 63,12l11 15 12 19 13 19 12 19 12 20 12 19 12 19 12 20 4 6zm-263 -380c16,20 13,49 -7,64 -20,16 -48,13 -64,-7l-14 -17 -14 -17 -14 -18 -14 -17 -14 -17 -14 -17 -14 -17 -15 -16 -2 -3c-16,-19 -15,-48 4,-64 19,-17 48,-15 65,4l2 3 15 17 15 17 14 18 15 17 14 18 14 17 15 18 13 17zm-306 -344c18,17 18,46 0,64 -18,18 -46,18 -64,1l-10 -10 -16 -15 -15 -16 -16 -15 -16 -15 -17 -15 -16 -15 -16 -15 -9 -8c-19,-17 -20,-46 -4,-65 17,-18 46,-20 65,-3l9 8 17 16 17 15 16 16 17 15 16 16 16 16 16 15 10 10zm-346 -305c20,15 23,44 8,64 -16,20 -44,23 -64,8l-4 -3 -17 -13 -18 -14 -18 -13 -17 -13 -18 -13 -18 -13 -18 -13 -17 -12c-21,-15 -26,-43 -11,-64 14,-20 43,-25 63,-11l18 12 18 14 18 13 19 13 18 14 18 13 18 14 18 14 4 3zm-381 -261c22,13 29,41 16,63 -13,21 -41,29 -63,16l-17 -10 -19 -12 -19 -11 -19 -11 -20 -11 -19 -10 -20 -11 -19 -11 -4 -2c-23,-12 -31,-39 -19,-62 11,-22 39,-30 61,-19l5 3 20 11 20 11 20 11 20 11 20 11 19 12 20 11 17 10zm-410 -212c23,10 34,37 24,60 -10,23 -37,34 -60,24l-14 -6 -21 -9 -20 -9 -21 -9 -21 -8 -21 -9 -20 -8 -21 -8 -8 -3c-23,-9 -35,-35 -26,-59 9,-24 35,-35 59,-26l8 3 21 8 21 9 22 8 21 9 21 9 21 9 21 9 14 6zm-432 -160c24,7 38,32 30,57 -7,24 -32,37 -56,30l-15 -4 -22 -7 -21 -6 -22 -6 -22 -6 -22 -6 -22 -6 -22 -5 -6 -2c-24,-6 -39,-30 -34,-55 6,-24 31,-39 56,-33l6 1 23 6 22 6 23 6 22 6 22 6 23 7 22 6 15 5zm-449 -106c24,4 41,27 37,52 -4,25 -28,42 -52,38l-22 -4 -23 -3 -23 -4 -22 -3 -23 -4 -23 -3 -23 -3 -20 -2c-25,-3 -43,-26 -40,-51 3,-25 26,-43 51,-40l20 3 24 3 23 3 24 3 23 4 24 3 23 4 22 4z"/>
   <polygon class="fil3" points="3562,2120 5432,2120 6136,2823 6136,5664 3562,5664 "/>
   <polygon class="fil5" points="5432,2120 5432,2823 6136,2823 "/>
   <rect class="fil6" x="4019" y="4483" width="1068.9" height="46.9106" rx="39" ry="61"/>
   <rect class="fil6" x="4019" y="4277" width="1659.06" height="46.9106" rx="61" ry="61"/>
   <rect class="fil6" x="4019" y="4071" width="1659.06" height="46.9106" rx="61" ry="61"/>
   <rect class="fil6" x="4019" y="3865" width="1659.06" height="46.9106" rx="61" ry="61"/>
   <rect class="fil6" x="4019" y="3659" width="1659.06" height="46.9106" rx="61" ry="61"/>
   <rect class="fil6" x="4019" y="3453" width="1659.06" height="46.9106" rx="61" ry="61"/>
   <rect class="fil6" x="4019" y="3248" width="1659.06" height="46.9106" rx="61" ry="61"/>
   <rect class="fil6" x="4019" y="2911" width="1087.64" height="93.9428" rx="40" ry="122"/>
   <circle class="fil3" cx="8723" cy="4503" r="935"/>
   <circle class="fil3" cx="2475" cy="1722" r="742"/>
   <circle class="fil3" cx="2475" cy="1722" r="742"/>
   <g>
    <path class="fil7" d="M248 5278c20,-247 137,-466 313,-619l306 417c-52,55 -88,125 -103,202l-516 0z"/>
    <path class="fil3" d="M2081 5430c-38,472 -434,844 -917,844 -482,0 -878,-372 -917,-844l517 0c36,188 201,331 400,331 199,0 365,-143 400,-331l517 0z"/>
    <path class="fil5" d="M1164 4434c483,0 879,371 917,844l-517 0c-35,-189 -201,-331 -400,-331 -62,0 -122,14 -175,39l-306 -416c140,-87 305,-136 481,-136z"/>
   </g>
   <g>
    <polygon class="fil3" points="4310,7524 5051,7524 5330,7803 5330,8929 4310,8929 "/>
    <path class="fil8" d="M5159 8829l0 324 -124 -133 -123 133 0 -324c-41,-34 -66,-86 -66,-143 0,-105 85,-190 189,-190 105,0 190,85 190,190 0,57 -26,109 -66,143z"/>
   </g>
   <polygon class="fil6" points="2225,1960 2336,1780 2114,1697 2672,1396 2653,2030 2480,1869 2369,2049 "/>
   <rect class="fil3" x="6183" y="1097" width="1290" height="972" rx="76" ry="76"/>
   <path class="fil7" d="M6183 1583l1290 0 0 410c0,42 -34,76 -76,76l-1138 0c-42,0 -76,-34 -76,-76l0 -410z"/>
   <polygon class="fil6" points="6665,1319 7098,1583 6665,1848 "/>
   <polygon class="fil5" points="5051,7524 5051,7803 5330,7803 "/>
   <g>
    <polygon class="fil6" points="8147,4900 8723,4756 9300,4900 9300,4193 8723,4049 8147,4193 "/>
    <polygon class="fil6" points="8723,4756 9300,4900 9300,4193 8723,4049 "/>
    <polygon class="fil7" points="8147,4928 8723,4784 9300,4928 9300,4221 8723,4077 8147,4221 "/>
    <polygon class="fil5" points="8723,4784 9300,4928 9300,4221 8723,4077 "/>
    <polygon class="fil6" points="8778,4669 9246,4786 9246,4756 8778,4639 "/>
    <polygon class="fil6" points="8673,4669 8206,4786 8206,4756 8673,4639 "/>
    <polygon class="fil6" points="8778,4580 9246,4697 9246,4667 8778,4550 "/>
    <polygon class="fil6" points="8673,4580 8206,4697 8206,4667 8673,4550 "/>
    <polygon class="fil6" points="8778,4491 9246,4608 9246,4578 8778,4461 "/>
    <polygon class="fil6" points="8673,4491 8206,4608 8206,4578 8673,4461 "/>
    <polygon class="fil6" points="8778,4402 9246,4519 9246,4489 8778,4372 "/>
    <polygon class="fil6" points="8673,4402 8206,4519 8206,4489 8673,4372 "/>
    <polygon class="fil6" points="8778,4313 9246,4430 9246,4400 8778,4283 "/>
    <polygon class="fil6" points="8673,4313 8206,4430 8206,4400 8673,4283 "/>
    <polygon class="fil6" points="8778,4224 9246,4341 9246,4310 8778,4193 "/>
    <polygon class="fil6" points="8673,4224 8206,4341 8206,4310 8673,4193 "/>
   </g>
   <rect class="fil6" x="4019" y="5425" width="1068.9" height="46.9106" rx="39" ry="61"/>
   <rect class="fil6" x="4019" y="5219" width="1659.06" height="46.9106" rx="61" ry="61"/>
   <rect class="fil6" x="4019" y="5013" width="1659.06" height="46.9106" rx="61" ry="61"/>
   <rect class="fil6" x="4019" y="4807" width="1659.06" height="46.9106" rx="61" ry="61"/>
  </g>
 </g>
</svg>
