<?xml version="1.0" encoding="UTF-8"?>
<!DOCTYPE svg PUBLIC "-//W3C//DTD SVG 1.1//EN" "http://www.w3.org/Graphics/SVG/1.1/DTD/svg11.dtd">
<!-- Creator: CorelDRAW X7 -->
<svg xmlns="http://www.w3.org/2000/svg" xml:space="preserve" width="230.717mm" height="55.7388mm" version="1.1" style="shape-rendering:geometricPrecision; text-rendering:geometricPrecision; image-rendering:optimizeQuality; fill-rule:evenodd; clip-rule:evenodd"
viewBox="0 0 23072 5574"
 xmlns:xlink="http://www.w3.org/1999/xlink">
 <defs>
  <style type="text/css">
   <![CDATA[
    .fil0 {fill:#FEFEFE;fill-rule:nonzero}
   ]]>
  </style>
 </defs>
 <g id="Layer_x0020_1">
  <metadata id="CorelCorpID_0Corel-Layer"/>
  <polygon class="fil0" points="3189,640 2824,640 1999,3223 1154,640 786,640 0,4477 669,4477 1090,2409 1876,4526 2124,4526 2909,2409 3315,4477 3986,4477 "/>
  <path class="fil0" d="M4835 2781c93,-411 329,-615 709,-615 416,0 646,204 693,615l-1402 0zm2071 128c0,-375 -126,-684 -377,-927 -250,-242 -582,-363 -996,-363 -389,0 -722,137 -1000,411 -278,274 -417,631 -417,1073 0,448 126,797 380,1048 253,250 597,375 1032,375 465,0 815,-93 1050,-279l-259 -501c-158,156 -389,233 -692,233 -244,0 -437,-61 -581,-185 -144,-124 -222,-298 -235,-521l2038 0c38,-163 57,-284 57,-364z"/>
  <path class="fil0" d="M8463 3974c-160,0 -272,-42 -335,-124 -64,-83 -96,-225 -96,-425l0 -1228 783 0 0 -526 -783 0 0 -811 -666 346 0 465 -331 0 0 526 331 0 0 1418c0,292 75,517 229,675 152,157 371,236 655,236 286,0 506,-26 661,-78l0 -602c-139,86 -288,128 -448,128z"/>
  <path class="fil0" d="M10876 3417c0,392 -200,589 -600,589 -297,0 -445,-126 -445,-377 0,-339 263,-508 789,-508 56,0 142,12 256,34l0 262zm663 198l0 -599c0,-542 -102,-911 -304,-1105 -202,-195 -521,-292 -957,-292 -315,0 -588,54 -817,162l144 508c168,-82 378,-123 628,-123 425,0 637,165 637,494 -107,-26 -199,-39 -277,-39 -457,0 -808,92 -1057,275 -248,183 -371,437 -371,762 0,277 88,491 263,642 177,151 418,226 726,226 163,0 320,-31 470,-93 150,-62 255,-141 316,-239 26,82 78,158 154,228 76,69 163,104 258,104 87,0 165,-10 232,-32 68,-22 129,-80 184,-174 -153,-96 -229,-331 -229,-705z"/>
  <path class="fil0" d="M12767 3621l0 -3148 -666 346 0 3090c0,412 151,617 453,617 249,0 424,-95 527,-288 -209,-66 -314,-271 -314,-617z"/>
  <path class="fil0" d="M15079 3752c-122,160 -287,240 -495,240 -453,0 -679,-308 -679,-926 0,-288 62,-512 184,-673 122,-160 287,-241 495,-241 452,0 677,305 677,914 0,297 -60,525 -182,686zm515 -1746c-239,-258 -577,-387 -1010,-387 -412,0 -743,134 -995,403 -251,268 -377,617 -377,1044 0,441 121,795 361,1062 241,266 578,398 1011,398 425,0 759,-131 1003,-394 245,-264 367,-619 367,-1066 0,-448 -120,-802 -360,-1060z"/>
  <polygon class="fil0" points="21907,3040 23002,1671 22242,1671 21571,2527 20969,1671 20204,1671 21211,3040 20117,4474 20905,4474 21563,3561 22296,4474 23103,4474 "/>
  <polygon class="fil0" points="19795,1635 19125,1981 19123,4474 19797,4474 "/>
  <polygon class="fil0" points="19123,-9 19123,1263 20346,627 "/>
  <path class="fil0" d="M17071 2292c96,-94 220,-141 373,-141 146,0 264,49 356,146 91,98 137,218 137,359 0,171 -43,305 -128,403 -86,97 -207,147 -365,147 -158,0 -284,-51 -377,-151 -93,-100 -140,-233 -140,-399 0,-148 48,-270 144,-364zm730 1607c-92,0 -204,13 -333,39 -130,26 -222,40 -277,40 -122,0 -185,-35 -185,-105 0,-40 42,-79 125,-117 82,-37 130,-56 142,-56l110 16c80,9 144,13 191,13 303,0 553,-96 751,-286 198,-192 296,-447 296,-766 0,-174 -33,-330 -100,-478l277 -141 0 -623 -682 356c-44,-28 -64,-36 -64,-36 -173,-94 -387,-140 -643,-140 -327,0 -602,97 -826,294 -224,196 -335,444 -335,744 0,381 162,675 487,882 -101,42 -190,108 -266,197 -76,88 -115,180 -115,272 0,323 229,484 687,484 76,0 186,-9 334,-27 147,-16 258,-26 332,-26 276,0 414,83 414,249 0,98 -62,174 -187,231 -124,56 -282,83 -474,83 -286,0 -545,-105 -778,-314l-421 510c353,253 748,380 1186,380 366,0 678,-81 938,-243 259,-161 388,-383 388,-665 0,-511 -324,-767 -972,-767z"/>
 </g>
</svg>
