<?xml version="1.0" encoding="UTF-8"?>
<!DOCTYPE svg PUBLIC "-//W3C//DTD SVG 1.1//EN" "http://www.w3.org/Graphics/SVG/1.1/DTD/svg11.dtd">
<!-- Creator: CorelDRAW X7 -->
<svg xmlns="http://www.w3.org/2000/svg" xml:space="preserve" width="50mm" height="48mm" version="1.1" style="shape-rendering:geometricPrecision; text-rendering:geometricPrecision; image-rendering:optimizeQuality; fill-rule:evenodd; clip-rule:evenodd"
viewBox="0 0 5000 4800"
 xmlns:xlink="http://www.w3.org/1999/xlink">
 <defs>
  <style type="text/css">
   <![CDATA[
    .fil0 {fill:#004274;fill-rule:nonzero}
    .fil2 {fill:white;fill-rule:nonzero}
    .fil1 {fill:#1A75CF;fill-rule:nonzero}
   ]]>
  </style>
 </defs>
 <g id="Layer_x0020_1">
  <metadata id="CorelCorpID_0Corel-Layer"/>
  <g id="_758048768">
   <path class="fil0" d="M4950 2400c0,1314 -1097,2379 -2450,2379 -1353,0 -2450,-1065 -2450,-2379 0,-1314 1097,-2379 2450,-2379 1353,0 2450,1065 2450,2379z"/>
   <path class="fil1" d="M4731 2400c0,1194 -995,2162 -2222,2162 -1228,0 -2223,-968 -2223,-2162 0,-1194 995,-2162 2223,-2162 1227,0 2222,968 2222,2162z"/>
   <path class="fil2" d="M2509 271c-585,0 -1135,222 -1549,624 -413,402 -641,936 -641,1505 0,568 228,1103 641,1505 414,402 964,624 1549,624 585,0 1134,-222 1548,-624 413,-402 641,-937 641,-1505 0,-569 -228,-1103 -641,-1505 -414,-402 -963,-624 -1548,-624zm0 4324c-603,0 -1169,-228 -1595,-643 -426,-414 -661,-966 -661,-1552 0,-586 235,-1138 661,-1552 426,-415 992,-643 1595,-643 602,0 1168,228 1594,643 426,414 661,966 661,1552 0,586 -235,1138 -661,1552 -426,415 -992,643 -1594,643z"/>
   <path class="fil2" d="M4104 2455c0,848 -714,1536 -1595,1536 -882,0 -1596,-688 -1596,-1536 0,-849 714,-1537 1596,-1537 881,0 1595,688 1595,1537z"/>
   <polygon class="fil1" points="3542,3394 3184,3394 2968,2291 2549,3421 2417,3421 1997,2291 1773,3394 1416,3394 1835,1348 2032,1348 2482,2726 2923,1348 3117,1348 "/>
  </g>
 </g>
</svg>
