<?xml version="1.0" encoding="utf-8"?>
<!-- Generator: Adobe Illustrator 19.0.0, SVG Export Plug-In . SVG Version: 6.00 Build 0)  -->
<svg version="1.1" id="Layer_1" xmlns="http://www.w3.org/2000/svg" xmlns:xlink="http://www.w3.org/1999/xlink" x="0px" y="0px"
	 viewBox="0 0 433 250.6" style="enable-background:new 0 0 433 250.6;" xml:space="preserve">
<style type="text/css">
	.st0{fill:#8A8C8C;}
	.st1{fill:#555759;}
	.st2{clip-path:url(#SVGID_2_);fill:#555759;}
	.st3{fill:#A51E35;}
	.st4{clip-path:url(#SVGID_4_);fill:#A51E35;}
</style>
<rect x="195.7" class="st0" width="42.7" height="142.7"/>
<polyline class="st1" points="242.2,0 242.2,35.2 259.8,35.2 259.8,142.7 304.6,142.7 304.6,35.2 352.9,35.2 352.9,0 242.2,0 "/>
<polyline class="st1" points="7.8,159.3 18.5,159.3 27,181.7 36.1,159.3 46.9,159.3 54.6,201.3 42.8,201.3 39.3,177.1 39.2,177.1 
	29.1,201.3 24.7,201.3 15.1,177.1 15,177.1 11.1,201.3 0,201.3 7.8,159.3 "/>
<path class="st1" d="M71.2,194l-2.9,7.3H56.7l16.2-42h11.9l15.8,42H88.9l-2.7-7.3H71.2 M78.8,172.3h-0.1l-4.5,13.4h9.1L78.8,172.3z"
	/>
<polyline class="st1" points="103.8,159.3 114.7,159.3 134.7,185 134.8,185 134.8,159.3 145.7,159.3 145.7,201.3 134.8,201.3 
	114.8,175.5 114.7,175.5 114.7,201.3 103.8,201.3 103.8,159.3 "/>
<path class="st1" d="M163.4,194l-2.9,7.3h-11.6l16.2-42H177l15.8,42h-11.6l-2.7-7.3H163.4 M171,172.3h-0.1l-4.5,13.4h9.1L171,172.3z
	"/>
<path class="st1" d="M236.4,177.8c-0.1,6.1-0.6,11.4-4.3,16.6c-4.1,5.7-10.3,8.2-17.3,8.2c-13.2,0-22.4-9-22.4-22.2
	c0-13.6,9.2-22.6,22.8-22.6c8.6,0,15.3,3.9,18.9,11.8l-10.4,4.3c-1.5-4-4.7-6.7-9.1-6.7c-7.2,0-10.9,6.9-10.9,13.3
	c0,6.5,3.9,13.1,11.1,13.1c4.7,0,8.4-2.5,8.8-7.3h-8.9v-8.6H236.4"/>
<polyline class="st1" points="252.5,168.5 252.5,175.5 264.8,175.5 264.8,184.8 252.5,184.8 252.5,192 265.4,192 265.4,201.3 
	241.5,201.3 241.5,159.3 265.4,159.3 265.4,168.5 252.5,168.5 "/>
<polyline class="st1" points="338.9,168.5 338.9,175.5 351.2,175.5 351.2,184.8 338.9,184.8 338.9,192 351.9,192 351.9,201.3 
	328,201.3 328,159.3 351.9,159.3 351.9,168.5 338.9,168.5 "/>
<polyline class="st1" points="358.6,159.3 369.6,159.3 389.5,185 389.7,185 389.7,159.3 400.6,159.3 400.6,201.3 389.7,201.3 
	369.7,175.5 369.6,175.5 369.6,201.3 358.6,201.3 358.6,159.3 "/>
<g>
	<defs>
		<rect id="SVGID_1_" width="433" height="250.5"/>
	</defs>
	<clipPath id="SVGID_2_">
		<use xlink:href="#SVGID_1_"  style="overflow:visible;"/>
	</clipPath>
	<polyline class="st2" points="424,201.3 413.1,201.3 413.1,168.5 404,168.5 404,159.3 433,159.3 433,168.5 424,168.5 424,201.3 	
		"/>
</g>
<polyline class="st1" points="277.1,159.3 287.9,159.3 296.4,181.7 305.4,159.3 316.3,159.3 324,201.3 312.2,201.3 308.7,177.1 
	308.6,177.1 298.5,201.3 294.1,201.3 284.5,177.1 284.4,177.1 280.4,201.3 269.4,201.3 277.1,159.3 "/>
<polyline class="st3" points="191.8,71.4 191.3,68.3 178.6,0 135.9,0 106.9,69.3 78,0 35,0 8.5,142.7 51.1,142.7 64.7,69.6 
	96.8,142.7 117,142.7 148.9,69.6 162.5,142.7 191.8,142.7 191.8,71.4 "/>
<polyline class="st3" points="0.1,248.6 15.2,248.6 15.2,244.9 4.1,244.9 4.1,235.4 14.9,235.4 14.9,231.7 4.1,231.7 4.1,224.8 
	15.2,224.8 15.2,221 0.1,221 0.1,248.6 "/>
<polyline class="st3" points="40.3,221 35.7,221 30,230.5 24.7,221 20.1,221 27.7,234.2 19.1,248.6 23.6,248.6 30,237.9 36.2,248.6 
	40.7,248.6 32.3,234.2 40.3,221 "/>
<polyline class="st3" points="45.6,248.6 60.8,248.6 60.8,244.9 49.6,244.9 49.6,235.4 60.4,235.4 60.4,231.7 49.6,231.7 
	49.6,224.8 60.8,224.8 60.8,221 45.6,221 45.6,248.6 "/>
<path class="st3" d="M80.6,220.5c-8.2,0-14.7,6.4-14.7,14.5c0,7.8,6.4,14.2,14.4,14.2c2.5,0,5.2-0.7,7.2-1.9l0.2-0.1v-4.9l-0.5,0.5
	c-2,1.7-4.4,2.7-7,2.7c-5.7,0-10.3-4.8-10.3-10.6c0-5.9,4.6-10.7,10.3-10.7c2.5,0,5.1,1,6.9,2.6l0.5,0.5v-4.8l-0.2-0.1
	C85.6,221.1,83.2,220.5,80.6,220.5"/>
<path class="st3" d="M110.2,237.3c0,5.5-2,8.2-6.2,8.2s-6.2-2.7-6.2-8.2V221h-4v17.4c0,6.5,4.1,10.8,10.2,10.8
	c6.1,0,10.2-4.3,10.2-10.8V221h-4V237.3"/>
<polyline class="st3" points="119,224.8 125.4,224.8 125.4,248.6 129.4,248.6 129.4,224.8 135.8,224.8 135.8,221 119,221 119,224.8 
	"/>
<rect x="140.9" y="221" class="st3" width="4" height="27.6"/>
<g>
	<defs>
		<rect id="SVGID_3_" width="433" height="250.5"/>
	</defs>
	<clipPath id="SVGID_4_">
		<use xlink:href="#SVGID_3_"  style="overflow:visible;"/>
	</clipPath>
	<polyline class="st4" points="161.7,240.4 153.9,221 149.5,221 161.7,250.6 173.9,221 169.5,221 161.7,240.4 	"/>
</g>
<polyline class="st3" points="178.6,248.6 193.7,248.6 193.7,244.9 182.6,244.9 182.6,235.4 193.4,235.4 193.4,231.7 182.6,231.7 
	182.6,224.8 193.7,224.8 193.7,221 178.6,221 178.6,248.6 "/>
<polyline class="st3" points="214,248.6 229.1,248.6 229.1,244.9 218,244.9 218,235.4 228.8,235.4 228.8,231.7 218,231.7 218,224.8 
	229.1,224.8 229.1,221 214,221 214,248.6 "/>
<path class="st3" d="M241.5,221h-5.9v27.6h5.8c9.6,0,15.5-5.3,15.5-13.9C256.9,226.4,250.8,221,241.5,221 M239.6,224.8h0.9
	c5.7,0,12.5,1.8,12.5,10.1s-6.8,10.1-12.5,10.1h-0.9V224.8z"/>
<path class="st3" d="M278.7,237.3c0,5.5-2,8.2-6.2,8.2c-4.2,0-6.2-2.7-6.2-8.2V221h-4v17.4c0,6.5,4.1,10.8,10.2,10.8
	c6.1,0,10.2-4.3,10.2-10.8V221h-4V237.3"/>
<path class="st3" d="M303.1,220.5c-8.2,0-14.7,6.4-14.7,14.5c0,7.8,6.4,14.2,14.4,14.2c2.5,0,5.2-0.7,7.2-1.9l0.2-0.1v-4.9l-0.5,0.5
	c-2,1.7-4.4,2.7-7,2.7c-5.7,0-10.3-4.8-10.3-10.6c0-5.9,4.6-10.7,10.3-10.7c2.5,0,5.1,1,6.9,2.6l0.5,0.5v-4.8l-0.2-0.1
	C308.1,221.1,305.7,220.5,303.1,220.5"/>
<path class="st3" d="M313.8,248.6h4.3l3.1-6.8h12l3.1,6.8h4.3l-13.4-29.2L313.8,248.6 M327.2,228.4l4.3,9.8h-8.6L327.2,228.4z"/>
<polyline class="st3" points="342.7,224.8 349.1,224.8 349.1,248.6 353.1,248.6 353.1,224.8 359.5,224.8 359.5,221 342.7,221 
	342.7,224.8 "/>
<rect x="364.6" y="221" class="st3" width="4" height="27.6"/>
<path class="st3" d="M388.8,220.5c-8,0-14.4,6.4-14.4,14.4c0,8.1,6.3,14.4,14.4,14.4c8.1,0,14.4-6.3,14.4-14.4
	C403.2,226.9,396.7,220.5,388.8,220.5 M388.8,245.4c-5.8,0-10.4-4.7-10.4-10.6c0-6,4.5-10.6,10.4-10.6c6,0,10.4,4.6,10.4,10.6
	C399.2,240.7,394.5,245.4,388.8,245.4z"/>
<polyline class="st3" points="428.9,221 428.9,240.5 408.7,219.3 408.7,248.6 412.7,248.6 412.7,229 432.9,250.2 432.9,221 
	428.9,221 "/>
</svg>
