<?xml version="1.0" encoding="utf-8"?>
<!-- Generator: Adobe Illustrator 19.0.0, SVG Export Plug-In . SVG Version: 6.00 Build 0)  -->
<svg version="1.1" id="Layer_1" xmlns="http://www.w3.org/2000/svg" xmlns:xlink="http://www.w3.org/1999/xlink" x="0px" y="0px"
	 viewBox="146 -48.7 433 250.6" style="enable-background:new 146 -48.7 433 250.6;" xml:space="preserve">
<style type="text/css">
	.st0{fill:#FFFFFF;}
</style>
<rect x="341.7" y="-48.7" class="st0" width="42.7" height="142.7"/>
<polyline class="st0" points="388.2,-48.7 388.2,-13.5 405.8,-13.5 405.8,94 450.6,94 450.6,-13.5 498.9,-13.5 498.9,-48.7 
	388.2,-48.7 "/>
<polyline class="st0" points="153.8,110.6 164.5,110.6 173,133 182.1,110.6 192.9,110.6 200.6,152.6 188.8,152.6 185.3,128.4 
	185.2,128.4 175.1,152.6 170.7,152.6 161.1,128.4 161,128.4 157.1,152.6 146,152.6 153.8,110.6 "/>
<path class="st0" d="M217.2,145.3l-2.9,7.3h-11.6l16.2-42h11.9l15.8,42h-11.7l-2.7-7.3H217.2 M224.8,123.6L224.8,123.6l-4.6,13.4
	h9.1L224.8,123.6z"/>
<polyline class="st0" points="249.8,110.6 260.7,110.6 280.7,136.3 280.8,136.3 280.8,110.6 291.7,110.6 291.7,152.6 280.8,152.6 
	260.8,126.8 260.7,126.8 260.7,152.6 249.8,152.6 249.8,110.6 "/>
<path class="st0" d="M309.4,145.3l-2.9,7.3h-11.6l16.2-42H323l15.8,42h-11.6l-2.7-7.3H309.4 M317,123.6h-0.1l-4.5,13.4h9.1
	L317,123.6z"/>
<path class="st0" d="M382.4,129.1c-0.1,6.1-0.6,11.4-4.3,16.6c-4.1,5.7-10.3,8.2-17.3,8.2c-13.2,0-22.4-9-22.4-22.2
	c0-13.6,9.2-22.6,22.8-22.6c8.6,0,15.3,3.9,18.9,11.8l-10.4,4.3c-1.5-4-4.7-6.7-9.1-6.7c-7.2,0-10.9,6.9-10.9,13.3
	c0,6.5,3.9,13.1,11.1,13.1c4.7,0,8.4-2.5,8.8-7.3h-8.9V129L382.4,129.1"/>
<polyline class="st0" points="398.5,119.8 398.5,126.8 410.8,126.8 410.8,136.1 398.5,136.1 398.5,143.3 411.4,143.3 411.4,152.6 
	387.5,152.6 387.5,110.6 411.4,110.6 411.4,119.8 398.5,119.8 "/>
<polyline class="st0" points="484.9,119.8 484.9,126.8 497.2,126.8 497.2,136.1 484.9,136.1 484.9,143.3 497.9,143.3 497.9,152.6 
	474,152.6 474,110.6 497.9,110.6 497.9,119.8 484.9,119.8 "/>
<polyline class="st0" points="504.6,110.6 515.6,110.6 535.5,136.3 535.7,136.3 535.7,110.6 546.6,110.6 546.6,152.6 535.7,152.6 
	515.7,126.8 515.6,126.8 515.6,152.6 504.6,152.6 504.6,110.6 "/>
<polyline class="st0" points="423.1,110.6 433.9,110.6 442.4,133 451.4,110.6 462.3,110.6 470,152.6 458.2,152.6 454.7,128.4 
	454.6,128.4 444.5,152.6 440.1,152.6 430.5,128.4 430.4,128.4 426.4,152.6 415.4,152.6 423.1,110.6 "/>
<polyline class="st0" points="337.8,22.7 337.3,19.6 324.6,-48.7 281.9,-48.7 252.9,20.6 224,-48.7 181,-48.7 154.5,94 197.1,94 
	210.7,20.9 242.8,94 263,94 294.9,20.9 308.5,94 337.8,94 337.8,22.7 "/>
<polyline class="st0" points="146.1,199.9 161.2,199.9 161.2,196.2 150.1,196.2 150.1,186.7 160.9,186.7 160.9,183 150.1,183 
	150.1,176.1 161.2,176.1 161.2,172.3 146.1,172.3 146.1,199.9 "/>
<polyline class="st0" points="186.3,172.3 181.7,172.3 176,181.8 170.7,172.3 166.1,172.3 173.7,185.5 165.1,199.9 169.6,199.9 
	176,189.2 182.2,199.9 186.7,199.9 178.3,185.5 186.3,172.3 "/>
<polyline class="st0" points="191.6,199.9 206.8,199.9 206.8,196.2 195.6,196.2 195.6,186.7 206.4,186.7 206.4,183 195.6,183 
	195.6,176.1 206.8,176.1 206.8,172.3 191.6,172.3 191.6,199.9 "/>
<path class="st0" d="M226.6,171.8c-8.2,0-14.7,6.4-14.7,14.5c0,7.8,6.4,14.2,14.4,14.2c2.5,0,5.2-0.7,7.2-1.9l0.2-0.1v-4.9l-0.5,0.5
	c-2,1.7-4.4,2.7-7,2.7c-5.7,0-10.3-4.8-10.3-10.6c0-5.9,4.6-10.7,10.3-10.7c2.5,0,5.1,1,6.9,2.6l0.5,0.5v-4.8l-0.2-0.1
	C231.6,172.4,229.2,171.8,226.6,171.8"/>
<path class="st0" d="M256.2,188.6c0,5.5-2,8.2-6.2,8.2s-6.2-2.7-6.2-8.2v-16.3h-4v17.4c0,6.5,4.1,10.8,10.2,10.8s10.2-4.3,10.2-10.8
	v-17.4h-4V188.6"/>
<polyline class="st0" points="265,176.1 271.4,176.1 271.4,199.9 275.4,199.9 275.4,176.1 281.8,176.1 281.8,172.3 265,172.3 
	265,176.1 "/>
<rect x="286.9" y="172.3" class="st0" width="4" height="27.6"/>
<polyline class="st0" points="324.6,199.9 339.7,199.9 339.7,196.2 328.6,196.2 328.6,186.7 339.4,186.7 339.4,183 328.6,183 
	328.6,176.1 339.7,176.1 339.7,172.3 324.6,172.3 324.6,199.9 "/>
<polyline class="st0" points="360,199.9 375.1,199.9 375.1,196.2 364,196.2 364,186.7 374.8,186.7 374.8,183 364,183 364,176.1 
	375.1,176.1 375.1,172.3 360,172.3 360,199.9 "/>
<path class="st0" d="M387.5,172.3h-5.9v27.6h5.8c9.6,0,15.5-5.3,15.5-13.9C402.9,177.7,396.8,172.3,387.5,172.3 M385.6,176.1h0.9
	c5.7,0,12.5,1.8,12.5,10.1s-6.8,10.1-12.5,10.1h-0.9V176.1z"/>
<path class="st0" d="M424.7,188.6c0,5.5-2,8.2-6.2,8.2s-6.2-2.7-6.2-8.2v-16.3h-4v17.4c0,6.5,4.1,10.8,10.2,10.8s10.2-4.3,10.2-10.8
	v-17.4h-4V188.6"/>
<path class="st0" d="M449.1,171.8c-8.2,0-14.7,6.4-14.7,14.5c0,7.8,6.4,14.2,14.4,14.2c2.5,0,5.2-0.7,7.2-1.9l0.2-0.1v-4.9l-0.5,0.5
	c-2,1.7-4.4,2.7-7,2.7c-5.7,0-10.3-4.8-10.3-10.6c0-5.9,4.6-10.7,10.3-10.7c2.5,0,5.1,1,6.9,2.6l0.5,0.5v-4.8l-0.2-0.1
	C454.1,172.4,451.7,171.8,449.1,171.8"/>
<path class="st0" d="M459.8,199.9h4.3l3.1-6.8h12l3.1,6.8h4.3l-13.4-29.2L459.8,199.9 M473.2,179.7l4.3,9.8h-8.6L473.2,179.7z"/>
<polyline class="st0" points="488.7,176.1 495.1,176.1 495.1,199.9 499.1,199.9 499.1,176.1 505.5,176.1 505.5,172.3 488.7,172.3 
	488.7,176.1 "/>
<rect x="510.6" y="172.3" class="st0" width="4" height="27.6"/>
<path class="st0" d="M534.8,171.8c-8,0-14.4,6.4-14.4,14.4c0,8.1,6.3,14.4,14.4,14.4s14.4-6.3,14.4-14.4
	C549.2,178.2,542.7,171.8,534.8,171.8 M534.8,196.7c-5.8,0-10.4-4.7-10.4-10.6c0-6,4.5-10.6,10.4-10.6c6,0,10.4,4.6,10.4,10.6
	C545.2,192,540.5,196.7,534.8,196.7z"/>
<polyline class="st0" points="574.9,172.3 574.9,191.8 554.7,170.6 554.7,199.9 558.7,199.9 558.7,180.3 578.9,201.5 578.9,172.3 
	574.9,172.3 "/>
<polyline class="st0" points="307.7,191.7 299.9,172.3 295.5,172.3 307.7,201.9 319.9,172.3 315.5,172.3 307.7,191.7 "/>
<polyline class="st0" points="570,152.6 559.1,152.6 559.1,119.8 550,119.8 550,110.6 579,110.6 579,119.8 570,119.8 570,152.6 "/>
</svg>
