<?xml version="1.0" encoding="UTF-8"?>
<!DOCTYPE svg PUBLIC "-//W3C//DTD SVG 1.1//EN" "http://www.w3.org/Graphics/SVG/1.1/DTD/svg11.dtd">
<!-- Creator: CorelDRAW X7 -->
<svg xmlns="http://www.w3.org/2000/svg" xml:space="preserve" width="100mm" height="26mm" version="1.1" style="shape-rendering:geometricPrecision; text-rendering:geometricPrecision; image-rendering:optimizeQuality; fill-rule:evenodd; clip-rule:evenodd"
viewBox="0 0 10000 2600"
 xmlns:xlink="http://www.w3.org/1999/xlink">
 <defs>
  <style type="text/css">
   <![CDATA[
    .str0 {stroke:#2B2A29;stroke-width:20}
    .fil4 {fill:none}
    .fil2 {fill:#E63A33;fill-rule:nonzero}
    .fil3 {fill:#74675E;fill-rule:nonzero}
    .fil1 {fill:#E63A33;fill-rule:nonzero;fill-opacity:0.250980}
    .fil0 {fill:#8F847E;fill-rule:nonzero;fill-opacity:0.250980}
   ]]>
  </style>
 </defs>
 <g id="Layer_x0020_1">
  <metadata id="CorelCorpID_0Corel-Layer"/>
  <g id="_738165696">
   <path class="fil0" d="M-17857 3315c-25,23 -58,34 -93,31 -70,-4 -123,-66 -118,-136 5,-70 66,-123 136,-118 71,5 124,66 119,136 -2,34 -18,65 -44,87zm-152 452c-6,0 -12,-1 -18,-2 -33,-8 -62,-27 -80,-56 -19,-28 -25,-63 -18,-96 15,-68 83,-113 152,-98 69,15 112,83 98,152 -13,61 -71,105 -134,100zm-154 401c-32,-12 -58,-36 -72,-67 -14,-31 -16,-65 -4,-98 20,-52 73,-86 129,-82 12,0 24,3 36,7 31,12 57,36 71,67 14,30 15,65 4,96l0 1c-20,53 -73,87 -129,83 -12,-1 -24,-3 -35,-7zm-1437 -21l0 1c-13,15 -33,24 -54,24 -17,0 -33,-6 -46,-18 -15,-12 -23,-29 -25,-48 -1,-19 5,-38 18,-52 13,-16 33,-25 53,-25 18,0 34,7 47,18 15,12 23,30 25,49 1,19 -5,37 -18,51zm343 299l0 0c-17,19 -42,31 -67,31 -22,0 -43,-8 -59,-23 -19,-15 -30,-37 -31,-61 -2,-24 6,-47 21,-65 18,-20 43,-31 69,-31 21,0 42,7 59,22 18,15 29,37 30,61 2,24 -6,48 -22,66zm999 -656l0 0c-14,48 -59,82 -109,82 -11,0 -22,-1 -32,-4 -29,-9 -53,-28 -68,-55 -14,-27 -18,-57 -9,-87 14,-48 58,-81 109,-81 10,0 21,1 32,4 29,9 53,28 67,55 15,26 18,57 10,86zm-29 -287c-5,0 -11,-1 -16,-2 -30,-4 -57,-20 -75,-44 -18,-24 -26,-54 -22,-84 9,-61 67,-106 129,-97 62,9 105,67 96,129 -8,56 -56,98 -112,98zm-1670 -1625c-13,17 -34,26 -55,24 -12,-1 -24,-5 -34,-13l0 0c-14,-11 -22,-25 -24,-42 -3,-17 2,-33 12,-47 13,-17 34,-26 55,-25 13,1 24,6 34,13 28,22 33,62 12,90zm-40 -184c-14,0 -27,-4 -39,-12l0 0c-16,-11 -27,-26 -30,-45 -4,-19 -1,-38 10,-54 13,-20 35,-32 59,-32 14,0 28,4 40,12 32,22 41,66 20,99 -13,20 -36,32 -60,32zm-39 275c13,0 26,5 37,14 11,10 18,24 19,39 1,15 -4,30 -14,41 -11,12 -26,19 -42,19 -14,0 -28,-5 -38,-14 -11,-10 -18,-24 -19,-39 -1,-15 4,-29 14,-41 11,-12 26,-19 43,-19zm-1432 -210c7,-3 15,-4 23,-4 22,0 43,12 52,33 12,28 0,62 -29,74 -7,4 -15,5 -23,5 -22,0 -42,-13 -51,-33 -13,-28 0,-62 28,-75zm37 -197c8,-3 17,-4 26,-4 25,2 46,18 55,42 12,33 -5,69 -38,81 -9,3 -17,4 -26,4 -25,-2 -47,-19 -55,-42 -12,-33 5,-69 38,-81zm113 157c8,-13 20,-23 34,-27 5,-1 11,-2 16,-2 25,0 47,17 54,41 9,30 -9,61 -38,70l-1 0c-5,1 -10,2 -15,2 -25,0 -48,-17 -55,-41 -4,-15 -2,-30 5,-43zm609 48l-9 0c-30,-5 -52,-34 -47,-64 5,-31 33,-52 64,-48 15,2 28,10 37,22 9,13 13,28 11,42 -4,28 -28,48 -56,48zm-188 -127c32,0 57,26 57,57 0,31 -26,56 -57,56l0 0c-15,0 -29,-6 -40,-17 -10,-11 -16,-25 -16,-40 0,-31 25,-56 56,-56zm48 -106c3,-35 33,-61 68,-59 35,3 61,34 58,69 -2,34 -33,61 -68,58l0 0c-17,-1 -32,-9 -43,-22 -11,-13 -16,-30 -15,-46zm-410 -5c9,-14 23,-24 40,-27 5,-1 11,-2 17,-1 28,2 52,23 58,50 7,34 -15,68 -49,75l-1 0c-6,1 -11,2 -17,1 -28,-2 -52,-23 -58,-50 -3,-17 0,-34 10,-48zm119 -234c39,-5 75,23 80,61 5,39 -22,75 -61,81 -3,0 -7,0 -10,0l0 0c-35,0 -66,-26 -70,-62 -6,-38 22,-74 61,-80zm35 -141c-2,-44 31,-82 75,-85 45,-3 82,32 85,75 3,44 -31,82 -75,85 -3,0 -7,0 -10,0l-1 0c-39,-3 -71,-35 -74,-75zm458 145c19,3 36,13 47,28 11,16 16,34 13,53 -5,35 -35,61 -70,61 -4,0 -7,0 -11,-1 -39,-6 -66,-42 -60,-81 6,-38 42,-66 81,-60zm84 210c17,4 31,14 40,28 9,14 12,31 8,48 -7,30 -36,51 -67,49 -3,0 -6,-1 -9,-1 -34,-8 -56,-42 -48,-76 8,-34 42,-56 76,-48zm53 189c15,5 27,14 34,28 7,13 9,28 4,43 -7,23 -29,40 -54,40 -5,0 -11,-1 -16,-3 -30,-9 -47,-40 -38,-70 7,-24 29,-40 54,-40 6,0 11,1 16,2zm76 -88c10,-26 36,-43 64,-41 6,0 12,2 18,4 16,6 28,18 35,34 7,15 7,32 1,48 -10,26 -36,43 -64,41 -6,-1 -12,-2 -18,-4 -33,-13 -49,-50 -36,-82zm137 190c5,15 4,30 -2,44 -9,19 -29,32 -51,32 -8,0 -16,-2 -24,-5l0 0c-14,-7 -24,-18 -29,-32 -5,-14 -5,-30 2,-43 9,-20 29,-33 51,-33 8,0 16,2 24,5 14,7 24,18 29,32zm-1421 29c-3,17 -12,32 -26,42 -12,9 -27,13 -42,12 -19,-1 -35,-11 -46,-26 -10,-13 -14,-30 -12,-47 3,-16 12,-31 25,-41 12,-9 27,-14 42,-12 19,1 36,10 47,25 10,14 14,31 12,47zm-39 -161l0 1c-12,7 -25,10 -38,10 -24,0 -47,-12 -60,-33 -10,-16 -14,-35 -9,-53 4,-19 15,-35 31,-45 11,-7 24,-11 38,-11 25,0 47,12 60,33 21,33 11,77 -22,98zm-94 2483c13,-17 34,-27 55,-25 13,1 24,5 34,12l0 1c14,10 22,25 24,41 3,17 -2,34 -12,47 -13,18 -34,27 -55,25 -12,-1 -24,-5 -34,-13 -13,-10 -22,-25 -24,-41 -3,-17 2,-34 12,-47zm41 183c14,0 27,4 39,12l0 0c16,10 27,26 31,44 4,19 0,38 -10,54 -14,20 -36,33 -60,33 -14,0 -27,-4 -39,-12 -16,-10 -27,-26 -31,-45 -4,-18 0,-38 10,-53 13,-21 36,-33 60,-33zm38 -275c-14,0 -27,-5 -38,-14 -23,-21 -25,-56 -5,-80 11,-12 26,-19 43,-19 13,0 27,5 37,14 23,20 26,56 5,79 -11,13 -26,20 -42,20zm-382 -875c4,31 -18,60 -48,64l-8 1c-28,0 -52,-21 -56,-49 -2,-15 2,-30 11,-42 9,-12 22,-20 37,-22 31,-4 60,18 64,48zm-68 -123l-1 0c-31,0 -56,-26 -56,-57 0,-31 26,-56 57,-56 31,0 56,26 56,57 0,31 -25,56 -56,56zm105 299c9,30 -9,62 -39,70 -5,2 -10,3 -15,3 -25,0 -48,-17 -54,-41 -5,-15 -3,-30 4,-43 8,-13 20,-23 34,-27 5,-2 11,-2 16,-2 25,0 47,16 54,40zm64 212c-6,15 -16,26 -30,32 -7,3 -15,5 -23,5 -22,0 -43,-13 -52,-33 -13,-29 0,-62 28,-75 8,-3 16,-5 24,-5 22,0 42,13 51,33 6,14 7,29 2,43zm66 193c-9,6 -19,9 -30,9 -19,0 -37,-10 -47,-26 -9,-13 -11,-28 -8,-42 3,-15 12,-28 25,-36 9,-6 19,-9 30,-9 20,0 37,10 48,26 17,27 9,62 -18,78zm-47 133c-2,17 -11,32 -25,42 -12,9 -27,13 -42,12 -19,-1 -35,-11 -46,-25 -10,-14 -15,-31 -12,-47 2,-17 11,-32 25,-42 12,-9 27,-14 42,-12 19,1 36,10 47,25l0 1c10,13 14,30 11,46zm-145 -132c-11,6 -23,9 -35,8 -22,-2 -41,-14 -51,-33 -8,-15 -10,-33 -5,-49 5,-16 16,-29 31,-37 10,-6 22,-9 34,-8 22,2 41,14 52,33 16,31 4,70 -26,86zm-95 -189c-9,4 -18,5 -27,4 -24,-2 -46,-18 -55,-41 -11,-33 6,-70 38,-82 9,-3 18,-4 27,-3 25,1 46,18 55,41 6,16 5,33 -2,49 -8,15 -20,27 -36,32zm-207 -347c5,39 -23,75 -61,80 -4,1 -7,1 -10,1 -36,0 -66,-27 -71,-62 -2,-19 3,-37 14,-52 12,-16 28,-25 47,-28 39,-6 75,23 81,61zm-86 -156l-1 0c-39,0 -71,-32 -71,-72 0,-39 32,-70 72,-70 39,0 71,32 71,71 -1,39 -33,71 -71,71zm133 378c10,38 -11,77 -49,88 -7,2 -13,3 -20,3 -32,0 -60,-21 -68,-52 -6,-18 -4,-37 6,-54 9,-16 24,-28 42,-34 7,-1 13,-2 20,-2 32,0 60,21 69,51zm-11 -343c-1,-17 4,-33 15,-46 12,-12 27,-20 44,-21 35,-2 65,25 67,60 2,34 -24,65 -59,67 -3,0 -6,0 -9,0 -31,-3 -56,-28 -58,-60zm38 171c9,-14 23,-24 40,-27 6,-2 12,-2 18,-1 28,2 52,22 57,50 7,34 -15,68 -49,75 -6,1 -12,1 -18,1 -28,-2 -51,-23 -57,-50 -3,-17 0,-34 9,-48zm-36 -391c2,-34 33,-61 67,-58 36,3 62,33 59,68 -3,35 -33,61 -68,58l0 0c-35,-2 -61,-33 -58,-68zm32 -218c8,-33 42,-55 76,-48 34,8 56,42 48,76 -7,31 -35,52 -66,50 -3,-1 -6,-1 -10,-2 -16,-3 -30,-13 -39,-28 -9,-14 -12,-31 -9,-48zm57 1049c-7,18 -20,32 -38,39 -9,5 -19,7 -29,7 -28,0 -54,-17 -65,-42 -16,-36 0,-78 36,-94 9,-5 19,-7 29,-7 28,0 53,17 65,42 8,18 8,37 2,55zm-157 248c-14,7 -29,11 -44,9 -27,-2 -52,-17 -65,-41 -10,-19 -12,-41 -6,-61 6,-21 20,-38 39,-48 13,-7 28,-10 43,-9 28,2 52,17 65,41 21,39 7,88 -32,109zm-120 -238c-11,4 -22,5 -34,5 -31,-3 -58,-23 -69,-53 -15,-41 6,-87 47,-103 11,-3 22,-5 34,-4 31,2 58,23 69,52 8,20 7,42 -2,61 -9,20 -25,34 -45,42zm-218 -591c-1,-21 6,-42 20,-58 14,-16 33,-25 55,-27 44,-3 82,32 85,75 3,44 -31,82 -75,85 -4,0 -7,0 -11,0 -40,-3 -71,-35 -74,-75zm49 216c12,-18 30,-31 51,-35 7,-1 15,-2 22,-1 35,2 65,28 73,63 9,43 -19,86 -62,95 -8,1 -15,2 -23,1 -35,-2 -65,-28 -72,-63 -5,-21 -1,-42 11,-60zm-47 -494c3,-44 42,-77 86,-73 44,3 77,42 74,86 -4,43 -42,77 -86,73l0 0c-44,-3 -78,-42 -74,-86zm41 -275c9,-42 52,-70 95,-60 44,9 71,52 61,95 -8,39 -44,65 -84,63 -3,-1 -7,-1 -11,-2 -21,-5 -39,-17 -51,-35 -11,-18 -15,-40 -10,-61zm72 1320c-9,22 -25,40 -47,50 -12,5 -24,8 -37,8 -36,0 -68,-21 -82,-53 -21,-45 -1,-99 44,-119 12,-5 25,-8 37,-8 36,0 68,21 83,53 9,22 10,46 2,69zm-188 -223c-40,0 -75,-27 -86,-66 -7,-23 -4,-47 7,-68 12,-21 31,-36 54,-43 8,-2 17,-3 25,-3 40,0 76,26 87,65 13,47 -14,97 -62,111 -8,2 -17,4 -25,4zm-151 -371c-3,-24 3,-48 18,-67 14,-19 35,-31 59,-35 50,-7 95,29 101,77 7,49 -28,95 -76,102 -5,0 -9,0 -13,0 -45,0 -83,-33 -89,-77zm70 -222l-1 0c-49,0 -90,-40 -89,-90 0,-49 40,-90 90,-90 50,1 90,41 90,91 -1,49 -41,89 -90,89zm-22 781c-11,24 -32,43 -57,52 -14,5 -28,7 -42,6 -40,-3 -74,-28 -88,-66 -19,-52 8,-110 60,-130 13,-4 28,-7 42,-6 40,3 74,29 88,66 9,25 8,53 -3,78zm-285 -345c-5,-26 -1,-54 14,-76 15,-23 37,-38 64,-44 9,-2 19,-3 28,-2 45,3 83,36 92,80 12,54 -23,108 -78,120 -9,2 -19,2 -28,2 -45,-3 -82,-36 -92,-80zm-48 -348c-2,-27 7,-53 25,-73 17,-20 42,-33 69,-34 56,-4 104,39 107,94 4,55 -38,104 -94,107 -4,1 -9,1 -14,0 -50,-3 -90,-44 -93,-94zm1 -351c4,-55 53,-97 108,-93 56,4 98,53 94,108 -4,56 -53,98 -108,94l-1 0c-55,-4 -97,-53 -93,-109zm51 -347c12,-54 66,-89 121,-77 54,12 89,66 77,120 -11,49 -56,83 -106,80 -5,-1 -10,-1 -15,-3 -26,-5 -49,-21 -63,-44 -15,-23 -20,-50 -14,-76zm100 -337c16,-41 58,-68 102,-65 10,1 19,3 29,6 52,20 78,78 59,131 -16,41 -58,68 -102,65 -10,-1 -20,-3 -29,-6 -25,-10 -45,-29 -56,-53 -11,-25 -12,-52 -3,-78zm238 470c50,7 84,53 76,102 -6,44 -44,77 -88,77 -5,0 -9,-1 -14,-1 -24,-4 -45,-16 -59,-36 -14,-19 -20,-43 -17,-66 7,-49 53,-84 102,-76zm-34 -230c12,-37 47,-64 86,-64 9,0 18,2 26,4 48,14 75,64 61,112 -12,38 -47,64 -87,64 -8,0 -17,-1 -25,-3 -24,-7 -42,-23 -54,-44 -11,-21 -14,-45 -7,-69zm111 -292c15,-32 47,-52 82,-52 13,0 26,3 38,8 22,11 38,28 46,51 9,23 8,47 -3,69 -14,32 -46,52 -81,52 -13,0 -26,-3 -38,-9 -45,-20 -65,-74 -44,-119zm245 177c8,1 16,3 23,5 41,16 62,62 46,104 -12,33 -45,54 -80,51 -8,0 -16,-2 -23,-5 -20,-8 -36,-22 -45,-42 -8,-19 -9,-41 -1,-61 12,-33 45,-54 80,-52zm107 428c39,5 66,42 60,81 -5,34 -35,60 -70,60 -4,0 -7,0 -11,0 -19,-3 -36,-13 -47,-28 -11,-16 -16,-35 -13,-53 6,-39 42,-66 81,-60zm-27 -182c9,-30 37,-51 68,-51 7,0 14,1 20,3 38,11 60,51 48,89 -9,30 -37,51 -68,51 -7,0 -14,-1 -20,-3 -19,-6 -34,-18 -43,-35 -9,-17 -11,-36 -5,-54zm88 -232c11,-25 37,-41 64,-41 11,0 21,2 30,7 18,8 31,22 37,40 7,18 6,37 -2,54 -12,25 -37,42 -65,42 -10,0 -20,-3 -30,-7 -35,-17 -51,-59 -34,-95zm195 138c6,0 12,2 18,4 33,12 49,49 37,82 -10,26 -37,43 -64,41 -6,-1 -12,-2 -18,-5 -16,-6 -29,-17 -36,-33 -7,-15 -7,-33 -1,-48 10,-26 36,-43 64,-41zm83 341c31,5 52,34 48,64 -4,28 -28,49 -56,49l-8 -1c-15,-2 -28,-10 -37,-22 -9,-12 -13,-27 -11,-42 5,-30 33,-52 64,-48zm-21 -144c7,-23 29,-40 54,-40 5,0 11,1 16,3 30,9 47,40 38,70 -7,24 -30,40 -54,40 -6,0 -11,-1 -16,-2 -15,-5 -27,-14 -34,-28 -7,-13 -9,-28 -4,-43zm69 -183c10,-20 30,-33 52,-33 8,0 16,2 23,6 14,6 24,17 30,31 5,15 4,30 -2,44 -9,19 -30,32 -51,32 -9,0 -17,-2 -24,-5 -29,-13 -41,-47 -28,-75zm19 -357c13,-18 34,-27 56,-25 12,1 24,5 33,13 14,10 22,25 25,42 2,16 -2,33 -13,47 -13,17 -33,26 -55,24 -12,-1 -24,-5 -34,-12 -27,-22 -33,-62 -12,-89zm124 160c11,0 21,3 31,9 12,8 21,21 24,36 3,15 0,30 -8,42 -10,16 -28,26 -47,26 -11,0 -22,-3 -31,-9 -26,-17 -34,-53 -16,-78 10,-17 28,-26 47,-26zm304 -221c-1,15 -8,29 -20,38 -10,9 -23,14 -37,14 -16,0 -32,-7 -42,-20 -10,-11 -15,-26 -14,-41 1,-15 8,-28 20,-38 10,-9 23,-14 36,-14 17,0 33,7 43,20 10,11 15,26 14,41zm130 2130c-11,16 -28,26 -47,26 -11,0 -22,-3 -31,-9 -13,-8 -21,-21 -25,-36 -3,-14 0,-29 8,-42 11,-16 29,-26 48,-26 11,0 21,3 30,9l1 0c12,9 21,21 24,36 3,15 0,30 -8,42zm1236 115c-8,3 -16,5 -24,5 -22,0 -42,-13 -51,-33 -6,-14 -7,-29 -2,-43 6,-15 16,-26 30,-32 7,-3 15,-5 23,-5 22,0 42,13 51,33 13,28 1,62 -27,75zm-36 198c-9,3 -18,4 -27,3 -24,-2 -46,-18 -55,-41 -5,-16 -5,-33 2,-49 8,-15 20,-27 36,-33 9,-3 18,-4 27,-3 24,2 46,18 54,41 13,33 -4,69 -37,82zm-148 -130c-5,2 -11,2 -16,2 -25,0 -47,-17 -54,-41 -5,-14 -3,-29 4,-42 8,-14 20,-23 34,-28 5,-1 11,-2 16,-2 25,0 47,17 54,41 9,30 -8,61 -38,70zm-567 -72c15,2 28,10 37,22 9,12 13,27 11,42 -4,28 -28,49 -56,49l-8 -1c-15,-2 -28,-10 -37,-22 -9,-12 -13,-27 -11,-42 5,-30 33,-52 64,-48zm233 187c11,-12 27,-20 44,-21 35,-2 65,25 67,59 1,17 -4,34 -16,46 -11,13 -26,21 -43,22 -3,0 -6,0 -9,0 -31,-3 -57,-28 -59,-59 -1,-17 5,-34 16,-47zm190 -138c2,15 -2,30 -11,42 -9,12 -22,20 -37,22l-8 1c-28,0 -52,-21 -56,-49 -2,-15 2,-30 11,-42 9,-12 22,-20 37,-22 31,-4 60,18 64,48zm80 214c-6,1 -12,1 -18,1 -28,-2 -51,-23 -57,-50 -4,-17 0,-34 9,-48 9,-14 23,-24 40,-28 6,-1 12,-1 18,-1 28,2 51,23 57,50 7,35 -15,68 -49,76zm-31 179c-11,15 -28,25 -47,28 -3,0 -6,0 -10,0 -35,0 -65,-26 -70,-61 -3,-19 2,-38 14,-53 11,-15 28,-25 47,-28 39,-5 75,23 80,61 3,19 -2,38 -14,53zm-82 169c2,21 -5,42 -19,58 -14,16 -34,26 -55,27 -4,0 -8,0 -11,0 -40,-3 -72,-35 -74,-74 -2,-22 5,-42 19,-59 14,-16 34,-25 55,-27 44,-3 83,31 85,75zm-211 -125l-1 0c-39,0 -71,-32 -71,-71 0,-39 32,-71 72,-71 39,0 71,32 71,71 0,40 -32,71 -71,71zm-55 135c-3,44 -42,77 -86,74l0 0c-44,-3 -77,-42 -74,-86 3,-44 42,-77 86,-74 44,4 77,42 74,86zm-268 -361c-3,0 -6,0 -9,-1 -17,-4 -31,-14 -40,-28 -9,-14 -12,-31 -8,-48 7,-33 41,-56 75,-48 17,4 31,14 40,28 9,14 12,31 9,48 -7,30 -36,52 -67,49zm-64 -190c-14,-4 -26,-14 -33,-27 -7,-14 -9,-29 -5,-43 7,-24 30,-41 54,-41 6,0 11,1 16,3 30,8 47,40 38,70 -7,24 -29,40 -54,40 -5,0 -10,-1 -16,-2zm-14 297c-8,30 -37,51 -68,51 -7,0 -13,-1 -20,-3 -18,-5 -34,-18 -43,-34 -9,-17 -11,-36 -5,-54 9,-31 37,-51 68,-51 7,0 14,0 20,2 38,12 60,51 48,89zm-142 -171c-16,-6 -29,-18 -36,-33 -7,-16 -7,-33 -1,-49 10,-26 36,-43 64,-41 6,1 12,2 18,4 32,13 49,49 37,82 -10,26 -37,43 -64,41 -6,-1 -12,-2 -18,-4zm-57 -227c-5,-14 -4,-30 2,-43 9,-20 29,-33 51,-33 9,0 17,2 24,5 14,6 24,18 29,32 6,14 5,29 -1,43 -10,20 -30,33 -52,33 -8,0 -16,-2 -23,-5 -14,-7 -24,-18 -30,-32zm1278 -2346c10,-16 28,-25 47,-25 11,0 22,3 31,9 26,17 33,52 16,78 -10,16 -28,26 -47,26 -11,0 -22,-3 -31,-9l0 -1c-13,-8 -21,-21 -24,-35 -3,-15 0,-30 8,-43zm144 2309c2,-16 11,-31 24,-41l1 0c12,-9 27,-14 42,-13 19,2 35,11 46,26 21,28 15,68 -13,88 -12,10 -27,14 -42,13 -19,-2 -36,-11 -47,-26 -10,-13 -14,-30 -11,-47zm39 161c11,-7 25,-11 38,-11 25,0 47,12 60,33 11,16 14,35 10,53 -4,19 -15,35 -31,45 -12,8 -25,12 -39,12 -24,0 -47,-13 -60,-33 -21,-33 -11,-78 22,-99zm1544 -819c-10,48 -56,83 -105,79 -5,0 -10,-1 -15,-2 -26,-6 -49,-21 -63,-44 -15,-23 -20,-50 -14,-76 11,-54 65,-89 120,-78 54,12 89,66 77,121zm-58 -254c-56,-4 -98,-52 -94,-108 4,-56 52,-98 108,-94 55,4 97,52 93,108 -1,27 -14,52 -34,69 -20,18 -46,27 -73,25zm-39 590l-1 1c-15,41 -57,68 -102,65 -9,0 -19,-2 -28,-6 -25,-9 -45,-28 -57,-52 -11,-25 -12,-52 -2,-78 15,-42 57,-69 101,-65 10,0 19,2 29,6 25,9 45,28 56,52 12,25 13,52 4,77zm-229 -467c-4,0 -8,0 -13,0 -23,-4 -44,-16 -59,-36 -14,-19 -20,-43 -17,-66 7,-49 53,-84 102,-77 49,7 83,53 76,102 -6,44 -44,77 -89,77zm85 -325c-17,17 -40,27 -64,27 -49,0 -90,-41 -90,-90 0,-50 41,-90 90,-90 50,0 90,40 90,90 0,24 -9,46 -26,63zm-62 553l0 0c-11,39 -47,65 -86,65 -9,0 -17,-1 -26,-3 -23,-7 -42,-23 -53,-44 -12,-21 -15,-45 -8,-68 11,-38 47,-65 87,-65 8,0 17,1 25,4 23,7 42,22 54,43 11,21 14,45 7,68zm-197 -201c-8,38 -44,65 -84,63 -3,-1 -7,-1 -11,-2 -21,-5 -39,-17 -50,-35 -12,-18 -16,-39 -11,-60 9,-43 52,-71 95,-62 43,10 71,53 61,96zm-46 -201c-44,-3 -77,-42 -74,-86 3,-44 42,-77 86,-74 44,3 77,41 74,86 -2,21 -11,40 -28,54 -16,14 -36,21 -58,20zm-44 -670c8,-2 15,-2 23,-2 35,3 65,29 72,64 9,44 -19,86 -62,95 -7,1 -15,2 -22,1 -36,-2 -65,-28 -73,-63l0 0c-9,-44 19,-86 62,-95zm132 338c2,44 -32,82 -76,85 -3,0 -7,0 -10,0 -40,-3 -72,-36 -74,-75 -2,-22 5,-43 20,-58 14,-16 33,-26 55,-27 44,-3 82,31 85,75zm45 1028c-14,32 -46,52 -81,52 -13,0 -26,-3 -38,-8 -22,-10 -38,-28 -47,-51 -8,-22 -7,-47 3,-68 14,-32 47,-53 82,-53 13,0 25,3 37,8 45,21 65,75 44,120zm-246 -177c-8,0 -15,-2 -22,-4 -20,-8 -36,-23 -45,-42 -9,-20 -10,-41 -2,-62 12,-33 45,-54 81,-51 7,0 15,2 22,5 20,7 36,22 45,41 9,20 9,41 2,61l0 1c-12,33 -46,54 -81,51zm-237 -401c-6,30 -35,52 -66,49 -3,0 -6,0 -9,-1 -17,-4 -31,-13 -40,-28 -9,-14 -12,-31 -9,-48 8,-33 42,-55 76,-48 34,8 56,42 48,76zm-36 -160c-35,-2 -61,-33 -58,-68 2,-35 33,-61 67,-58 35,2 62,33 59,68 -1,17 -9,32 -22,43 -13,11 -29,17 -46,15zm-33 -530c5,-1 11,-2 17,-1 28,2 52,23 58,50 7,35 -16,68 -50,75 -6,1 -12,2 -17,1 -28,-2 -52,-22 -58,-50l0 0c-7,-35 15,-68 50,-75zm103 268c2,35 -25,65 -60,67l-8 0c-32,-3 -57,-28 -59,-60 -1,-17 5,-33 16,-46 11,-12 27,-20 44,-21 35,-2 65,25 67,60zm40 -431c6,-2 13,-3 19,-3 32,0 60,22 69,52 11,38 -11,78 -49,88 -7,2 -13,3 -20,3 -31,0 -59,-21 -68,-51l0 -1c-11,-38 11,-77 49,-88zm138 292c5,39 -23,75 -61,80 -4,0 -7,1 -10,1 -35,0 -66,-27 -70,-62 -3,-19 2,-38 14,-53 11,-15 28,-25 47,-27 39,-6 75,22 80,61zm15 229c0,19 -8,37 -21,50 -14,13 -31,21 -51,21 -39,0 -71,-32 -71,-71 0,-40 32,-72 71,-72 40,0 72,32 72,72zm-88 308c-4,0 -7,-1 -10,-1 -19,-3 -36,-13 -47,-28 -12,-15 -17,-34 -14,-53 6,-38 42,-66 81,-60 39,5 66,41 60,80 -5,35 -35,62 -70,62zm18 180l0 0c-9,30 -37,51 -69,51 -6,0 -13,0 -20,-2 -18,-6 -33,-18 -42,-35 -9,-16 -11,-36 -6,-54 9,-30 37,-51 68,-51 7,0 14,1 21,3 18,5 33,17 42,34 9,17 11,36 6,54zm-87 232c-12,26 -37,42 -65,42 -10,0 -20,-2 -29,-6 -18,-9 -31,-23 -38,-41 -6,-17 -5,-37 2,-54 12,-25 38,-42 65,-42 11,0 21,3 30,7 36,16 52,59 35,94zm-196 -136c-6,-1 -12,-2 -18,-4 -16,-6 -28,-18 -35,-33 -7,-16 -8,-33 -2,-49 10,-26 36,-43 64,-41 6,1 12,2 18,4 16,6 28,18 35,34 7,15 8,32 2,48l0 0c-10,26 -37,43 -64,41zm-230 -1139c6,-14 16,-26 30,-32 7,-3 15,-5 23,-5 22,0 43,14 52,34 12,28 -1,62 -29,74 -7,4 -15,5 -23,5 -22,0 -43,-13 -52,-33 -6,-14 -6,-29 -1,-43zm117 140c25,0 47,17 54,41 9,30 -9,62 -39,70 -5,1 -10,2 -15,2 -25,0 -47,-17 -54,-41l0 0c-9,-30 9,-61 39,-70 5,-1 10,-2 15,-2zm94 233c4,31 -18,60 -49,64l-7 0c-28,0 -52,-21 -56,-49 -2,-15 2,-30 11,-42 9,-11 23,-19 38,-21 31,-4 59,18 63,48zm12 182c0,15 -6,29 -17,39 -10,11 -25,17 -40,17 -31,0 -56,-25 -56,-56 0,-32 25,-57 56,-57 31,0 57,25 57,57zm-70 244l-8 -1c-15,-2 -28,-10 -37,-22 -9,-12 -13,-27 -11,-42 5,-30 33,-52 64,-48 31,5 52,33 48,64 -4,28 -28,49 -56,49zm14 142l0 1c-7,24 -29,40 -54,40 -5,0 -10,-1 -16,-2 -14,-4 -26,-14 -33,-27 -8,-13 -9,-29 -5,-43 7,-24 29,-41 54,-41 6,0 11,1 16,3 14,4 26,13 34,27 7,13 8,28 4,42zm-68 185c-10,20 -30,33 -52,33 -8,0 -16,-2 -23,-6 -14,-6 -24,-17 -30,-31 -5,-15 -4,-30 2,-44 9,-20 29,-33 51,-33 8,0 16,2 24,6 28,13 41,46 28,75zm-5 310c2,17 -2,33 -12,47l-1 0c-13,17 -33,27 -55,25 -12,-1 -24,-5 -34,-13 -27,-21 -33,-61 -12,-88 13,-18 34,-27 56,-25 12,0 23,5 33,12 13,11 22,25 25,42zm-137 -113c-11,0 -22,-3 -31,-9 -26,-17 -33,-52 -17,-78 11,-16 29,-26 48,-26 11,0 21,4 30,10 13,8 22,20 25,35 3,15 1,29 -8,42l0 1c-10,16 -28,25 -47,25zm-289 264c-10,-11 -15,-26 -14,-41 2,-15 8,-29 19,-38l1 -1c10,-9 23,-13 37,-13 16,0 32,7 42,19 21,24 18,59 -5,80 -11,9 -24,13 -37,13 -17,0 -32,-7 -43,-19zm266 -1781c9,-5 20,-8 31,-8 19,0 37,10 47,26 17,26 9,61 -17,78 -9,6 -20,9 -30,9 -20,0 -38,-10 -48,-27 -17,-26 -9,-61 17,-78zm48 -132c3,-17 12,-32 26,-42 12,-9 26,-13 42,-12 18,2 35,11 46,26 10,14 14,31 12,47 -3,17 -12,32 -26,42 -12,9 -27,13 -42,12 -18,-2 -35,-11 -46,-26 -10,-14 -14,-31 -12,-47zm145 132c11,-5 23,-8 35,-7 22,2 41,14 51,34 16,31 5,69 -26,85 -11,6 -23,9 -35,8 -22,-2 -41,-14 -51,-34 -16,-31 -5,-69 26,-86zm94 190c8,-3 17,-4 26,-4 25,2 47,19 55,42 12,33 -5,69 -38,81 -9,3 -17,5 -26,4 -25,-2 -47,-18 -55,-42 -6,-16 -5,-33 2,-49 7,-15 20,-27 36,-32zm81 -142c7,-18 20,-32 38,-40 9,-4 19,-6 29,-6 28,0 53,17 65,42 16,36 0,79 -36,95 -10,4 -19,6 -29,6 -29,0 -54,-17 -66,-43 -7,-17 -8,-36 -1,-54zm158 -247c13,-7 28,-11 44,-10 27,2 51,18 65,43 20,39 6,87 -33,108 -14,7 -29,10 -44,9 -27,-2 -52,-18 -65,-42 -21,-39 -6,-88 33,-108zm119 238c11,-4 22,-5 33,-4 31,2 59,23 70,52 15,42 -7,88 -49,103 -10,4 -21,6 -33,5 -31,-3 -58,-23 -69,-53 -7,-20 -6,-42 3,-61 9,-20 25,-34 45,-42zm104 -175c8,-22 25,-40 47,-50 12,-5 24,-8 37,-8 35,0 68,21 82,54 20,45 0,98 -46,119 -11,5 -23,7 -36,7 -35,0 -68,-21 -82,-53 -10,-22 -11,-47 -2,-69zm186 224c40,0 75,27 86,66 14,47 -14,97 -62,111 -8,2 -16,3 -24,3 -40,0 -76,-27 -87,-65l0 0c-13,-48 15,-98 62,-112 8,-2 17,-3 25,-3zm149 372c7,49 -28,94 -77,101 -4,0 -8,1 -12,1 -45,0 -83,-34 -89,-79 -3,-23 3,-47 18,-66 14,-19 36,-31 59,-35 50,-6 95,29 101,78zm-44 -559c11,-25 31,-43 57,-53 13,-4 27,-6 41,-5 40,2 75,28 88,66 19,52 -8,110 -60,130 -14,4 -28,7 -42,6 -40,-3 -74,-29 -88,-67 -9,-25 -8,-53 4,-77zm282 346c12,54 -23,108 -78,119 -9,2 -18,3 -28,2 -44,-3 -82,-36 -91,-79l-1 -1c-11,-55 24,-108 79,-120 9,-2 18,-2 27,-2 45,4 83,37 92,81zm47 348c3,56 -39,103 -95,107 -4,0 -9,0 -13,0 -50,-4 -91,-44 -94,-95 -1,-27 7,-53 25,-73 18,-20 43,-32 70,-34 56,-3 104,40 107,95zm58 1302c-18,41 -59,67 -103,67 -16,0 -32,-4 -47,-11 -28,-12 -49,-35 -59,-63 -11,-29 -10,-60 3,-87 18,-41 59,-67 103,-67 16,0 32,4 48,11 56,26 82,94 55,150zm-189 346l0 1c-21,32 -57,52 -96,52 -22,0 -43,-7 -62,-19 -52,-34 -67,-104 -33,-157 21,-32 56,-52 95,-52 22,0 43,7 62,19 25,16 43,41 49,71 7,29 1,59 -15,85zm-259 -266c-15,-1 -29,-5 -42,-12 -23,-13 -41,-35 -48,-61 -8,-25 -5,-53 8,-76 19,-35 57,-56 96,-53 14,1 28,5 41,12 49,27 67,89 40,137 -18,35 -56,56 -95,53zm-94 242l0 1c-21,28 -54,43 -89,40 -19,-1 -38,-8 -53,-20 -45,-33 -54,-97 -20,-141 20,-28 53,-43 88,-40 19,1 37,8 53,19 22,17 36,40 40,67 3,26 -3,53 -19,74zm-206 -245c-17,0 -34,-5 -48,-14 -42,-27 -54,-83 -27,-125 17,-26 45,-41 76,-41 17,0 34,5 48,14 20,13 35,34 39,57 5,23 1,47 -12,67l0 1c-17,26 -45,41 -76,41zm-131 -249c-12,-1 -23,-4 -33,-10 -19,-10 -32,-27 -38,-47 -6,-21 -4,-43 6,-61 15,-28 45,-44 76,-42 12,1 23,4 33,10 39,21 53,70 32,109 -15,27 -45,43 -76,41zm-93 1277c-7,30 -24,55 -50,72 -18,11 -39,17 -61,17 -39,0 -75,-19 -96,-52 -34,-53 -18,-123 35,-157 18,-11 39,-18 61,-18 39,0 75,20 96,52 16,26 21,57 15,86zm-227 -382c4,-27 18,-50 39,-66l1 -1c19,-14 43,-21 68,-20 29,3 56,17 73,41 34,44 25,108 -20,141 -19,15 -43,22 -67,20 -30,-2 -57,-17 -74,-40 -17,-22 -23,-48 -20,-75zm133 -687c-36,-26 -43,-77 -16,-112 16,-22 42,-34 70,-32 15,2 30,7 42,16 17,13 28,32 31,53 3,21 -2,42 -15,59l0 0c-17,22 -43,34 -70,32 -15,-1 -30,-6 -42,-16zm-48 -214c-14,0 -27,-4 -39,-11 -33,-22 -42,-66 -21,-99 13,-20 36,-32 60,-32 14,0 27,4 39,11 16,10 27,26 31,45 4,18 0,37 -10,53l0 1c-13,20 -36,32 -60,32zm-106 -194c-9,-1 -18,-3 -26,-8 -15,-8 -25,-21 -30,-38 -5,-16 -3,-33 5,-48 12,-22 36,-35 61,-33 9,1 17,4 26,8 30,17 41,56 24,86 -11,22 -35,35 -60,33zm-72 1009c-5,23 -19,43 -39,56 -15,10 -31,14 -49,14 -30,0 -59,-15 -75,-41 -27,-42 -15,-98 27,-124 14,-10 31,-15 48,-15 31,0 60,16 76,42 13,20 17,44 12,68zm-183 -301c4,-21 15,-39 31,-52l1 -1c15,-11 34,-17 54,-15 23,1 44,13 58,32 27,35 19,85 -16,112 -16,11 -35,17 -54,16 -23,-2 -44,-14 -58,-32 -13,-18 -19,-39 -16,-60zm-4 -181c-12,-15 -18,-33 -17,-52 2,-19 10,-36 24,-48l1 -1c13,-11 29,-17 46,-17 21,0 41,9 54,25 26,29 23,75 -7,100 -13,11 -29,18 -47,18 -20,0 -40,-9 -54,-25zm-35 -209c-12,-12 -19,-28 -19,-45 0,-17 7,-33 19,-45 13,-13 31,-20 49,-18 16,1 30,7 41,18 12,12 18,28 18,45 0,17 -7,33 -19,45l0 0c-13,13 -31,20 -49,18 -15,-1 -30,-8 -40,-18zm-40 -189c-12,-10 -18,-24 -19,-39 -1,-15 3,-29 13,-41 11,-12 27,-19 43,-19 14,0 27,5 37,14 11,9 18,23 19,38 1,15 -4,30 -14,41l0 0c-10,13 -26,20 -42,20 -14,0 -27,-5 -37,-14zm11 757c-6,21 -20,38 -38,48 -14,7 -29,10 -44,9 -28,-2 -52,-17 -65,-41 -21,-39 -7,-88 32,-109 14,-7 29,-11 44,-9 27,1 52,17 65,41 10,19 12,41 6,61zm-62 328c-12,6 -25,9 -38,9 -35,0 -67,-21 -82,-53 -9,-22 -10,-46 -2,-69 9,-22 25,-40 47,-50 12,-6 24,-8 37,-8 36,0 67,20 82,52 21,45 1,99 -44,119zm-141 -871c-3,15 -12,28 -24,36 -9,6 -20,9 -31,9 -19,0 -37,-10 -47,-26 -17,-26 -10,-61 17,-78 9,-6 19,-9 30,-9 19,0 37,10 48,26 8,13 11,28 7,42zm-1 199c-5,16 -16,30 -30,38 -11,6 -23,8 -35,7 -22,-1 -41,-14 -51,-33 -17,-31 -6,-69 25,-86 11,-6 23,-8 35,-7 22,1 41,14 51,33 8,15 10,32 5,48zm-47 259c-9,4 -19,6 -29,6 -28,0 -53,-16 -65,-42 -8,-17 -8,-36 -2,-54 7,-18 20,-32 37,-40 10,-4 20,-6 30,-6 28,0 53,16 65,41 16,36 0,78 -36,95zm-40 248c-11,4 -23,6 -34,5 -31,-3 -59,-23 -69,-52 -8,-20 -7,-42 2,-62 9,-19 25,-34 45,-41 11,-4 22,-6 33,-5 32,2 59,23 70,52 15,41 -6,87 -47,103zm-64 274c-9,3 -17,4 -26,4 -39,0 -75,-27 -86,-65 -7,-23 -4,-48 8,-68 11,-21 30,-37 53,-44 9,-2 17,-3 25,-3 40,0 76,27 87,65 14,47 -14,97 -61,111zm-128 -436c-6,2 -13,3 -20,3 -31,0 -59,-22 -68,-52 -5,-18 -3,-37 6,-54 9,-17 24,-29 42,-34 7,-2 14,-3 20,-3 32,0 60,21 69,51 11,38 -11,78 -49,89zm-76 240c-7,1 -15,2 -22,1 -36,-2 -65,-28 -73,-63 -4,-21 0,-42 11,-60 12,-18 30,-31 51,-35 7,-2 15,-2 22,-2 36,3 65,29 73,63 9,44 -18,86 -62,96zm-43 227c-14,19 -35,31 -59,35 -4,0 -9,1 -13,1 -44,0 -83,-34 -89,-78 -3,-24 3,-47 18,-67 14,-19 35,-31 59,-34 49,-7 95,28 101,76 4,24 -2,48 -17,67zm-98 213c2,26 -7,52 -25,73 -17,20 -42,32 -69,34 -5,1 -9,1 -14,0 -50,-3 -90,-43 -94,-94 -2,-26 7,-53 25,-73 17,-20 42,-33 69,-34 56,-4 104,39 108,94zm-273 -157l0 0c-49,0 -90,-41 -90,-90 1,-50 41,-90 91,-90 49,0 90,41 89,90 0,50 -40,90 -90,90zm-64 170c-4,56 -52,98 -108,94l0 0c-55,-4 -97,-53 -94,-108 5,-56 53,-98 109,-94 55,4 97,53 93,108zm-234 -192c-5,0 -9,0 -13,-1 -24,-3 -45,-16 -60,-35 -14,-20 -20,-43 -16,-67 7,-48 52,-83 102,-76 23,3 44,16 59,35 14,19 20,43 17,67 -7,44 -45,77 -89,77zm-101 158c-11,49 -56,83 -106,80 -5,-1 -9,-1 -14,-2 -27,-6 -49,-22 -64,-45 -14,-22 -19,-49 -14,-76 12,-53 66,-89 121,-77 26,6 49,22 63,44 15,23 20,50 14,76zm-282 -501c-20,-8 -36,-23 -45,-42 -8,-20 -9,-41 -2,-61 13,-33 46,-55 81,-52 8,0 15,2 23,5 41,15 62,62 46,103 -12,33 -45,54 -80,52 -8,-1 -16,-3 -23,-5zm-75 -288c-7,-18 -6,-38 2,-55 12,-25 37,-41 65,-41 10,0 20,2 30,6 17,8 30,23 37,40 6,18 6,38 -2,55 -12,25 -37,41 -65,41 -11,0 -21,-2 -30,-6 -17,-8 -30,-23 -37,-40zm-16 -223c-4,-16 -2,-33 6,-48 12,-22 36,-35 60,-33 9,1 18,4 26,8 15,8 26,22 30,38 5,16 3,34 -5,48 -12,22 -36,35 -60,33 -9,-1 -18,-3 -26,-8 -15,-8 -26,-22 -31,-38zm-18 632c-15,32 -47,52 -82,52 -13,0 -25,-3 -37,-8 -22,-11 -39,-28 -47,-51 -8,-22 -7,-47 3,-69 14,-31 46,-52 81,-52 13,0 26,3 38,8 22,10 39,28 47,51 8,22 7,47 -3,69zm-182 -286c-6,-20 -3,-42 7,-61 15,-27 45,-43 76,-41 11,1 23,4 33,10 18,10 32,27 38,48 6,20 4,42 -7,61 -15,27 -45,43 -76,41 -11,-1 -22,-4 -33,-10 -18,-10 -32,-27 -38,-48zm-20 -743c-16,0 -32,-7 -43,-19 -9,-12 -14,-26 -13,-41 1,-16 8,-29 19,-39 11,-9 24,-14 37,-14 17,0 32,7 43,20l0 0c10,12 15,26 14,41 -2,15 -9,29 -20,38 -10,9 -23,14 -37,14zm-9 170c-14,12 -32,19 -50,18 -15,-1 -29,-8 -40,-19 -25,-25 -24,-65 0,-90 13,-13 31,-19 50,-18 15,1 29,8 40,19 25,25 24,65 0,90zm-32 214c-13,16 -33,24 -54,24 -17,0 -33,-6 -46,-17 -30,-26 -33,-71 -7,-101 13,-15 33,-24 54,-24 17,0 33,6 46,18 30,25 33,71 7,100zm-22 240c-16,22 -42,33 -70,31 -15,-1 -30,-6 -42,-16 -17,-12 -28,-31 -31,-52 -3,-22 2,-43 15,-60 17,-21 43,-33 70,-31 16,1 30,6 43,16l0 0c17,13 28,32 31,52 2,22 -3,43 -16,60zm-4 271c-16,26 -45,41 -75,41 -18,0 -35,-5 -49,-14 -20,-13 -34,-34 -39,-57 -5,-24 -1,-48 12,-68 17,-25 45,-41 76,-41 17,0 34,5 49,15l0 0c20,13 34,33 39,56 5,24 0,48 -13,68zm-195 -655c-20,0 -40,-9 -54,-25 -12,-14 -18,-33 -17,-52 2,-19 10,-36 25,-49 13,-11 29,-17 46,-17 21,0 41,9 54,25l1 1c12,14 18,32 16,51 -1,19 -10,36 -24,49 -13,11 -30,17 -47,17zm-103 -202c-11,8 -25,11 -38,11 -25,0 -47,-12 -60,-33 -10,-15 -14,-35 -10,-53 4,-19 15,-35 32,-45 11,-7 24,-11 38,-11 24,0 47,12 60,33 21,33 11,77 -22,98zm-57 171c-3,21 -14,40 -31,53 -16,11 -35,17 -54,15 -23,-1 -45,-13 -59,-32 -12,-17 -17,-38 -14,-59 3,-21 14,-40 31,-53 16,-11 35,-17 54,-16 23,2 44,14 58,33l1 0c12,17 17,38 14,59zm11 660c20,1 38,8 54,20l1 0c21,16 35,40 38,66 4,27 -3,54 -19,75 -21,28 -54,43 -88,40 -19,-1 -38,-8 -54,-20 -21,-16 -35,-40 -39,-66 -4,-27 3,-54 19,-75 21,-28 54,-43 88,-40zm65 501c-21,32 -57,52 -95,52 -22,0 -44,-7 -62,-19 -25,-16 -43,-42 -50,-71 -6,-30 0,-60 16,-86 21,-32 57,-52 96,-52 22,0 43,7 61,19l1 0c25,17 43,42 49,71 6,30 0,60 -16,86zm-246 -827c-27,0 -51,-12 -69,-32 -15,-18 -23,-41 -21,-65 2,-24 13,-46 31,-62 17,-14 37,-21 59,-21 26,0 51,11 68,31l1 1c15,18 22,41 20,64 -1,24 -12,46 -31,62 -16,14 -37,22 -58,22zm-131 -255c-14,9 -31,14 -48,14 -31,0 -59,-15 -76,-41 -13,-21 -17,-45 -12,-68 6,-24 19,-44 40,-57 14,-9 31,-14 48,-14 31,0 59,16 76,42 27,42 14,97 -28,124zm-69 220c-3,26 -17,50 -39,66 -20,15 -43,22 -67,20 -30,-2 -57,-17 -75,-40 -16,-22 -22,-49 -18,-75 3,-27 17,-51 39,-67 20,-14 43,-21 67,-20 30,2 57,17 75,41l0 0c16,22 22,48 18,75zm-233 -209c-16,9 -36,13 -55,11 -35,-2 -65,-22 -82,-52 -13,-24 -15,-51 -8,-77 8,-26 25,-47 49,-60 17,-10 36,-14 55,-12 35,2 65,22 82,52 27,49 8,111 -41,138zm-149 305c-18,11 -39,17 -61,17 -39,0 -75,-19 -96,-52 -16,-26 -22,-56 -15,-86 6,-29 24,-55 50,-71 18,-12 39,-18 61,-18 39,0 75,20 96,52 33,53 18,124 -35,158zm-194 -325c-15,6 -31,10 -47,10 -45,0 -85,-27 -104,-67 -26,-57 0,-125 57,-150 15,-7 31,-11 47,-11 44,0 85,27 104,67 12,28 13,59 2,87 -11,29 -32,51 -59,64zm-178 -345c-50,0 -95,-34 -109,-83 -8,-29 -5,-59 10,-86 15,-26 39,-46 68,-54 10,-3 21,-4 31,-4 51,0 96,33 110,82 17,60 -18,123 -78,140 -11,3 -21,5 -32,5zm-190 -469c-5,-30 3,-59 22,-84 18,-24 45,-39 75,-44 62,-8 119,36 128,98 8,62 -36,119 -97,128 -6,0 -11,1 -16,1 -57,0 -105,-43 -112,-99zm-26 -393c0,-62 51,-113 113,-113 64,0 114,51 114,114 0,62 -51,113 -114,113l0 0c-63,0 -114,-51 -113,-114zm30 -393c9,-61 66,-105 129,-96 62,9 105,67 95,129 -8,55 -56,97 -112,97 -5,0 -11,0 -17,-1 -30,-5 -56,-21 -74,-45 -18,-24 -26,-54 -21,-84zm86 -385c14,-48 58,-81 108,-81 11,0 22,1 33,4 60,18 94,82 76,142 -14,47 -59,81 -109,81 -11,0 -22,-2 -32,-5 -30,-9 -53,-28 -68,-55 -14,-27 -17,-57 -8,-86zm140 -370c18,-40 59,-65 103,-65 16,0 32,3 48,10 27,13 48,36 58,64 11,29 9,60 -3,87 -19,40 -59,66 -103,66 -17,0 -33,-4 -48,-11 -57,-26 -82,-94 -55,-151zm191 -345c21,-32 57,-51 95,-51 22,0 44,6 63,18 25,17 42,42 49,72 6,30 0,60 -17,86 -21,32 -56,51 -95,51 -22,0 -43,-6 -62,-18 -52,-35 -67,-105 -33,-158zm257 268c15,1 29,5 42,13 24,13 41,34 48,60 8,26 5,53 -8,77 -19,34 -57,55 -96,52 -15,-1 -29,-5 -42,-12 -49,-27 -66,-89 -39,-138 19,-34 56,-54 95,-52zm96 -242c21,-28 54,-42 88,-40 19,1 38,8 54,20 21,17 35,40 39,67 4,27 -3,53 -20,75 -20,27 -53,42 -87,40 -20,-2 -39,-9 -54,-20 -45,-34 -53,-98 -20,-142zm203 247c18,0 35,5 50,15 20,13 33,33 38,56 5,24 1,48 -12,68 -17,26 -45,41 -76,41 -17,0 -34,-5 -49,-15 -41,-27 -53,-83 -26,-124 17,-26 45,-41 75,-41zm131 249c11,1 23,5 33,10 19,11 32,28 38,48 6,21 3,42 -7,61 -15,27 -45,43 -76,41 -11,-1 -23,-4 -33,-10 -39,-21 -53,-70 -31,-109 15,-27 45,-43 76,-41zm-39 -392c-2,-24 6,-47 22,-65 17,-20 42,-31 68,-31 22,0 43,8 59,22 37,33 41,90 8,128 -17,19 -41,30 -67,30 -22,0 -43,-8 -60,-22 -18,-16 -29,-38 -30,-62zm139 -884c7,-30 24,-55 50,-71 18,-12 39,-18 61,-18 39,0 75,20 96,53 33,53 17,123 -35,157l-1 0c-18,11 -39,17 -60,17 -39,0 -75,-19 -96,-52 -17,-26 -22,-56 -15,-86zm225 383c-5,27 -19,51 -41,67 -19,14 -43,21 -67,19 -29,-2 -56,-16 -74,-40 -16,-22 -23,-49 -19,-75 4,-27 18,-51 40,-67 20,-14 43,-21 67,-20 30,3 57,18 75,41 16,22 22,48 19,75zm-136 686c16,13 27,32 30,53 3,21 -2,42 -15,59 -17,22 -43,34 -70,32 -15,-1 -30,-7 -42,-16 -36,-27 -43,-78 -16,-113 17,-21 43,-33 70,-31 15,1 30,7 43,16zm46 215c13,0 27,4 39,11 15,11 26,27 30,45 4,19 1,38 -10,54 -13,20 -35,32 -59,32 -14,0 -28,-4 -39,-11 -33,-22 -43,-66 -21,-99 13,-20 35,-32 60,-32zm105 194c9,1 18,4 26,8 15,9 25,22 30,38 5,17 3,34 -6,49 -12,21 -35,34 -60,32 -9,-1 -18,-3 -26,-8 -31,-17 -42,-56 -25,-86 12,-22 36,-35 61,-33zm-33 -308c-1,-19 5,-37 18,-51 13,-16 33,-24 53,-24 18,0 34,6 47,17 30,26 33,71 7,101 -14,15 -33,24 -54,24 -17,0 -34,-6 -47,-18 -14,-12 -23,-30 -24,-49zm110 -700c5,-23 19,-43 40,-56 14,-9 31,-14 48,-14 31,0 59,15 76,42 27,42 14,97 -28,124l0 0c-15,9 -31,14 -48,14 -31,0 -59,-16 -76,-42 -13,-20 -17,-44 -12,-68zm181 301c-3,22 -14,40 -32,53 -15,11 -34,17 -53,15 -23,-1 -44,-13 -58,-32 -13,-17 -18,-38 -15,-59 3,-22 14,-40 32,-53 15,-11 34,-17 53,-15 23,1 44,13 59,32 12,17 17,38 14,59zm3 182c13,14 19,33 17,52 -1,19 -10,36 -25,48 -12,11 -29,17 -46,17 -21,0 -40,-9 -54,-25 -12,-14 -18,-32 -17,-51 2,-19 10,-37 25,-49 13,-11 29,-17 46,-17 21,0 41,9 54,25zm35 209c25,25 24,66 -1,90 -13,13 -31,19 -49,18 -15,-1 -30,-8 -41,-19 -11,-12 -18,-28 -18,-45 1,-17 7,-33 19,-44 13,-13 31,-20 50,-18 15,1 29,7 40,18zm39 189c23,21 26,56 5,80 -11,12 -26,19 -42,19 -14,0 -27,-5 -38,-14 -11,-10 -18,-24 -19,-39 -1,-15 4,-29 14,-41 11,-12 26,-19 43,-19 13,0 27,5 37,14zm-7 -757c6,-21 20,-38 39,-48 13,-7 28,-10 43,-9 28,2 52,18 65,42 21,39 6,88 -33,109l0 0c-14,7 -29,10 -43,9 -28,-2 -52,-18 -65,-42 -10,-19 -13,-41 -6,-61zm64 -328c12,-5 24,-8 37,-8 35,0 67,21 82,53 20,45 0,99 -45,119 -12,5 -25,8 -37,8 -36,0 -68,-21 -82,-53 -21,-45 0,-99 45,-119zm136 872c3,-15 12,-28 24,-36 9,-6 20,-9 31,-9 19,0 37,10 47,27 17,26 9,61 -17,78l-1 0c-9,5 -19,8 -29,8 -20,0 -38,-9 -48,-26 -8,-13 -11,-28 -7,-42zm2 -199c5,-16 16,-30 31,-38 10,-5 22,-8 34,-7 22,2 41,14 51,33 17,31 5,70 -26,86l0 1c-11,5 -22,7 -34,7 -22,-2 -41,-15 -51,-34 -9,-15 -10,-32 -5,-48zm48 -258c9,-4 19,-6 29,-6 28,0 54,16 65,41 16,36 0,79 -36,95 -9,4 -19,6 -29,6 -28,0 -54,-17 -65,-42 -16,-36 0,-78 36,-94zm42 -248c11,-4 22,-6 33,-5 32,2 59,23 70,52 15,42 -7,88 -48,103 -11,4 -22,6 -33,5 -32,-2 -59,-23 -70,-53 -15,-41 7,-87 48,-102zm12 -232c11,-21 30,-36 54,-42 8,-3 16,-4 24,-4 40,0 76,27 87,66 13,47 -14,97 -61,111l-1 0c-8,2 -16,3 -25,3 -40,0 -75,-27 -86,-65 -7,-23 -4,-47 8,-69zm178 395c7,-2 13,-3 20,-3 32,0 60,21 69,52 10,38 -12,77 -49,88l-1 0c-6,2 -12,3 -19,3 -32,0 -60,-22 -69,-52 -5,-18 -3,-38 7,-54 9,-17 24,-29 42,-34zm27 -205c12,-18 30,-30 51,-35 7,-1 14,-2 22,-1 35,2 65,29 72,63 9,44 -18,86 -61,95l-1 0c-7,2 -14,2 -22,2 -35,-3 -65,-29 -73,-64 -4,-21 0,-42 12,-60zm155 -296c50,-7 94,29 101,77 6,49 -28,95 -77,101 -4,1 -8,1 -12,1l-1 0c-44,0 -83,-33 -89,-78 -6,-49 28,-94 78,-101zm39 -178c-3,-55 39,-103 95,-107 56,-4 104,40 107,94 4,56 -39,104 -94,108 -5,0 -9,0 -14,0l0 0c-50,-4 -90,-44 -94,-95zm272 158c50,1 90,41 90,91 -1,49 -41,89 -90,89l-1 0c-24,0 -47,-9 -63,-27 -17,-17 -27,-39 -26,-63 0,-50 40,-90 90,-90zm65 -170c4,-55 53,-97 108,-93 56,5 98,54 94,109 -5,55 -53,97 -108,93l-1 0c-27,-2 -51,-14 -69,-35 -17,-20 -26,-47 -24,-74zm348 459c21,4 39,17 50,35 12,18 16,39 11,60 -9,39 -45,66 -84,63 -4,-1 -8,-1 -12,-2 -43,-10 -70,-53 -61,-96 10,-42 53,-70 96,-60zm72 240c18,5 33,17 42,34 9,17 11,36 6,54 -10,30 -38,51 -69,51 -7,0 -14,-1 -20,-3 -38,-11 -59,-51 -48,-89 9,-30 37,-50 68,-50 7,0 14,1 21,3zm20 -375c11,-38 46,-64 86,-64 8,0 17,1 26,4 23,6 42,22 53,43 11,21 14,46 7,69 -12,37 -47,64 -86,64 -9,0 -18,-2 -26,-4 -48,-15 -75,-65 -60,-112zm219 257c9,20 9,41 2,61 -13,33 -46,54 -81,52 -8,-1 -15,-2 -23,-5 -41,-16 -62,-63 -46,-104 12,-32 46,-54 81,-51 7,1 15,2 22,5 21,8 36,23 45,42zm29 246c7,18 6,38 -2,55 -12,25 -37,41 -65,41 -10,0 -21,-2 -30,-7l-1 0c-17,-8 -30,-22 -36,-40 -7,-18 -6,-37 3,-54 11,-25 36,-42 64,-42 11,0 21,3 30,7 18,8 31,23 37,40zm14 223c5,17 3,34 -5,48 -13,22 -36,34 -60,33 -10,-1 -19,-4 -27,-8l0 -1c-15,-8 -25,-21 -30,-37 -4,-17 -2,-34 6,-49 12,-21 35,-34 60,-32 9,1 18,4 26,8 15,8 26,22 30,38zm22 -631c15,-32 47,-52 82,-52 13,0 26,3 38,8 21,11 38,29 46,51 8,23 7,47 -3,69 -15,32 -47,52 -81,52 -14,0 -27,-3 -39,-9l0 0c-22,-10 -38,-28 -46,-50 -8,-23 -7,-48 3,-69zm180 286c6,21 4,42 -7,61 -15,27 -44,43 -75,41 -12,-1 -23,-4 -34,-10l0 0c-19,-11 -32,-28 -38,-48 -5,-21 -3,-42 8,-61 15,-27 44,-43 75,-41 12,1 23,4 34,10 18,11 32,28 37,48zm16 743c17,0 32,7 43,20 10,12 15,26 13,41 -1,15 -8,29 -19,39 -10,8 -23,13 -37,13 -16,0 -32,-7 -43,-20 -10,-11 -14,-26 -13,-41 1,-15 8,-29 20,-38 10,-9 23,-14 36,-14zm-8 -125c0,-17 7,-32 19,-44 13,-13 31,-19 49,-18 16,1 30,8 41,19 12,12 18,28 18,45 0,17 -7,33 -19,45 -13,12 -31,19 -49,17 -16,-1 -30,-7 -41,-18 -12,-13 -18,-29 -18,-46zm34 -207c-1,-19 5,-37 18,-51 13,-16 33,-25 53,-25 17,0 34,7 47,18 15,13 23,30 24,49 1,19 -5,38 -18,52 -13,15 -33,24 -53,24 -17,0 -34,-6 -47,-18 -14,-12 -23,-30 -24,-49zm41 -291c16,-22 42,-33 69,-31 16,1 31,6 43,16 35,27 42,77 15,112 -16,22 -42,33 -69,31 -16,-1 -31,-6 -43,-16l-1 0c-16,-13 -27,-32 -30,-53 -3,-21 3,-42 16,-59zm5 -271c17,-26 45,-41 75,-41 18,0 35,5 50,15 41,27 53,83 25,125 -16,25 -44,40 -75,40 -17,0 -34,-5 -49,-15l-1 0c-19,-13 -33,-33 -38,-57 -5,-23 0,-47 13,-67zm191 656c21,0 41,9 55,25 12,14 18,33 16,52 -1,19 -10,36 -25,48 -12,11 -29,17 -46,17 -21,0 -41,-9 -54,-25 -12,-14 -18,-33 -17,-52 2,-19 11,-36 25,-48 13,-11 29,-17 46,-17zm103 202c11,-7 24,-11 38,-11 24,0 47,12 60,33 21,34 11,78 -22,99 -12,7 -25,11 -38,11 -25,0 -47,-13 -61,-34 -21,-33 -11,-77 23,-98zm58 -170c3,-22 14,-40 32,-53 15,-11 34,-17 53,-15 23,1 44,13 58,32 13,18 18,39 15,60 -3,21 -15,40 -32,52 -15,12 -34,17 -53,16 -23,-2 -45,-14 -59,-33 -12,-17 -18,-38 -14,-59zm-8 -660c-19,-1 -38,-8 -54,-20l0 -1c-21,-16 -35,-40 -39,-66 -3,-27 4,-54 20,-75 21,-27 54,-42 88,-40 19,2 38,9 54,21 44,34 53,97 19,142 -21,27 -53,42 -88,39zm-62 -502c21,-32 57,-51 95,-51 22,0 44,7 62,19 53,34 67,105 33,157 -21,32 -57,52 -95,52 -22,0 -44,-7 -62,-19l-1 -1c-25,-17 -42,-42 -48,-71 -6,-30 -1,-60 16,-86zm241 829c27,0 52,11 69,32 15,18 23,41 21,65 -2,24 -13,46 -31,61 -17,14 -37,22 -59,22 -26,0 -51,-12 -68,-32 -16,-18 -23,-41 -21,-65 1,-24 13,-46 31,-62 16,-13 37,-21 58,-21zm130 255c14,-9 31,-14 48,-14 31,0 59,16 76,42 26,42 14,98 -28,124 -15,10 -31,14 -48,14 -31,0 -60,-16 -76,-42 -27,-42 -14,-97 28,-124zm70 -219c4,-27 18,-50 40,-66 19,-15 43,-22 67,-20 29,2 56,17 74,41 16,22 23,48 19,75 -4,27 -19,50 -40,66 -19,15 -43,22 -67,20 -30,-2 -57,-17 -75,-41 -16,-22 -22,-48 -18,-75zm232 210c17,-9 36,-13 55,-11 35,2 65,22 82,53 26,49 8,110 -42,136 -16,10 -35,14 -54,12 -35,-2 -66,-22 -82,-53 -27,-49 -8,-110 41,-137zm151 -304c18,-11 39,-17 60,-17 40,0 76,19 97,53 33,53 17,123 -36,156 -18,12 -39,18 -60,18 -40,0 -76,-20 -96,-53 -34,-53 -18,-124 35,-157zm193 326c14,-7 30,-10 46,-10 44,0 85,26 103,67 26,58 0,125 -57,151 -15,6 -30,9 -46,9 -45,0 -86,-26 -104,-67 -12,-28 -13,-59 -2,-87 11,-28 32,-51 60,-63zm174 346c51,0 96,34 110,83 17,60 -18,123 -79,140 -10,3 -20,4 -31,4 -50,0 -95,-34 -109,-82l0 -1c-17,-60 18,-123 78,-140 11,-3 21,-4 31,-4zm189 469c8,62 -35,119 -97,128 -5,0 -10,1 -16,1 -56,0 -105,-43 -112,-99 -4,-30 4,-60 23,-84 18,-24 45,-40 75,-44 63,-8 119,37 127,98zm24 365c0,30 -12,59 -33,80 -21,21 -50,33 -81,33 -62,0 -113,-51 -113,-113 0,-63 51,-114 113,-114 63,0 114,51 114,114zm-271 1459c-9,-33 -6,-67 11,-97 24,-44 71,-70 121,-67 18,2 36,7 52,16 62,34 85,111 51,173 -24,44 -72,70 -121,66 -19,-1 -36,-6 -52,-15 -30,-16 -52,-43 -62,-76zm-210 245c27,-35 68,-54 112,-51 24,2 47,11 67,25 27,21 45,51 50,84 5,34 -3,67 -24,94l0 1c-26,35 -68,54 -111,51 -25,-2 -48,-10 -68,-25 -56,-43 -68,-123 -26,-179zm-303 398c0,-34 13,-66 37,-90 26,-27 62,-40 99,-37 31,2 60,15 81,37 25,24 38,56 38,90 0,34 -13,66 -38,90l0 0c-26,26 -62,40 -99,37 -30,-2 -59,-15 -81,-37 -24,-24 -38,-56 -37,-90zm-53 -281c-23,-20 -36,-47 -39,-78 -2,-30 8,-59 28,-82 22,-25 53,-39 86,-39 27,0 54,10 74,28 23,20 37,47 39,78 2,30 -8,59 -28,82l0 0c-21,25 -52,39 -85,39 -28,0 -54,-10 -75,-28zm-267 541c5,-33 22,-63 49,-84l1 0c24,-18 54,-27 85,-25 37,3 71,21 93,51 43,56 31,136 -25,178 -25,19 -55,28 -86,26 -37,-3 -71,-22 -93,-51 -21,-28 -29,-61 -24,-95zm-39 -368c2,-30 15,-57 38,-77l1 -1c20,-17 47,-27 74,-27 33,0 64,14 86,39 41,48 36,120 -12,160 -21,18 -47,28 -74,28 -33,0 -64,-14 -86,-39 -20,-23 -30,-52 -27,-83zm-52 -329c0,-27 10,-53 29,-72 21,-20 50,-31 79,-29 24,2 47,12 64,29 20,19 30,45 30,72 0,27 -11,52 -30,71l0 0c-20,21 -49,32 -78,30 -24,-2 -47,-12 -64,-30 -20,-19 -30,-44 -30,-71zm-202 833c22,-12 46,-17 71,-15 43,3 82,28 103,66 16,30 20,64 10,97 -9,33 -31,60 -61,76 -22,12 -46,17 -70,15 -44,-3 -82,-27 -103,-66 -34,-61 -11,-139 50,-173zm-82 -918c1,-24 12,-46 30,-62l1 0c16,-14 37,-22 58,-22 26,0 51,11 68,31 33,38 29,95 -9,127 -16,14 -37,22 -59,22 -26,0 -51,-11 -68,-31 -15,-18 -23,-41 -21,-65zm-44 -259c0,-21 8,-41 23,-56 17,-17 39,-25 62,-23 20,1 38,9 51,23 16,15 24,35 24,57 0,21 -9,41 -24,56l0 0c-16,17 -39,25 -62,23 -19,-1 -37,-9 -51,-23 -15,-15 -23,-35 -23,-57zm-11 775c-8,26 -25,47 -49,60 -17,9 -36,14 -56,12 -34,-2 -65,-22 -81,-52 -27,-49 -9,-111 40,-137 17,-10 36,-14 56,-13 34,3 65,23 81,53 13,24 16,51 9,77zm-84 417c-15,7 -31,10 -47,10 -44,0 -85,-26 -104,-66 -12,-28 -13,-59 -3,-87 11,-29 32,-51 60,-64 15,-7 31,-10 47,-10 44,0 85,26 103,67 26,57 1,124 -56,150zm-220 221c15,-31 40,-55 72,-67 17,-6 35,-9 53,-7 50,3 93,35 111,82 25,66 -9,140 -75,164 -17,7 -35,10 -54,8 -49,-3 -93,-36 -110,-82 -12,-32 -11,-67 3,-98zm-64 -432c-14,5 -28,7 -43,6 -39,-2 -74,-28 -87,-65 -10,-25 -9,-53 2,-78 12,-24 32,-43 57,-52 14,-6 28,-7 43,-6 39,2 73,28 87,65 20,52 -7,111 -59,130zm-86 348c-10,3 -21,5 -32,5 -50,0 -95,-34 -109,-82 -8,-29 -5,-60 10,-86 14,-27 38,-46 67,-55 11,-3 22,-4 32,-4 50,0 95,33 109,82 18,60 -17,123 -77,140zm-249 187c19,-28 47,-48 80,-55 13,-3 25,-4 36,-3 57,4 104,45 116,101 15,68 -29,136 -97,151 -12,3 -25,4 -36,3 -57,-4 -104,-45 -116,-101 -8,-33 -1,-67 17,-96zm-31 -434c-44,-3 -82,-36 -91,-80 -6,-26 -1,-53 13,-76 15,-22 38,-38 64,-44 10,-2 19,-3 28,-2 45,3 83,36 92,80 12,54 -23,108 -77,120 -10,2 -19,3 -29,2zm-122 331c-56,0 -104,-42 -112,-98 -4,-30 3,-60 22,-84 18,-24 45,-40 75,-44 62,-9 119,36 128,97 4,30 -4,60 -22,84 -18,24 -45,40 -75,44 -5,1 -11,1 -16,1zm-288 241c-2,-34 9,-67 31,-93 23,-25 54,-41 88,-43 70,-5 131,49 136,118 2,35 -8,67 -31,93 -22,26 -53,41 -87,44 -7,0 -13,0 -18,0 -63,-5 -114,-56 -119,-119zm-203 -329c1,-63 52,-113 114,-113 63,0 114,51 114,113 0,63 -51,114 -114,114l0 0c-63,-1 -114,-51 -114,-114zm-222 310c5,-70 67,-123 137,-118 70,5 123,66 118,137 -5,70 -66,123 -136,118l-1 0c-70,-5 -123,-67 -118,-137zm-154 -354c9,-61 67,-105 129,-96 30,4 57,20 75,45 18,24 26,54 21,84 -8,55 -56,97 -112,97 -6,0 -11,0 -17,-1 -30,-5 -56,-20 -74,-45 -18,-24 -26,-54 -22,-84zm-264 276c15,-68 83,-113 152,-98 34,7 62,27 80,56 19,29 25,63 18,96 -14,62 -71,104 -134,100 -6,0 -12,-1 -18,-2 -34,-8 -62,-27 -81,-56 -18,-29 -24,-63 -17,-96zm-102 -373c15,-48 59,-81 109,-81 11,0 22,1 33,4 59,18 94,82 76,142 -14,47 -59,81 -109,81 -11,0 -21,-2 -32,-5 -29,-8 -53,-28 -68,-55 -14,-26 -17,-57 -9,-86zm-300 235c20,-52 72,-86 128,-82 12,1 24,3 36,7 66,25 100,99 75,165 -20,52 -73,86 -129,82 -12,-1 -24,-3 -35,-8 -32,-11 -58,-35 -72,-66 -14,-31 -15,-66 -3,-98zm-59 -723c19,-35 57,-55 96,-53 15,1 29,6 42,13 23,13 41,34 48,60 8,26 5,53 -8,77 -19,35 -57,55 -96,52 -15,-1 -29,-5 -42,-12 -23,-13 -41,-35 -48,-60 -8,-26 -5,-54 8,-77zm-47 -647c-16,16 -39,24 -62,23 -19,-2 -38,-10 -51,-24 -31,-31 -31,-82 0,-113 17,-16 39,-25 62,-23 20,1 38,10 52,24 31,31 30,82 -1,113zm-42 268c-18,19 -42,30 -68,30 -22,0 -43,-7 -59,-22 -38,-32 -42,-89 -9,-127 17,-19 42,-31 68,-31 22,0 43,8 59,23 37,32 41,89 9,127zm-287 95c-21,20 -50,31 -79,29 -24,-2 -47,-12 -64,-30 -40,-39 -39,-103 0,-143 21,-20 49,-31 78,-29 25,2 48,13 65,30 39,39 39,104 0,143zm-58 334c-21,25 -53,39 -85,39 -28,0 -54,-9 -75,-28 -47,-41 -52,-113 -11,-160 22,-25 53,-39 86,-39 27,0 54,10 75,28 47,42 52,114 10,160zm-233 233c26,-35 67,-54 111,-51 24,2 48,11 67,25l1 1c27,21 44,50 49,84 5,34 -4,67 -24,94 -27,35 -68,54 -111,51 -25,-2 -49,-11 -68,-26 -27,-20 -45,-50 -50,-83 -5,-34 4,-68 25,-95zm-45 -490c-20,18 -46,28 -73,28 -34,0 -65,-15 -87,-40 -20,-23 -29,-52 -27,-82 2,-31 16,-58 39,-78 21,-18 47,-27 74,-27 34,0 65,14 87,39l0 1c20,23 29,52 27,82 -3,30 -17,58 -40,77zm-264 197c26,-26 62,-40 99,-37 31,2 60,15 82,37 49,50 49,131 -1,181 -26,26 -62,39 -99,37 -31,-3 -59,-16 -81,-38 -50,-50 -50,-131 0,-180zm-314 -250c5,-34 23,-64 50,-84 25,-18 55,-27 85,-25 38,2 72,21 94,51l1 1c20,27 28,60 23,94 -5,33 -23,63 -50,84 -25,18 -55,27 -85,25 -38,-3 -71,-22 -94,-51 -20,-28 -29,-61 -24,-95zm-225 -376c10,-32 32,-60 62,-76 21,-12 45,-17 69,-15 44,3 83,28 104,66 33,62 10,140 -52,174 -21,11 -45,16 -69,15 -44,-3 -83,-28 -104,-67 -16,-30 -19,-64 -10,-97zm-97 -470c17,-6 35,-9 53,-8 50,4 93,36 111,83 12,32 10,67 -4,98 -14,31 -40,55 -72,66 -17,7 -35,9 -53,8 -50,-4 -93,-36 -111,-83 -24,-66 10,-140 76,-164zm-182 -358c19,-29 47,-48 81,-55 12,-3 24,-4 36,-3 56,4 104,45 115,101 15,69 -29,137 -98,151 -12,3 -24,4 -36,3 -56,-4 -104,-46 -115,-101 -7,-33 -1,-67 17,-96zm-78 -343c-3,-34 8,-67 31,-93 22,-25 53,-41 87,-43 71,-5 131,50 136,119 5,70 -49,131 -119,136 -6,0 -12,0 -17,0 -64,-5 -114,-56 -118,-119zm138 -561c70,5 123,67 118,137 -5,70 -67,123 -136,118l-1 0c-70,-6 -123,-67 -118,-137 6,-70 67,-123 137,-118zm80 -418c69,16 112,84 97,152 -13,62 -71,105 -133,100 -7,0 -13,-1 -19,-2 -34,-8 -62,-28 -80,-56 -19,-29 -25,-63 -17,-97 15,-67 82,-112 152,-97zm139 -402c65,25 99,99 74,165 -20,52 -73,86 -128,82 -13,-1 -25,-4 -37,-8 -32,-12 -57,-36 -71,-67 -14,-31 -15,-66 -3,-97 20,-53 72,-87 128,-83 12,1 25,4 37,8zm256 -302c9,33 5,67 -12,97 -24,43 -71,69 -120,66 -19,-2 -37,-7 -53,-16 -62,-34 -84,-112 -50,-173 24,-44 71,-69 121,-66 18,1 36,7 53,16 29,16 51,43 61,76zm210 -244c-26,35 -67,53 -111,50 -24,-1 -48,-10 -67,-25 -57,-43 -68,-123 -25,-179 26,-35 67,-53 111,-50 24,1 48,10 68,25 27,21 44,51 49,84 5,34 -4,68 -25,95zm268 -306c-25,26 -61,39 -98,37 -31,-3 -60,-16 -82,-38 -24,-24 -37,-56 -37,-90 0,-34 14,-67 38,-90 26,-26 62,-40 99,-37 31,2 60,15 82,37 49,50 49,131 -2,181zm89 191c47,41 52,113 11,160 -22,25 -53,39 -86,39 -27,0 -54,-10 -75,-28 -22,-21 -36,-48 -38,-78 -2,-31 8,-60 28,-83 22,-24 53,-38 85,-38 28,0 54,9 75,28zm271 -540c-5,34 -23,64 -51,84 -24,18 -54,27 -84,25 -38,-3 -72,-21 -94,-51 -20,-28 -29,-62 -24,-95 5,-34 23,-64 51,-84 24,-18 54,-27 84,-25 37,3 72,22 94,52 20,27 29,60 24,94zm37 368c-3,31 -16,58 -40,78 -20,17 -46,27 -73,27 -34,0 -65,-14 -87,-40 -19,-23 -29,-52 -27,-82 3,-31 17,-58 40,-78 20,-17 47,-27 74,-27 33,0 64,14 86,40 20,23 29,52 27,82zm20 402c-21,20 -49,31 -78,29 -25,-2 -48,-13 -65,-30 -19,-20 -29,-45 -29,-72 0,-27 10,-52 30,-71 20,-21 49,-31 78,-29 24,2 47,12 65,29 39,40 38,104 -1,144zm236 -904l-1 0c-21,11 -45,16 -69,15 -44,-3 -82,-28 -103,-67 -17,-30 -20,-64 -10,-97 10,-33 31,-60 61,-76 22,-11 46,-17 70,-15 44,3 82,28 103,67 34,62 11,139 -51,173zm78 919c-2,24 -13,46 -32,61 -16,14 -37,22 -58,22 -26,0 -51,-12 -68,-32 -16,-18 -24,-41 -22,-65 2,-24 13,-46 32,-62 16,-13 37,-21 58,-21 26,0 51,11 68,31 16,19 24,42 22,66zm18 315c-16,16 -39,24 -62,23 -19,-2 -37,-10 -51,-24 -15,-15 -23,-35 -23,-57 0,-21 9,-41 24,-56 16,-17 39,-25 62,-23 19,1 38,10 51,24 31,31 31,82 -1,113zm40 -831c7,-26 24,-47 48,-60 17,-9 36,-13 55,-12 35,2 66,22 82,53 27,49 8,110 -41,137l0 0c-17,9 -36,13 -55,12 -34,-3 -65,-23 -82,-53 -13,-24 -15,-51 -7,-77zm85 -417c15,-7 31,-10 47,-10 44,0 85,26 103,67 26,57 0,125 -57,150 -15,7 -30,10 -46,10 -45,0 -86,-26 -104,-67 -26,-57 0,-124 57,-150zm149 -153c-17,6 -35,9 -52,7 -51,-3 -94,-36 -112,-83 -24,-66 10,-140 76,-164 17,-6 35,-9 53,-7 50,3 94,36 111,83 25,66 -10,139 -76,164zm134 365c14,-4 28,-6 42,-5 40,2 74,28 88,65 19,53 -8,111 -60,130 -14,5 -28,7 -42,6 -40,-2 -74,-29 -88,-66 -19,-52 8,-110 60,-130zm88 -347c10,-3 21,-5 31,-5 51,0 96,34 109,83 18,60 -17,123 -77,140l-1 0c-10,3 -20,5 -31,5 -50,0 -95,-34 -109,-83 -9,-29 -5,-60 10,-86 15,-27 39,-46 68,-54zm170 -131l-1 0c-12,3 -23,4 -35,3 -57,-4 -104,-46 -116,-101 -7,-34 -1,-68 18,-96 18,-29 47,-48 81,-55 11,-3 23,-4 35,-3 56,4 104,46 116,101 14,69 -30,136 -98,151zm108 380c44,3 82,36 92,80 11,54 -24,107 -78,119l-1 0c-9,2 -18,3 -27,2 -45,-3 -83,-36 -92,-80 -6,-26 -1,-53 14,-76 15,-23 37,-38 64,-43 9,-2 19,-3 28,-2zm236 -233c8,63 -35,120 -97,128 -5,1 -10,1 -16,1l0 0c-56,0 -105,-42 -112,-98 -8,-62 35,-119 97,-128 63,-9 120,36 128,97zm177 -337c5,70 -49,131 -119,135 -6,1 -11,0 -17,0l0 0c-64,-4 -114,-55 -118,-119 -5,-70 48,-131 119,-135 71,-5 131,49 135,119zm202 330c-1,62 -52,113 -114,113l-1 0c-30,0 -59,-13 -80,-34 -21,-22 -33,-50 -33,-81 1,-62 52,-113 114,-113 64,1 114,52 114,115zm223 -309c-5,69 -66,122 -136,117l-1 0c-34,-2 -65,-18 -87,-44 -22,-26 -33,-59 -30,-93 5,-70 66,-122 136,-118 71,6 124,68 118,138zm153 355c-9,55 -57,96 -113,96 -5,0 -11,0 -17,-1 -62,-9 -105,-67 -95,-129 9,-61 67,-105 129,-96 30,5 56,21 74,45 18,25 26,55 22,85zm265 -275c-14,61 -71,104 -134,100 -6,0 -12,-1 -18,-3 -69,-15 -113,-83 -97,-152 15,-68 83,-112 152,-97 33,7 62,27 80,56 18,29 24,63 17,96zm155 631c11,25 11,52 2,77 -16,42 -58,69 -102,65 -10,0 -19,-2 -29,-6 -52,-20 -78,-78 -58,-130 15,-42 57,-68 101,-65 10,0 20,3 29,6 26,10 45,29 57,53zm293 -107c-19,40 -60,66 -104,66 -16,0 -32,-4 -47,-11l-1 0c-28,-13 -48,-36 -58,-64 -11,-29 -9,-60 4,-87 18,-40 59,-65 103,-65 16,0 33,3 48,10 27,13 48,36 58,65 11,28 9,59 -3,86zm8 340c-19,34 -56,54 -95,52 -15,-1 -29,-6 -42,-13l-1 0c-23,-13 -40,-35 -48,-60 -7,-26 -4,-54 9,-77 19,-35 57,-55 96,-52 15,1 29,5 42,12 24,14 40,35 48,61 7,26 4,53 -9,77zm44 647c17,-16 39,-24 62,-23 20,2 38,10 52,24 14,16 23,36 22,57 0,22 -8,42 -24,56 -16,17 -39,25 -61,23 -20,-1 -38,-10 -52,-24 -15,-15 -23,-35 -23,-57 0,-21 9,-41 24,-56zm22 -202c-2,-24 6,-47 22,-65 17,-20 42,-31 68,-31 21,0 42,8 59,23 18,16 29,38 30,62 2,23 -6,47 -22,65 -17,19 -42,30 -67,30 -23,0 -44,-8 -60,-22 -18,-16 -29,-38 -30,-62zm258 -973c-25,43 -72,69 -121,65 -19,-1 -37,-6 -53,-15l-1 -1c-29,-16 -50,-43 -60,-76 -9,-33 -5,-67 11,-97 24,-43 71,-69 121,-65 19,1 37,7 53,16 30,16 51,43 61,76 9,33 5,67 -11,97zm51 814c21,-21 49,-31 78,-29 25,2 48,12 66,30 18,19 29,45 28,72 0,27 -10,52 -30,71 -21,20 -49,31 -78,29 -24,-2 -47,-13 -65,-30 -19,-19 -29,-45 -29,-72 0,-27 11,-52 30,-71zm60 -335c21,-24 52,-38 85,-38 27,0 54,10 75,28 23,21 36,48 38,79 2,30 -8,59 -28,82 -22,24 -53,38 -85,38 -28,0 -55,-10 -76,-28 -22,-20 -36,-48 -38,-78 -2,-31 8,-60 29,-83zm234 -230c-26,34 -67,52 -110,49 -25,-1 -49,-10 -69,-25l0 -1c-27,-21 -44,-51 -49,-84 -4,-34 5,-67 25,-94 26,-35 68,-53 111,-50 25,1 48,10 68,25 56,43 67,123 24,180zm42 489c20,-17 47,-27 74,-27 33,0 64,14 86,40 20,23 29,52 27,83 -3,30 -17,58 -40,77 -20,18 -46,27 -73,27 -34,0 -65,-14 -87,-40 -20,-23 -29,-52 -27,-82 3,-31 17,-58 40,-78zm303 -285c0,34 -13,66 -38,90 -26,26 -62,39 -98,36 -31,-2 -60,-15 -82,-37 -24,-25 -37,-57 -37,-91 0,-34 14,-66 38,-90 26,-26 62,-39 99,-36 31,2 60,15 82,37 24,25 37,57 36,91zm275 342c-5,33 -23,63 -51,83 -24,18 -54,27 -84,25 -38,-3 -72,-22 -94,-52 -20,-27 -29,-61 -23,-95 4,-33 22,-63 50,-83 24,-18 54,-27 85,-25 37,3 71,21 93,52 21,27 29,61 24,95zm161 452c-21,11 -45,17 -69,15 -44,-3 -83,-28 -104,-67 -33,-62 -10,-140 52,-173 22,-11 46,-16 70,-15 44,3 82,28 103,67 33,62 10,140 -52,173zm157 395c-17,6 -34,9 -53,8 -50,-4 -93,-37 -111,-84 -11,-32 -10,-67 5,-98 14,-31 40,-54 72,-66 17,-6 34,-8 52,-7 50,3 94,36 111,83 24,67 -10,140 -76,164zm99 414c-12,3 -23,3 -35,2 -57,-4 -104,-45 -116,-100l0 -1c-15,-69 30,-136 99,-151 11,-2 23,-3 35,-2 56,4 104,45 116,101 14,69 -30,137 -99,151zm158 288c4,71 -50,131 -120,136 -6,0 -11,0 -17,0 -63,-5 -114,-56 -118,-120 -2,-34 9,-67 32,-92 22,-26 53,-41 87,-43 71,-4 131,50 136,119z"/>
   <path class="fil1" d="M-20993 1600l-9 -1 0 0c-31,-2 -56,-27 -58,-59 -2,-35 24,-65 59,-67 36,-2 65,25 67,59 2,35 -24,65 -59,68zm-147 116c-4,-31 17,-60 48,-64 32,-4 60,18 64,49 4,30 -18,59 -49,63l-7 0 0 0c-28,0 -52,-20 -56,-48zm246 -436c40,0 72,32 71,72 0,39 -32,70 -71,70l0 0c-20,0 -37,-7 -51,-21 -13,-13 -20,-31 -20,-50 0,-39 32,-71 71,-71zm56 -135c4,-43 42,-76 86,-73 44,3 77,42 74,86 -4,44 -42,77 -86,74l0 0c-22,-2 -41,-12 -55,-28 -14,-17 -21,-37 -19,-59zm260 -295c24,3 44,16 59,35 14,20 20,43 16,67 -6,44 -44,77 -89,77 -4,0 -9,-1 -13,-1 -49,-8 -83,-54 -76,-103 8,-48 53,-83 103,-75zm209 -236c26,6 49,22 63,45 15,22 20,50 14,76 -11,48 -57,82 -106,79 -5,0 -10,-1 -15,-2 -55,-12 -89,-67 -77,-121 12,-53 66,-89 121,-77zm338 -103c-15,47 -59,80 -109,80 -11,0 -22,-1 -33,-4 -60,-19 -94,-82 -76,-142 15,-47 59,-81 109,-81 11,0 22,2 33,5 29,9 53,29 67,55 15,27 18,58 9,87zm302 -234c-20,52 -73,86 -129,82 -12,-1 -24,-3 -36,-8 -66,-25 -99,-99 -74,-165 20,-52 72,-86 128,-82 13,1 25,4 37,9 32,11 57,35 71,67 14,31 15,65 3,97z"/>
   <path class="fil1" d="M-20911 4383l0 0c-31,0 -56,-25 -56,-56 0,-31 25,-57 57,-57 31,1 56,26 56,57 0,31 -25,56 -57,56zm-46 107c-3,35 -33,61 -68,58l0 0c-35,-2 -61,-33 -59,-68 3,-35 33,-61 68,-58 35,3 62,33 59,68zm-191 236c-3,0 -7,0 -10,-1 -19,-3 -36,-12 -47,-28 -12,-15 -16,-34 -14,-53 6,-38 42,-66 81,-60 19,3 36,13 47,28 11,15 16,34 13,53 -5,35 -35,61 -70,61zm-168 187c-4,0 -7,0 -11,-1 -21,-5 -39,-17 -51,-35 -11,-18 -15,-40 -10,-61 9,-42 52,-70 95,-61 21,5 39,17 51,35 11,19 15,40 10,61 -8,38 -44,65 -84,62zm-214 195c-23,-7 -42,-22 -53,-43 -12,-22 -14,-46 -7,-69 11,-38 46,-64 86,-64 9,0 17,1 26,3 47,15 74,65 60,112 -11,38 -46,65 -86,65 -9,0 -17,-1 -26,-4zm-296 152c-11,-25 -12,-52 -3,-78 16,-41 58,-68 102,-65 10,1 20,3 29,6 52,20 79,78 59,130 -16,42 -57,69 -102,66 -9,-1 -19,-3 -28,-6 -25,-10 -46,-29 -57,-53zm-292 108c19,-40 59,-66 103,-66 17,0 33,4 48,11 27,12 48,35 59,64 10,28 9,59 -4,86 -18,41 -59,66 -103,66 -17,0 -32,-3 -48,-10 -27,-13 -48,-36 -59,-64 -10,-28 -9,-59 4,-87zm-331 190c24,-43 71,-69 121,-66 18,1 36,7 52,16 30,16 52,43 61,76 10,33 6,67 -11,97 -23,44 -71,69 -120,66 -19,-1 -36,-7 -53,-16 -30,-16 -51,-43 -61,-76 -9,-33 -6,-67 11,-97z"/>
   <path class="fil1" d="M-20764 3913c4,-124 45,-449 -192,-829 -248,-396 -184,-862 -145,-1020 -3,130 11,462 247,840 248,396 130,855 90,1009z"/>
  </g>
  <g id="_738177824">
   <path class="fil2" d="M-11969 1420c-4,-115 -17,-177 -52,-242 -75,-139 -219,-227 -376,-227 -199,0 -364,134 -412,319l-129 129c0,-5 1,-9 1,-14 0,-240 -195,-434 -434,-434 -104,0 -196,32 -267,92l0 0 -1 1c-19,16 -36,35 -51,54l-281 295c1,-3 1,-6 1,-8 0,-238 -193,-434 -426,-434 -232,0 -418,183 -430,413 -35,37 -241,248 -241,248 -13,13 -26,25 -41,36 -58,47 -120,68 -198,68 -186,0 -333,-148 -333,-336 0,-188 148,-335 338,-335 113,0 219,65 283,173l123 0c-65,-163 -223,-267 -405,-267 -246,0 -444,191 -444,430 0,8 1,15 2,23l-103 106c-16,-92 -89,-149 -253,-198 -120,-38 -161,-71 -161,-138 0,-61 68,-121 135,-121 77,0 131,50 137,128l124 0c-7,-129 -115,-222 -259,-222 -138,0 -251,104 -251,232 0,113 65,174 238,227 132,40 179,83 179,159 0,78 -75,144 -162,144 -95,0 -161,-65 -166,-166l-122 0c2,154 116,260 284,260 97,0 176,-38 226,-100l181 -182c62,164 224,278 420,278 126,0 228,-44 309,-131l176 -179c52,177 218,310 414,310 121,0 233,-56 312,-142l0 1 279 -280 0 626 111 0 0 -367c73,107 181,162 321,162 127,0 242,-56 322,-142l0 1 231 -232c27,212 206,373 427,373 174,0 341,-120 399,-288l-115 0c-43,110 -166,193 -284,193 -168,0 -313,-133 -321,-296 0,0 -4,-53 3,-95 7,-43 19,-72 19,-72 0,0 1,1 1,1 49,-126 163,-209 298,-209 149,0 272,110 312,280l-527 0 0 95 639 0zm-2106 -44c0,190 -141,340 -321,340 -179,0 -326,-148 -326,-331 0,-188 145,-340 326,-340 175,0 321,150 321,331zm1033 5c0,187 -145,335 -324,335 -197,0 -336,-143 -336,-341 0,-183 148,-330 332,-330 182,0 328,152 328,336zm-3428 -238l0 -193c-7,-1 -13,-1 -15,-1 -81,0 -123,23 -183,103l0 -75 -182 0 0 829 199 0 0 -466c0,-129 58,-194 181,-197zm-513 322c8,-45 12,-67 12,-98 0,-229 -189,-423 -415,-423 -235,0 -427,194 -427,429 0,247 185,438 424,438 177,0 339,-118 389,-283l-213 0c-44,71 -102,105 -181,105 -98,0 -190,-71 -214,-168l0 0c-15,-45 -19,-104 -7,-156 0,-1 1,-1 1,-2l0 0c26,-112 118,-185 228,-185 112,0 199,72 226,187l-196 0 0 0c0,0 0,0 0,0 -3,0 -5,0 -8,0l-5 0 0 0c-80,6 -144,75 -145,157l102 -1 429 0zm-1131 345l199 0 0 -448c0,-138 -17,-210 -67,-278 -56,-80 -159,-131 -260,-131 -88,0 -154,29 -227,101l0 -73 -184 0 0 829 199 0 0 -395c0,-111 6,-157 30,-199 28,-48 86,-81 142,-81 42,0 88,22 116,51 37,40 52,105 52,214l0 410zm-1059 203l447 -1034 -227 0 -188 507 -180 -507 -227 0 296 727 -135 307 214 0zm-801 -821c0,-39 35,-68 82,-68 46,0 74,25 83,70l210 0c-7,-141 -133,-248 -292,-248 -162,0 -297,112 -297,246 0,131 64,198 248,253 119,35 151,58 151,107 0,45 -41,81 -96,81 -63,0 -96,-31 -118,-104l-217 0c9,78 23,118 55,162 55,71 159,120 258,120 186,0 331,-125 331,-284 0,-124 -69,-192 -247,-242 -91,-26 -87,-26 -109,-34 -28,-13 -42,-33 -42,-59z"/>
   <path class="fil3" d="M-17523 2355c-19,26 -37,37 -63,37 -41,0 -72,-33 -72,-74 0,-41 32,-72 73,-72 25,0 48,14 62,37l27 0c-15,-35 -49,-58 -89,-58 -53,0 -96,42 -96,94 0,52 42,93 98,93 38,0 67,-19 87,-57l-27 0zm142 -130c-52,0 -94,42 -94,95 0,50 43,92 94,92 50,0 93,-43 93,-92 0,-52 -42,-95 -93,-95zm0 21c38,0 70,32 70,72 0,41 -31,74 -70,74 -39,0 -71,-33 -71,-72 0,-41 32,-74 71,-74zm129 162l24 0 0 -98c0,-21 2,-31 9,-40 10,-15 27,-24 45,-24 34,0 56,25 56,64l0 98 23 0 0 -98c0,-52 -31,-85 -79,-85 -22,0 -37,8 -55,27l0 -23 -23 0 0 179zm203 0l25 0 0 -98c0,-21 2,-31 8,-40 10,-15 28,-24 46,-24 33,0 55,25 55,64l0 98 23 0 0 -98c0,-52 -31,-85 -79,-85 -21,0 -37,8 -55,27l0 -23 -23 0 0 179zm379 -81c-1,-25 -4,-38 -11,-52 -17,-31 -48,-50 -82,-50 -52,0 -94,42 -94,94 0,52 42,93 94,93 38,0 75,-26 87,-62l-25 0c-9,24 -36,42 -62,42 -36,0 -68,-29 -70,-65l163 0zm-162 -21c6,-35 35,-60 69,-60 33,0 60,24 69,60l-138 0zm345 49c-19,26 -37,37 -63,37 -41,0 -73,-33 -73,-74 0,-41 33,-72 74,-72 25,0 48,14 62,37l26 0c-14,-35 -48,-58 -88,-58 -53,0 -97,42 -97,94 0,52 43,93 98,93 39,0 68,-19 87,-57l-26 0zm67 53l22 0 0 -158 44 0 0 -21 -44 0 0 -63 -22 0 0 63 -38 0 0 21 38 0 0 158zm88 0l23 0 0 -179 -23 0 0 179zm0 -201l23 0 0 -41 -23 0 0 41zm70 201l24 0 0 -98c0,-21 2,-31 9,-40 10,-15 28,-24 45,-24 34,0 56,25 56,64l0 98 23 0 0 -98c0,-52 -31,-85 -79,-85 -21,0 -37,8 -55,27l0 -23 -23 0 0 179zm378 -179l-23 0 0 33c-16,-24 -41,-37 -71,-37 -50,0 -92,43 -92,94 0,51 43,93 94,93 31,0 59,-15 69,-39l0 19c0,38 -27,66 -66,66 -30,0 -49,-13 -66,-45l-24 0c12,40 46,65 88,65 29,0 58,-13 74,-34 13,-16 17,-28 17,-57l0 -158zm-94 17c40,0 71,32 71,73 0,40 -31,73 -69,73 -39,0 -71,-33 -71,-73 0,-42 30,-73 69,-73zm239 162l23 0 0 -158 43 0 0 -21 -43 0 0 -63 -23 0 0 63 -37 0 0 21 37 0 0 158zm89 0l23 0 0 -98c0,-20 3,-31 9,-40 10,-15 28,-24 46,-24 34,0 56,25 56,64l0 98 23 0 0 -98c0,-52 -31,-85 -79,-85 -22,0 -43,11 -55,27l0 -86 -23 0 0 242zm379 -81c-1,-25 -4,-38 -11,-52 -17,-31 -48,-50 -82,-50 -52,0 -94,42 -94,94 0,52 42,93 94,93 38,0 75,-26 87,-62l-25 0c-9,24 -36,42 -62,42 -36,0 -68,-29 -70,-65l163 0zm-162 -21c6,-35 35,-60 69,-60 33,0 60,24 68,60l-137 0zm466 -140l-23 0 0 92c-18,-22 -42,-33 -69,-33 -54,0 -97,41 -97,93 0,53 43,94 97,94 29,0 51,-11 70,-36l0 32 22 0 0 -242zm-94 80c40,0 72,32 72,72 0,41 -32,74 -72,74 -39,0 -72,-34 -72,-74 0,-39 33,-72 72,-72zm224 -21c-52,0 -94,42 -94,95 0,50 42,92 94,92 49,0 93,-43 93,-92 0,-52 -43,-95 -93,-95zm0 21c38,0 70,32 70,72 0,41 -31,74 -70,74 -39,0 -71,-33 -71,-72 0,-41 31,-74 71,-74zm134 162l23 0 0 -158 43 0 0 -21 -43 0 0 -63 -23 0 0 63 -37 0 0 21 37 0 0 158zm73 -53c0,34 23,57 57,57 32,0 56,-24 56,-57 0,-26 -14,-41 -52,-53 -24,-8 -32,-15 -32,-30 0,-13 14,-26 27,-26 16,0 26,10 28,28l24 0c-1,-29 -23,-49 -51,-49 -28,0 -50,23 -50,51 0,24 13,38 47,49 26,9 36,18 36,35 0,17 -15,32 -33,32 -18,0 -32,-14 -33,-37l-24 0z"/>
  </g>
  <rect class="fil4 str0" x="-26434" y="2989" width="11028" height="3786"/>
  <g id="_738177184">
   <g>
    <path class="fil0" d="M3360 1676c-10,15 -28,22 -45,21 -11,-1 -20,-5 -28,-11l-1 0c-11,-9 -18,-21 -20,-35 -1,-14 2,-28 11,-39 11,-14 28,-22 46,-20 10,0 20,4 28,10 23,18 27,51 9,74zm-33 -152c-11,0 -22,-4 -32,-10l0 0c-13,-9 -22,-22 -25,-37 -4,-16 -1,-32 8,-45 11,-17 30,-27 50,-27 11,0 22,4 32,10 27,18 35,55 17,82 -11,17 -29,27 -50,27zm-33 229c12,0 23,4 32,11 9,9 15,20 15,33 1,12 -3,24 -11,34 -9,10 -22,15 -36,15 -11,0 -22,-4 -31,-11 -9,-9 -15,-20 -15,-33 -1,-12 3,-24 11,-33 9,-11 22,-16 35,-16zm-1189 -175c6,-2 12,-4 19,-4 18,0 35,11 43,28 10,23 0,51 -24,62 -6,3 -13,4 -19,4 -19,0 -36,-11 -43,-28 -11,-23 0,-51 24,-62zm30 -164c7,-3 15,-3 22,-3 21,2 39,15 46,35 10,27 -5,57 -32,67 -7,3 -14,4 -22,3 -20,-1 -39,-15 -46,-34 -10,-28 5,-58 32,-68zm95 131c6,-11 16,-19 28,-23 4,-1 8,-1 13,-1 20,0 39,14 45,34 7,25 -8,50 -32,58l-1 0c-4,1 -8,2 -12,2 -21,0 -40,-15 -46,-35 -3,-12 -2,-24 5,-35zm505 40l-7 -1c-25,-3 -43,-27 -39,-53 4,-25 28,-43 53,-39 13,2 24,8 31,18 8,10 11,23 9,35 -4,23 -24,40 -47,40zm-155 -106c26,0 47,21 46,47 0,26 -21,47 -46,47l-1 0c-12,0 -24,-5 -33,-14 -9,-9 -13,-21 -13,-34 0,-25 21,-46 47,-46zm39 -88c2,-29 28,-51 57,-49 29,3 51,28 48,57 -2,29 -28,51 -56,48l-1 0c-14,-1 -26,-7 -36,-18 -9,-11 -13,-25 -12,-38zm-341 -4c8,-12 20,-20 33,-23 5,-1 10,-1 15,-1 23,2 43,19 48,42 6,29 -13,56 -41,62l0 0c-5,2 -10,2 -15,1 -23,-1 -43,-19 -48,-42 -3,-13 0,-27 8,-39zm99 -194c33,-5 62,18 67,50 4,33 -19,63 -51,67 -3,0 -5,0 -8,0l0 0c-30,0 -55,-22 -59,-51 -4,-32 19,-62 51,-66zm30 -118c-3,-36 25,-68 62,-70 37,-3 68,26 71,62 2,37 -26,68 -63,71 -3,0 -6,0 -9,-1l0 0c-33,-2 -59,-29 -61,-62zm380 121c16,2 30,10 39,23 10,13 14,29 11,44 -4,29 -29,51 -58,51 -3,0 -6,-1 -9,-1 -33,-5 -55,-35 -50,-67 5,-32 35,-55 67,-50zm70 174c14,3 25,11 33,23 7,12 10,26 7,40 -6,25 -30,43 -56,41 -2,0 -5,-1 -7,-1 -29,-7 -47,-35 -40,-63 6,-28 34,-46 63,-40zm44 158c12,3 22,11 28,22 6,11 7,24 4,36 -6,20 -25,33 -45,33 -5,0 -9,0 -14,-2 -25,-7 -39,-33 -31,-58 6,-20 24,-34 45,-34 4,0 9,1 13,3zm63 -74c8,-22 30,-36 53,-34 5,0 10,2 15,4 13,4 24,14 29,27 6,13 6,27 1,41 -8,21 -30,35 -53,33 -5,0 -10,-1 -15,-3 -27,-11 -41,-41 -30,-68zm114 158c4,12 4,25 -2,36 -7,17 -24,27 -42,27 -7,0 -14,-1 -20,-4l0 0c-12,-6 -20,-15 -24,-27 -5,-11 -4,-24 1,-36 8,-16 25,-27 43,-27 7,0 13,2 20,5 11,5 20,15 24,26zm-1182 25c-2,14 -9,26 -21,34 -10,8 -22,11 -35,10 -15,-1 -29,-9 -38,-21 -9,-12 -12,-26 -10,-39 2,-14 10,-27 21,-35 10,-7 23,-11 35,-10 15,1 30,9 39,21 8,12 12,26 9,40zm-31 -134l-1 0c-9,6 -20,9 -31,9 -21,0 -39,-10 -50,-28 -9,-13 -11,-29 -8,-44 3,-16 13,-29 26,-38 10,-6 21,-9 32,-9 20,0 39,11 50,28 17,27 9,64 -18,82zm-432 1097c5,-19 23,-34 45,-34 21,0 39,15 45,34l-90 0zm-300 0c5,-27 29,-47 58,-47 28,0 52,20 58,47l-116 0zm161 -83c2,-28 27,-50 56,-48 29,2 51,28 49,57 -2,29 -28,50 -57,48l0 0c-29,-2 -51,-28 -48,-57zm27 -181c6,-27 34,-46 63,-40 29,7 46,35 40,63 -6,26 -29,43 -55,42 -3,-1 -5,-1 -8,-2 -14,-3 -25,-11 -33,-23 -8,-12 -10,-26 -7,-40zm-363 158c3,-36 35,-64 71,-61 37,3 65,35 62,71 -3,37 -35,64 -71,62l0 0c-37,-3 -65,-35 -62,-72zm34 -228c8,-36 44,-59 80,-51 36,8 58,44 50,80 -7,32 -37,54 -69,51 -4,0 -7,0 -10,-1 -18,-4 -32,-14 -42,-29 -9,-15 -13,-33 -9,-50zm-238 334c5,-37 37,-65 74,-65 39,0 70,29 75,65l-149 0zm-219 -134c3,-46 43,-81 89,-78 47,4 82,44 78,90 -3,46 -43,81 -89,78l-1 0c-46,-3 -81,-44 -77,-90zm42 -289c10,-44 54,-74 100,-64 46,10 74,55 64,100 -9,41 -46,69 -88,66 -4,0 -8,-1 -12,-2 -22,-4 -41,-18 -53,-37 -12,-18 -16,-41 -11,-63zm83 -280c13,-34 48,-56 85,-54 8,1 16,2 24,5 43,17 65,65 49,109 -14,34 -48,57 -85,54 -8,-1 -16,-2 -24,-5 -21,-8 -37,-24 -47,-44 -9,-21 -10,-44 -2,-65zm198 390c41,7 69,45 63,85 -5,37 -37,64 -74,64 -3,0 -7,0 -11,-1 -20,-2 -37,-13 -49,-29 -12,-16 -17,-36 -14,-55 6,-41 44,-70 85,-64zm-28 -190c9,-31 39,-53 71,-53 8,0 15,1 22,3 39,12 62,53 50,93 -9,31 -39,53 -72,53 -7,0 -14,-1 -21,-3 -19,-6 -35,-19 -45,-36 -9,-18 -11,-38 -5,-57zm92 -243c12,-26 39,-43 68,-43 11,0 21,2 31,7 19,8 32,23 39,42 7,19 6,39 -2,57 -13,26 -39,43 -68,43 -11,0 -22,-2 -32,-7 -37,-17 -53,-62 -36,-99zm204 147c6,1 12,2 19,5 34,13 51,51 38,85 -10,28 -38,45 -67,43 -6,0 -13,-2 -19,-4 -16,-6 -29,-19 -37,-35 -7,-16 -8,-34 -1,-51 10,-27 38,-45 67,-43zm88 355c33,5 55,36 50,68 -4,29 -29,50 -58,50 -3,0 -6,0 -9,0 -16,-3 -30,-11 -39,-24 -9,-12 -13,-28 -11,-44 5,-31 35,-54 67,-50zm-22 -150c7,-25 30,-43 56,-43 6,0 12,1 17,3 32,9 50,42 40,74 -7,24 -31,42 -56,42 -6,0 -12,-1 -17,-3 -16,-4 -28,-14 -36,-28 -7,-14 -9,-30 -4,-45zm73 -193c10,-21 31,-34 54,-34 8,0 17,1 25,5 14,7 25,19 30,34 6,15 5,31 -2,45 -9,21 -31,34 -53,34 -9,0 -18,-2 -25,-5 -30,-14 -43,-49 -29,-79zm162 114c5,1 10,2 15,4 27,10 41,41 31,68 -9,21 -31,35 -54,34 -5,-1 -10,-2 -14,-4 -14,-5 -24,-15 -30,-28 -6,-13 -6,-27 -1,-40 8,-21 30,-35 53,-34zm69 284c26,4 44,28 40,53 -4,23 -23,40 -47,40l-6 0c-13,-2 -24,-9 -31,-19 -8,-10 -11,-22 -9,-34 4,-26 27,-44 53,-40zm-18 -119c6,-20 25,-34 45,-34 5,0 9,1 14,2 25,7 39,34 31,58 -6,20 -24,34 -45,34 -4,0 -9,-1 -13,-2 -12,-4 -22,-12 -28,-23 -6,-11 -7,-23 -4,-35zm58 -153c8,-17 25,-27 43,-27 7,0 13,1 20,4 11,6 20,15 24,27 4,11 4,24 -2,36 -7,16 -24,27 -42,27 -7,0 -14,-2 -20,-5 -23,-11 -34,-39 -23,-62zm16 -297c11,-14 28,-22 46,-21 10,1 20,5 28,11 11,9 18,21 20,35 2,14 -1,28 -10,39 -11,14 -28,22 -46,20 -10,0 -20,-4 -28,-10 -23,-18 -27,-51 -10,-74zm103 133c9,0 18,3 25,8 11,7 18,17 21,29 2,13 0,25 -7,36 -9,13 -23,21 -39,21 -9,0 -18,-3 -26,-8 -21,-14 -28,-43 -13,-64 8,-14 23,-22 39,-22zm252 -183c-1,12 -6,23 -16,32 -8,7 -19,11 -30,11 -14,0 -27,-6 -36,-17 -8,-9 -12,-21 -11,-34 1,-12 7,-24 16,-32 9,-7 19,-11 31,-11 13,0 26,6 35,16 8,10 12,22 11,35zm1224 -113c9,-13 23,-21 39,-21 9,0 18,2 26,7 22,15 28,44 13,65 -8,14 -23,22 -39,22 -9,0 -18,-3 -25,-8l-1 0c-10,-7 -17,-18 -20,-30 -2,-12 0,-25 7,-35zm1110 921c9,-32 38,-56 72,-56 35,0 64,24 73,56l-145 0zm-164 -360c6,-1 12,-1 18,-1 29,2 54,24 60,53 8,36 -15,71 -51,79 -6,1 -13,1 -19,1 -29,-2 -54,-24 -60,-52l0 -1c-8,-36 16,-71 52,-79zm109 281c2,37 -26,68 -63,71 -3,0 -6,0 -9,0 -33,-3 -59,-30 -61,-63 -1,-17 4,-35 16,-48 12,-13 28,-21 46,-22 37,-2 68,26 71,62zm-422 -199c5,-1 10,-2 15,-1 23,1 43,19 48,42 5,28 -13,56 -42,62 -4,1 -9,1 -14,1 -23,-2 -43,-19 -48,-42l0 0c-6,-29 13,-56 41,-62zm86 222c2,29 -20,53 -48,56l-10 0c-25,-2 -46,-23 -47,-49 -1,-15 4,-28 13,-39 9,-10 22,-16 36,-17 30,-2 54,21 56,49zm33 -358c6,-1 11,-2 16,-2 27,0 50,18 57,43 9,32 -9,65 -40,73 -6,2 -11,3 -17,3 -26,0 -49,-18 -56,-43l-1 0c-9,-32 10,-65 41,-74zm115 243c4,32 -19,62 -51,66 -3,1 -5,1 -8,1 -29,0 -55,-22 -59,-51 -2,-16 3,-32 12,-44 10,-13 24,-21 39,-23 33,-4 63,19 67,51zm-103 171c8,-23 30,-40 56,-40 26,0 48,17 56,40l-112 0zm-369 -442c5,-12 13,-21 25,-26 6,-3 12,-4 19,-4 19,0 35,11 43,28 10,23 0,51 -24,62 -6,2 -12,4 -19,4 -18,0 -35,-11 -43,-28 -5,-12 -5,-25 -1,-36zm97 117c21,0 40,14 45,34 7,25 -7,51 -32,58 -4,1 -8,1 -13,1 -21,0 -39,-13 -45,-33l0 -1c-7,-25 8,-51 32,-58 5,-1 9,-1 13,-1zm78 194c4,25 -15,49 -40,52l-6 1c-24,0 -44,-18 -47,-41 -1,-13 2,-25 9,-35 8,-10 19,-16 32,-18 26,-3 49,15 52,41zm-80 131c8,-16 24,-28 43,-28 19,0 36,12 43,28l-86 0zm-150 -603c8,-4 17,-7 25,-7 17,0 31,8 40,22 14,22 7,51 -15,65 -7,4 -16,7 -24,7 -17,0 -32,-8 -40,-22 -14,-22 -7,-51 14,-65zm40 -110c2,-14 10,-26 21,-34 10,-8 23,-11 35,-11 16,2 30,9 39,22 8,11 11,25 9,39 -2,14 -9,26 -21,35 -10,7 -22,11 -35,10 -15,-1 -29,-9 -38,-22 -9,-11 -12,-25 -10,-39zm121 110c8,-4 18,-6 28,-6 19,2 34,12 43,28 14,26 4,58 -22,71 -9,5 -19,7 -28,6 -19,-1 -34,-11 -43,-27 -14,-26 -4,-58 22,-72zm78 158c7,-3 14,-4 21,-3 21,1 39,15 46,34 10,28 -4,58 -32,68 -7,2 -14,4 -21,3 -21,-2 -39,-15 -46,-35 -5,-13 -4,-27 2,-40 6,-13 16,-23 30,-27zm67 -118c6,-15 17,-27 31,-33 8,-4 16,-5 24,-5 24,0 45,13 54,35 14,30 0,65 -30,78 -7,4 -15,5 -24,5 -23,0 -44,-14 -54,-35 -6,-14 -7,-31 -1,-45zm131 -206c11,-6 24,-8 37,-8 23,2 43,15 54,36 17,32 5,72 -28,90 -11,6 -24,8 -36,7 -23,-1 -43,-15 -54,-35 -17,-32 -5,-73 27,-90zm99 199c9,-4 18,-5 28,-4 26,2 49,19 57,44 13,34 -5,72 -40,85 -8,3 -17,4 -27,4 -26,-2 -49,-19 -58,-44 -6,-17 -5,-35 3,-51 7,-16 20,-28 37,-34zm87 -146c7,-19 21,-34 39,-42 10,-4 20,-6 30,-6 30,0 57,17 69,44 16,38 0,82 -38,99 -10,4 -20,7 -31,7 -29,0 -56,-18 -68,-45 -8,-18 -9,-38 -1,-57zm154 186c33,0 63,23 72,55 11,39 -12,81 -52,92 -6,2 -13,3 -20,3 -33,0 -62,-22 -72,-54l0 -1c-11,-39 12,-81 52,-92 6,-2 13,-3 20,-3zm125 309c5,41 -24,79 -65,84 -3,1 -6,1 -10,1 -37,0 -69,-28 -74,-65 -2,-20 3,-40 15,-56 12,-15 30,-26 50,-28 41,-6 78,24 84,64zm-38 -465c10,-20 27,-35 48,-43 11,-4 22,-6 34,-5 33,2 62,24 73,55 16,44 -6,92 -50,108 -11,4 -23,6 -35,5 -32,-2 -61,-24 -73,-55 -7,-21 -6,-44 3,-65zm235 288c10,45 -20,90 -65,99 -7,2 -15,2 -23,2 -37,-3 -68,-30 -76,-66l0 -1c-10,-45 20,-90 65,-99 7,-2 15,-2 23,-2 37,3 69,30 76,67zm39 289c3,47 -33,86 -79,89 -3,1 -7,1 -11,0 -42,-3 -75,-36 -78,-78 -1,-23 6,-44 21,-61 15,-17 36,-27 58,-28 47,-3 86,33 89,78zm-4332 109c4,-49 45,-87 94,-87 50,0 90,39 94,87l-188 0zm24 -320c8,-51 56,-87 108,-80 51,8 87,56 79,108 -6,46 -47,80 -93,80 -5,0 -9,0 -14,-1 -25,-3 -47,-17 -62,-37 -15,-20 -21,-45 -18,-70zm72 -320c12,-40 49,-67 90,-67 9,0 18,1 27,4 50,15 79,67 64,117 -12,40 -49,67 -91,67 -9,0 -18,-1 -27,-3 -24,-8 -44,-24 -56,-46 -12,-22 -15,-48 -7,-72zm116 -307c16,-33 49,-55 86,-55 14,0 27,3 40,9 23,11 40,30 49,54 8,23 7,49 -3,72 -16,33 -50,54 -86,54 -14,0 -27,-3 -40,-9 -47,-22 -68,-78 -46,-125zm160 -287c17,-27 47,-43 79,-43 18,0 36,6 51,16 21,14 36,35 41,59 5,25 0,50 -13,72 -18,26 -47,42 -80,42 -18,0 -36,-5 -51,-15 -44,-28 -56,-87 -27,-131zm213 223c12,1 24,4 35,10 20,11 34,29 40,51 6,21 4,44 -7,64 -16,28 -47,45 -80,43 -12,-1 -24,-5 -34,-11 -41,-22 -56,-73 -33,-114 16,-28 47,-45 79,-43zm80 -202c17,-22 44,-35 73,-33 16,2 32,7 45,17 17,14 29,33 32,56 3,22 -3,44 -16,62 -17,23 -45,35 -73,33 -16,-1 -32,-7 -45,-17 -37,-28 -44,-81 -16,-118zm169 206c14,0 28,4 41,12 16,11 28,28 32,47 4,20 0,40 -11,57 -13,21 -37,33 -62,33 -15,0 -29,-4 -41,-12 -35,-22 -44,-69 -22,-103 14,-22 37,-34 63,-34zm108 207c10,1 19,4 28,8 15,9 26,23 31,40 5,17 3,35 -5,51 -13,22 -38,36 -63,34 -10,-1 -19,-3 -28,-8 -32,-18 -44,-59 -26,-91 13,-22 38,-36 63,-34zm-32 -326c-1,-20 5,-39 18,-54 15,-16 35,-25 57,-25 18,0 35,6 49,18 31,27 34,75 7,106 -14,16 -35,25 -57,25 -18,0 -35,-7 -49,-18 -15,-14 -24,-32 -25,-52zm115 -735c6,-24 21,-45 42,-59 15,-10 33,-15 51,-15 32,0 62,17 79,44 28,44 15,103 -29,131l0 0c-16,9 -33,14 -50,14 -33,0 -63,-16 -80,-44 -14,-21 -18,-46 -13,-71zm187 319c-3,22 -15,42 -33,55 -16,12 -36,18 -56,16 -25,-1 -47,-14 -62,-33 -13,-19 -19,-41 -15,-63 3,-22 15,-42 33,-55 16,-12 36,-18 56,-16 24,1 47,14 61,33 14,18 19,41 16,63zm-113 570c14,11 23,26 26,44 2,18 -3,35 -13,49 -14,18 -36,28 -58,26 -13,-1 -25,-5 -36,-13 -29,-22 -35,-64 -12,-93 13,-18 35,-28 58,-26 12,1 25,5 35,13zm38 178c12,0 23,4 33,10 13,9 22,22 25,37 4,16 1,32 -8,45 -11,17 -30,27 -50,27 -11,0 -22,-4 -32,-10 -27,-18 -35,-55 -17,-82 11,-17 29,-27 49,-27zm88 162c7,1 15,3 21,7 13,7 22,18 25,31 4,14 3,28 -4,40 -10,18 -30,29 -50,27 -8,0 -15,-2 -22,-6 -25,-15 -35,-47 -20,-72 10,-18 29,-28 50,-27zm-27 -256c-1,-16 4,-31 14,-43 12,-13 28,-20 45,-20 14,0 28,5 39,15 25,21 27,59 5,83 -11,13 -27,21 -44,21 -15,0 -28,-6 -39,-15 -12,-11 -19,-25 -20,-41zm91 -582c5,-20 16,-36 33,-47 12,-7 26,-11 40,-11 26,0 50,13 63,34 22,35 12,81 -23,104l0 0c-12,7 -26,11 -40,11 -26,0 -49,-13 -63,-35 -11,-17 -14,-37 -10,-56zm151 251c-3,17 -12,33 -27,43 -12,10 -28,14 -44,13 -19,-1 -37,-11 -49,-27 -10,-14 -15,-32 -12,-49 3,-18 12,-34 26,-44 13,-9 29,-14 45,-13 19,2 37,11 48,27 11,14 15,32 13,50zm2 150c10,12 16,28 14,43 -1,16 -8,31 -20,41 -11,9 -25,14 -39,14 -17,0 -34,-8 -45,-21 -10,-12 -15,-27 -14,-43 1,-16 9,-30 21,-40 10,-9 24,-14 38,-14 17,0 34,7 45,20zm29 174c20,21 20,55 -1,75 -10,11 -25,16 -41,15 -12,-1 -24,-7 -33,-16 -10,-10 -15,-23 -15,-37 0,-14 5,-27 15,-37 11,-11 26,-16 41,-15 13,1 25,6 34,15zm32 157c20,17 22,47 5,67 -9,10 -22,16 -36,16 -11,0 -22,-5 -31,-12 -9,-8 -15,-20 -15,-32 -1,-13 3,-25 11,-34 9,-10 22,-16 35,-16 12,0 23,4 31,11zm-6 -629c5,-17 17,-31 33,-40 11,-6 23,-8 36,-7 23,1 43,14 54,35 17,32 5,72 -27,90l-1 0c-11,6 -23,8 -36,8 -23,-2 -43,-15 -54,-35 -8,-16 -10,-34 -5,-51zm54 -273c9,-4 20,-6 30,-6 30,0 57,17 69,44 17,37 0,82 -38,99 -10,4 -20,6 -31,6 -29,0 -56,-17 -68,-44 -17,-38 0,-82 38,-99zm113 725c2,-12 9,-23 20,-30 8,-4 16,-7 25,-7 16,0 31,8 40,22 14,22 7,51 -15,65l0 0c-7,5 -16,7 -25,7 -16,0 -31,-8 -39,-22 -7,-10 -9,-23 -6,-35zm1 -165c4,-14 13,-25 26,-31 9,-5 19,-7 29,-7 18,2 34,12 42,28 14,26 4,58 -21,72l-1 0c-9,4 -18,6 -28,6 -18,-2 -34,-12 -43,-28 -6,-13 -8,-27 -4,-40zm40 -215c8,-3 16,-5 24,-5 24,0 45,14 55,35 13,30 0,65 -30,78 -8,4 -16,5 -24,5 -24,0 -45,-13 -55,-35 -13,-29 0,-65 30,-78zm35 -206c9,-3 19,-5 28,-4 26,2 49,19 58,44 12,34 -6,72 -40,85 -9,3 -18,5 -28,4 -26,-2 -48,-19 -57,-44 -13,-34 5,-72 39,-85zm10 -192c10,-18 26,-30 45,-36 6,-2 13,-3 20,-3 34,0 63,23 72,55 12,39 -11,80 -51,92l0 0c-7,2 -14,3 -21,3 -33,0 -63,-22 -72,-54 -5,-20 -3,-40 7,-57zm149 328c5,-2 10,-3 16,-3 26,0 50,18 57,43 9,32 -9,64 -40,73l-1 1c-5,1 -11,2 -16,2 -27,0 -50,-18 -57,-43 -5,-15 -3,-31 5,-45 8,-14 20,-24 36,-28zm22 -171c9,-15 24,-25 42,-28 6,-2 12,-2 18,-2 30,2 54,24 61,53 7,36 -16,71 -51,79l-1 0c-6,1 -12,2 -18,1 -30,-2 -55,-24 -61,-53 -4,-17 0,-35 10,-50zm128 -246c42,-6 79,24 84,64 6,41 -23,79 -64,84 -3,1 -6,1 -10,1l0 0c-37,0 -69,-28 -74,-65 -5,-41 23,-78 64,-84zm33 -148c-3,-46 33,-86 79,-89 47,-3 86,33 89,79 3,46 -32,86 -78,89 -4,0 -8,0 -12,0l0 0c-42,-3 -75,-37 -78,-79zm226 132c42,0 75,34 75,75 -1,41 -34,74 -75,74l-1 0c-20,0 -39,-8 -53,-22 -14,-14 -21,-33 -21,-53 0,-41 34,-74 75,-74zm54 -141c4,-46 44,-81 90,-78 47,4 81,44 78,91 -4,45 -44,80 -90,77l-1 0c-22,-2 -42,-12 -57,-29 -15,-17 -22,-39 -20,-61zm289 380c18,4 33,15 42,30 10,15 13,33 9,50 -7,32 -37,54 -70,52 -3,0 -7,-1 -10,-2 -36,-8 -58,-43 -50,-79 8,-35 43,-59 79,-51zm60 200c15,5 28,15 35,29 8,14 9,30 5,45 -8,25 -31,42 -57,42 -6,0 -12,-1 -17,-3 -32,-9 -49,-42 -40,-73 8,-25 31,-43 57,-43 6,0 12,1 17,3zm16 -312c10,-31 39,-53 72,-53 7,0 15,1 21,3 20,6 35,19 45,37 9,17 11,37 6,56 -10,32 -39,54 -72,54 -7,0 -15,-1 -22,-3 -39,-12 -62,-54 -50,-94zm183 214c7,17 8,35 1,51 -10,28 -38,45 -67,43 -6,-1 -13,-2 -19,-4 -34,-13 -51,-52 -38,-86 10,-27 38,-45 67,-43 6,1 13,2 19,5 16,6 30,18 37,34zm24 205c5,15 5,31 -2,45 -10,21 -31,34 -54,34 -8,0 -17,-1 -25,-5l0 0c-14,-7 -25,-19 -30,-33 -6,-15 -5,-32 2,-46 9,-21 30,-34 53,-34 9,0 17,2 25,6 15,6 26,18 31,33zm12 185c4,14 2,28 -5,40 -10,18 -30,29 -50,27 -8,-1 -15,-3 -22,-7l0 0c-12,-7 -21,-18 -25,-31 -4,-14 -2,-28 5,-40 10,-18 30,-29 50,-27 8,0 15,3 22,7 12,6 21,18 25,31zm18 -525c12,-26 39,-43 68,-43 11,0 21,3 31,7 18,9 32,24 39,43 7,18 6,39 -3,57 -12,26 -38,43 -67,43 -11,0 -22,-3 -32,-7l0 -1c-18,-8 -32,-23 -39,-41 -7,-19 -6,-40 3,-58zm150 238c5,18 3,36 -6,51 -13,23 -37,36 -63,34 -10,-1 -19,-4 -28,-8l0 -1c-15,-8 -26,-22 -31,-39 -5,-17 -3,-35 6,-51 12,-22 37,-36 63,-34 10,1 19,4 27,8 16,9 27,23 32,40zm13 618c14,0 27,6 36,17 8,9 12,21 11,34 -1,12 -7,24 -17,32 -8,7 -19,11 -30,11 -14,0 -27,-6 -36,-17 -8,-9 -12,-21 -11,-34 1,-12 7,-24 17,-32 8,-7 19,-11 30,-11zm-7 -104c0,-14 6,-27 16,-37 11,-10 26,-16 41,-15 13,1 25,7 34,16 9,10 15,24 15,38 -1,14 -6,27 -16,37 -11,10 -26,16 -41,15 -13,-1 -25,-7 -34,-16 -10,-10 -15,-24 -15,-38zm28 -172c-1,-16 5,-31 15,-43 11,-13 27,-20 44,-20 15,0 29,5 40,15 12,10 19,25 20,41 0,16 -5,31 -15,43 -12,12 -28,20 -45,20 -14,0 -28,-6 -39,-15 -12,-11 -19,-25 -20,-41zm34 -242c14,-18 36,-28 58,-26 13,1 25,6 36,13 29,23 34,65 12,94 -14,18 -35,28 -58,26 -13,-1 -25,-6 -35,-14l-1 0c-14,-11 -23,-26 -25,-44 -2,-17 3,-35 13,-49zm5 -226c14,-21 37,-33 62,-33 15,0 29,4 41,12 35,23 44,69 22,104 -14,21 -38,33 -63,33 -14,0 -29,-4 -41,-12l0 0c-17,-11 -28,-28 -32,-47 -4,-20 0,-40 11,-57zm159 546c17,0 33,7 45,21 10,12 15,27 14,43 -2,16 -9,30 -21,40 -11,9 -24,14 -38,14 -18,0 -34,-7 -46,-20 -10,-12 -15,-28 -13,-44 1,-15 8,-30 20,-40 11,-9 24,-14 39,-14zm85 168c9,-6 20,-9 31,-9 21,0 40,10 51,28 17,27 9,64 -19,81 -9,6 -20,9 -32,9 -20,0 -39,-10 -50,-27 -17,-28 -9,-65 19,-82zm48 -142c3,-17 12,-33 26,-43 13,-10 29,-14 45,-13 19,1 37,11 48,27 11,14 15,32 13,49 -3,18 -13,33 -27,44 -12,9 -28,14 -44,13 -20,-2 -37,-12 -49,-27 -10,-15 -15,-32 -12,-50zm-6 -548c-16,-1 -32,-7 -45,-17l-1 0c-17,-14 -28,-33 -31,-55 -3,-23 2,-45 16,-63 17,-22 44,-35 73,-33 16,2 32,7 45,17 37,29 44,81 16,118 -17,23 -45,35 -73,33zm-52 -417c17,-27 47,-43 79,-43 18,0 36,6 52,16 43,29 55,87 27,131 -18,27 -47,43 -79,43 -19,0 -37,-6 -52,-16l-1 -1c-20,-13 -35,-34 -40,-59 -5,-25 0,-50 14,-71zm201 689c22,0 42,9 57,26 13,15 19,35 17,55 -1,20 -11,38 -26,50 -13,12 -31,18 -48,18 -22,0 -43,-9 -57,-26 -13,-15 -20,-35 -18,-54 2,-20 11,-38 26,-51 14,-12 31,-18 49,-18zm107 212c12,-8 26,-12 40,-12 26,0 50,13 63,35 22,35 12,81 -23,103 -12,8 -26,12 -40,12 -26,0 -49,-13 -63,-35 -22,-35 -12,-81 23,-103zm58 -182c4,-22 16,-42 34,-55 16,-12 35,-18 55,-17 25,2 47,14 62,34 14,18 19,41 16,63 -4,22 -16,42 -34,55 -16,12 -35,18 -55,16 -25,-2 -48,-14 -62,-34 -13,-18 -19,-40 -16,-62zm193 175c14,-8 30,-11 46,-10 29,2 54,18 68,44 22,41 7,92 -34,114 -14,7 -30,11 -46,10 -29,-2 -54,-19 -68,-44 -22,-41 -7,-93 34,-114zm126 -253c15,-10 32,-15 50,-15 33,0 63,17 80,44 28,44 15,103 -29,131 -16,9 -33,14 -51,14 -32,0 -62,-16 -80,-44 -27,-44 -14,-103 30,-130zm160 270c12,-5 25,-8 38,-8 38,0 72,22 87,56 21,48 -1,104 -48,125 -12,5 -25,8 -39,8 -37,0 -71,-22 -86,-56 -10,-23 -11,-49 -2,-72 9,-24 27,-42 50,-53zm145 288c42,0 80,28 91,69 14,50 -15,102 -65,116 -8,3 -17,4 -26,4 -42,0 -79,-28 -90,-68l0 -1c-15,-50 15,-102 65,-116 8,-3 17,-4 25,-4zm157 390c7,52 -29,99 -81,106 -4,1 -8,1 -12,1 -47,0 -88,-35 -94,-82 -3,-25 3,-50 19,-70 15,-20 37,-33 62,-36 53,-7 100,30 106,81zm-167 284c9,-43 47,-75 93,-75 45,0 83,32 92,75l-185 0zm-4564 -272c58,4 102,55 98,114 -5,58 -55,101 -113,97l-1 0c-58,-4 -102,-55 -98,-113 5,-58 55,-102 114,-98zm66 -348c57,13 94,70 81,127 -11,51 -59,86 -111,83 -5,0 -10,-1 -16,-2 -27,-6 -51,-23 -66,-47 -15,-24 -20,-52 -14,-80 12,-56 68,-93 126,-81zm116 -334c54,21 82,82 61,137 -16,43 -60,72 -106,68 -11,0 -21,-3 -30,-6 -27,-10 -48,-30 -60,-56 -12,-26 -12,-54 -2,-81 16,-44 60,-72 106,-68 11,0 21,2 31,6zm212 -251c8,27 5,56 -9,81 -20,36 -59,57 -100,54 -16,-1 -31,-5 -44,-13 -51,-28 -70,-93 -42,-144 20,-36 60,-57 101,-54 15,1 30,5 44,13 24,13 42,36 50,63zm175 -203c-21,29 -56,45 -92,42 -20,-1 -40,-9 -56,-21 -47,-36 -56,-102 -21,-149 22,-29 56,-44 92,-42 21,2 40,9 57,22 23,17 37,42 41,70 4,28 -3,56 -21,78zm223 -254c-21,21 -51,33 -82,30 -25,-1 -49,-13 -68,-31 -19,-20 -30,-47 -30,-75 0,-28 11,-55 31,-75 22,-21 52,-32 82,-30 26,2 50,12 68,31 42,41 41,109 -1,150zm74 158c39,35 43,95 9,134 -18,20 -44,32 -71,32 -23,0 -45,-8 -62,-24 -19,-16 -31,-39 -32,-64 -2,-26 6,-50 23,-69 18,-20 44,-32 71,-32 23,0 45,8 62,23zm225 -448c-4,28 -19,53 -42,70 -20,15 -45,22 -70,20 -31,-2 -60,-17 -78,-42 -17,-23 -24,-51 -20,-79 4,-28 19,-53 42,-70 20,-15 45,-22 71,-20 30,2 59,17 77,42 17,23 24,51 20,79zm31 306c-2,25 -14,48 -33,64 -17,15 -39,23 -61,23 -28,0 -54,-12 -72,-33 -16,-19 -24,-44 -23,-69 3,-25 14,-48 33,-64 17,-15 39,-23 62,-23 27,0 53,12 71,33 17,19 25,44 23,69zm16 333c-17,17 -40,26 -65,25 -20,-2 -39,-11 -53,-25 -16,-16 -25,-37 -25,-60 1,-22 9,-43 25,-59 18,-17 41,-26 65,-24 21,1 40,10 54,24 33,33 32,87 -1,119zm197 -751l-1 1c-18,9 -37,13 -57,12 -37,-3 -69,-23 -86,-56 -14,-25 -17,-53 -8,-80 8,-28 26,-50 51,-63 17,-10 37,-14 58,-13 36,3 68,23 86,55 27,52 8,116 -43,144zm65 764c-2,20 -11,38 -27,51 -13,12 -30,18 -48,18 -22,0 -43,-9 -57,-26 -13,-15 -19,-35 -18,-55 2,-19 11,-38 26,-51 14,-11 31,-17 49,-17 22,0 42,9 57,26 13,15 19,34 18,54zm15 262c-14,13 -32,20 -52,19 -16,-1 -31,-8 -42,-20 -13,-12 -19,-29 -19,-47 0,-18 7,-34 19,-47 14,-13 33,-20 52,-19 16,1 31,8 43,20 25,26 25,68 -1,94zm33 -691c6,-21 20,-39 40,-50 14,-7 30,-11 46,-10 29,3 54,19 68,44 22,41 7,92 -34,114l-1 1c-14,7 -29,10 -45,9 -29,-2 -54,-18 -68,-44 -11,-20 -13,-42 -6,-64zm71 -346c12,-6 25,-8 38,-8 37,0 71,21 87,55 21,48 0,104 -48,125 -12,6 -25,8 -39,8 -37,0 -71,-22 -86,-55 -21,-48 0,-104 48,-125zm124 -128c-15,6 -29,8 -44,7 -42,-3 -78,-31 -93,-70 -20,-54 9,-116 63,-136 15,-5 29,-7 44,-6 42,3 78,30 93,69 20,55 -9,116 -63,136zm111 304c11,-4 23,-5 35,-4 33,2 61,23 73,54 16,44 -7,92 -50,108 -11,4 -23,6 -35,5 -33,-2 -62,-24 -73,-55 -16,-43 6,-92 50,-108zm73 -289c8,-2 17,-3 26,-3 42,0 79,28 91,68 14,50 -15,102 -65,117l0 0c-9,3 -17,4 -26,4 -42,0 -80,-29 -91,-69 -7,-24 -4,-50 8,-72 12,-22 33,-38 57,-45zm141 -108l-1 0c-9,2 -19,3 -29,2 -47,-3 -87,-38 -96,-84 -6,-28 -1,-56 15,-80 15,-24 39,-40 67,-46 9,-2 19,-2 29,-2 47,3 87,38 96,84 12,57 -24,113 -81,126zm90 315c37,3 68,30 76,67 10,45 -19,89 -64,99l-1 0c-8,2 -15,3 -23,2 -37,-3 -69,-30 -76,-67 -5,-22 -1,-44 11,-63 13,-19 31,-31 54,-36 7,-2 15,-2 23,-2zm196 -193c7,52 -29,100 -81,106 -4,1 -8,1 -12,1l-1 0c-47,0 -87,-35 -93,-81 -7,-52 29,-100 81,-106 52,-8 99,30 106,80zm148 -281c3,59 -41,109 -100,113 -4,0 -9,0 -14,0l0 0c-53,-4 -95,-46 -98,-99 -4,-58 40,-109 99,-112 59,-5 109,41 113,98zm167 275c-1,52 -43,94 -95,94l0 0c-26,0 -49,-10 -67,-28 -18,-18 -27,-42 -27,-67 0,-52 43,-94 94,-94 53,0 95,43 95,95zm186 -257c-5,58 -56,102 -114,98l0 0c-29,-2 -54,-16 -73,-37 -18,-22 -27,-49 -25,-77 5,-58 55,-102 113,-98 59,4 103,56 99,114zm126 295c-7,46 -47,80 -93,80 -5,0 -10,0 -14,-1 -52,-7 -87,-56 -80,-107 8,-51 56,-87 108,-79 25,3 47,17 62,37 15,20 21,45 17,70zm221 -228c-11,51 -59,87 -111,83 -5,0 -11,-1 -16,-2 -57,-13 -93,-70 -80,-127 12,-56 69,-93 126,-81 28,7 52,23 67,47 15,24 20,52 14,80zm128 524c10,21 10,44 2,65 -13,34 -48,56 -84,54 -8,-1 -16,-3 -24,-6 -44,-16 -65,-65 -49,-108 13,-34 48,-57 85,-54 8,1 16,2 24,5 21,8 37,24 46,44zm244 -88c-16,33 -49,54 -86,54 -14,0 -27,-3 -40,-9l0 0c-23,-11 -40,-30 -49,-53 -8,-24 -7,-50 4,-72 15,-34 49,-55 85,-55 14,0 28,3 40,9 23,11 40,30 49,53 9,24 8,50 -3,73zm7 282c-16,28 -47,45 -79,43 -13,-1 -24,-4 -35,-11l-1 0c-19,-11 -33,-29 -39,-50 -6,-22 -4,-44 7,-64 16,-28 47,-45 80,-43 12,1 24,5 34,11 20,11 34,28 40,50 7,22 4,44 -7,64zm37 538c13,-14 32,-20 51,-19 16,1 31,8 43,20 12,12 19,29 19,47 0,18 -7,34 -20,47 -14,13 -33,20 -51,19 -17,-1 -32,-9 -43,-20 -13,-13 -20,-30 -19,-47 0,-18 7,-35 20,-47zm18 -169c-2,-20 5,-39 18,-54 14,-16 35,-25 56,-25 18,0 36,7 50,19 15,13 24,31 25,51 1,20 -5,39 -19,54 -14,16 -35,26 -56,26 -18,0 -36,-7 -49,-19 -15,-13 -24,-32 -25,-52zm214 -808c-20,36 -59,57 -100,54 -16,-1 -31,-5 -44,-13l-1 0c-25,-14 -42,-36 -50,-63 -8,-27 -4,-56 9,-81 20,-36 59,-57 101,-54 15,1 30,5 44,13 24,14 42,36 50,63 8,28 5,56 -9,81zm43 677c17,-17 41,-26 65,-25 20,2 39,11 54,25 16,16 24,38 24,60 0,23 -9,43 -25,59 -17,17 -41,26 -65,24 -20,-1 -40,-10 -54,-25 -16,-16 -24,-37 -24,-59 0,-23 9,-44 25,-59zm49 -278c18,-21 44,-33 71,-33 23,0 45,9 62,24 19,17 31,40 32,65 2,25 -7,50 -23,68 -18,21 -44,32 -71,32 -23,0 -45,-8 -63,-23 -19,-17 -30,-40 -31,-65 -2,-25 6,-50 23,-68zm195 -192c-21,28 -56,44 -92,41 -20,-1 -40,-9 -56,-21l-1 -1c-22,-17 -37,-42 -40,-70 -4,-28 3,-56 21,-78 21,-29 56,-44 91,-42 21,2 41,9 57,22 47,35 56,102 20,149zm35 406c17,-14 39,-22 61,-22 28,0 54,12 72,33 16,19 24,44 22,69 -2,25 -14,48 -33,64 -17,15 -38,23 -61,23 -28,0 -54,-12 -72,-33 -16,-20 -24,-44 -22,-69 2,-25 14,-48 33,-65zm252 -236c0,28 -11,54 -31,74 -22,22 -52,33 -82,31 -26,-2 -50,-13 -68,-32 -20,-20 -31,-47 -31,-75 0,-28 11,-55 32,-75 21,-21 51,-32 82,-30 25,2 49,13 68,31 20,21 31,47 30,76zm228 283c-4,29 -19,53 -42,70 -20,15 -45,22 -70,20 -31,-2 -60,-17 -78,-43 -17,-22 -24,-50 -19,-78 4,-28 19,-53 42,-70 20,-15 45,-22 70,-20 31,2 59,17 78,43 17,22 23,50 19,78zm134 376c-17,10 -37,14 -57,13 -37,-3 -69,-23 -86,-56 -28,-51 -9,-116 43,-143 18,-10 37,-14 58,-13 36,3 68,24 86,56 27,51 8,116 -44,143zm131 329c-14,5 -29,7 -44,6 -42,-3 -78,-30 -92,-69 -10,-27 -9,-56 3,-82 12,-25 33,-45 60,-54 14,-6 29,-8 44,-7 41,3 78,31 92,70 20,55 -8,116 -63,136zm82 344c-10,2 -20,3 -29,2 -47,-3 -87,-38 -96,-83l-1 -1c-12,-57 25,-114 82,-126 10,-2 20,-2 30,-2 47,3 86,38 96,84 12,58 -25,114 -82,126zm131 240c3,58 -41,108 -99,112 -5,1 -10,1 -14,0 -53,-4 -96,-46 -99,-99 -2,-28 8,-56 27,-77 18,-21 44,-34 73,-36 59,-3 109,42 112,100z"/>
    <path class="fil1" d="M2499 1445l-7 0 0 0c-26,-2 -47,-23 -49,-49 -1,-29 21,-54 50,-56 29,-2 54,21 56,50 1,29 -21,54 -50,55zm-122 97c-3,-26 15,-49 40,-53 26,-3 50,15 53,40 4,26 -14,50 -40,53l-6 0 0 0c-24,0 -44,-17 -47,-40zm205 -362c33,0 59,27 59,59 0,33 -27,59 -59,59l-1 0c-16,0 -30,-6 -41,-18 -11,-11 -18,-26 -17,-42 0,-32 26,-58 59,-58zm46 -112c3,-36 35,-64 71,-61 38,3 65,35 62,71 -3,37 -35,64 -71,62l-1 0c-17,-2 -33,-10 -45,-24 -12,-13 -17,-30 -16,-48zm216 -246c20,3 37,14 49,30 12,16 17,36 14,55 -5,37 -37,64 -74,64 -4,0 -7,0 -11,-1 -41,-6 -69,-44 -63,-85 6,-40 44,-69 85,-63zm174 -196c22,5 41,18 53,37 12,19 16,42 11,64 -9,40 -47,68 -88,65 -4,0 -8,-1 -13,-1 -45,-11 -73,-56 -63,-101 10,-44 55,-74 100,-64zm281 -86c-12,40 -49,67 -91,67 -9,0 -18,-1 -27,-4 -50,-15 -78,-68 -63,-117 12,-40 49,-67 90,-67 10,0 19,1 28,4 24,7 44,23 56,45 12,23 14,48 7,72zm251 -194c-17,44 -61,72 -107,68 -10,0 -20,-3 -30,-6 -55,-21 -82,-83 -61,-137 16,-43 60,-72 106,-68 10,0 21,3 30,6 27,10 48,30 59,56 12,26 13,55 3,81z"/>
    <path class="fil1" d="M2486 2600c-153,-310 -106,-648 -77,-768 -2,107 10,384 206,697 14,24 27,47 39,71l-168 0z"/>
   </g>
   <g>
    <path class="fil2" d="M10000 1296c-3,-96 -14,-147 -43,-201 -62,-116 -182,-189 -312,-189 -166,0 -303,112 -343,265l-107 108c0,-4 0,-8 0,-12 0,-199 -161,-361 -360,-361 -86,0 -163,27 -222,77l0 0 -1 1c-15,13 -30,28 -43,45l-232 245c0,-3 0,-5 0,-7 0,-198 -161,-361 -354,-361 -193,0 -348,152 -357,344 -30,30 -201,206 -201,206 -11,11 -22,21 -34,30 -48,39 -100,56 -165,56 -154,0 -276,-123 -276,-279 0,-157 123,-278 280,-278 95,0 183,54 236,144l102 0c-54,-136 -185,-223 -336,-223 -205,0 -369,159 -369,358 0,6 0,12 1,19l-85 88c-13,-77 -75,-124 -211,-165 -100,-31 -133,-59 -133,-114 0,-51 56,-100 112,-100 63,0 109,41 113,106l103 0c-6,-108 -95,-185 -215,-185 -115,0 -209,87 -209,193 0,93 55,144 199,188 109,33 148,69 148,133 0,64 -62,119 -135,119 -78,0 -133,-53 -137,-137l-102 0c2,128 97,216 236,216 80,0 147,-32 188,-84l150 -151c52,136 187,231 350,231 104,0 189,-36 256,-109l147 -149c43,147 181,258 344,258 100,0 193,-47 259,-118l0 1 232 -233 0 521 92 0 0 -305c61,88 151,134 267,134 106,0 201,-46 268,-118l0 1 192 -193c23,176 171,310 354,310 146,0 284,-100 332,-239l-95 0c-36,91 -138,160 -237,160 -139,0 -259,-111 -266,-246 0,0 -4,-44 2,-79 7,-35 16,-59 16,-59 0,0 1,0 1,0 41,-104 136,-173 247,-173 125,0 227,91 260,232l-438 0 0 79 531 0zm-1750 -36c0,158 -118,282 -267,282 -149,0 -271,-123 -271,-275 0,-156 120,-282 271,-282 145,0 267,124 267,275zm858 4c0,155 -120,278 -269,278 -163,0 -280,-119 -280,-283 0,-153 124,-274 277,-274 151,0 272,126 272,279zm-2849 -198l0 -160c-6,-1 -11,-1 -13,-1 -67,0 -102,19 -151,85l0 -62 -152 0 0 689 166 0 0 -387c0,-108 48,-162 150,-164zm-426 268c7,-38 9,-56 9,-82 0,-190 -157,-351 -344,-351 -196,0 -356,161 -356,357 0,205 155,363 353,363 148,0 282,-98 323,-235l-177 0c-36,59 -84,87 -150,87 -82,0 -158,-59 -178,-139l0 0c-12,-38 -16,-87 -6,-130 1,-1 1,-1 1,-2l0 0c22,-93 98,-154 190,-154 92,0 165,61 187,156l-162 0 0 0c0,0 0,0 0,0 -3,0 -5,0 -7,0l-4 0 0 0c-67,5 -120,62 -121,130l85 0 357 0zm-941 286l165 0 0 -372c0,-114 -13,-175 -55,-231 -47,-67 -132,-109 -216,-109 -73,0 -128,25 -189,84l0 -61 -153 0 0 689 166 0 0 -328c0,-92 5,-131 25,-165 23,-40 71,-68 118,-68 34,0 73,18 96,43 31,33 43,87 43,178l0 340zm-880 169l372 -860 -189 0 -156 422 -150 -422 -188 0 245 605 -112 255 178 0zm-666 -682c0,-32 30,-57 68,-57 39,0 62,21 70,58l174 0c-5,-117 -111,-206 -242,-206 -135,0 -247,93 -247,205 0,109 53,164 205,210 99,29 126,48 126,89 0,37 -34,67 -80,67 -52,0 -80,-26 -98,-86l-180 0c7,64 19,98 46,134 46,59 132,100 214,100 154,0 276,-104 276,-236 0,-103 -58,-160 -206,-201 -76,-22 -73,-22 -90,-29 -24,-10 -36,-27 -36,-48z"/>
    <path class="fil3" d="M5384 2074c-16,21 -31,30 -53,30 -33,0 -60,-27 -60,-61 0,-34 27,-61 61,-61 21,0 40,12 52,32l22 0c-12,-30 -41,-49 -73,-49 -45,0 -81,35 -81,78 0,44 36,78 81,78 33,0 57,-16 73,-47l-22 0zm118 -109c-43,0 -78,35 -78,79 0,42 35,77 78,77 41,0 77,-36 77,-77 0,-43 -35,-79 -77,-79zm0 17c32,0 58,28 58,60 0,35 -26,62 -58,62 -33,0 -59,-27 -59,-60 0,-34 26,-62 59,-62zm107 135l20 0 0 -81c0,-17 2,-26 7,-34 9,-12 23,-20 38,-20 28,0 46,22 46,54l0 81 19 0 0 -81c0,-43 -26,-71 -65,-71 -18,0 -31,7 -46,23l0 -19 -19 0 0 148zm169 0l20 0 0 -81c0,-17 2,-26 7,-34 9,-12 23,-20 38,-20 28,0 46,22 46,54l0 81 19 0 0 -81c0,-43 -25,-71 -65,-71 -18,0 -31,7 -46,23l0 -19 -19 0 0 148zm315 -67c-1,-21 -3,-32 -10,-43 -13,-26 -40,-42 -68,-42 -43,0 -77,35 -77,78 0,44 34,78 78,78 31,0 61,-22 72,-52l-21 0c-8,20 -30,35 -51,35 -31,0 -57,-24 -58,-54l135 0zm-135 -17c5,-30 29,-51 58,-51 27,0 49,20 56,51l-114 0zm286 41c-15,21 -30,30 -52,30 -33,0 -60,-27 -60,-61 0,-34 27,-61 61,-61 21,0 40,12 51,32l23 0c-12,-30 -41,-49 -74,-49 -44,0 -80,35 -80,78 0,44 36,78 81,78 33,0 56,-16 73,-47l-23 0zm56 43l19 0 0 -131 36 0 0 -17 -36 0 0 -53 -19 0 0 53 -31 0 0 17 31 0 0 131zm73 0l19 0 0 -148 -19 0 0 148zm0 -167l19 0 0 -34 -19 0 0 34zm59 167l20 0 0 -81c0,-17 2,-26 7,-34 9,-12 23,-20 38,-20 28,0 46,22 46,54l0 81 19 0 0 -81c0,-43 -26,-71 -65,-71 -18,0 -31,7 -46,23l0 -19 -19 0 0 148zm314 -148l-19 0 0 27c-13,-20 -34,-31 -59,-31 -42,0 -76,36 -76,79 0,42 35,77 77,77 26,0 49,-13 58,-33l0 16c0,32 -23,55 -55,55 -25,0 -41,-11 -55,-38l-20 0c11,33 39,55 73,55 25,0 48,-11 62,-28 11,-14 14,-24 14,-48l0 -131zm-78 13c33,0 59,28 59,61 0,33 -26,61 -58,61 -32,0 -58,-27 -58,-61 0,-34 25,-61 57,-61zm199 135l19 0 0 -131 36 0 0 -17 -36 0 0 -53 -19 0 0 53 -31 0 0 17 31 0 0 131zm74 0l19 0 0 -81c0,-17 2,-26 7,-34 8,-12 24,-20 38,-20 29,0 47,22 47,54l0 81 19 0 0 -81c0,-43 -26,-71 -66,-71 -18,0 -36,9 -45,23l0 -72 -19 0 0 201zm314 -67c0,-21 -3,-32 -9,-43 -14,-26 -40,-42 -68,-42 -43,0 -78,35 -78,78 0,44 35,78 79,78 31,0 61,-22 72,-52l-21 0c-8,20 -30,35 -51,35 -31,0 -57,-24 -59,-54l135 0zm-134 -17c5,-30 29,-51 58,-51 27,0 49,20 56,51l-114 0zm387 -117l-19 0 0 76c-15,-17 -35,-27 -57,-27 -45,0 -81,35 -81,78 0,44 36,78 81,78 24,0 42,-9 58,-30l0 26 18 0 0 -201zm-78 66c33,0 60,27 60,60 0,34 -27,62 -60,62 -32,0 -60,-28 -60,-62 0,-32 28,-60 60,-60zm186 -17c-43,0 -78,35 -78,79 0,42 35,77 78,77 41,0 77,-36 77,-77 0,-43 -35,-79 -77,-79zm0 17c32,0 58,28 58,60 0,35 -25,62 -58,62 -32,0 -59,-27 -59,-60 0,-34 26,-62 59,-62zm112 135l19 0 0 -131 35 0 0 -17 -35 0 0 -53 -19 0 0 53 -31 0 0 17 31 0 0 131zm60 -43c1,28 20,47 47,47 28,0 47,-20 47,-48 0,-21 -12,-33 -43,-44 -19,-7 -26,-13 -26,-25 0,-11 11,-22 22,-22 13,0 22,9 23,24l20 0c-1,-24 -19,-41 -43,-41 -22,0 -41,19 -41,42 0,21 11,32 39,42 22,7 30,15 30,29 0,14 -12,26 -27,26 -16,0 -26,-12 -27,-30l-21 0z"/>
   </g>
  </g>
 </g>
</svg>
