<?xml version="1.0" encoding="UTF-8"?>
<!DOCTYPE svg PUBLIC "-//W3C//DTD SVG 1.1//EN" "http://www.w3.org/Graphics/SVG/1.1/DTD/svg11.dtd">
<!-- Creator: CorelDRAW X7 -->
<svg xmlns="http://www.w3.org/2000/svg" xml:space="preserve" width="172mm" height="50mm" version="1.1" style="shape-rendering:geometricPrecision; text-rendering:geometricPrecision; image-rendering:optimizeQuality; fill-rule:evenodd; clip-rule:evenodd"
viewBox="0 0 17200 5000"
 xmlns:xlink="http://www.w3.org/1999/xlink">
 <defs>
  <style type="text/css">
   <![CDATA[
    .fil0 {fill:#353481;fill-rule:nonzero}
   ]]>
  </style>
 </defs>
 <g id="Layer_x0020_1">
  <metadata id="CorelCorpID_0Corel-Layer"/>
  <path class="fil0" d="M225 4892c-66,0 -131,6 -203,12 12,-594 18,-1242 18,-1937 0,-738 -12,-1692 -18,-2861 72,6 143,6 209,6 72,0 138,0 198,-6 -6,1553 -12,2579 -12,3064 0,708 6,1284 12,1734 -66,-6 -132,-12 -204,-12zm15955 -3045c0,282 221,550 503,939 296,402 489,726 496,1075l0 25c-7,545 -661,878 -1328,1018 -67,-7 -140,-7 -207,-7 -67,0 -134,0 -208,7 -67,-899 -141,-1837 -228,-2822l-20 0c-60,342 -174,998 -355,1957 -47,-7 -101,-7 -155,-7 -46,0 -100,0 -154,7 -80,-442 -194,-1093 -341,-1957l-21 0c-93,1052 -161,1997 -207,2822 -67,-7 -141,-14 -208,-14 -74,0 -141,7 -215,14 175,-1240 309,-2581 416,-4022 60,7 114,7 174,7 61,0 121,0 181,-7 34,382 161,1233 375,2547l21 0c221,-1408 362,-2252 388,-2547 61,0 114,7 175,7 53,0 114,-7 174,-7 116,1490 237,2695 359,3613 505,-104 995,-241 995,-583 0,-349 -208,-644 -503,-1039 -288,-382 -503,-677 -503,-1012 0,-563 362,-932 1046,-1059 40,113 94,221 154,321 -516,54 -804,322 -804,724zm-3392 3043c-174,0 -335,7 -489,14 14,-959 20,-1669 20,-2132 0,-637 -6,-1267 -20,-1890 241,0 489,7 751,7 73,0 161,-7 261,-7 -7,60 -7,121 -7,174 0,61 0,121 7,181 -121,-6 -234,-6 -335,-6 -100,0 -194,0 -275,6 0,168 -6,396 -6,664 0,87 6,201 6,335 128,0 268,7 409,7 47,0 101,-7 168,-7 0,40 -7,94 -7,154 0,60 7,121 7,194 -101,-6 -201,-6 -302,-6 -94,0 -188,0 -275,6 -6,362 -6,684 -6,966 0,274 0,610 6,1005 128,0 242,7 342,7 107,0 201,-7 288,-7 0,54 -6,114 -6,174 0,54 6,114 6,175 -187,-7 -368,-14 -543,-14zm-703 -3780c0,27 6,67 6,127 -107,-6 -201,-6 -281,-6 -60,0 -114,0 -161,6 -14,322 -20,764 -20,1307 0,402 6,1187 20,2360 -67,-7 -134,-14 -201,-14 -67,0 -134,7 -201,14 6,-765 13,-1341 13,-1750 0,-429 -7,-1066 -13,-1917 -34,-6 -74,-6 -134,-6 -78,0 -180,0 -308,6 -605,64 -958,242 -946,610 10,281 222,550 503,939 302,408 496,737 496,1092 0,550 -375,965 -1045,1106 -68,-127 -128,-241 -202,-342 543,-67 858,-368 858,-730 0,-349 -207,-644 -502,-1039 -289,-382 -503,-677 -503,-1012 0,-563 500,-991 1303,-978 8,0 16,0 24,0l0 -1c174,7 395,13 664,13 254,0 469,-6 636,-13 0,114 -6,194 -6,228zm-3211 1642c-7,650 -7,1166 -7,1542 0,274 0,482 7,610 -74,-7 -141,-7 -208,-7 -67,0 -134,0 -194,7 7,-362 13,-724 13,-1093 0,-429 -6,-784 -13,-1059 -67,-214 -282,-838 -643,-1870 73,0 147,7 221,7 73,0 140,-7 208,-7 113,469 241,932 415,1394 161,-436 288,-905 429,-1394 74,0 141,7 215,7 73,0 147,-7 214,-7 -141,349 -355,972 -657,1870zm-1808 -1537c0,294 156,564 396,912 420,600 744,1055 744,1571 0,642 -723,1032 -1466,1206 -74,-7 -148,-14 -215,-14 -74,0 -141,7 -214,14 -161,-389 -356,-1033 -570,-1931 -60,14 -114,27 -161,34 -7,134 -13,321 -13,556 0,134 6,583 13,1341 -67,-7 -134,-14 -201,-14 -67,0 -127,7 -194,14 13,-563 20,-1187 20,-1864 0,-630 -7,-1354 -20,-2158 73,7 140,7 201,7 127,0 228,-7 315,-7 509,0 817,349 817,905 0,476 -134,804 -449,1045 161,668 329,1231 508,1691 577,-91 1233,-351 1233,-783 0,-414 -234,-791 -570,-1265 -324,-462 -570,-804 -570,-1248 0,-623 414,-1079 1146,-1211 42,126 90,234 144,330 -564,66 -894,402 -894,869zm-326 3689c-12,-29 -25,-58 -40,-88 13,30 26,59 40,88zm-584 -3117c0,-389 -147,-556 -516,-556l-60 0 0 1387c369,-34 576,-322 576,-831zm-1789 3103c-174,0 -335,7 -489,14 13,-959 20,-1669 20,-2132 0,-637 -7,-1267 -20,-1890 241,0 489,7 750,7 74,0 161,-7 262,-7 -7,60 -7,121 -7,174 0,61 0,121 7,181 -121,-6 -235,-6 -335,-6 -101,0 -195,0 -275,6 0,168 -7,396 -7,664 0,87 7,201 7,335 127,0 268,7 409,7 46,0 100,-7 167,-7 0,40 -7,94 -7,154 0,60 7,121 7,194 -100,-6 -201,-6 -301,-6 -94,0 -188,0 -275,6 -7,362 -7,684 -7,966 0,274 0,610 7,1005 127,0 241,7 342,7 107,0 201,-7 288,-7 0,54 -7,114 -7,174 0,54 7,114 7,175 -188,-7 -369,-14 -543,-14zm-704 -3780c0,27 7,67 7,127 -107,-6 -201,-6 -282,-6 -60,0 -114,0 -161,6 -13,322 -20,764 -20,1307 0,402 7,1187 20,2360 -67,-7 -134,-14 -201,-14 -67,0 -134,7 -201,14 7,-765 14,-1341 14,-1750 0,-429 -7,-1066 -14,-1917 -33,-6 -73,-6 -134,-6 -75,0 -273,2 -408,8 -13,429 -21,974 -21,1634 0,858 14,1541 34,2031 -67,-7 -134,-7 -201,-7 -74,0 -141,0 -208,7 7,-389 13,-718 13,-972 0,-268 -6,-543 -13,-825 -322,-435 -583,-804 -771,-1119 0,1314 0,2286 27,2916 -67,-7 -141,-14 -208,-14 -67,0 -134,7 -201,14 20,-758 27,-1488 27,-2172 0,-704 -7,-1321 -27,-1850 47,0 87,7 134,7 47,0 94,-7 134,-7 161,442 456,985 898,1595l0 -637c0,-248 0,-569 -13,-958 67,0 134,7 208,7 67,0 134,-7 201,-7 174,7 469,13 737,13 255,0 469,-6 637,-13 0,114 -7,194 -7,228zm-1369 -187c2,-14 3,-27 2,-41l-2 41z"/>
 </g>
</svg>
