<?xml version="1.0" encoding="utf-8"?>
<!-- Generator: Adobe Illustrator 20.0.0, SVG Export Plug-In . SVG Version: 6.00 Build 0)  -->
<svg version="1.1" id="Layer_1" xmlns="http://www.w3.org/2000/svg" xmlns:xlink="http://www.w3.org/1999/xlink" x="0px" y="0px"
	 viewBox="0 0 4000 800" style="enable-background:new 0 0 4000 800;" xml:space="preserve">
<style type="text/css">
	.st0{fill:#0071CE;}
	.st1{fill:#00A886;}
	.st2{fill:#8431A6;}
</style>
<g>
	<g>
		<path class="st0" d="M1360.2,117.8h-48l-108.7,340l-111.3-340.2h-48.5L940.2,622.9h88l55.5-272.1l103.5,278.6h32.6l103.5-278.6
			l53.4,272.1h88.4L1360.2,117.8z"/>
		<path class="st0" d="M1849.4,416.6c0-49.4-16.5-90.1-49.5-122c-32.9-31.9-76.7-47.9-131.1-47.9c-51.2,0-95.1,18.1-131.7,54.1
			s-54.9,83.1-54.9,141.2c0,59.1,16.6,105.1,50,138c33.3,32.9,78.5,49.4,135.8,49.4c61.3,0,107.4-12.2,138.2-36.8l-34.1-65.9
			c-20.8,20.5-51.2,30.6-91.1,30.6c-32,0-57.5-8.1-76.5-24.4c-18.9-16.4-29.2-39.2-30.9-68.6h268.3
			C1847,443,1849.4,427.1,1849.4,416.6z M1576.8,399.7c12.2-54.1,43.3-81,93.3-81c54.8,0,85.1,27,91.2,81H1576.8L1576.8,399.7z"/>
		<path class="st0" d="M2054.4,556.8c-21,0-35.8-5.5-44.1-16.4c-8.5-10.9-12.7-29.6-12.7-56V322.8h103.1v-69.2h-103.1V146.8
			l-87.7,45.6v61.2h-43.4v69.3h43.4v186.7c0,38.4,9.9,67.9,30.2,88.8c20.1,20.7,48.9,31.1,86.2,31.1c37.7,0,66.7-3.4,87-10.3V540
			C2095.1,551.2,2075.6,556.8,2054.4,556.8z"/>
		<path class="st0" d="M2459.4,509.6v-78.9c0-71.5-13.4-119.9-40-145.6c-26.6-25.6-68.6-38.4-125.9-38.4
			c-41.5,0-77.5,7.2-107.7,21.4l19,66.9c22.2-10.9,49.9-16.2,82.8-16.2c55.9,0,83.8,21.7,83.8,65.2c-14.1-3.4-26.2-5.1-36.5-5.1
			c-60,0-106.4,12-139,36.1c-32.7,24.1-48.9,57.5-48.9,100.4c0,36.4,11.5,64.7,34.6,84.6c23.2,19.8,55,29.7,95.5,29.7
			c21.5,0,42.1-4,61.9-12.2c19.7-8.1,33.6-18.6,41.5-31.6c3.4,10.9,10.3,20.8,20.2,30.1c10.1,9,21.5,13.7,34.1,13.7
			c11.4,0,21.6-1.4,30.5-4.2c8.9-3,16.9-10.5,24.2-23C2469.5,589.6,2459.4,558.7,2459.4,509.6z M2372,483.4
			c0,51.7-26.3,77.5-79,77.5c-39.1,0-58.5-16.5-58.5-49.6c0-44.6,34.5-66.9,103.8-66.9c7.4,0,18.8,1.6,33.6,4.5L2372,483.4
			L2372,483.4z"/>
		<path class="st0" d="M2621.1,510.2V95.8l-87.7,45.6v406.8c0,54.2,19.8,81.3,59.6,81.3c32.7,0,55.9-12.6,69.4-37.8
			C2634.9,582.8,2621.1,555.7,2621.1,510.2z"/>
		<path class="st0" d="M2993.4,297.7c-31.6-34.1-75.9-51-133-51c-54.2,0-97.9,17.7-131,53.1c-33,35.3-49.6,81.2-49.6,137.4
			c0,58.2,15.9,104.7,47.6,139.8c31.8,35,76,52.5,133.1,52.5c55.9,0,99.9-17.3,132.1-51.9c32.2-34.8,48.3-81.4,48.3-140.3
			C3040.7,378.2,3024.9,331.6,2993.4,297.7z M2925.4,527.5c-16,21.2-37.7,31.7-65.2,31.7c-59.6,0-89.3-40.6-89.3-122
			c0-37.8,8.1-67.3,24.1-88.5c16.1-21.2,37.8-31.8,65.2-31.8c59.5,0,89.2,40.1,89.2,120.3C2949.4,476.3,2941.4,506.4,2925.4,527.5z"
			/>
		<path class="st0" d="M3824.4,433.8l144-180.2h-99.9l-88.4,112.7l-79.2-112.7h-100.7l132.5,180.2l-144.1,188.8h103.8l86.6-120.3
			l96.5,120.3h106.3L3824.4,433.8z"/>
		<g>
			<path class="st0" d="M3546.4,248.8l-88.3,45.6l-0.2,328.3h88.7L3546.4,248.8z"/>
			<polygon class="st0" points="3457.9,32.3 3457.9,199.8 3618.9,116.1 			"/>
		</g>
		<g>
			<path class="st0" d="M3283.8,546.8c-12.1,0-26.8,1.7-43.8,5.1c-17,3.4-29.2,5.3-36.4,5.3c-16.1,0-24.4-4.6-24.4-13.8
				c0-5.3,5.5-10.4,16.5-15.3c10.9-4.9,17-7.4,18.8-7.4l14.4,2.1c10.5,1.1,19,1.7,25.3,1.7c39.8,0,72.7-12.7,98.8-37.7
				c26.1-25.3,39.1-58.8,39.1-100.8c0-23-4.5-43.3-13.3-62.9l36.5-18.6l-0.1-82l-89.8,47c-5.8-3.8-8.5-4.8-8.5-4.8
				c-22.6-12.3-50.9-18.5-84.6-18.5c-43,0-79.2,12.8-108.7,38.8c-29.5,25.8-44.1,58.5-44.1,98.1c0,50.1,21.4,88.8,64.3,116.2
				c-13.4,5.5-25,14.2-35.1,25.8c-9.9,11.7-15.1,23.7-15.1,35.8c0,42.5,30.1,63.8,90.4,63.8c9.9,0,24.5-1.1,43.9-3.4
				c19.3-2.2,34-3.4,43.8-3.4c36.4,0,54.4,10.9,54.4,32.7c0,12.8-8.1,23-24.6,30.4c-16.4,7.3-37.2,11-62.4,11
				c-37.7,0-71.8-13.8-102.4-41.4l-55.5,67.1c46.5,33.3,98.6,50,156.1,50c48.1,0,89.3-10.6,123.5-31.9
				c34.1-21.2,51.2-50.4,51.2-87.6C3411.8,580.6,3369.2,546.8,3283.8,546.8z M3187.7,335.3c12.6-12.3,29-18.5,49.1-18.5
				c19.2,0,34.8,6.4,46.9,19.2c12,12.8,18,28.6,18,47.2c0,22.5-5.6,40.1-16.8,53.1c-11.3,12.8-27.2,19.3-48,19.3
				s-37.3-6.7-49.6-19.9c-12.2-13.1-18.4-30.6-18.4-52.5C3168.7,363.7,3175.2,347.8,3187.7,335.3z"/>
		</g>
	</g>
	<polygon class="st0" points="311.9,329.2 311.9,473.3 443.9,396.1 	"/>
	<path class="st1" d="M286.3,47.2c0,0-152.2,84-177.6,98.6c-43.8,25-90.1,36.8-90.1,139.8s-1.1,201.2,0.9,226.7
		c2.1,25.5,11.8,120.3,97.4,74.3s155.2-91.1,155.2-91.1s0.1-315.3,0.6-375.1C273.2,65.9,286.3,47.2,286.3,47.2z"/>
	<path class="st2" d="M698.7,504.2c0,0-0.1-168.8-0.3-197.9c-0.3-50.4,11.4-95.8-78.5-146.2S445.5,59.9,422.3,49.1
		C399,38.4,314.8-0.6,312.9,96.6s-1,184.7-1,184.7s260.9,134.8,313.6,163C688.1,477.7,698.7,504.2,698.7,504.2z"/>
	<path class="st0" d="M94.3,632.1c0,0,150.1,87.7,175.5,102.1c43.9,24.8,77.4,57.6,165.9,4.9c88.5-52.7,173.8-101.2,194.6-115.9
		s97.3-71.7,14.1-121.8s-160.3-85.1-160.3-85.1S220,574.2,168.1,603.8C118.1,632.5,94.3,632.1,94.3,632.1z"/>
</g>
</svg>
