<?xml version="1.0" encoding="utf-8"?>
<!-- Generator: Adobe Illustrator 19.0.0, SVG Export Plug-In . SVG Version: 6.00 Build 0)  -->
<svg version="1.1" id="Layer_1" xmlns="http://www.w3.org/2000/svg" xmlns:xlink="http://www.w3.org/1999/xlink" x="0px" y="0px"
	 viewBox="0 0 280.6 93.5" style="enable-background:new 0 0 280.6 93.5;" xml:space="preserve">
<style type="text/css">
	.st0{fill:#FFFFFF;}
	.st1{fill:#1E417D;}
	.st2{fill:#97BEE5;}
	.st3{fill:#1E417C;}
</style>
<g>
	<g id="XMLID_47_">
		<g id="XMLID_67_">
			<path id="XMLID_107_" class="st0" d="M42,93.4c-18.5-11-41.8-27-41.8-55.2V8.4C8.8,5.2,21.9,1.2,42,1.2c20.3,0,34.3,4.4,41.8,7.3
				v29.8C83.8,66.7,59.6,83.1,42,93.4z"/>
		</g>
		<g id="XMLID_52_">
			<path id="XMLID_58_" class="st1" d="M54.6,54.8c0-0.6,0.5-1.6,0.5-2.5c0-1-1.3-1.4-2.3-1.5c-2.1-0.3-2.8-0.2-2.8-0.7
				c0-0.3,0.3-0.7,0.7-1.2c0.6-0.8,1.9-1.1,2.6-1.2c0.9-0.1,2-0.3,3.2-0.3c1.4,0,2.6,0.2,3.1,0.3c1.3,0.2,1.5,0.8,1.5,1.4
				c0,0.1,0,0.4,0,0.6c0,0.6-0.5,0.9-1.4,1.1c-0.2,0-0.5,0.1-0.7,0.1c-0.6,0.1-1.4,0.3-1.7,1.1c-0.6,1.8-1.7,3.1-2.5,3.1
				C54.8,55.2,54.6,55.1,54.6,54.8z M56.5,26.5c-0.1,0-0.3-0.1-0.3-0.4c0-0.3,0.2-0.6,0.7-1.2c1-1.4,2.5-3.1,3-3.1
				c0.3,0,0.4,0.2,0.7,0.8c0.2,0.4,0.4,1,0.4,1.5c0,1.9-0.6,3.2-1.6,4.7C58.7,28.2,57.8,27.3,56.5,26.5z M25.7,30
				c0.5,0,0.8-0.3,1.5-1.1c1.6-1.8,3.1-2,3.1-2.7c0-0.3-0.2-0.7-0.4-1c-1.7-2.6-2.4-4.1-3.4-6c-0.4-0.7-0.8-1.2-1.2-1.2
				c-0.6,0-1.2,0.7-1.6,1.3c-0.5,0.8-1,1.8-1,2.6c0,1.3,0.3,3.6,0.8,5.1C24.2,28.6,25,30,25.7,30z M44.8,36.1c0-1.1-1.2-2.7-3.4-2.7
				c-1.9,0-3.4,1.4-3.7,2.6c0.5,0.9,0.9,1.8,2.7,2.4c0.2,0.1,0.5,0.1,0.5,0.3c0,0.3-0.3,0.4-1,0.4c-2.1,0-3.3-0.8-3.8-1.6
				c-0.5,0.1-1.2,0.3-1.9,0.3c-0.6,0-0.9-0.4-0.9-1c0-0.4,0.1-0.8,0.3-1.2c0.1-0.2,0.2-0.5,0.3-0.7c0.3-0.6,0.8-2,2.7-3.1
				c0.2-0.1,0.8-0.5,1.1-0.6c1.1-0.6,1.9-0.8,3.2-0.8c0.1,0,0.8,0,0.9,0c1.5,0,2.3,0.4,3,1c1.4,1.1,2.1,1.8,2.1,2.6
				c0,0.9-0.1,1.7-0.8,2.7c-0.7,0.9-1.6,1.4-2.2,1.4c-0.2,0-0.2-0.1-0.2-0.2c0-0.1,0.1-0.2,0.3-0.3C44.4,37.2,44.7,36.5,44.8,36.1z
				 M54,65.4c-0.4,0.1-1.1,0.3-4.2,0.3c-4.7,0-5.5-1.2-5.5-2.1c0-1.5,6.8-2.6,9.5-2.6c2.6,0,3.7,0.8,3.7,1.5
				C57.5,63.1,56.3,64.9,54,65.4z M26.7,79.3c4.9,3.9,10.2,7.3,15.4,10.3l0,0l0,0c0-4.6-0.1-7.4,3-10.7c1.3-1.3,2.6-2.7,3.8-3.9
				c0.9-0.9,1.6-1.6,2-1.6c0.3,0,0.4,0.2,0.4,0.6c0,0.4,0.2,1.9,1.1,3.8c1.2,2.3,2.9,2.6,3.5,2.7C69.4,70.3,80.7,57,80.7,38.2
				c0-10.4,0-27.5,0-27.5c-3.3-1.1-17-6.4-38.6-6.4S6.7,9.5,3.4,10.6c0,0,0,17.2,0,27.5c0,8.3,2.2,15.5,5.8,21.9
				c0.4-3.8,2.9-5.6,2.9-9.4c0-2.6-0.7-4.3-0.7-6.5c0-4,5.4-12.1,8.1-15.5c0.1-0.1,0.3-0.3,0.5-0.3c0.2,0,0.4,0.1,0.5,0.3
				c0.3,0.4,0.4,0.7,0.7,0.7c0.3,0,0.4-0.2,0.4-0.4c0-0.7-0.8-1.8-0.8-6.4c0-3.2,0.7-3.8,2.7-5.7c0.4-0.4,1.5-1.4,2.5-1.4
				c1.2,0,1.7,0.7,2.5,1.4c1.2,1.2,2.9,3.4,3.2,3.8c0.1,0.1,0.1,0.2,0.3,0.2c0.6,0,1-0.2,3.5-0.2c4.4,0,11.1,0.7,14.5,1.8
				c1.8,0.6,2.1,1,2.6,1c0.2,0,0.2-0.1,0.2-0.3c0-0.2-0.5-0.6-0.5-0.9c0-0.2,0.2-0.3,0.3-0.4c2.6-1.4,4.7-2.4,6.7-2.4
				c1.2,0,1.7,1,2.2,2c0.4,0.8,0.8,1.8,0.8,2.9c0,2.7-1,4.4-1.9,5.5c0.4,0.4,1,1,1.3,1.4c0.6,0.7,1.3,1.7,1.3,2.7
				c0,0.4-0.2,1.1-0.3,1.6c-0.1,0.2-0.3,0.7-0.7,0.7c-0.4,0-0.5-0.4-0.5-0.8c0-0.1,0-0.2,0-0.3c0-0.8-0.2-1.8-0.9-2.6
				c-0.8-0.9-1.6-1.5-2.6-1.5c-0.1,0-0.3,0-0.3,0c-1.6,0-2.3,0.7-2.7,1.1c-0.5,0.5-0.8,1.1-0.8,1.9c0,0.5,0.3,1,0.8,1.9
				c0.3,0.5,0.9,1.7,1.3,2.4c0.3,0.5,0.7,0.7,1.2,0.7c1.1,0,2.1-0.2,2.1-0.5c0-0.1,0-0.2-0.2-0.2c-0.1,0-0.2,0-0.4,0
				c-1.4,0-2.2-1.8-2.9-3.5c0.5-0.5,1.2-1.1,2.3-1.1c1.4,0,2.4,1,2.4,2.2c0,0.6-0.2,1.1-0.3,1.4c-0.1,0.1-0.1,0.2-0.1,0.3
				c0,0.2,0.2,0.2,0.6,0.3c0.1,0,0.4,0.1,0.6,0.1c0.4,0.1,0.9,0.5,1.1,1c0.1,0.3,0.4,1.1,0.5,1.3c0.2,0.7,0.6,1.7,0.6,3
				c0,1.3-0.1,1.6-0.4,2.9c-0.4,1.6-0.6,2.3-0.7,3.2c0.2,0.3,0.2,0.4,0.2,0.5c0.2,0.5,0.6,1.5,0.6,2.5c0,0.3,0,0.8,0,0.8
				c0,1.6-0.7,2.9-1.4,3.9c-0.6,0.7-1.3,1.8-1.8,2.4c-0.3,0.4-0.7,0.6-1.1,0.6c-0.2,0-0.5-0.1-0.7-0.1c-0.3-0.1-0.9-0.2-1.1-0.3
				c-1-0.2-1.3-0.9-1.6-1.7c0-0.1-0.2-0.5-0.2-0.6c-0.2-0.6-0.4-1-0.7-1c-0.3,0-0.5,0.2-0.8,0.6c-1,1.4-1.5,2-3.2,2.4
				c-0.6,0.1-1.8,0.4-2.5,0.5c-1,0.2-2.8,0.7-3.8,0.7c-0.2,0-0.4,0-0.7,0c-1.4-0.2-2.4-0.3-4.1-2.4c-2.4-2.8-2.1-3.2-2.3-7.1
				c0-0.4-0.2-1-0.6-1c-0.4,0-0.6,0.8-0.7,2c-0.2,1.4-0.5,2.8-1.1,2.8c-0.5,0-0.8-0.1-1.5-0.3c-0.9-0.3-3-1-4.2-1.4
				c-1.5-0.5-3-0.9-3.6-2.3c-0.3-0.6-0.8-1.8-1.1-2.5c-0.2-0.4-0.3-0.7-0.6-0.7c-0.4,0-0.5,0.5-0.5,0.9c-0.1,0.4-0.2,1.4-0.2,2.1
				c-0.2,2.7-0.8,3.8-1.9,5.3c-0.5,0.7-1,1.4-1.6,2.1c-1.2,1.6-1.9,3.2-1.9,6.2c0,0.2,0,1.3,0,1.9C17.9,71,19,73.2,26.7,79.3z"/>
			<path id="XMLID_53_" class="st2" d="M62.6,39.2L62.6,39.2c0.1,0.3,0.4,1.1,0.5,1.3c0.2,0.7,0.6,1.7,0.6,3c0,1.3-0.1,1.6-0.4,2.9
				c-0.4,1.6-0.6,2.3-0.7,3.2c-0.1-0.3-2.4-4.3-2.6-4.6c-0.2-0.3-0.3-0.6-0.3-1c0-0.4,0.2-0.7,0.7-1c0.3-0.2,0.7-0.4,0.9-0.5
				c1.2-0.6,1.5-1.4,1.5-2.2C62.7,39.9,62.6,39.6,62.6,39.2z M52.4,45.6c0.1,0.3,0.2,0.7,0.2,0.9c0,0.6-0.1,0.8-0.5,1.1
				c-0.2,0.2-0.4,0.4-0.6,0.6c-0.3,0.2-0.6,0.4-0.8,0.7c-0.4,0.5-0.7,0.9-0.7,1.2c0,0.1,0,0.2,0.1,0.2c-0.5-0.3-0.6-0.9-0.6-1.3
				c0-0.4,0.1-0.6,0.1-1c0-0.3-0.1-0.7-0.2-0.9c-0.6-2.2-1.7-4.7-2.4-6.5c-0.7-1.8-1.2-2.8-2-2.8c-0.4,0-0.8,0.2-1.3,0.2
				c0.6,0,1.6-0.6,2.2-1.4c0.8-1,0.8-1.7,0.8-2.7c0-0.4-0.2-0.8-0.5-1.1c1,1,1.6,2.3,2.3,3.7C50.1,39.7,51.4,43,52.4,45.6z
				 M17.8,66.5c0-0.5,0-1.7,0-1.9c0-3,0.7-4.7,1.9-6.2c0.6-0.8,1.1-1.5,1.6-2.1c1.1-1.5,1.7-2.6,1.9-5.3c0.1-0.6,0.2-1.6,0.2-2.1
				c0-0.4,0.1-0.9,0.5-0.9c0.3,0,0.4,0.2,0.6,0.7c0.3,0.6,0.8,1.8,1.1,2.5c0.6,1.4,2.1,1.8,3.6,2.3c1.1,0.4,3.3,1.1,4.2,1.4
				c0.7,0.2,1,0.3,1.5,0.3c0.7,0,1-1.4,1.1-2.8c0.1-1.2,0.3-2,0.7-2c0.4,0,0.6,0.5,0.6,1c0.1,3.8-0.1,4.2,2.3,7.1
				c1.7,2.1,2.7,2.2,4.1,2.4c-0.5-0.2-1.2-0.8-1.2-2c0-0.2,0-1.2,0-1.4c0-0.7,0.1-1.4,0.4-2.2c0.2-0.4,0.3-1,0.5-1.5
				c0.3-0.7,0.2-0.9,0.2-1.4c0-0.5-0.2-1-0.6-2.3c-0.2-0.6-0.5-1.6-0.8-2.4c-0.9-2.4-1.2-3-4.1-3.4c-0.9-0.1-5-0.7-5.8-0.8
				c-3.2-0.5-5.8-0.6-7.1-2.8c-1.6-2.6-1.4-5.7-2.9-5.7c-0.7,0-1.1,0.8-1.1,2c0,1.2,0.5,3.2,0.5,6.7c0,3-0.3,3.8-2,6
				c-0.5,0.6-1.1,1.4-1.5,1.9c-1.3,1.6-1.9,2.5-1.8,4.4C16.6,61,17.4,64.6,17.8,66.5z M50.7,78c0.1-1.2,0.6-3.2,0.6-4v0
				c0-0.4-0.1-0.6-0.4-0.6c-0.4,0-1.1,0.7-2,1.6c-1.2,1.2-2.5,2.6-3.8,3.9c-3.1,3.3-3,6-3,10.7l0,0c3.5-2.1,6.7-4.1,9.1-5.7
				C50.8,82,50.5,80.6,50.7,78z"/>
		</g>
	</g>
	<g id="XMLID_1_">
		<path id="XMLID_20_" class="st3" d="M100.6,24.8h-2.5V21h11.8c6.2,0,9.4,3.2,9.4,7.9c0,5.5-4.3,7.9-9.4,7.9H106v6.1h2.5v3.7H98.1
			v-3.7h2.5V24.8z M109.3,33c2.7,0,4.4-1.5,4.4-4.1c0-2.4-1.5-4.1-4.5-4.1H106V33H109.3z M125.8,38.2c0.1,3,2.5,4.9,6.1,4.9
			c3.2,0,5.1-0.9,5.9-1.2v4c-0.8,0.3-2.9,1.2-7.1,1.2c-7.4,0-10.5-4.6-10.5-9.9c0-6,3.6-10.1,9.6-10.1c6.6,0,9.3,5,9.3,11.2H125.8z
			 M133.6,34.7c0-2.6-1.5-4.1-3.9-4.1c-2.3,0-3.7,1.5-3.9,4.1H133.6z M267.6,38.2c0.1,3,2.5,4.9,6.1,4.9c3.2,0,5.1-0.9,5.9-1.2v4
			c-0.8,0.3-2.9,1.2-7.1,1.2c-7.4,0-10.5-4.6-10.5-9.9c0-6,3.6-10.1,9.6-10.1c6.6,0,9.3,5,9.3,11.2H267.6z M275.3,34.7
			c0-2.6-1.5-4.1-3.9-4.1c-2.3,0-3.7,1.5-3.9,4.1H275.3z M143.9,31.2h-2.5v-3.7h7l0.1,2.5h0.1c0.3-0.5,2-2.9,5.9-2.9
			c4.9,0,7.4,3.4,7.4,7.6v8.2h2.2v3.7h-9.4v-3.7h2.1v-7.3c0-2.7-1.5-4.1-3.9-4.1c-2.2,0-3.9,1.2-3.9,4.1v7.3h2.2v3.7h-9.4v-3.7h2.1
			V31.2z M168.8,31.2h-2.5v-3.7h7l0.1,2.5h0.1c0.3-0.5,2-2.9,5.9-2.9c4.9,0,7.4,3.4,7.4,7.6v8.2h2.2v3.7h-9.4v-3.7h2.1v-7.3
			c0-2.7-1.5-4.1-3.9-4.1c-2.2,0-3.9,1.2-3.9,4.1v7.3h2.2v3.7h-9.4v-3.7h2.1V31.2z M250.4,23.4h5.1v4.1h5.1v3.7h-5.1v8.5
			c0,2.6,0.9,3.4,3,3.4c0.8,0,1.9-0.2,2.3-0.3v3.6c-0.4,0.1-2.3,0.6-4.2,0.6c-3.8,0-6.2-2-6.2-5.4V31.2h-2.6v-3.7h2.6V23.4z
			 M215.9,23.4h5.1v4.1h5.1v3.7H221v8.5c0,2.6,0.9,3.4,3,3.4c0.8,0,1.9-0.2,2.3-0.3v3.6c-0.4,0.1-2.3,0.6-4.2,0.6
			c-3.8,0-6.2-2-6.2-5.4V31.2h-2.6v-3.7h2.6V23.4z M240.2,34.4c0-2.6-1.3-3.7-3.9-3.7c-1.6,0-2.8,0.4-3.2,0.5v2.6H229V29
			c0.7-0.4,3.8-2,7.3-2c5.3,0,8.8,2.2,8.8,7.5c0,3.1,0,8.3,0,8.3h2v3.7h-6.2l-0.1-2.6h-0.1c-0.4,0.5-1.8,3-6.1,3
			c-4.3,0-6.4-2.6-6.4-5.6c0-3.6,2.8-6.1,9.8-6.1c0.3,0,2,0,2.3,0V34.4z M238.7,38.5c-4.2,0-5.5,0.9-5.5,2.5c0,1.1,0.8,2.3,2.8,2.3
			c2,0,4.1-1.6,4.1-4.8H238.7z M205.6,24.9c-0.4-0.1-1.9-0.6-3.3-0.6c-3,0-4.2,1.6-4.2,3c0,1.9,1.4,2.7,3,3.1l2.5,0.7
			c3.6,1,7.5,2.5,7.5,7.8c0,4.9-3.1,8.1-10,8.1c-2.7,0-5.5-0.3-8.7-1.4v-6.8h4.6v3.3c0.7,0.2,2.8,0.7,4.6,0.7c2.7,0,4-1.1,4-3.1
			c0-1.6-0.9-2.8-4.2-3.6l-2.2-0.6c-5-1.4-6.7-3.8-6.7-7.7c0-4.1,2.7-7.3,9.6-7.3c3,0,5.9,0.5,8,1.4V28h-4.6V24.9z"/>
	</g>
</g>
</svg>
