<?xml version="1.0" encoding="utf-8"?>
<!-- Generator: Adobe Illustrator 19.0.0, SVG Export Plug-In . SVG Version: 6.00 Build 0)  -->
<svg version="1.1" id="Layer_1" xmlns="http://www.w3.org/2000/svg" xmlns:xlink="http://www.w3.org/1999/xlink" x="0px" y="0px"
	 viewBox="0 0 283.5 102" style="enable-background:new 0 0 283.5 102;" xml:space="preserve">
<style type="text/css">
	.st0{fill:#7BB1DB;}
	.st1{fill:#958437;}
	.st2{fill:#739833;}
	.st3{fill:#C9D200;}
	.st4{fill:#FFB500;}
</style>
<g>
	<g>
		<polygon class="st0" points="169.7,0.4 164,0.4 143.1,34.1 122.1,0.4 116.4,0.4 116.4,101.7 122.1,101.7 143.1,68 164,101.7 
			169.8,101.7 169.7,101.6 		"/>
		<polygon class="st1" points="116.4,0.4 85.2,0.4 116.3,51 85.2,101.7 116.4,101.7 		"/>
		<polygon class="st2" points="200.9,0.4 169.7,0.4 169.7,101.6 169.8,101.7 200.9,101.7 169.8,51 		"/>
		<path class="st3" d="M245.3,0.4l-44.4,0L169.8,51l31.1,50.6h0l0-22.4h52.5c22,0,28.6-17.3,28.6-32.4V35
			C282,15.2,274.9,0.4,245.3,0.4z M253,41.2c0,6-2.8,12.9-10.1,12.9h-42V25.5h39.3c9.4,0,12.8,3.9,12.8,10.7V41.2z"/>
		<polygon class="st4" points="116.3,51 85.2,0.4 85.2,0.4 85.2,61.6 32.5,0.4 1.4,0.4 1.4,101.7 32.6,101.7 32.6,40.5 85.2,101.7 
					"/>
	</g>
</g>
</svg>
