<?xml version="1.0" encoding="utf-8"?>
<!-- Generator: Adobe Illustrator 19.0.0, SVG Export Plug-In . SVG Version: 6.00 Build 0)  -->
<svg version="1.1" id="Layer_1" xmlns="http://www.w3.org/2000/svg" xmlns:xlink="http://www.w3.org/1999/xlink" x="0px" y="0px"
	 viewBox="325.8 -102.2 283.5 93.5" style="enable-background:new 325.8 -102.2 283.5 93.5;" xml:space="preserve">
<style type="text/css">
	.st0{fill:#FFFFFF;}
	.st1{fill:#1E417D;}
	.st2{fill:#97BEE5;}
	.st3{fill:#1E417C;}
	.st4{font-family:'Nunito-Regular';}
	.st5{font-size:14.9787px;}
	.st6{font-family:'Nunito-Light';}
</style>
<g>
	<g id="XMLID_47_">
		<g id="XMLID_67_">
			<path id="XMLID_107_" class="st0" d="M368.9-9.4c-18.5-11-41.7-27-41.7-55.1v-29.8c8.6-3.2,21.7-7.2,41.7-7.2
				c20.3,0,34.2,4.4,41.7,7.3v29.8C410.7-36,386.5-19.6,368.9-9.4z"/>
		</g>
		<g id="XMLID_52_">
			<path id="XMLID_58_" class="st1" d="M381.5-47.9c0-0.6,0.5-1.6,0.5-2.5c0-1-1.3-1.4-2.3-1.5c-2.1-0.3-2.8-0.2-2.8-0.7
				c0-0.3,0.3-0.7,0.7-1.2c0.6-0.8,1.9-1.1,2.6-1.2c0.9-0.1,2-0.3,3.2-0.3c1.4,0,2.6,0.2,3.1,0.3c1.3,0.2,1.5,0.8,1.5,1.4
				c0,0.1,0,0.4,0,0.6c0,0.6-0.5,0.9-1.4,1.1c-0.2,0-0.5,0.1-0.7,0.1c-0.6,0.1-1.4,0.3-1.7,1.1c-0.6,1.8-1.7,3.1-2.5,3.1
				C381.7-47.5,381.5-47.6,381.5-47.9z M383.4-76.2c-0.1,0-0.3-0.1-0.3-0.4c0-0.3,0.2-0.6,0.7-1.2c1-1.4,2.5-3.1,3-3.1
				c0.3,0,0.4,0.2,0.7,0.8c0.2,0.4,0.4,1,0.4,1.5c0,1.9-0.6,3.2-1.6,4.7C385.6-74.5,384.7-75.4,383.4-76.2z M352.7-72.7
				c0.5,0,0.8-0.3,1.5-1.1c1.6-1.8,3.1-2,3.1-2.7c0-0.3-0.2-0.7-0.4-1c-1.7-2.6-2.4-4.1-3.4-6c-0.4-0.7-0.8-1.2-1.2-1.2
				c-0.6,0-1.2,0.7-1.6,1.3c-0.5,0.8-1,1.8-1,2.6c0,1.3,0.3,3.6,0.8,5.1C351.2-74.1,352-72.7,352.7-72.7z M371.7-66.6
				c0-1.1-1.2-2.7-3.4-2.7c-1.9,0-3.4,1.4-3.7,2.6c0.5,0.9,0.9,1.8,2.7,2.4c0.2,0.1,0.5,0.1,0.5,0.3c0,0.3-0.3,0.4-1,0.4
				c-2.1,0-3.3-0.8-3.8-1.6c-0.5,0.1-1.2,0.3-1.9,0.3c-0.6,0-0.9-0.4-0.9-1c0-0.4,0.1-0.8,0.3-1.2c0.1-0.2,0.2-0.5,0.3-0.7
				c0.3-0.6,0.8-2,2.7-3.1c0.2-0.1,0.8-0.5,1.1-0.6c1.1-0.6,1.9-0.8,3.2-0.8c0.1,0,0.8,0,0.9,0c1.5,0,2.3,0.4,3,1
				c1.4,1.1,2.1,1.8,2.1,2.6c0,0.9-0.1,1.7-0.8,2.7c-0.7,0.9-1.6,1.4-2.2,1.4c-0.2,0-0.2-0.1-0.2-0.2s0.1-0.2,0.3-0.3
				C371.3-65.5,371.6-66.2,371.7-66.6z M380.9-37.3c-0.4,0.1-1.1,0.3-4.2,0.3c-4.7,0-5.5-1.2-5.5-2.1c0-1.5,6.8-2.6,9.5-2.6
				c2.6,0,3.7,0.8,3.7,1.5C384.4-39.6,383.2-37.8,380.9-37.3z M353.7-23.4c4.9,3.9,10.2,7.3,15.4,10.3l0,0l0,0c0-4.6-0.1-7.4,3-10.7
				c1.3-1.3,2.6-2.7,3.8-3.9c0.9-0.9,1.6-1.6,2-1.6c0.3,0,0.4,0.2,0.4,0.6s0.2,1.9,1.1,3.8c1.2,2.3,2.9,2.6,3.5,2.7
				c13.5-10.2,24.8-23.5,24.8-42.2c0-10.4,0-27.5,0-27.5c-3.3-1.1-17-6.4-38.5-6.4s-35.3,5.2-38.6,6.3c0,0,0,17.2,0,27.5
				c0,8.3,2.2,15.5,5.8,21.9c0.4-3.8,2.9-5.6,2.9-9.4c0-2.6-0.7-4.3-0.7-6.5c0-4,5.4-12.1,8.1-15.5c0.1-0.1,0.3-0.3,0.5-0.3
				s0.4,0.1,0.5,0.3c0.3,0.4,0.4,0.7,0.7,0.7c0.3,0,0.4-0.2,0.4-0.4c0-0.7-0.8-1.8-0.8-6.4c0-3.2,0.7-3.8,2.7-5.7
				c0.4-0.4,1.5-1.4,2.5-1.4c1.2,0,1.7,0.7,2.5,1.4c1.2,1.2,2.9,3.4,3.2,3.8c0.1,0.1,0.1,0.2,0.3,0.2c0.6,0,1-0.2,3.5-0.2
				c4.4,0,11.1,0.7,14.5,1.8c1.8,0.6,2.1,1,2.6,1c0.2,0,0.2-0.1,0.2-0.3c0-0.2-0.5-0.6-0.5-0.9c0-0.2,0.2-0.3,0.3-0.4
				c2.6-1.4,4.7-2.4,6.7-2.4c1.2,0,1.7,1,2.2,2c0.4,0.8,0.8,1.8,0.8,2.9c0,2.7-1,4.4-1.9,5.5c0.4,0.4,1,1,1.3,1.4
				c0.6,0.7,1.3,1.7,1.3,2.7c0,0.4-0.2,1.1-0.3,1.6c-0.1,0.2-0.3,0.7-0.7,0.7s-0.5-0.4-0.5-0.8c0-0.1,0-0.2,0-0.3
				c0-0.8-0.2-1.8-0.9-2.6c-0.8-0.9-1.6-1.5-2.6-1.5c-0.1,0-0.3,0-0.3,0c-1.6,0-2.3,0.7-2.7,1.1c-0.5,0.5-0.8,1.1-0.8,1.9
				c0,0.5,0.3,1,0.8,1.9c0.3,0.5,0.9,1.7,1.3,2.4c0.3,0.5,0.7,0.7,1.2,0.7c1.1,0,2.1-0.2,2.1-0.5c0-0.1,0-0.2-0.2-0.2
				c-0.1,0-0.2,0-0.4,0c-1.4,0-2.2-1.8-2.9-3.5c0.5-0.5,1.2-1.1,2.3-1.1c1.4,0,2.4,1,2.4,2.2c0,0.6-0.2,1.1-0.3,1.4
				c-0.1,0.1-0.1,0.2-0.1,0.3c0,0.2,0.2,0.2,0.6,0.3c0.1,0,0.4,0.1,0.6,0.1c0.4,0.1,0.9,0.5,1.1,1c0.1,0.3,0.4,1.1,0.5,1.3
				c0.2,0.7,0.6,1.7,0.6,3c0,1.3-0.1,1.6-0.4,2.9c-0.4,1.6-0.6,2.3-0.7,3.2c0.2,0.3,0.2,0.4,0.2,0.5c0.2,0.5,0.6,1.5,0.6,2.5
				c0,0.3,0,0.8,0,0.8c0,1.6-0.7,2.9-1.4,3.9c-0.6,0.7-1.3,1.8-1.8,2.4c-0.3,0.4-0.7,0.6-1.1,0.6c-0.2,0-0.5-0.1-0.7-0.1
				c-0.3-0.1-0.9-0.2-1.1-0.3c-1-0.2-1.3-0.9-1.6-1.7c0-0.1-0.2-0.5-0.2-0.6c-0.2-0.6-0.4-1-0.7-1c-0.3,0-0.5,0.2-0.8,0.6
				c-1,1.4-1.5,2-3.2,2.4c-0.6,0.1-1.8,0.4-2.5,0.5c-1,0.2-2.8,0.7-3.8,0.7c-0.2,0-0.4,0-0.7,0c-1.4-0.2-2.4-0.3-4.1-2.4
				c-2.4-2.8-2.1-3.2-2.3-7.1c0-0.4-0.2-1-0.6-1s-0.6,0.8-0.7,2c-0.2,1.4-0.5,2.8-1.1,2.8c-0.5,0-0.8-0.1-1.5-0.3
				c-0.9-0.3-3-1-4.2-1.4c-1.5-0.5-3-0.9-3.6-2.3c-0.3-0.6-0.8-1.8-1.1-2.5c-0.2-0.4-0.3-0.7-0.6-0.7c-0.4,0-0.5,0.5-0.5,0.9
				c-0.1,0.4-0.2,1.4-0.2,2.1c-0.2,2.7-0.8,3.8-1.9,5.3c-0.5,0.7-1,1.4-1.6,2.1c-1.2,1.6-1.9,3.2-1.9,6.2c0,0.2,0,1.3,0,1.9
				C344.9-31.7,346-29.5,353.7-23.4z"/>
			<path id="XMLID_53_" class="st2" d="M389.5-63.5L389.5-63.5c0.1,0.3,0.4,1.1,0.5,1.3c0.2,0.7,0.6,1.7,0.6,3
				c0,1.3-0.1,1.6-0.4,2.9c-0.4,1.6-0.6,2.3-0.7,3.2c-0.1-0.3-2.4-4.3-2.6-4.6s-0.3-0.6-0.3-1c0-0.4,0.2-0.7,0.7-1
				c0.3-0.2,0.7-0.4,0.9-0.5c1.2-0.6,1.5-1.4,1.5-2.2C389.6-62.8,389.5-63.1,389.5-63.5z M379.3-57.1c0.1,0.3,0.2,0.7,0.2,0.9
				c0,0.6-0.1,0.8-0.5,1.1c-0.2,0.2-0.4,0.4-0.6,0.6c-0.3,0.2-0.6,0.4-0.8,0.7c-0.4,0.5-0.7,0.9-0.7,1.2c0,0.1,0,0.2,0.1,0.2
				c-0.5-0.3-0.6-0.9-0.6-1.3c0-0.4,0.1-0.6,0.1-1c0-0.3-0.1-0.7-0.2-0.9c-0.6-2.2-1.7-4.7-2.4-6.5c-0.7-1.8-1.2-2.8-2-2.8
				c-0.4,0-0.8,0.2-1.3,0.2c0.6,0,1.6-0.6,2.2-1.4c0.8-1,0.8-1.7,0.8-2.7c0-0.4-0.2-0.8-0.5-1.1c1,1,1.6,2.3,2.3,3.7
				C377-63,378.3-59.7,379.3-57.1z M344.8-36.2c0-0.5,0-1.7,0-1.9c0-3,0.7-4.7,1.9-6.2c0.6-0.8,1.1-1.5,1.6-2.1
				c1.1-1.5,1.7-2.6,1.9-5.3c0.1-0.6,0.2-1.6,0.2-2.1c0-0.4,0.1-0.9,0.5-0.9c0.3,0,0.4,0.2,0.6,0.7c0.3,0.6,0.8,1.8,1.1,2.5
				c0.6,1.4,2.1,1.8,3.6,2.3c1.1,0.4,3.3,1.1,4.2,1.4c0.7,0.2,1,0.3,1.5,0.3c0.7,0,1-1.4,1.1-2.8c0.1-1.2,0.3-2,0.7-2
				c0.4,0,0.6,0.5,0.6,1c0.1,3.8-0.1,4.2,2.3,7.1c1.7,2.1,2.7,2.2,4.1,2.4c-0.5-0.2-1.2-0.8-1.2-2c0-0.2,0-1.2,0-1.4
				c0-0.7,0.1-1.4,0.4-2.2c0.2-0.4,0.3-1,0.5-1.5c0.3-0.7,0.2-0.9,0.2-1.4c0-0.5-0.2-1-0.6-2.3c-0.2-0.6-0.5-1.6-0.8-2.4
				c-0.9-2.4-1.2-3-4.1-3.4c-0.9-0.1-5-0.7-5.8-0.8c-3.2-0.5-5.8-0.6-7.1-2.8c-1.6-2.6-1.4-5.7-2.9-5.7c-0.7,0-1.1,0.8-1.1,2
				c0,1.2,0.5,3.2,0.5,6.7c0,3-0.3,3.8-2,6c-0.5,0.6-1.1,1.4-1.5,1.9c-1.3,1.6-1.9,2.5-1.8,4.4C343.6-41.7,344.4-38.1,344.8-36.2z
				 M377.6-24.7c0.1-1.2,0.6-3.2,0.6-4l0,0c0-0.4-0.1-0.6-0.4-0.6c-0.4,0-1.1,0.7-2,1.6c-1.2,1.2-2.5,2.6-3.8,3.9
				c-3.1,3.3-3,6-3,10.7l0,0c3.5-2.1,6.7-4.1,9.1-5.7C377.7-20.7,377.4-22.1,377.6-24.7z"/>
		</g>
	</g>
	<g id="XMLID_1_">
		<path id="XMLID_20_" class="st3" d="M427.4-82.3H425v-3.8h11.8c6.2,0,9.4,3.2,9.4,7.9c0,5.5-4.3,7.9-9.4,7.9h-3.9v6.1h2.5v3.7H425
			v-3.7h2.5V-82.3z M436.1-74.1c2.7,0,4.4-1.5,4.4-4.1c0-2.4-1.5-4.1-4.5-4.1h-3.2v8.2H436.1z M452.6-68.9c0.1,3,2.5,4.9,6.1,4.9
			c3.2,0,5.1-0.9,5.9-1.2v4c-0.8,0.3-2.9,1.2-7.1,1.2c-7.4,0-10.5-4.6-10.5-9.9c0-6,3.6-10.1,9.6-10.1c6.6,0,9.3,5,9.3,11.2
			L452.6-68.9L452.6-68.9z M460.4-72.4c0-2.6-1.5-4.1-3.9-4.1c-2.3,0-3.7,1.5-3.9,4.1H460.4z M594.2-68.9c0.1,3,2.5,4.9,6.1,4.9
			c3.2,0,5.1-0.9,5.9-1.2v4c-0.8,0.3-2.9,1.2-7.1,1.2c-7.4,0-10.5-4.6-10.5-9.9c0-6,3.6-10.1,9.6-10.1c6.6,0,9.3,5,9.3,11.2
			L594.2-68.9L594.2-68.9z M601.9-72.4c0-2.6-1.5-4.1-3.9-4.1c-2.3,0-3.7,1.5-3.9,4.1H601.9z M470.7-75.9h-2.5v-3.7h7l0.1,2.5h0.1
			c0.3-0.5,2-2.9,5.9-2.9c4.9,0,7.4,3.4,7.4,7.6v8.2h2.2v3.7h-9.4v-3.7h2.1v-7.3c0-2.7-1.5-4.1-3.9-4.1c-2.2,0-3.9,1.2-3.9,4.1v7.3
			h2.2v3.7h-9.4v-3.7h2.1L470.7-75.9L470.7-75.9z M495.5-75.9H493v-3.7h7l0.1,2.5h0.1c0.3-0.5,2-2.9,5.9-2.9c4.9,0,7.4,3.4,7.4,7.6
			v8.2h2.2v3.7h-9.4v-3.7h2.1v-7.3c0-2.7-1.5-4.1-3.9-4.1c-2.2,0-3.9,1.2-3.9,4.1v7.3h2.2v3.7h-9.4v-3.7h2.1L495.5-75.9L495.5-75.9z
			 M577-83.7h5.1v4.1h5.1v3.7h-5.1v8.5c0,2.6,0.9,3.4,3,3.4c0.8,0,1.9-0.2,2.3-0.3v3.6c-0.4,0.1-2.3,0.6-4.2,0.6
			c-3.8,0-6.2-2-6.2-5.4v-10.4h-2.6v-3.7h2.6L577-83.7L577-83.7z M542.6-83.7h5.1v4.1h5.1v3.7h-5.1v8.5c0,2.6,0.9,3.4,3,3.4
			c0.8,0,1.9-0.2,2.3-0.3v3.6c-0.4,0.1-2.3,0.6-4.2,0.6c-3.8,0-6.2-2-6.2-5.4v-10.4H540v-3.7h2.6L542.6-83.7L542.6-83.7z
			 M566.8-72.7c0-2.6-1.3-3.7-3.9-3.7c-1.6,0-2.8,0.4-3.2,0.5v2.6h-4.1v-4.8c0.7-0.4,3.8-2,7.3-2c5.3,0,8.8,2.2,8.8,7.5
			c0,3.1,0,8.3,0,8.3h2v3.7h-6.2l-0.1-2.6h-0.1c-0.4,0.5-1.8,3-6.1,3c-4.3,0-6.4-2.6-6.4-5.6c0-3.6,2.8-6.1,9.8-6.1c0.3,0,2,0,2.3,0
			L566.8-72.7L566.8-72.7z M565.3-68.6c-4.2,0-5.5,0.9-5.5,2.5c0,1.1,0.8,2.3,2.8,2.3s4.1-1.6,4.1-4.8H565.3z M532.3-82.2
			c-0.4-0.1-1.9-0.6-3.3-0.6c-3,0-4.2,1.6-4.2,3c0,1.9,1.4,2.7,3,3.1l2.5,0.7c3.6,1,7.5,2.5,7.5,7.8c0,4.9-3.1,8.1-10,8.1
			c-2.7,0-5.5-0.3-8.7-1.4v-6.8h4.6v3.3c0.7,0.2,2.8,0.7,4.6,0.7c2.7,0,4-1.1,4-3.1c0-1.6-0.9-2.8-4.2-3.6l-2.2-0.6
			c-5-1.4-6.7-3.8-6.7-7.7c0-4.1,2.7-7.3,9.6-7.3c3,0,5.9,0.5,8,1.4v6.1h-4.6L532.3-82.2L532.3-82.2z"/>
	</g>
	<text transform="matrix(1 0 0 1 423.3948 -35.6917)"><tspan x="0" y="0" class="st3 st4 st5">Extension </tspan><tspan x="73.2" y="0" class="st3 st6 st5">| Online Courses</tspan></text>
</g>
</svg>
