<?xml version="1.0" encoding="UTF-8"?>
<!DOCTYPE svg PUBLIC "-//W3C//DTD SVG 1.1//EN" "http://www.w3.org/Graphics/SVG/1.1/DTD/svg11.dtd">
<!-- Creator: CorelDRAW X7 -->
<svg xmlns="http://www.w3.org/2000/svg" xml:space="preserve" width="100mm" height="24mm" version="1.1" style="shape-rendering:geometricPrecision; text-rendering:geometricPrecision; image-rendering:optimizeQuality; fill-rule:evenodd; clip-rule:evenodd"
viewBox="0 0 10000 2400"
 xmlns:xlink="http://www.w3.org/1999/xlink">
 <defs>
  <style type="text/css">
   <![CDATA[
    .fil0 {fill:#FEFEFE;fill-rule:nonzero}
   ]]>
  </style>
 </defs>
 <g id="Layer_x0020_1">
  <metadata id="CorelCorpID_0Corel-Layer"/>
  <polygon class="fil0" points="1432,277 1276,277 922,1384 560,277 402,277 66,1922 352,1922 533,1035 869,1943 976,1943 1312,1035 1486,1922 1774,1922 "/>
  <path class="fil0" d="M2137 1195c40,-176 141,-264 304,-264 178,0 277,88 297,264l-601 0zm888 55c0,-161 -54,-293 -162,-398 -107,-103 -249,-155 -427,-155 -166,0 -309,59 -428,176 -119,117 -179,270 -179,460 0,192 54,341 163,449 109,107 256,161 442,161 200,0 350,-40 450,-120l-111 -215c-67,67 -166,100 -296,100 -105,0 -187,-26 -249,-79 -62,-53 -95,-128 -101,-223l873 0c17,-70 25,-122 25,-156l0 0z"/>
  <path class="fil0" d="M3692 1706c-69,0 -117,-18 -144,-53 -27,-36 -41,-96 -41,-182l0 -526 336 0 0 -226 -336 0 0 -347 -285 148 0 199 -142 0 0 226 142 0 0 607c0,125 32,222 98,289 65,68 159,102 281,102 122,0 217,-12 283,-34l0 -258c-60,37 -123,55 -192,55l0 0z"/>
  <path class="fil0" d="M4726 1467c0,168 -86,253 -257,253 -127,0 -191,-54 -191,-162 0,-145 113,-217 338,-217 24,0 61,5 110,14l0 112 0 0zm284 85l0 -256c0,-233 -44,-391 -130,-474 -87,-84 -223,-125 -410,-125 -135,0 -252,23 -350,69l61 218c72,-35 162,-53 270,-53 182,0 272,71 272,212 -45,-11 -85,-17 -118,-17 -196,0 -346,40 -453,118 -106,79 -159,187 -159,327 0,118 38,210 113,275 75,64 179,97 311,97 70,0 137,-14 201,-40 64,-27 109,-61 135,-103 12,35 34,68 66,98 33,30 70,45 111,45 37,0 71,-5 99,-14 30,-10 56,-34 79,-75 -65,-41 -98,-141 -98,-302l0 0z"/>
  <path class="fil0" d="M5536 1555l0 -1349 -285 148 0 1324c0,177 65,265 194,265 107,0 182,-41 226,-124 -90,-28 -135,-116 -135,-264z"/>
  <path class="fil0" d="M6527 1611c-52,69 -123,103 -212,103 -194,0 -291,-132 -291,-397 0,-123 27,-219 79,-288 52,-69 123,-104 212,-104 194,0 290,131 290,392 0,127 -26,225 -78,294zm221 -748c-103,-111 -247,-166 -433,-166 -177,0 -318,57 -426,173 -108,114 -162,264 -162,447 0,189 52,341 155,455 103,114 247,171 433,171 182,0 325,-57 430,-169 105,-113 157,-265 157,-457 0,-192 -51,-344 -154,-454z"/>
  <polygon class="fil0" points="9453,1306 9922,719 9597,719 9309,1086 9051,719 8723,719 9155,1306 8686,1920 9024,1920 9306,1529 9620,1920 9966,1920 "/>
  <polygon class="fil0" points="8548,704 8261,852 8260,1920 8549,1920 "/>
  <polygon class="fil0" points="8260,-1 8260,544 8784,272 "/>
  <path class="fil0" d="M7381 985c41,-40 94,-60 160,-60 62,0 113,21 152,62 39,42 59,94 59,154 0,74 -19,131 -55,173 -37,42 -89,63 -156,63 -68,0 -122,-22 -162,-65 -40,-43 -60,-100 -60,-171 0,-63 21,-115 62,-156zm313 689c-40,0 -88,6 -143,17 -56,11 -95,17 -119,17 -52,0 -79,-15 -79,-45 0,-17 18,-34 53,-50 36,-16 56,-24 61,-24l47 7c35,3 62,5 82,5 130,0 237,-41 322,-122 85,-83 127,-192 127,-329 0,-74 -14,-141 -43,-205l119 -60 0 -267 -293 153c-18,-12 -27,-16 -27,-16 -74,-40 -166,-60 -275,-60 -141,0 -258,42 -354,126 -96,84 -144,190 -144,319 0,163 69,289 209,378 -44,18 -82,46 -114,84 -33,38 -50,78 -50,117 0,138 99,207 295,207 32,0 80,-4 143,-11 63,-7 111,-11 142,-11 119,0 178,35 178,106 0,42 -27,75 -80,99 -54,24 -121,36 -204,36 -122,0 -233,-45 -333,-135l-180 219c151,108 320,163 508,163 157,0 290,-35 402,-104 111,-69 166,-165 166,-285 0,-219 -139,-329 -416,-329l0 0z"/>
 </g>
</svg>
