<?xml version="1.0" encoding="utf-8"?>
<!-- Generator: Adobe Illustrator 19.0.0, SVG Export Plug-In . SVG Version: 6.00 Build 0)  -->
<svg version="1.1" id="Layer_1" xmlns="http://www.w3.org/2000/svg" xmlns:xlink="http://www.w3.org/1999/xlink" x="0px" y="0px"
	 viewBox="0 0 280.6 87.9" style="enable-background:new 0 0 280.6 87.9;" xml:space="preserve">
<style type="text/css">
	.st0{fill:#FFFFFF;}
	.st1{fill:#1E417C;}
	.st2{fill:#97BEE5;}
</style>
<g>
	<g id="XMLID_8_">
		<g id="XMLID_81_">
			<path id="XMLID_83_" class="st0" d="M40.4,87.8C22.9,77.4,0.7,62.2,0.7,35.4V7.1C8.8,4,21.3,0.2,40.4,0.2
				c19.3,0,32.6,4.2,39.7,6.9v28.3C80.1,62.4,57.1,78,40.4,87.8z"/>
		</g>
		<g id="XMLID_68_">
			<path id="XMLID_74_" class="st1" d="M52.4,51.2c0-0.6,0.5-1.5,0.5-2.4c0-1-1.2-1.3-2.2-1.4c-2-0.3-2.6-0.2-2.6-0.6
				c0-0.3,0.3-0.6,0.6-1.1c0.5-0.8,1.8-1.1,2.5-1.1c0.9-0.1,1.9-0.2,3.1-0.2c1.3,0,2.5,0.2,3,0.3c1.2,0.2,1.4,0.7,1.4,1.3
				c0,0.1,0,0.4,0,0.6c0,0.6-0.5,0.9-1.3,1.1c-0.2,0-0.5,0.1-0.7,0.1c-0.6,0.1-1.4,0.2-1.6,1c-0.6,1.7-1.6,3-2.3,2.9
				C52.5,51.5,52.4,51.4,52.4,51.2z M54.1,24.3c-0.1,0-0.3-0.1-0.3-0.4c0-0.3,0.2-0.6,0.6-1.2c1-1.3,2.4-3,2.9-3
				c0.2,0,0.4,0.2,0.7,0.7c0.2,0.3,0.3,0.9,0.3,1.4c0,1.8-0.6,3-1.6,4.4C56.3,25.9,55.4,25,54.1,24.3z M24.9,27.6
				c0.4,0,0.8-0.3,1.5-1c1.5-1.7,3-1.9,3-2.6c0-0.3-0.2-0.6-0.4-1c-1.6-2.5-2.3-3.9-3.3-5.7c-0.3-0.7-0.8-1.1-1.1-1.1
				c-0.6,0-1.1,0.6-1.5,1.2c-0.5,0.8-1,1.7-1,2.5c0,1.2,0.3,3.4,0.8,4.9C23.5,26.3,24.3,27.6,24.9,27.6z M43.1,33.4
				c0-1-1.2-2.6-3.2-2.6c-1.8,0-3.2,1.4-3.6,2.4c0.4,0.8,0.9,1.7,2.6,2.3c0.2,0.1,0.5,0.1,0.5,0.3c0,0.3-0.3,0.4-0.9,0.4
				c-2,0-3.1-0.8-3.7-1.5C34.3,34.8,33.7,35,33,35c-0.6,0-0.9-0.4-0.9-0.9c0-0.3,0.1-0.7,0.3-1.2c0.1-0.2,0.2-0.5,0.3-0.6
				c0.3-0.6,0.8-1.9,2.6-3c0.2-0.1,0.8-0.4,1-0.6c1-0.6,1.8-0.7,3-0.7c0.1,0,0.8,0,0.9,0c1.4,0,2.2,0.4,2.8,0.9c1.3,1.1,2,1.7,2,2.5
				c0,0.9,0,1.6-0.8,2.5c-0.6,0.8-1.5,1.3-2.1,1.3c-0.2,0-0.2-0.1-0.2-0.2c0-0.1,0.1-0.2,0.3-0.3C42.7,34.5,42.9,33.8,43.1,33.4z
				 M51.8,61.2c-0.3,0.1-1,0.2-4,0.2c-4.5,0-5.3-1.1-5.3-2c0-1.5,6.5-2.5,9-2.5c2.4,0,3.5,0.8,3.5,1.4C55.1,59.1,54,60.7,51.8,61.2z
				 M25.8,74.4c4.7,3.7,9.7,6.9,14.6,9.8l0,0l0,0c0-4.4-0.1-7,2.9-10.1c1.2-1.3,2.5-2.6,3.6-3.7c0.8-0.9,1.5-1.5,1.9-1.5
				c0.3,0,0.4,0.2,0.4,0.5c0,0.4,0.2,1.8,1.1,3.6c1.1,2.2,2.8,2.4,3.3,2.6c12.8-9.6,23.5-22.2,23.5-40.2c0-9.8,0-26.1,0-26.1
				c-3.2-1.1-16.1-6-36.7-6s-33.5,5-36.7,6c0,0,0,16.3,0,26.1c0,7.9,2.1,14.7,5.5,20.8c0.3-3.6,2.8-5.4,2.8-8.9
				c0-2.5-0.7-4.1-0.7-6.1c0-3.8,5.1-11.5,7.7-14.7c0.1-0.1,0.2-0.3,0.5-0.3c0.2,0,0.3,0.1,0.4,0.3c0.3,0.4,0.4,0.6,0.7,0.6
				c0.3,0,0.4-0.2,0.4-0.4c0-0.7-0.8-1.8-0.8-6c0-3,0.7-3.6,2.6-5.5c0.3-0.3,1.4-1.3,2.4-1.3c1.1,0,1.7,0.7,2.3,1.3
				c1.2,1.2,2.8,3.2,3,3.6c0.1,0.1,0.1,0.2,0.3,0.2c0.5,0,1-0.2,3.3-0.2c4.2,0,10.5,0.7,13.8,1.7c1.7,0.5,2,0.9,2.5,0.9
				c0.2,0,0.2-0.1,0.2-0.3c0-0.2-0.4-0.6-0.4-0.8c0-0.2,0.2-0.3,0.3-0.4c2.4-1.3,4.5-2.3,6.4-2.3c1.1,0,1.6,1,2.1,1.9
				c0.4,0.7,0.8,1.7,0.8,2.7c0,2.6-1,4.1-1.8,5.2c0.4,0.4,0.9,1,1.2,1.4c0.6,0.7,1.3,1.6,1.3,2.5c0,0.4-0.2,1-0.3,1.5
				c-0.1,0.2-0.2,0.7-0.6,0.7c-0.4,0-0.4-0.4-0.5-0.7c0-0.1,0-0.2,0-0.3c0-0.7-0.2-1.7-0.9-2.4c-0.8-0.8-1.5-1.4-2.4-1.4
				c-0.1,0-0.2,0-0.3,0c-1.5,0-2.2,0.7-2.6,1.1c-0.5,0.4-0.8,1-0.8,1.8c0,0.5,0.3,1,0.7,1.8c0.2,0.5,0.9,1.6,1.2,2.2
				c0.3,0.5,0.7,0.7,1.1,0.7c1,0,2-0.1,2-0.5c0-0.1,0-0.2-0.2-0.2c-0.1,0-0.2,0-0.3,0c-1.4,0-2.1-1.7-2.8-3.3c0.5-0.5,1.1-1,2.2-1
				c1.4,0,2.3,0.9,2.3,2.1c0,0.6-0.2,1.1-0.3,1.3c-0.1,0.1-0.1,0.2-0.1,0.2c0,0.2,0.2,0.2,0.6,0.3c0.1,0,0.4,0.1,0.5,0.1
				c0.4,0.1,0.8,0.5,1,0.9c0.1,0.3,0.4,1.1,0.5,1.2c0.2,0.7,0.6,1.7,0.6,2.8c0,1.2-0.1,1.6-0.4,2.8c-0.4,1.6-0.6,2.1-0.7,3
				c0.1,0.3,0.2,0.3,0.2,0.5c0.2,0.5,0.5,1.4,0.5,2.4c0,0.3,0,0.8,0,0.8c0,1.6-0.6,2.8-1.3,3.7c-0.5,0.7-1.3,1.7-1.7,2.3
				c-0.3,0.3-0.7,0.6-1.1,0.6c-0.2,0-0.4-0.1-0.7-0.1c-0.3-0.1-0.8-0.2-1.1-0.3c-0.9-0.2-1.3-0.8-1.5-1.6c0-0.1-0.2-0.5-0.2-0.6
				c-0.2-0.6-0.3-0.9-0.7-0.9c-0.3,0-0.5,0.2-0.8,0.6c-0.9,1.4-1.4,1.9-3,2.3c-0.6,0.1-1.7,0.4-2.3,0.5c-1,0.2-2.7,0.7-3.7,0.7
				c-0.2,0-0.4,0-0.6,0c-1.3-0.2-2.3-0.3-3.9-2.2c-2.3-2.7-2-3.1-2.2-6.7c0-0.4-0.1-0.9-0.6-0.9c-0.4,0-0.5,0.8-0.7,1.9
				c-0.2,1.3-0.5,2.6-1.1,2.6c-0.4,0-0.7-0.1-1.4-0.3c-0.8-0.3-2.9-1-3.9-1.3c-1.5-0.5-2.9-0.9-3.4-2.2c-0.3-0.6-0.8-1.7-1-2.3
				c-0.2-0.4-0.3-0.6-0.6-0.6c-0.4,0-0.5,0.5-0.5,0.8c0,0.4-0.2,1.4-0.2,2c-0.2,2.5-0.7,3.6-1.8,5c-0.5,0.6-1,1.3-1.5,2
				c-1.1,1.5-1.8,3-1.8,5.9c0,0.2,0,1.3,0,1.8C17.4,66.5,18.5,68.6,25.8,74.4z"/>
			<path id="XMLID_69_" class="st2" d="M59.9,36.4L59.9,36.4c0.1,0.3,0.4,1.1,0.5,1.2c0.2,0.7,0.6,1.7,0.6,2.8
				c0,1.2-0.1,1.6-0.4,2.8c-0.4,1.6-0.6,2.1-0.7,3c-0.1-0.2-2.3-4-2.5-4.4c-0.2-0.3-0.3-0.6-0.3-1c0-0.4,0.2-0.6,0.6-0.9
				c0.3-0.2,0.6-0.4,0.9-0.5c1.1-0.6,1.4-1.3,1.4-2.1C60,37,59.9,36.7,59.9,36.4z M50.3,42.5c0.1,0.3,0.2,0.6,0.2,0.9
				c0,0.6-0.1,0.7-0.5,1.1c-0.2,0.2-0.4,0.3-0.6,0.5c-0.3,0.2-0.6,0.4-0.8,0.6c-0.4,0.5-0.6,0.8-0.6,1.1c0,0.1,0,0.2,0.1,0.2
				c-0.4-0.3-0.6-0.8-0.6-1.3c0-0.4,0.1-0.6,0.1-1c0-0.3-0.1-0.6-0.1-0.8c-0.6-2-1.6-4.5-2.3-6.1c-0.6-1.7-1.2-2.6-1.9-2.6
				c-0.4,0-0.8,0.2-1.2,0.2c0.6,0,1.5-0.5,2.1-1.3C45,33,45,32.4,45,31.5c0-0.4-0.2-0.7-0.5-1.1c0.9,0.9,1.5,2.1,2.1,3.5
				C48.1,36.8,49.3,40,50.3,42.5z M17.3,62.2c0-0.5,0-1.6,0-1.8c0-2.9,0.6-4.4,1.8-5.9c0.5-0.7,1-1.4,1.5-2c1.1-1.4,1.6-2.5,1.8-5
				c0.1-0.6,0.2-1.5,0.2-2c0-0.4,0.1-0.8,0.5-0.8c0.3,0,0.4,0.2,0.6,0.6c0.2,0.6,0.7,1.7,1,2.3c0.6,1.3,2,1.7,3.4,2.2
				c1.1,0.4,3.1,1,3.9,1.3c0.7,0.2,1,0.3,1.4,0.3c0.6,0,0.9-1.3,1.1-2.6c0.1-1.1,0.3-1.9,0.7-1.9c0.4,0,0.6,0.5,0.6,0.9
				c0.1,3.6-0.1,4,2.2,6.7c1.6,2,2.6,2.1,3.9,2.2c-0.5-0.1-1.1-0.7-1.1-1.9c0-0.2,0-1.2,0-1.3c0-0.7,0.1-1.3,0.4-2.1
				c0.2-0.4,0.3-1,0.5-1.4c0.3-0.7,0.2-0.8,0.2-1.3c0-0.5-0.2-1-0.6-2.2c-0.2-0.6-0.5-1.5-0.7-2.2c-0.8-2.3-1.2-2.8-3.9-3.2
				c-0.9-0.1-4.7-0.7-5.5-0.8c-3.1-0.4-5.5-0.6-6.7-2.6c-1.5-2.5-1.3-5.4-2.8-5.4c-0.7,0-1,0.8-1,1.9c0,1.2,0.4,3.1,0.4,6.3
				c0,2.8-0.3,3.6-1.9,5.7c-0.4,0.5-1,1.3-1.4,1.8c-1.2,1.5-1.8,2.4-1.7,4.2C16.3,57,17,60.4,17.3,62.2z M48.6,73.2
				c0.1-1.1,0.6-3,0.6-3.8v0c0-0.4-0.1-0.5-0.4-0.5c-0.4,0-1.1,0.7-1.9,1.5c-1.1,1.2-2.4,2.5-3.6,3.7c-3,3.1-2.8,5.7-2.9,10.1l0,0
				c3.3-2,6.4-3.9,8.6-5.5C48.7,76.9,48.4,75.6,48.6,73.2z"/>
		</g>
	</g>
	<g id="XMLID_119_">
		<path id="XMLID_129_" class="st0" d="M265.6,36.2h13.5c-0.1-7-3.4-10.9-9.2-10.9c-5.8,0-9.6,3.9-9.6,10.1c0,2.3,0.8,9.9,10.5,9.9
			c4,0,6.1-0.8,7-1.2v-3.6c-1,0.4-2.9,1.1-5.8,1.1C268.2,41.5,265.7,39.4,265.6,36.2z M246.4,29.1h2.6v10.8c0,3.3,2.3,5.3,6.1,5.3
			c1.8,0,3.6-0.4,4.1-0.6v-3.3c-0.9,0.2-1.6,0.3-2.1,0.3c-2.3,0-3.3-1-3.3-3.6v-8.8h5.2v-3.4h-5.2v-4.2h-4.8v4.2h-2.6V29.1z
			 M231.9,29.3c0.2-0.1,1.8-0.6,3.2-0.6c2.8,0,4.1,1.2,4.1,3.9v1.1h-2.5c-6.4,0-9.8,2.1-9.8,6c0,3.3,2.5,5.5,6.3,5.5
			c4,0,5.8-2.3,6.3-3.1l0.1,0l0.2,2.6h5.9v-3.4h-2v-8.6c0-4.9-2.9-7.4-8.7-7.4c-3.5,0-6.5,1.6-7.2,1.9v4.6h4.1V29.3z M212.4,29.1
			h2.6v10.8c0,3.3,2.3,5.3,6.1,5.3c1.8,0,3.6-0.4,4.1-0.6v-3.3c-0.5,0.1-1.4,0.3-2.1,0.3c-2.3,0-3.3-1-3.3-3.6v-8.8h5.2v-3.4h-5.2
			v-4.2H215v4.2h-2.6V29.1z M196.2,40.5v-3.3h-4.5v6.5c2.8,1,5.5,1.4,8.7,1.4c6.4,0,10-2.9,10-8.1c0-5.3-3.9-6.7-7.5-7.7l-2.6-0.7
			c-2.1-0.5-3.2-1.7-3.2-3.4c0-1.6,1.4-3.3,4.4-3.3c1.3,0,2.7,0.4,3.3,0.7v3.1h4.5V20c-2.1-0.8-5-1.3-7.9-1.3
			c-6.2,0-9.5,2.6-9.5,7.2c0,4.1,1.9,6.4,6.7,7.6l2.2,0.6c3.1,0.8,4.4,2,4.4,3.9c0,2.1-1.5,3.3-4.3,3.3
			C199.4,41.3,197.2,40.8,196.2,40.5z M125,36.2h13.5c-0.1-7-3.4-10.9-9.2-10.9c-5.8,0-9.6,3.9-9.6,10.1c0,2.3,0.8,9.9,10.5,9.9
			c4,0,6.1-0.8,7-1.2v-3.6c-1,0.4-2.9,1.1-5.8,1.1C127.6,41.5,125.2,39.4,125,36.2z M154.3,44.7h9.2v-3.4h-2.2v-8.5
			c0-4.6-2.9-7.5-7.3-7.5c-3.7,0-5.6,2.1-6.1,3l-0.1,0l-0.1-2.5h-6.8v3.4h2.5v12.2h-2.1v3.4h9.2v-3.4h-2.2v-7.6
			c0-2.8,1.5-4.4,4.1-4.4c2.6,0,4.2,1.6,4.2,4.4v7.6h-2.1V44.7z M97.5,44.7h10.2v-3.4h-2.6v-6.6h4.1c5.9,0,9.4-2.9,9.4-7.8
			c0-4.9-3.5-7.8-9.4-7.8H97.5v3.4h2.6v18.8h-2.6V44.7z M234.8,41.8c-2.2,0-3-1.4-3-2.5c0-1.9,1.7-2.8,5.8-2.8h1.6v0.2
			C239.1,40.2,236.9,41.8,234.8,41.8z M265.5,33c0.2-2.8,1.8-4.6,4.2-4.6c2.6,0,4.1,1.6,4.1,4.4V33H265.5z M125,33
			c0.2-2.9,1.8-4.6,4.2-4.6c2.6,0,4.1,1.6,4.1,4.4V33H125z M108.7,31.3h-3.6v-8.8h3.5c2.9,0,4.7,1.7,4.7,4.4
			C113.3,29.6,111.6,31.3,108.7,31.3z M179.1,44.7h9.2v-3.4h-2.2v-8.5c0-4.6-2.9-7.5-7.3-7.5c-3.7,0-5.6,2.1-6.1,3l-0.1,0l-0.1-2.5
			h-6.8v3.4h2.5v12.2H166v3.4h9.2v-3.4H173v-7.6c0-2.8,1.5-4.4,4.1-4.4c2.6,0,4.2,1.6,4.2,4.4v7.6h-2.1V44.7z"/>
	</g>
</g>
</svg>
