<?xml version="1.0" encoding="utf-8"?>
<!-- Generator: Adobe Illustrator 19.0.0, SVG Export Plug-In . SVG Version: 6.00 Build 0)  -->
<svg version="1.1" id="Layer_1" xmlns="http://www.w3.org/2000/svg" xmlns:xlink="http://www.w3.org/1999/xlink" x="0px" y="0px"
	 viewBox="5 129.9 175 24.6" style="enable-background:new 5 129.9 175 24.6;" xml:space="preserve">
<style type="text/css">
	.st0{fill:#EE3124;}
	.st1{fill:#304049;}
</style>
<g>
	<path class="st0" d="M7.2,143.8c0.1-3.2,1.6-5.3,4.6-5.3c0.4,0,0.8,0.1,1.2,0.1v-1.9c-0.7,0-1.3-0.1-2,0c-1.7,0.1-3.2,1.3-3.8,2.9
		l0,0l-0.1-2.4H5c0.1,1.1,0.2,2.4,0.2,3.7v12.9h2V143.8z"/>
</g>
<g>
	<rect x="15.2" y="129.9" class="st0" width="2.3" height="2.5"/>
	<rect x="15.4" y="137.2" class="st0" width="2" height="16.6"/>
</g>
<g>
	<path class="st0" d="M22.6,149.4c0,2.3-0.2,4.9,4,4.9c0.7,0,1.4-0.1,2-0.3v-1.7c-0.5,0.2-1.1,0.2-1.7,0.2c-1.5,0-2.3-0.8-2.3-2.4
		V139h3.8v-1.8h-3.8v-4.4l-2,0.9v3.5h-3.3v1.8h3.3V149.4z"/>
</g>
<g>
	<path class="st0" d="M32.8,149.4c0,2.3-0.2,4.9,4,4.9c0.7,0,1.4-0.1,2-0.3v-1.7c-0.5,0.2-1.1,0.2-1.7,0.2c-1.5,0-2.3-0.8-2.3-2.4
		V139h3.8v-1.8h-3.8v-4.4l-2,0.9v3.5h-3.3v1.8h3.3V149.4z"/>
</g>
<g>
	<path class="st0" d="M42.5,137.2h-2.1c0.1,1.1,0.2,2.5,0.2,3.7v12.9h2v-9.6c0-3,1.5-5.7,4.8-5.7c2.7,0,4.4,1.7,4.4,4.6v10.7h2v-9.6
		c0-3,1.5-5.7,4.8-5.7c2.7,0,4.4,1.7,4.4,4.6v10.7h2v-10.4c0-1.9-0.4-6.7-5.9-6.7c-2.6,0-4.5,1.7-5.7,3.6c-0.7-2.2-2.8-3.6-5.4-3.6
		c-2.2,0-4,1-5.2,3l-0.1-0.1L42.5,137.2z"/>
</g>
<path class="st0" d="M77.5,143.6c-2.4,0.1-5.3-0.2-7.5,0.8c-2,0.8-3.3,2.6-3.3,4.8c0,3.3,2.5,5.1,5.5,5.1c2.3,0,4.5-1.3,5.2-2.7
	l0.1-0.2h0.1l0.1,2.4h2.1c-0.1-1.1-0.2-2.4-0.2-3.7v-7.9c0.1-3.8-2.2-5.5-5.9-5.5c-3.2,0-5.7,1.3-6.2,4.7h2.1c0.3-2.3,2-2.9,4.1-2.9
	c2.3,0,3.7,0.9,3.9,3.6L77.5,143.6L77.5,143.6z M68.8,149.2c0-4.2,5.9-3.6,8.7-3.7c0.2,3.5-0.6,7.1-5,7.1
	C70.5,152.5,68.8,151.5,68.8,149.2z"/>
<g>
	<path class="st0" d="M84.3,144.3c0-3,1.5-5.7,4.8-5.7c2.7,0,4.4,1.7,4.4,4.6v10.7h2v-10.5c0-1.9-0.4-6.7-5.9-6.7c-2.2,0-4,1-5.2,3
		l-0.1-0.1l-0.1-2.5h-2.1c0.1,1.1,0.2,2.5,0.2,3.7v12.9h2C84.3,153.7,84.3,144.3,84.3,144.3z"/>
</g>
<path class="st1" d="M99.6,140.2c0-1.1-0.1-2.1-0.2-3.1h4.7l0.2,2.2c0.5-0.7,1.8-2.5,5.2-2.5c3.8,0,4.9,2.4,5.3,3.1
	c1.4-2.7,3.6-3.1,5.4-3.1c3.4,0,4.7,2,5.1,2.7c0.9,1.5,0.8,3.5,0.8,4.9v9.4h-4.9V144c0-1.8-0.3-3.8-2.8-3.8c-3,0-3,2.8-3,5.2v8.4
	h-4.9v-9.9c0-1.3,0-3.7-2.8-3.7c-3.1,0-3.1,2.7-3.1,3.8v9.8h-4.9L99.6,140.2L99.6,140.2z"/>
<path class="st1" d="M132.7,146.7c0,1.1,0,4.5,3.4,4.5c1.2,0,2.5-0.5,2.9-2.3h4.5c-0.1,0.8-0.2,2.2-1.6,3.7c-1.2,1.3-3.4,2-5.9,2
	c-1.4,0-4.1-0.3-5.9-2.1c-1.5-1.6-2.2-3.8-2.2-6.5s0.7-6,3.5-7.9c1.3-0.9,2.9-1.4,4.7-1.4c2.4,0,5.2,0.9,6.8,4
	c1.1,2.3,1.1,4.7,1,6.1h-11.2V146.7z M138.9,143.6c0-0.8-0.1-3.7-2.9-3.7c-2.2,0-3.1,1.8-3.2,3.7H138.9z"/>
<path class="st1" d="M156.4,153.8c-0.2-1-0.2-1.8-0.2-2.3c-1.9,2.7-4.1,2.7-5,2.7c-2.4,0-3.5-0.7-4.2-1.3c-1-1-1.5-2.4-1.5-3.7
	c0-1.3,0.5-3.8,3.5-5.2c2.1-0.9,5-0.9,6.6-0.9c0-1.1,0-1.6-0.2-2.2c-0.4-1.2-1.7-1.4-2.2-1.4c-0.7,0-1.4,0.3-1.9,0.9
	c-0.4,0.6-0.4,1.1-0.4,1.5h-4.8c0-0.9,0.1-2.7,1.9-3.9c1.5-1.1,3.5-1.4,5.1-1.4c1.4,0,4.3,0.2,6,2.2c1.1,1.4,1.2,3.3,1.2,4.1v6.7
	c0,1.4,0.1,2.9,0.4,4.2C160.7,153.8,156.4,153.8,156.4,153.8z M150.3,148.7c0,1.1,0.8,2.4,2.4,2.4c0.9,0,1.6-0.4,2.1-1
	c0.9-1.1,0.9-2.4,0.9-4.1C152.6,145.7,150.3,146.7,150.3,148.7z"/>
<path class="st1" d="M174.9,129.9h4.9v21.2c0,1,0.1,2.1,0.1,2.7h-5l-0.1-2.4c-0.3,0.6-0.7,1.2-1.7,1.9c-1.2,0.8-2.5,0.9-3.3,0.9
	c-4.5,0-7.1-3.1-7.1-8.3c0-5.5,3-9,7.4-9c3,0,4.3,1.7,4.7,2.3v-9.3H174.9z M171.2,151c1.4,0,2.6-0.9,3.1-1.9
	c0.7-1.4,0.8-3.1,0.8-3.9c0-3.3-1.4-5.1-3.6-5.1c-3.3,0-3.6,3.9-3.6,5.6C167.8,148.5,168.7,151,171.2,151z"/>
</svg>
