<?xml version="1.0" encoding="utf-8"?>
<!-- Generator: Adobe Illustrator 19.0.0, SVG Export Plug-In . SVG Version: 6.00 Build 0)  -->
<svg version="1.1" id="Layer_1" xmlns="http://www.w3.org/2000/svg" xmlns:xlink="http://www.w3.org/1999/xlink" x="0px" y="0px"
	 viewBox="1739 112.9 340.2 56.7" style="enable-background:new 1739 112.9 340.2 56.7;" xml:space="preserve">
<style type="text/css">
	.st0{fill:#005BAB;}
</style>
<g>
	<g>
		<path class="st0" d="M1816.2,157.1l-11-29.1l-2.4-6.2l-3.1-8h-9.1l-5.6,14.5l0,0c0.8,2.5,1.3,5.2,1.3,7.9c0,9.2-5,17.2-12.4,21.4
			l-0.4,1.1h8.5l2-5.2l1.9-5.1h18.6l1.9,5.1l2,5.2h8.4L1816.2,157.1z M1788.9,140.8l6.2-16.4l0.2-0.5l0.2,0.4l6.3,16.5H1788.9z"/>
		<path class="st0" d="M1768.7,157.6c9-2.9,15.6-11.4,15.6-21.3c0-1.5-0.2-3-0.5-4.5c-0.2-0.9-0.4-1.7-0.7-2.6
			c-0.6-1.9-1.6-3.7-2.7-5.4c-4.1-6-11-10-18.8-10c-12.5,0-22.6,10.1-22.6,22.4c0,0.3,0,0.6,0,0.9c0.4,10.8,8.7,19.7,19.3,21.3
			c4.2,5.7,11.9,9.6,20.1,10.1l2.9-7.5c-0.5,0-1.2,0-1.6,0C1775.4,161.1,1771.6,159.8,1768.7,157.6z M1761.6,151.2
			c-2.6,0-5.1-0.7-7.2-1.8c-4.3-2.3-7.3-6.7-7.7-11.7c0-0.4-0.1-0.9-0.1-1.3c0-8.2,6.7-14.9,15-14.9c3.7,0,7.1,1.4,9.8,3.6
			c2.1,1.8,3.6,4.1,4.5,6.7c0,0.1,0.1,0.3,0.1,0.4c0.4,1.4,0.6,2.8,0.6,4.2c0,7.6-5.7,13.8-13,14.8
			C1763,151.1,1762.3,151.2,1761.6,151.2z"/>
	</g>
	<g>
		<path class="st0" d="M1838.4,135.3v-4.4h-1.6v-2.7h1.6v-2.7h3.1v2.7h2v2.7h-2v3.5c0,0.6,0.3,1,0.9,1c0.3,0,0.7-0.1,0.8-0.2
			l0.6,2.3c-0.4,0.4-1.1,0.6-2.3,0.6C1839.5,138.2,1838.4,137.2,1838.4,135.3z"/>
		<path class="st0" d="M1845,137.9v-9.7h3.1v1.2c0.6-0.8,1.9-1.4,3-1.4v3c-0.2,0-0.4-0.1-0.8-0.1c-0.8,0-1.9,0.3-2.3,0.9v6.2H1845z"
			/>
		<path class="st0" d="M1858.2,137.9v-1c-0.6,0.7-1.8,1.2-3,1.2c-1.5,0-3.3-1-3.3-3.2c0-2.3,1.8-3.1,3.3-3.1c1.3,0,2.4,0.4,3,1.1
			v-1.2c0-0.8-0.7-1.4-2-1.4c-1,0-2,0.4-2.8,1l-1.1-1.9c1.2-1.1,2.9-1.5,4.4-1.5c2.3,0,4.5,0.9,4.5,3.9v6.1H1858.2L1858.2,137.9z
			 M1858.2,135.4v-0.9c-0.3-0.4-1-0.7-1.7-0.7c-0.8,0-1.5,0.4-1.5,1.1c0,0.8,0.7,1.1,1.5,1.1
			C1857.2,136.1,1857.9,135.9,1858.2,135.4z"/>
		<path class="st0" d="M1870.1,137.9v-5.6c0-1.2-0.6-1.6-1.6-1.6c-0.9,0-1.5,0.5-1.9,0.9v6.3h-3.1v-9.7h3.1v1.2
			c0.6-0.7,1.7-1.4,3.4-1.4c2.2,0,3.2,1.3,3.2,3.1v6.9H1870.1z"/>
		<path class="st0" d="M1874.6,136.7l1.3-2.1c0.7,0.6,2.3,1.3,3.4,1.3c0.9,0,1.3-0.3,1.3-0.7c0-1.3-5.6,0-5.6-3.9
			c0-1.7,1.5-3.2,4.2-3.2c1.6,0,3,0.5,4.1,1.3l-1.2,2.1c-0.6-0.6-1.7-1.1-2.8-1.1c-0.7,0-1.2,0.3-1.2,0.7c0,1.1,5.6,0,5.6,4
			c0,1.8-1.6,3.2-4.4,3.2C1877.4,138.2,1875.7,137.6,1874.6,136.7z"/>
		<path class="st0" d="M1885.8,137.9v-7h-1.6v-2.7h1.6v-0.5c0-2.1,1.4-3.4,3.5-3.4c1,0,2.1,0.3,2.8,1l-1.1,1.8
			c-0.2-0.3-0.5-0.4-1-0.4c-0.6,0-1.1,0.4-1.1,1.1v0.5h2v2.7h-2v7H1885.8z"/>
		<path class="st0" d="M1891.5,133.1c0-2.7,2-5.1,5.3-5.1c3.3,0,5.3,2.3,5.3,5.1c0,2.7-2,5.1-5.3,5.1
			C1893.5,138.2,1891.5,135.8,1891.5,133.1z M1898.9,133.1c0-1.3-0.8-2.3-2.1-2.3c-1.4,0-2.1,1.1-2.1,2.3c0,1.3,0.7,2.4,2.1,2.4
			C1898.1,135.4,1898.9,134.4,1898.9,133.1z"/>
		<path class="st0" d="M1903.7,137.9v-9.7h3.1v1.2c0.6-0.8,1.9-1.4,3-1.4v3c-0.2,0-0.4-0.1-0.8-0.1c-0.8,0-1.9,0.3-2.3,0.9v6.2
			H1903.7z"/>
		<path class="st0" d="M1923.4,137.9V132c0-0.7-0.4-1.3-1.3-1.3c-0.8,0-1.4,0.5-1.7,0.9v6.3h-3.1V132c0-0.7-0.3-1.3-1.3-1.3
			c-0.8,0-1.4,0.5-1.7,0.9v6.3h-3.1v-9.7h3.1v1.2c0.4-0.6,1.7-1.4,3.2-1.4c1.4,0,2.3,0.6,2.8,1.7c0.6-0.8,1.8-1.7,3.4-1.7
			c1.8,0,2.9,0.9,2.9,2.9v7H1923.4z"/>
		<path class="st0" d="M1928.5,125.6c0-1,0.8-1.8,1.8-1.8c1,0,1.8,0.8,1.8,1.8s-0.8,1.8-1.8,1.8
			C1929.3,127.4,1928.5,126.6,1928.5,125.6z M1928.7,137.9v-9.7h3.1v9.7H1928.7z"/>
		<path class="st0" d="M1940.6,137.9v-5.6c0-1.2-0.6-1.6-1.6-1.6c-0.9,0-1.5,0.5-1.9,0.9v6.3h-3.1v-9.7h3.1v1.2
			c0.6-0.7,1.7-1.4,3.4-1.4c2.2,0,3.2,1.3,3.2,3.1v6.9H1940.6z"/>
		<path class="st0" d="M1945.7,140.4l1.4-2.2c0.7,0.8,1.8,1.1,2.9,1.1c1,0,2.5-0.4,2.5-2.2v-0.7c-0.8,0.9-1.8,1.4-2.9,1.4
			c-2.4,0-4.3-1.6-4.3-4.9c0-3.2,1.8-4.9,4.3-4.9c1.1,0,2.1,0.4,2.9,1.4v-1.1h3.1v8.8c0,3.9-3.1,4.8-5.5,4.8
			C1948.3,141.9,1946.9,141.4,1945.7,140.4z M1952.4,134.2v-2.6c-0.4-0.5-1.2-0.9-1.8-0.9c-1.2,0-2.1,0.7-2.1,2.1
			c0,1.4,0.9,2.2,2.1,2.2C1951.2,135,1952.1,134.7,1952.4,134.2z"/>
		<path class="st0" d="M1966,136.8v4.8h-3.1v-13.4h3.1v1.1c0.8-0.9,1.8-1.4,2.9-1.4c2.4,0,4.2,1.8,4.2,5.1c0,3.3-1.8,5.1-4.2,5.1
			C1967.8,138.2,1966.8,137.7,1966,136.8z M1969.9,133.1c0-1.4-0.9-2.3-2.1-2.3c-0.7,0-1.5,0.4-1.8,0.9v2.9c0.4,0.5,1.2,0.9,1.8,0.9
			C1969,135.4,1969.9,134.6,1969.9,133.1z"/>
		<path class="st0" d="M1974.1,133.1c0-2.8,2.1-5.1,5.1-5.1c2.9,0,4.9,2.1,4.9,5.4v0.7h-6.9c0.2,0.9,1,1.7,2.4,1.7
			c0.7,0,1.9-0.3,2.4-0.8l1.3,1.9c-1,0.9-2.6,1.3-4.1,1.3C1976.4,138.2,1974.1,136.2,1974.1,133.1z M1979.2,130.4
			c-1.4,0-1.9,1-2,1.7h4C1981.1,131.4,1980.6,130.4,1979.2,130.4z"/>
		<path class="st0" d="M1985.7,137.9v-9.7h3.1v1.2c0.6-0.8,1.9-1.4,3-1.4v3c-0.2,0-0.4-0.1-0.8-0.1c-0.8,0-1.9,0.3-2.3,0.9v6.2
			H1985.7z"/>
		<path class="st0" d="M1993.9,137.9v-7h-1.6v-2.7h1.6v-0.5c0-2.1,1.4-3.4,3.5-3.4c1,0,2.1,0.3,2.8,1l-1.1,1.8
			c-0.2-0.3-0.5-0.4-1-0.4c-0.6,0-1.1,0.4-1.1,1.1v0.5h2v2.7h-2v7H1993.9z"/>
		<path class="st0" d="M1999.6,133.1c0-2.7,2-5.1,5.3-5.1c3.3,0,5.3,2.3,5.3,5.1c0,2.7-2,5.1-5.3,5.1
			C2001.5,138.2,1999.6,135.8,1999.6,133.1z M2006.9,133.1c0-1.3-0.8-2.3-2.1-2.3c-1.4,0-2.1,1.1-2.1,2.3c0,1.3,0.7,2.4,2.1,2.4
			C2006.2,135.4,2006.9,134.4,2006.9,133.1z"/>
		<path class="st0" d="M2011.7,137.9v-9.7h3.1v1.2c0.6-0.8,1.9-1.4,3-1.4v3c-0.2,0-0.4-0.1-0.8-0.1c-0.8,0-1.9,0.3-2.3,0.9v6.2
			H2011.7z"/>
		<path class="st0" d="M2031.4,137.9V132c0-0.7-0.4-1.3-1.3-1.3c-0.8,0-1.4,0.5-1.7,0.9v6.3h-3.1V132c0-0.7-0.3-1.3-1.3-1.3
			c-0.8,0-1.4,0.5-1.7,0.9v6.3h-3.1v-9.7h3.1v1.2c0.4-0.6,1.7-1.4,3.2-1.4c1.4,0,2.3,0.6,2.8,1.7c0.6-0.8,1.8-1.7,3.4-1.7
			c1.8,0,2.9,0.9,2.9,2.9v7H2031.4z"/>
		<path class="st0" d="M2042.5,137.9v-1c-0.6,0.7-1.8,1.2-3,1.2c-1.5,0-3.3-1-3.3-3.2c0-2.3,1.8-3.1,3.3-3.1c1.3,0,2.4,0.4,3,1.1
			v-1.2c0-0.8-0.7-1.4-2-1.4c-1,0-2,0.4-2.8,1l-1.1-1.9c1.2-1.1,2.9-1.5,4.4-1.5c2.3,0,4.5,0.9,4.5,3.9v6.1H2042.5L2042.5,137.9z
			 M2042.5,135.4v-0.9c-0.3-0.4-1-0.7-1.7-0.7c-0.8,0-1.5,0.4-1.5,1.1c0,0.8,0.7,1.1,1.5,1.1
			C2041.4,136.1,2042.2,135.9,2042.5,135.4z"/>
		<path class="st0" d="M2054.4,137.9v-5.6c0-1.2-0.6-1.6-1.6-1.6c-0.9,0-1.5,0.5-1.9,0.9v6.3h-3.1v-9.7h3.1v1.2
			c0.6-0.7,1.7-1.4,3.4-1.4c2.2,0,3.2,1.3,3.2,3.1v6.9H2054.4z"/>
		<path class="st0" d="M2059.1,133.1c0-3,2.3-5.1,5.3-5.1c2.1,0,3.4,0.9,4,1.8l-2,1.9c-0.4-0.6-1-0.9-1.8-0.9
			c-1.3,0-2.3,0.9-2.3,2.3c0,1.5,1,2.4,2.3,2.4c0.8,0,1.4-0.4,1.8-0.9l2,1.9c-0.6,0.8-1.9,1.8-4,1.8
			C2061.3,138.2,2059.1,136.1,2059.1,133.1z"/>
		<path class="st0" d="M2069.1,133.1c0-2.8,2.1-5.1,5.1-5.1c2.9,0,4.9,2.1,4.9,5.4v0.7h-6.9c0.2,0.9,1,1.7,2.4,1.7
			c0.7,0,1.9-0.3,2.4-0.8l1.3,1.9c-1,0.9-2.6,1.3-4.1,1.3C2071.4,138.2,2069.1,136.2,2069.1,133.1z M2074.2,130.4
			c-1.4,0-1.9,1-2,1.7h4C2076.2,131.4,2075.7,130.4,2074.2,130.4z"/>
		<path class="st0" d="M1839,155.9v-8.7h-2V146h2v-3.3h1.3v3.3h2.5v1.2h-2.5v8.5c0,1,0.4,1.7,1.3,1.7c0.6,0,1.1-0.3,1.4-0.6l0.5,1
			c-0.5,0.5-1.1,0.8-2.1,0.8C1839.8,158.6,1839,157.6,1839,155.9z"/>
		<path class="st0" d="M1853.9,158.2v-8.3c0-2.4-1.2-3-3-3c-1.6,0-3.2,1-4,2.1v9.2h-1.3v-16.9h1.3v6.5c0.9-1.1,2.6-2.2,4.4-2.2
			c2.5,0,3.8,1.2,3.8,3.9v8.6L1853.9,158.2L1853.9,158.2z"/>
		<path class="st0" d="M1859.3,158.2V146h1.3v2.1c1-1.4,2.4-2.4,4.1-2.4v1.4c-0.2-0.1-0.4-0.1-0.6-0.1c-1.2,0-2.9,1.1-3.5,2.2v8.9
			L1859.3,158.2L1859.3,158.2L1859.3,158.2z"/>
		<path class="st0" d="M1866.6,152.1c0-3.6,2.3-6.4,5.9-6.4c3.6,0,5.9,2.8,5.9,6.4c0,3.6-2.3,6.4-5.9,6.4
			C1869,158.6,1866.6,155.7,1866.6,152.1z M1877,152.1c0-2.7-1.6-5.2-4.5-5.2c-2.8,0-4.4,2.5-4.4,5.2c0,2.7,1.6,5.2,4.4,5.2
			C1875.4,157.4,1877,154.9,1877,152.1z"/>
		<path class="st0" d="M1890.1,158.2v-1.8c-1,1.1-2.6,2.1-4.4,2.1c-2.5,0-3.8-1.2-3.8-3.9V146h1.3v8.3c0,2.4,1.2,3,3,3
			c1.6,0,3.2-0.9,4-2V146h1.3v12.2L1890.1,158.2L1890.1,158.2z"/>
		<path class="st0" d="M1895.5,161.4l0.8-1c1.1,1.3,2.2,1.7,4.1,1.7c2.2,0,4.2-1.1,4.2-3.9v-1.9c-0.9,1.2-2.4,2.3-4.3,2.3
			c-3.2,0-5.5-2.5-5.5-6.4c0-3.9,2.2-6.4,5.5-6.4c1.7,0,3.3,0.9,4.3,2.3v-2h1.3v12.1c0,3.7-2.5,5.1-5.5,5.1
			C1898.2,163.2,1896.9,162.8,1895.5,161.4z M1904.5,155.1v-5.9c-0.7-1.2-2.3-2.2-4-2.2c-2.7,0-4.3,2.3-4.3,5.2c0,3,1.6,5.2,4.3,5.2
			C1902.1,157.3,1903.8,156.3,1904.5,155.1z"/>
		<path class="st0" d="M1918.1,158.2v-8.3c0-2.4-1.2-3-3-3c-1.6,0-3.2,1-4,2.1v9.2h-1.3v-16.9h1.3v6.5c0.9-1.1,2.6-2.2,4.4-2.2
			c2.5,0,3.8,1.2,3.8,3.9v8.6L1918.1,158.2L1918.1,158.2z"/>
		<path class="st0" d="M1930.1,158.2v-16.9h1.3v16.9H1930.1z"/>
		<path class="st0" d="M1934.8,152.1c0-3.5,2.5-6.4,5.9-6.4c3.7,0,5.8,3,5.8,6.5v0.4h-10.2c0.1,2.6,1.9,4.9,4.8,4.9
			c1.5,0,3-0.6,4-1.7l0.7,0.9c-1.2,1.3-2.8,2-4.8,2C1937.4,158.6,1934.8,155.9,1934.8,152.1z M1940.7,146.9c-2.9,0-4.3,2.5-4.4,4.7
			h8.9C1945.1,149.4,1943.7,146.9,1940.7,146.9z"/>
		<path class="st0" d="M1957.6,158.2v-1.4c-1.1,1.2-2.5,1.7-4.2,1.7c-2.1,0-4.3-1.4-4.3-4.1c0-2.6,2.2-4.1,4.3-4.1
			c1.7,0,3.1,0.6,4.2,1.7v-2.5c0-1.8-1.5-2.8-3.3-2.8c-1.5,0-2.7,0.5-3.8,1.8l-0.7-0.9c1.3-1.4,2.7-2.1,4.7-2.1
			c2.5,0,4.4,1.2,4.4,3.9v8.6H1957.6z M1957.6,155.9v-2.7c-0.9-1.1-2.2-1.7-3.7-1.7c-2,0-3.3,1.3-3.3,3c0,1.7,1.3,3,3.3,3
			C1955.4,157.5,1956.8,157,1957.6,155.9z"/>
		<path class="st0" d="M1963,158.2V146h1.3v2.1c1-1.4,2.4-2.4,4.1-2.4v1.4c-0.2-0.1-0.4-0.1-0.6-0.1c-1.2,0-2.9,1.1-3.5,2.2v8.9
			L1963,158.2L1963,158.2z"/>
		<path class="st0" d="M1979.3,158.2V150c0-2.4-1.2-3.1-3-3.1c-1.6,0-3.2,1-4,2.1v9.2h-1.3V146h1.3v1.8c0.9-1.1,2.6-2.2,4.4-2.2
			c2.5,0,3.8,1.2,3.8,4v8.5L1979.3,158.2L1979.3,158.2z"/>
		<path class="st0" d="M1984.4,143.1c0-0.6,0.5-1,1-1c0.6,0,1,0.4,1,1s-0.5,1-1,1C1984.8,144.1,1984.4,143.7,1984.4,143.1z
			 M1984.7,158.2V146h1.3v12.2H1984.7z"/>
		<path class="st0" d="M1998.4,158.2V150c0-2.4-1.2-3.1-3-3.1c-1.6,0-3.2,1-4,2.1v9.2h-1.3V146h1.3v1.8c0.9-1.1,2.6-2.2,4.4-2.2
			c2.5,0,3.8,1.2,3.8,4v8.5L1998.4,158.2L1998.4,158.2z"/>
		<path class="st0" d="M2003.8,161.4l0.8-1c1.1,1.3,2.2,1.7,4.1,1.7c2.2,0,4.2-1.1,4.2-3.9v-1.9c-0.9,1.2-2.4,2.3-4.3,2.3
			c-3.2,0-5.5-2.5-5.5-6.4c0-3.9,2.2-6.4,5.5-6.4c1.7,0,3.3,0.9,4.3,2.3v-2h1.3v12.1c0,3.7-2.5,5.1-5.5,5.1
			C2006.6,163.2,2005.3,162.8,2003.8,161.4z M2012.8,155.1v-5.9c-0.7-1.2-2.3-2.2-4-2.2c-2.7,0-4.3,2.3-4.3,5.2c0,3,1.6,5.2,4.3,5.2
			C2010.5,157.3,2012.1,156.3,2012.8,155.1z"/>
	</g>
</g>
</svg>
