<?xml version="1.0" encoding="utf-8"?>
<!-- Generator: Adobe Illustrator 19.0.0, SVG Export Plug-In . SVG Version: 6.00 Build 0)  -->
<svg version="1.1" id="Layer_1" xmlns="http://www.w3.org/2000/svg" xmlns:xlink="http://www.w3.org/1999/xlink" x="0px" y="0px"
	 viewBox="0 0 283.5 48.2" style="enable-background:new 0 0 283.5 48.2;" xml:space="preserve">
<style type="text/css">
	.st0{fill:#E2231A;}
	.st1{fill:#687079;}
	.st2{fill-rule:evenodd;clip-rule:evenodd;fill:#E2231A;}
	.st3{fill-rule:evenodd;clip-rule:evenodd;fill:#687079;}
</style>
<g>
	<path id="XMLID_45_" class="st0" d="M3.1,20c0.1-4.1,2.1-6.8,5.8-6.8c0.5,0,1.1,0.1,1.6,0.2v-2.4c-0.8,0-1.7-0.1-2.5,0
		c-2.1,0.1-4,1.6-4.8,3.8H3.1L3,11.5H0.4c0.1,1.4,0.3,3.1,0.2,4.8v16.4h2.5V20z"/>
</g>
<g>
	<rect id="XMLID_44_" x="13.4" y="2.2" class="st0" width="3" height="3.2"/>
	<rect id="XMLID_43_" x="13.6" y="11.5" class="st0" width="2.5" height="21.2"/>
</g>
<g>
	<path id="XMLID_42_" class="st0" d="M22.8,27.1c0,2.9-0.3,6.3,5.1,6.3c0.8,0,1.8-0.2,2.6-0.4v-2.2C29.7,31,29,31,28.2,31
		c-1.9,0-3-1.1-2.9-3V13.8h4.8v-2.3h-4.8V5.9L22.8,7v4.5h-4.2v2.3h4.2V27.1z"/>
</g>
<g>
	<path id="XMLID_41_" class="st0" d="M35.7,27.1c0,2.9-0.3,6.3,5.1,6.3c0.9,0,1.8-0.2,2.6-0.4v-2.2C42.7,31,41.9,31,41.2,31
		c-1.9,0-3-1.1-2.9-3V13.8h4.8v-2.3h-4.8V5.9L35.7,7v4.5h-4.2v2.3h4.2V27.1z"/>
</g>
<g>
	<path id="XMLID_40_" class="st0" d="M48.2,11.5h-2.6c0.1,1.4,0.2,3.1,0.2,4.8v16.4h2.5V20.5c0-3.8,1.9-7.3,6.1-7.3
		c3.5,0,5.6,2.1,5.6,5.8v13.7h2.5V20.5c0-3.8,1.9-7.3,6.1-7.3c3.5,0,5.6,2.1,5.6,5.8v13.7h2.5V19.5c0-2.4-0.5-8.6-7.5-8.6
		c-3.3,0-5.7,2.2-7.3,4.6c-0.9-2.8-3.5-4.6-6.9-4.6c-2.7,0-5.2,1.2-6.6,3.8l-0.1-0.1L48.2,11.5z"/>
</g>
<path class="st0" d="M92.7,19.7c-3.1,0.2-6.7-0.3-9.6,1c-2.5,1.1-4.3,3.3-4.3,6.1c0,4.1,3.1,6.5,7,6.5c2.9,0,5.7-1.7,6.6-3.5
	l0.1-0.3h0.1l0.1,3.1h2.6c-0.1-1.4-0.2-3.1-0.2-4.8v-10c0.1-4.9-2.8-7-7.5-7c-4.1,0-7.3,1.6-7.9,6h2.7c0.3-2.9,2.5-3.7,5.2-3.7
	c3,0,4.8,1.1,5,4.6V19.7z M81.6,26.8c0-5.3,7.5-4.6,11.1-4.8c0.3,4.4-0.8,9-6.3,9C83.8,31,81.6,29.7,81.6,26.8z"/>
<g>
	<path id="XMLID_37_" class="st0" d="M101.3,20.5c0-3.8,1.9-7.3,6.1-7.3c3.5,0,5.6,2.1,5.6,5.8v13.7h2.5V19.5c0-2.4-0.5-8.6-7.5-8.6
		c-2.7,0-5.1,1.2-6.6,3.8l-0.1-0.1l-0.1-3.1h-2.6c0.1,1.4,0.2,3.1,0.2,4.8v16.4h2.5V20.5z"/>
</g>
<path class="st1" d="M120.8,15.4c0-1.4-0.1-2.7-0.2-4h6l0.2,2.7c0.7-0.9,2.3-3.2,6.6-3.2c4.9,0,6.3,3,6.7,4c1.8-3.4,4.6-4,6.8-4
	c4.3,0,6,2.6,6.5,3.4c1.1,1.9,1.1,4.4,1.1,6.3v12h-6.3V20.2c0-2.3-0.3-4.8-3.6-4.8c-3.8,0-3.8,3.5-3.8,6.7v10.7h-6.3V20
	c0-1.6,0-4.7-3.5-4.7c-3.9,0-3.9,3.4-3.9,4.8v12.5h-6.3V15.4z"/>
<path class="st1" d="M162.9,23.6c0,1.4,0,5.7,4.3,5.7c1.6,0,3.1-0.6,3.7-3h5.7c-0.1,1-0.3,2.8-2,4.6c-1.6,1.6-4.4,2.5-7.5,2.5
	c-1.8,0-5.3-0.3-7.5-2.7c-1.9-2-2.8-4.9-2.8-8.3c0-3.5,0.8-7.6,4.4-10.1c1.7-1.1,3.7-1.8,6-1.8c3,0,6.7,1.2,8.6,5.1
	c1.4,2.9,1.4,6,1.3,7.8H162.9z M170.8,19.7c0-1-0.1-4.8-3.7-4.8c-2.7,0-3.9,2.3-4,4.8H170.8z"/>
<path class="st1" d="M193.1,32.7c-0.2-1.3-0.2-2.3-0.2-2.9c-2.4,3.4-5.2,3.4-6.4,3.4c-3.1,0-4.5-0.9-5.3-1.7c-1.3-1.3-1.9-3-1.9-4.7
	c0-1.7,0.6-4.8,4.5-6.6c2.6-1.2,6.4-1.2,8.4-1.2c0-1.4,0-2.1-0.3-2.8c-0.5-1.6-2.2-1.8-2.8-1.8c-0.9,0-1.8,0.4-2.4,1.2
	c-0.5,0.7-0.5,1.4-0.5,1.9h-6.1c0-1.1,0.2-3.4,2.4-5c1.9-1.4,4.4-1.7,6.5-1.7c1.8,0,5.5,0.3,7.6,2.7c1.4,1.7,1.5,4.3,1.5,5.2l0,8.6
	c0,1.8,0.1,3.6,0.5,5.4H193.1z M185.4,26.1c0,1.4,1,3,3,3c1.1,0,2.1-0.6,2.7-1.2c1.1-1.4,1.2-3,1.2-5.3
	C188.3,22.3,185.4,23.6,185.4,26.1z"/>
<path class="st1" d="M216.7,2.2h6.3v27c0,1.3,0.1,2.7,0.2,3.5h-6.3l-0.2-3.1c-0.4,0.8-0.8,1.6-2.2,2.4c-1.6,1-3.2,1.1-4.1,1.1
	c-5.7,0-9.1-3.9-9.1-10.6c0-7.1,3.8-11.4,9.4-11.4c3.8,0,5.4,2.2,6,2.9V2.2z M212,29.1c1.8,0,3.3-1.1,4-2.4c0.9-1.8,1-4,1-5
	c0-4.2-1.8-6.5-4.6-6.5c-4.2,0-4.6,5-4.6,7.2C207.7,25.9,208.8,29.1,212,29.1z"/>
<g>
	<circle id="XMLID_29_" class="st2" cx="244.5" cy="8.8" r="6.5"/>
	<path class="st2" d="M270.3,41.7C270.3,41.6,270.3,41.6,270.3,41.7c0-0.6-0.1-1.2-0.2-1.7c-0.1-0.6-0.1-1.2,0.1-1.8
		c0.3-0.6,0.7-1.1,1.1-1.6c0,0,0,0,0,0c0.1-0.1,0.2-0.2,0.3-0.3c0.1-0.1,0.2-0.2,0.3-0.3c0,0,0,0,0,0c0.4-0.4,0.9-0.8,1.6-1.1
		c0.6-0.2,1.2-0.2,1.7-0.2c2.2,0.6,4.6,0,6.3-1.7c2.5-2.5,2.5-6.6,0-9.2c-1.2-1.2-2.9-1.9-4.5-1.9l0,0c-0.2,0-0.4,0-0.5,0
		c-0.4,0-0.7,0.1-1.1,0.2c-0.6,0.1-1.2,0.2-1.9-0.1c-1-0.4-1.7-1.2-2.2-1.7c-0.2-0.2-0.9-0.7-0.9-0.7l0,0c-0.8-0.6-1.7-0.6-2.3,0
		c0,0,0,0,0,0c0,0,0,0,0,0c-0.6,0.6-0.6,1.7,0.1,2.5c0.2,0.2,0.5,0.5,0.6,0.7c0.6,0.6,1.3,1.2,1.7,2.2c0.3,0.7,0.2,1.3,0.1,1.9
		c-0.1,0.4-0.1,0.7-0.2,1.1c0,0.2,0,0.3,0,0.5l0,0c0,0.5,0.1,1.1,0.2,1.6c0.1,0.6,0.1,1.1-0.2,1.7c-0.3,0.6-0.7,1.1-1.1,1.6
		c0,0,0,0,0,0c-0.1,0.1-0.2,0.2-0.3,0.3c-0.1,0.1-0.2,0.2-0.3,0.3c0,0,0,0,0,0c-0.4,0.4-0.9,0.8-1.6,1.1c-0.6,0.3-1.2,0.2-1.8,0.1
		c-0.5-0.1-1-0.2-1.5-0.2l0,0c-0.1,0-0.1,0-0.2,0c0,0,0,0,0,0l0,0c-0.1,0-0.2,0-0.3,0c-0.4,0-0.7,0.1-1.1,0.2
		c-0.6,0.1-1.2,0.2-1.9-0.1c-1-0.4-1.7-1.2-2.2-1.7c-0.2-0.2-0.9-0.7-0.9-0.7l0,0c-0.8-0.6-1.7-0.6-2.3,0c0,0,0,0,0,0c0,0,0,0,0,0
		c-0.6,0.6-0.6,1.7,0.1,2.5c0.2,0.2,0.5,0.5,0.6,0.7c0.6,0.6,1.3,1.2,1.7,2.2c0.3,0.7,0.2,1.3,0.1,1.9c-0.1,0.4-0.1,0.7-0.2,1.1
		c0,0.2,0,0.3,0,0.5l0,0c0,1.6,0.6,3.3,1.9,4.5c2.5,2.5,6.6,2.5,9.2,0C269.6,44.9,270.2,43.3,270.3,41.7L270.3,41.7z"/>
	<path class="st3" d="M255.7,26c0.4,0,0.7-0.1,1.1-0.2c0.6-0.1,1.2-0.2,1.9,0.1c1,0.4,1.7,1.2,2.2,1.7c0.2,0.2,0.9,0.7,0.9,0.7l0,0
		c0.8,0.6,1.7,0.6,2.3,0c0.6-0.6,0.6-1.6,0-2.3l0,0c0,0-0.5-0.6-0.7-0.9c-0.6-0.6-1.3-1.2-1.7-2.2c-0.3-0.7-0.2-1.3-0.1-1.9
		c0.1-0.4,0.1-0.7,0.2-1.1c0-0.2,0-0.5,0-0.5c0-0.5-0.1-1.1-0.2-1.6c-0.1-0.6-0.1-1.1,0.2-1.7c0.3-0.6,0.7-1.1,1.1-1.6c0,0,0,0,0,0
		c0.1-0.1,0.2-0.2,0.3-0.3c0.1-0.1,0.2-0.2,0.3-0.3c0,0,0,0,0,0c0.4-0.4,0.9-0.8,1.6-1.1c0.6-0.3,1.2-0.2,1.8-0.1
		c0.5,0.1,1,0.2,1.5,0.2c0,0,0.1,0,0.2,0c0,0,0.2,0,0.4,0c0.4,0,0.7-0.1,1.1-0.2c0.6-0.1,1.2-0.2,1.9,0.1c1,0.4,1.7,1.2,2.2,1.7
		c0.2,0.2,0.9,0.7,0.9,0.7l0,0c0.8,0.6,1.7,0.6,2.3,0c0.6-0.6,0.6-1.6,0-2.3l0,0c0,0-0.5-0.6-0.7-0.9c-0.6-0.6-1.3-1.2-1.7-2.2
		c-0.3-0.7-0.2-1.3-0.1-1.9c0.1-0.4,0.1-0.7,0.2-1.1c0-0.2,0-0.5,0-0.5c0-1.6-0.6-3.3-1.9-4.5c-2.5-2.5-6.6-2.5-9.2,0
		c-1.2,1.2-1.9,2.9-1.9,4.5c0,0,0,0,0,0.1c0,0.5,0.1,1.1,0.2,1.6c0.1,0.6,0.1,1.2-0.1,1.8c-0.3,0.6-0.7,1.1-1.1,1.6c0,0,0,0,0,0
		c-0.1,0.1-0.2,0.2-0.3,0.3c-0.1,0.1-0.2,0.2-0.3,0.3c0,0,0,0,0,0c-0.4,0.4-0.9,0.8-1.6,1.1c-0.6,0.2-1.2,0.2-1.7,0.2
		c-2.2-0.6-4.6,0-6.3,1.7c-1.2,1.2-1.9,2.9-1.9,4.5c0,0,0,0,0,0c0,0.6,0.1,1.1,0.2,1.7c0.1,0.6,0.1,1.1-0.1,1.8
		c-0.3,0.6-0.7,1.1-1.1,1.6c0,0,0,0,0,0c-0.1,0.1-0.2,0.2-0.3,0.3c-0.1,0.1-0.2,0.2-0.3,0.3c0,0,0,0,0,0c-0.4,0.4-0.9,0.8-1.6,1.1
		c-0.6,0.3-1.2,0.2-1.8,0.1c-0.5-0.1-1.1-0.2-1.6-0.2c0,0-0.1,0-0.1,0c-1.6,0-3.2,0.7-4.5,1.9c-2.5,2.5-2.5,6.6,0,9.2
		c1.2,1.2,2.9,1.9,4.5,1.9l0,0c0.2,0,0.3,0,0.5,0c0.4,0,0.7-0.1,1.1-0.2c0.6-0.1,1.2-0.2,1.9,0.1c1,0.4,1.7,1.2,2.2,1.7
		c0.2,0.2,0.9,0.7,0.9,0.7l0,0c0.8,0.6,1.7,0.6,2.3,0c0.6-0.6,0.6-1.6,0-2.3l0,0c0,0-0.5-0.6-0.7-0.9c-0.6-0.6-1.3-1.2-1.7-2.2
		c-0.3-0.7-0.2-1.3-0.1-1.9c0.1-0.4,0.1-0.7,0.2-1.1c0-0.1,0-0.2,0-0.3l0,0c0,0,0,0,0,0c0-0.1,0-0.2,0-0.2c0-0.5-0.1-1-0.2-1.5
		c-0.1-0.6-0.1-1.2,0.1-1.8c0.3-0.6,0.7-1.1,1.1-1.6c0,0,0,0,0,0c0.1-0.1,0.2-0.2,0.3-0.3c0.1-0.1,0.2-0.2,0.3-0.3c0,0,0,0,0,0
		c0.4-0.4,0.9-0.8,1.6-1.1c0.6-0.3,1.2-0.2,1.8-0.1c0.5,0.1,1,0.2,1.6,0.2C255.2,26.1,255.6,26.1,255.7,26z"/>
</g>
<g>
	<path class="st1" d="M0.5,48v-7.6h1.1V48H0.5z"/>
	<path class="st1" d="M14.8,40.4V48h-1.3l-3.9-6.5h0V48H8.6v-7.6h1.4l3.7,6.3h0v-6.3H14.8z"/>
	<path class="st1" d="M23.6,41.3H21v-0.9h6.2v0.9h-2.6V48h-1.1V41.3z"/>
	<path class="st1" d="M33.7,48v-7.6h4.8v0.9h-3.7v2.4h3.6v0.9h-3.6v2.5h3.8V48H33.7z"/>
	<path class="st1" d="M50.1,42.3c-0.2-0.9-1-1.2-1.8-1.2c-1.9,0-2.5,1.6-2.5,3.1c0.1,2,0.7,3,2.9,3.1c0.5,0,1-0.1,1.5-0.2v-2.2h-1.7
		V44h2.8v3.8c-0.9,0.3-1.8,0.4-2.6,0.4c-1.1,0-2-0.1-2.8-0.9c-0.8-0.7-1.1-2-1.1-3.1c0-0.8,0.3-1.7,0.7-2.3c0.7-1.2,1.8-1.6,3.1-1.6
		c1.3,0,2.7,0.6,2.8,2.1H50.1z"/>
	<path class="st1" d="M59.2,44.6V48h-1.1v-7.6h2.7c1.3,0,2.6,0.4,2.6,1.9c0,0.9-0.5,1.6-1.4,1.8v0c0.9,0.2,1,0.7,1.2,1.6
		c0.1,0.8,0.2,1.6,0.5,2.3h-1.1c-0.1-0.5-0.2-1-0.3-1.4c-0.1-0.7-0.1-1.3-0.4-1.7c-0.3-0.3-0.7-0.3-1.2-0.3H59.2z M59.2,43.7h1.7
		c1.2-0.1,1.4-0.6,1.4-1.2c0-0.6-0.3-1.1-1.4-1.2h-1.7V43.7z"/>
	<path class="st1" d="M69.5,48l3.2-7.6h1.1l3.1,7.6h-1.2l-0.8-2h-3.5l-0.8,2H69.5z M71.7,45.1h2.8l-1.4-3.7L71.7,45.1z"/>
	<path class="st1" d="M84,41.3h-2.6v-0.9h6.2v0.9h-2.6V48H84V41.3z"/>
	<path class="st1" d="M93.6,48v-7.6h4.8v0.9h-3.7v2.4h3.6v0.9h-3.6v2.5h3.8V48H93.6z"/>
	<path class="st1" d="M105.3,40.4h2.5c0.7,0,1.5,0.1,2.1,0.5c1.1,0.7,1.6,1.9,1.6,3.3c0,1.4-0.5,2.6-1.6,3.3
		c-0.6,0.4-1.4,0.4-2.1,0.5h-2.5V40.4z M106.3,47.1h1.5c1.1,0,1.6-0.4,1.9-0.9c0.5-0.7,0.6-1.3,0.6-2c0-0.7-0.1-1.4-0.6-2
		c-0.3-0.4-0.9-0.9-1.9-0.9h-1.5V47.1z"/>
	<path class="st1" d="M125.2,48l3.2-7.6h1.1l3.1,7.6h-1.2l-0.8-2h-3.5l-0.8,2H125.2z M127.4,45.1h2.8l-1.4-3.7L127.4,45.1z"/>
	<path class="st1" d="M144.7,40.4V48h-1.3l-3.9-6.5h0V48h-0.9v-7.6h1.4l3.7,6.3h0v-6.3H144.7z"/>
	<path class="st1" d="M150.7,48l3.2-7.6h1.1l3.1,7.6H157l-0.8-2h-3.5l-0.8,2H150.7z M153,45.1h2.8l-1.4-3.7L153,45.1z"/>
	<path class="st1" d="M164.3,48v-7.6h1.1v6.7h3.5V48H164.3z"/>
	<path class="st1" d="M177,44.1l2.3-3.7h1.2l-3,4.9V48h-1.1v-2.7l-3-4.9h1.2L177,44.1z"/>
	<path class="st1" d="M188.3,41.3h-2.6v-0.9h6.2v0.9h-2.6V48h-1.1V41.3z"/>
	<path class="st1" d="M198.1,48v-7.6h1.1V48H198.1z"/>
	<path class="st1" d="M210.7,42.4c-0.1-0.7-0.8-1.2-1.6-1.2c-1.9,0-2.2,1.7-2.2,3.1c0,1.6,0.5,3.1,2.1,3.1c0.8,0,1.6-0.4,1.7-1.2
		h1.1c-0.1,1.3-1.4,2.1-2.9,2.1c-2.3,0-3.1-1.8-3.1-4c0-1.9,0.8-4,3.4-4c1.5,0,2.6,0.8,2.7,2.1H210.7z"/>
	<path class="st1" d="M218.5,45.8c0,1.1,0.6,1.5,1.7,1.5c0.9,0,1.9-0.3,1.9-1.3c0-0.7-0.6-1-1.2-1.2c-1.3-0.3-3.3-0.6-3.3-2.3
		c0-1.7,1.5-2.3,2.9-2.3c1.3,0,2.6,0.6,2.6,2.1h-1.1c0-0.9-0.8-1.2-1.5-1.2c-0.8,0-1.8,0.3-1.8,1.2c0,0.9,0.6,0.9,1.3,1.1
		c1.4,0.5,3.3,0.5,3.3,2.4c0,1.7-1.6,2.3-3.1,2.3c-1.6,0-2.8-0.7-2.7-2.4H218.5z"/>
</g>
</svg>
