<?xml version="1.0" encoding="utf-8"?>
<!-- Generator: Adobe Illustrator 19.0.0, SVG Export Plug-In . SVG Version: 6.00 Build 0)  -->
<svg version="1.1" id="Layer_1" xmlns="http://www.w3.org/2000/svg" xmlns:xlink="http://www.w3.org/1999/xlink" x="0px" y="0px"
	 viewBox="0 0 1222.7 346.9" style="enable-background:new 0 0 1222.7 346.9;" xml:space="preserve">
<style type="text/css">
	.st0{fill:#FFFFFF;}
</style>
<polygon class="st0" points="173.4,119.9 173.4,119.9 173.4,119.9 "/>
<path class="st0" d="M1072.8,210.7c1.3-0.4,2.6-0.8,3.9-1.1C1075.3,209.9,1074,210.3,1072.8,210.7z"/>
<path class="st0" d="M180.2,132.2c-9.5,31.9-30.5,57.5-57,72.4c-16.3,9.1-34.7,14.2-53.7,14.1c15.5,6.4,31.9,11.1,48.9,14.2
	c34,6,67.6,4.4,99.5-3.6c0,0,0,0,0,0c1.2-19.8,0.4-39.3-2.4-58.3C206.8,155.4,194.8,142,180.2,132.2z"/>
<path class="st0" d="M116.5,192.2c-19.8-23-30.8-54.3-28.8-87.5c0.3-4.9,0.9-9.7,1.7-14.7c2.4-13.5,6.8-26.1,12.8-37.5
	c-38,33.3-67.4,78-83,130.3c0,0.1,0,0.1,0.1,0.2c13.6,9.2,28.1,17,43.5,23.3C81.8,206.4,100.2,201.3,116.5,192.2z"/>
<path class="st0" d="M100.9,103.1c14.2-3.6,29.3-4.3,44.5-1.6c15.2,2.7,29.2,8.5,41.3,16.8c14.6,9.9,26.6,23.2,35.3,38.8
	c-7.6-52.1-29.5-99.8-62-137.6c-15.8,8.9-30.7,19.4-44.5,31.5c-6,11.4-10.4,24-12.8,37.5C101.8,93.3,101.2,98.2,100.9,103.1z"/>
<g>
	<path class="st0" d="M526.8,148.2h-23.6v-1.5c0-5.8-1.3-10.6-3.9-14.5c-2.6-3.9-6.4-5.8-11.2-5.8c-10.9,0-16.6,10.6-17,31.9
		c-0.1,11.3,2.1,20.9,6.8,28.6c5,8.2,11.5,12.2,19.7,12.2c8.7,0,17.3-4.4,25.7-13.1l0.4,17.4c-8.7,8-20.6,12-35.7,12
		c-14.7,0-26.4-4.2-35.3-12.5c-8.8-8.4-13.3-20.3-13.3-35.8c0-16.2,4.4-28.7,13.3-37.4c8.8-8.8,20.6-13.2,35.3-13.2
		c10.5,0,19.6,2.9,27.3,8.7c7.7,5.8,11.5,12.9,11.5,21.4V148.2z"/>
	<path class="st0" d="M627.8,155.7l-55.6,11.8c0.3,8.3,2.6,15.5,7.1,21.6c5,6.8,11.4,10.2,19.3,10.2c8.7,0,17.3-4.5,25.7-13.5
		l0.2,17.8c-8.6,8-20.4,12-35.5,12c-14.7,0-26.3-4.1-35-12.4c-9.1-8.4-13.7-20.4-13.7-35.9c0-16.2,4.6-28.7,13.7-37.5
		c8.7-8.7,20.4-13.1,35-13.1c11.1,0,20.2,3.9,27.4,11.8C622.9,135.6,626.7,144.6,627.8,155.7z M605.2,149.5
		c-1.5-15.3-6.9-23-16.2-23c-10.2,0-15.8,10-16.8,30.1L605.2,149.5z"/>
	<path class="st0" d="M806.7,213.7c-6.9,1.2-11.8,1.9-14.5,1.9c-26.7,0-40-8.8-40-26.3v-57.9H737v-13.1h15.1v-17.4l31.7-5.8v23.2
		h19.7v13.1h-19.7v51.8c0,7.2,0.7,11.8,2.1,13.9c1.7,2.6,5.7,3.9,12,3.9c1.4,0,4.3-0.3,8.7-0.8V213.7z"/>
	<path class="st0" d="M1090.7,155.7l-55.6,11.8c0.3,8.3,2.6,15.5,7.1,21.6c5,6.8,11.4,10.2,19.3,10.2c8.7,0,17.3-4.5,25.7-13.5
		l0.2,17.8c-8.6,8-20.4,12-35.5,12c-14.7,0-26.3-4.1-35-12.4c-9.1-8.4-13.7-20.4-13.7-35.9c0-16.2,4.6-28.7,13.7-37.5
		c8.7-8.7,20.4-13.1,35-13.1c11.1,0,20.2,3.9,27.4,11.8C1085.7,135.6,1089.5,144.6,1090.7,155.7z M1068,149.5
		c-1.5-15.3-6.9-23-16.2-23c-10.2,0-15.8,10-16.8,30.1L1068,149.5z"/>
	<path class="st0" d="M1184.9,183.5c0,11.1-4.7,19.4-14.1,24.9c-8,4.8-18.9,7.3-32.8,7.3c-9.3,0-20.7-1.3-34.2-3.9v-15.3
		c14.8,3.3,26.5,5,35,5c11.8,0,17.6-2.1,17.6-6.4c0-2.5-4.6-6.1-13.9-10.8c-13.3-6.8-21.7-11.5-25.3-14.1
		c-9.3-6.5-13.9-13.1-13.9-19.9c0-9.5,3.5-17.1,10.4-22.6c7.6-6.1,18.7-9.1,33.4-9.1c7.9,0,18.1,1.2,30.7,3.7V137
		c-13-3.6-23.8-5.4-32.6-5.4c-3.5,0-6.5,0.7-9.2,2.1c-2.7,1.4-4,2.9-4,4.6c0,1.9,4.6,5.3,13.7,10.2c12.4,6.8,20.9,11.8,25.3,15.1
		C1180.2,170.3,1184.9,177,1184.9,183.5z"/>
</g>
<path class="st0" d="M293.9,110.5c4.1,0,7.7-1.4,10.7-4.3c3-2.9,4.5-6.4,4.5-10.5c0-4.1-1.5-7.6-4.5-10.4c-3-2.8-6.6-4.2-10.7-4.2
	c-4.1,0-7.6,1.4-10.3,4.2c-2.8,2.8-4.1,6.3-4.1,10.4c0,4.1,1.4,7.6,4.1,10.5C286.4,109.1,289.8,110.5,293.9,110.5z"/>
<polygon class="st0" points="278.5,121.2 278.5,147.2 278.5,165.4 278.5,213.3 310.4,213.3 310.4,115.5 "/>
<g>
	<path class="st0" d="M415.5,132.5c-6.8-9.1-15.9-13.7-27.4-13.7c-11.6,0-20.8,2.5-27.6,7.5v-10.8l-31.9,5.7v26v24.7v41.4h31.9
		v-57.2c0-7.2,1.6-13,4.8-17.4c3.6-5,8.6-7.5,15.1-7.5c5.4,0,8.8,3,10.4,9.1c0.7,2.6,1,7.7,1,15.3v57.7h31.9v-57
		C423.8,147.7,421.1,139.8,415.5,132.5z"/>
</g>
<g>
	<path class="st0" d="M685.8,132.2c-7.2,0-10.8,11.2-10.8,33.6v7.3c0,18.7,3.6,28,10.8,28c11.3,0,17-11.7,17-35.3
		C702.8,143.4,697.1,132.2,685.8,132.2z"/>
	<path class="st0" d="M722.7,132.5c-8-9.1-18.2-13.7-30.7-13.7c-7.1,0-12.7,2.4-17,7.3v-10.6l-31.9,5.7v26v25.5v80.1H675v-42.3
		c4.7,3.5,10.1,5.2,16.2,5.2c13.7,0,24.5-5.3,32.6-15.8c7.3-9.4,11-20.7,11-34C734.7,152.7,730.7,141.6,722.7,132.5z M685.8,201.1
		c-7.2,0-10.8-9.3-10.8-28v-7.3c0-22.4,3.6-33.6,10.8-33.6c11.3,0,17,11.2,17,33.6C702.8,189.3,697.1,201.1,685.8,201.1z"/>
</g>
<g>
	<path class="st0" d="M883.9,121.1v26v13.6v16.1c0,7.1-1.7,12.8-5.2,17.2c-3.6,4.8-8.6,7.3-14.9,7.3c-5.4,0-8.8-3-10.4-8.9
		c-0.6-2.6-0.8-7.7-0.8-15.3v-61.6l-31.9,5.7v26v17.2v13.5c0,8.7,2.7,16.7,8.1,24.1c6.6,9,15.8,13.5,27.4,13.5
		c11.9,0,21.2-2.4,27.8-7.3v5.2h31.9v-97.9L883.9,121.1z"/>
</g>
<g>
	<path class="st0" d="M988.4,116.1c-10.6,0-18.2,3.5-22.8,10.6v-11.2l-31.9,5.7v26v17.2v48.9h31.9v-53.5c0-7.3,1.2-12.6,3.7-15.8
		c3-4.1,8.8-6.2,17.2-6.2c2.4,0,5.3,2.1,8.9,6.2v-26.3C992.4,116.6,990,116.1,988.4,116.1z"/>
</g>
<g>
	<path class="st0" d="M594.8,318.4l-33.1-14.5v-3.4l33.1-16.5v5.1l-27,12.8l27,11.3V318.4z"/>
	<path class="st0" d="M641.2,313.4c0,4.4-1.6,7.9-4.8,10.4c-3.2,2.5-7.6,3.7-13.1,3.7c-6,0-10.6-0.8-13.8-2.3v-5.7
		c2.1,0.9,4.3,1.6,6.8,2.1c2.4,0.5,4.8,0.8,7.2,0.8c3.9,0,6.8-0.7,8.8-2.2c2-1.5,3-3.5,3-6.2c0-1.7-0.4-3.2-1.1-4.3
		c-0.7-1.1-1.9-2.1-3.5-3.1c-1.6-0.9-4.1-2-7.5-3.2c-4.7-1.7-8-3.7-10-6s-3-5.3-3-9c0-3.9,1.5-7,4.4-9.3c2.9-2.3,6.8-3.4,11.6-3.4
		c5,0,9.6,0.9,13.8,2.8l-1.8,5.1c-4.2-1.7-8.2-2.6-12.1-2.6c-3.1,0-5.5,0.7-7.3,2c-1.7,1.3-2.6,3.2-2.6,5.5c0,1.7,0.3,3.2,1,4.3
		c0.6,1.1,1.7,2.1,3.3,3.1s3.9,2,7,3.1c5.3,1.9,8.9,3.9,10.9,6.1C640.2,307.1,641.2,309.9,641.2,313.4z"/>
	<path class="st0" d="M683.2,307.9c0,6.2-1.6,11-4.7,14.4c-3.1,3.5-7.4,5.2-12.9,5.2c-3.4,0-6.4-0.8-9-2.4s-4.6-3.9-6.1-6.8
		s-2.1-6.4-2.1-10.4c0-6.2,1.5-11,4.6-14.4c3.1-3.4,7.4-5.2,12.8-5.2c5.3,0,9.5,1.8,12.6,5.3C681.7,297.1,683.2,301.9,683.2,307.9z
		 M654.5,307.9c0,4.8,1,8.5,2.9,11c1.9,2.5,4.8,3.8,8.5,3.8c3.7,0,6.6-1.3,8.5-3.8s2.9-6.2,2.9-11c0-4.8-1-8.5-2.9-10.9
		c-1.9-2.5-4.8-3.7-8.6-3.7c-3.7,0-6.6,1.2-8.5,3.7C655.4,299.3,654.5,303,654.5,307.9z"/>
	<path class="st0" d="M710.3,293.4h-9.6v33.3H695v-33.3h-6.8v-2.6l6.8-2.1v-2.1c0-9.3,4.1-13.9,12.2-13.9c2,0,4.3,0.4,7,1.2
		l-1.5,4.6c-2.2-0.7-4.1-1.1-5.7-1.1c-2.2,0-3.8,0.7-4.8,2.2s-1.6,3.7-1.6,6.9v2.4h9.6V293.4z"/>
	<path class="st0" d="M729.4,322.7c1,0,2-0.1,2.9-0.2c0.9-0.1,1.7-0.3,2.2-0.5v4.4c-0.6,0.3-1.5,0.5-2.7,0.7
		c-1.2,0.2-2.3,0.3-3.3,0.3c-7.3,0-11-3.8-11-11.5v-22.5h-5.4v-2.8l5.4-2.4l2.4-8.1h3.3v8.8h11v4.4h-11v22.2c0,2.3,0.5,4,1.6,5.2
		C726,322.1,727.5,322.7,729.4,322.7z"/>
	<path class="st0" d="M773,326.8l-6.9-22.2c-0.4-1.4-1.3-4.4-2.4-9.2h-0.3c-0.9,4-1.7,7.1-2.4,9.3l-7.1,22.1h-6.6L736.8,289h6
		c2.4,9.5,4.3,16.7,5.6,21.7c1.3,5,2,8.3,2.2,10h0.3c0.3-1.3,0.7-3,1.2-5.1c0.6-2.1,1.1-3.7,1.5-4.9l6.9-21.7h6.2l6.8,21.7
		c1.3,4,2.2,7.3,2.6,10h0.3c0.1-0.8,0.3-2.1,0.7-3.8s2.8-11,7.2-27.8h5.9l-10.4,37.8H773z"/>
	<path class="st0" d="M820.3,326.8l-1.1-5.4h-0.3c-1.9,2.4-3.8,4-5.6,4.8c-1.9,0.8-4.2,1.3-7,1.3c-3.7,0-6.7-1-8.8-2.9
		c-2.1-1.9-3.2-4.7-3.2-8.2c0-7.6,6.1-11.6,18.3-12l6.4-0.2v-2.3c0-3-0.6-5.2-1.9-6.6c-1.3-1.4-3.3-2.1-6.1-2.1
		c-3.1,0-6.7,1-10.7,2.9l-1.8-4.4c1.9-1,3.9-1.8,6.1-2.4s4.4-0.9,6.7-0.9c4.5,0,7.8,1,10,3c2.2,2,3.3,5.2,3.3,9.6v25.8H820.3z
		 M807.3,322.7c3.6,0,6.4-1,8.4-2.9c2-2,3.1-4.7,3.1-8.2v-3.4l-5.7,0.2c-4.6,0.2-7.8,0.9-9.8,2.1c-2,1.3-3,3.2-3,5.8
		c0,2.1,0.6,3.6,1.9,4.7S805.1,322.7,807.3,322.7z"/>
	<path class="st0" d="M853.5,288.3c1.7,0,3.2,0.1,4.5,0.4l-0.8,5.3c-1.6-0.3-2.9-0.5-4.1-0.5c-3.1,0-5.7,1.2-7.8,3.7
		c-2.2,2.5-3.3,5.6-3.3,9.3v20.3h-5.7V289h4.7l0.7,7h0.3c1.4-2.5,3.1-4.4,5.1-5.7C849,289,851.2,288.3,853.5,288.3z"/>
	<path class="st0" d="M881.1,327.5c-5.6,0-10-1.7-13.2-5.1s-4.8-8.1-4.8-14.2c0-6.1,1.5-10.9,4.5-14.5c3-3.6,7-5.4,12.1-5.4
		c4.7,0,8.5,1.6,11.2,4.7s4.1,7.2,4.1,12.3v3.6h-26c0.1,4.4,1.2,7.8,3.4,10.1c2.1,2.3,5.1,3.4,9,3.4c4.1,0,8.1-0.8,12.1-2.6v5.1
		c-2,0.9-3.9,1.5-5.7,1.9C885.8,327.3,883.6,327.5,881.1,327.5z M879.5,293.1c-3,0-5.5,1-7.3,3c-1.8,2-2.9,4.7-3.2,8.2h19.8
		c0-3.6-0.8-6.4-2.4-8.3S882.5,293.1,879.5,293.1z"/>
	<path class="st0" d="M952.4,313.4c0,4.4-1.6,7.9-4.8,10.4c-3.2,2.5-7.6,3.7-13.1,3.7c-6,0-10.6-0.8-13.8-2.3v-5.7
		c2.1,0.9,4.3,1.6,6.8,2.1c2.4,0.5,4.8,0.8,7.2,0.8c3.9,0,6.8-0.7,8.8-2.2c2-1.5,3-3.5,3-6.2c0-1.7-0.4-3.2-1.1-4.3
		c-0.7-1.1-1.9-2.1-3.5-3.1c-1.6-0.9-4.1-2-7.5-3.2c-4.7-1.7-8-3.7-10-6s-3-5.3-3-9c0-3.9,1.5-7,4.4-9.3c2.9-2.3,6.8-3.4,11.6-3.4
		c5,0,9.6,0.9,13.8,2.8l-1.8,5.1c-4.2-1.7-8.2-2.6-12.1-2.6c-3.1,0-5.5,0.7-7.3,2c-1.7,1.3-2.6,3.2-2.6,5.5c0,1.7,0.3,3.2,1,4.3
		c0.6,1.1,1.7,2.1,3.3,3.1s3.9,2,7,3.1c5.3,1.9,8.9,3.9,10.9,6.1C951.4,307.1,952.4,309.9,952.4,313.4z"/>
	<path class="st0" d="M976.9,327.5c-5.5,0-9.7-1.7-12.7-5c-3-3.4-4.5-8.1-4.5-14.3c0-6.3,1.5-11.2,4.6-14.7c3-3.4,7.4-5.2,13-5.2
		c1.8,0,3.6,0.2,5.4,0.6s3.2,0.9,4.3,1.4l-1.8,4.9c-1.3-0.5-2.6-0.9-4.1-1.3s-2.8-0.5-4-0.5c-7.7,0-11.5,4.9-11.5,14.7
		c0,4.6,0.9,8.2,2.8,10.7s4.6,3.7,8.3,3.7c3.1,0,6.4-0.7,9.7-2v5.1C983.9,326.8,980.8,327.5,976.9,327.5z"/>
	<path class="st0" d="M1021.3,326.8v-24.4c0-3.1-0.7-5.4-2.1-6.9c-1.4-1.5-3.6-2.3-6.6-2.3c-4,0-6.9,1.1-8.7,3.2
		c-1.8,2.2-2.7,5.7-2.7,10.6v19.8h-5.7v-53.6h5.7v16.2c0,2-0.1,3.6-0.3,4.9h0.3c1.1-1.8,2.7-3.2,4.8-4.3c2.1-1,4.5-1.6,7.1-1.6
		c4.6,0,8.1,1.1,10.4,3.3s3.5,5.7,3.5,10.5v24.6H1021.3z"/>
	<path class="st0" d="M1071.4,307.9c0,6.2-1.6,11-4.7,14.4c-3.1,3.5-7.4,5.2-12.9,5.2c-3.4,0-6.4-0.8-9-2.4s-4.6-3.9-6.1-6.8
		s-2.1-6.4-2.1-10.4c0-6.2,1.5-11,4.6-14.4c3.1-3.4,7.4-5.2,12.8-5.2c5.3,0,9.5,1.8,12.6,5.3
		C1069.8,297.1,1071.4,301.9,1071.4,307.9z M1042.6,307.9c0,4.8,1,8.5,2.9,11c1.9,2.5,4.8,3.8,8.5,3.8c3.7,0,6.6-1.3,8.5-3.8
		s2.9-6.2,2.9-11c0-4.8-1-8.5-2.9-10.9c-1.9-2.5-4.8-3.7-8.6-3.7c-3.7,0-6.6,1.2-8.5,3.7C1043.5,299.3,1042.6,303,1042.6,307.9z"/>
	<path class="st0" d="M1114,307.9c0,6.2-1.6,11-4.7,14.4c-3.1,3.5-7.4,5.2-12.9,5.2c-3.4,0-6.4-0.8-9-2.4s-4.6-3.9-6.1-6.8
		s-2.1-6.4-2.1-10.4c0-6.2,1.5-11,4.6-14.4c3.1-3.4,7.4-5.2,12.8-5.2c5.3,0,9.5,1.8,12.6,5.3C1112.5,297.1,1114,301.9,1114,307.9z
		 M1085.2,307.9c0,4.8,1,8.5,2.9,11c1.9,2.5,4.8,3.8,8.5,3.8c3.7,0,6.6-1.3,8.5-3.8s2.9-6.2,2.9-11c0-4.8-1-8.5-2.9-10.9
		c-1.9-2.5-4.8-3.7-8.6-3.7c-3.7,0-6.6,1.2-8.5,3.7C1086.2,299.3,1085.2,303,1085.2,307.9z"/>
	<path class="st0" d="M1129.8,326.8h-5.7v-53.6h5.7V326.8z"/>
	<path class="st0" d="M1166,276.4l-18.8,50.4h-5.7l18.8-50.4H1166z"/>
	<path class="st0" d="M1170.3,313.2l27-11.2l-27-12.9V284l33.1,16.5v3.4l-33.1,14.5V313.2z"/>
</g>
</svg>
