<?xml version="1.0" encoding="utf-8"?>
<!-- Generator: Adobe Illustrator 19.0.0, SVG Export Plug-In . SVG Version: 6.00 Build 0)  -->
<svg version="1.1" id="Layer_1" xmlns="http://www.w3.org/2000/svg" xmlns:xlink="http://www.w3.org/1999/xlink" x="0px" y="0px"
	 viewBox="0 0 283.5 102" style="enable-background:new 0 0 283.5 102;" xml:space="preserve">
<style type="text/css">
	.st0{fill:#FFFFFF;}
	.st1{fill:#FFFFFF;enable-background:new    ;}
</style>
<g>
	<polyline class="st0" points="80.9,3 80.9,61 30.9,3 1.4,3 1.4,98.9 1.5,99 31,99 30.9,41 80.9,99 110.4,51 80.9,3 	"/>
	<path class="st1" d="M247.2,3h-42.1l-29.5,48l29.5,48h0l0-21.2h49.8c20.9,0,27.2-16.4,27.2-30.7V35.8C282,17,275.3,3,247.2,3z
		 M254.5,41.8c0,5.7-2.7,12.2-9.6,12.2h-39.8V26.8h37.3c8.9,0,12.1,3.7,12.1,10.2V41.8z"/>
	<polyline class="st0" points="168.3,3 162.9,3 143,34.9 123.1,3 117.6,3 88.2,3 117.6,51 88.2,99 117.7,99 123.1,99 143,67.1 
		162.9,99 168.3,99 197.8,99 168.3,51 197.8,3 168.3,3 	"/>
</g>
</svg>
