<?xml version="1.0" encoding="utf-8"?>
<!-- Generator: Adobe Illustrator 19.0.0, SVG Export Plug-In . SVG Version: 6.00 Build 0)  -->
<svg version="1.1" id="Layer_1" xmlns="http://www.w3.org/2000/svg" xmlns:xlink="http://www.w3.org/1999/xlink" x="0px" y="0px"
	 viewBox="0 0 56.7 56.7" style="enable-background:new 0 0 56.7 56.7;" xml:space="preserve">
<style type="text/css">
	.st0{fill-rule:evenodd;clip-rule:evenodd;}
</style>
<circle id="XMLID_29_" class="st0" cx="10.7" cy="10.4" r="7.6"/>
<path class="st0" d="M40.9,49.1C40.9,49,40.9,49,40.9,49.1c0-0.7-0.1-1.4-0.2-2c-0.1-0.7-0.2-1.4,0.2-2.1c0.3-0.7,0.8-1.3,1.3-1.8
	c0,0,0,0,0,0c0.1-0.1,0.2-0.2,0.4-0.4c0.1-0.1,0.3-0.2,0.4-0.4c0,0,0,0,0,0c0.5-0.5,1.1-0.9,1.8-1.3c0.7-0.3,1.4-0.3,2-0.2
	c2.5,0.7,5.4,0,7.4-2c3-3,3-7.8,0-10.7c-1.5-1.5-3.4-2.2-5.3-2.2l0,0c-0.2,0-0.4,0-0.6,0c-0.4,0-0.8,0.1-1.2,0.2
	c-0.7,0.1-1.5,0.2-2.3-0.1c-1.2-0.5-1.9-1.4-2.6-2c-0.3-0.3-1-0.9-1-0.9l0,0c-0.9-0.6-2.1-0.7-2.8,0c0,0,0,0,0,0c0,0,0,0,0,0
	c-0.7,0.7-0.7,2,0.1,2.9c0.2,0.2,0.5,0.6,0.7,0.8c0.6,0.6,1.5,1.4,2,2.6c0.3,0.8,0.3,1.5,0.1,2.3c-0.1,0.4-0.2,0.8-0.2,1.3
	c0,0.2,0,0.4,0,0.6l0,0c0,0.6,0.1,1.3,0.3,1.9c0.1,0.7,0.1,1.3-0.2,2c-0.3,0.7-0.8,1.3-1.3,1.8c0,0,0,0,0,0
	c-0.1,0.1-0.2,0.2-0.4,0.4c-0.1,0.1-0.3,0.2-0.4,0.4c0,0,0,0,0,0c-0.5,0.5-1.1,0.9-1.8,1.3c-0.8,0.3-1.4,0.3-2.1,0.2
	c-0.6-0.1-1.2-0.2-1.8-0.2l0,0c-0.1,0-0.1,0-0.2,0c0,0,0,0,0,0l0,0c-0.1,0-0.3,0-0.4,0c-0.4,0-0.8,0.1-1.2,0.2
	c-0.7,0.1-1.5,0.2-2.3-0.1c-1.2-0.5-1.9-1.4-2.6-2c-0.3-0.3-1-0.9-1-0.9l0,0c-0.9-0.7-2-0.7-2.7,0c0,0,0,0,0,0c0,0,0,0,0,0
	c-0.7,0.7-0.7,2,0.1,2.9c0.2,0.2,0.5,0.6,0.7,0.8c0.6,0.6,1.5,1.4,2,2.6c0.3,0.8,0.3,1.5,0.1,2.3c-0.1,0.4-0.2,0.8-0.2,1.3
	c0,0.2,0,0.4,0,0.6l0,0c0,1.9,0.8,3.8,2.2,5.3c3,3,7.8,3,10.7,0C40.1,52.9,40.9,51,40.9,49.1L40.9,49.1z"/>
<path class="st0" d="M23.9,30.7c0.4,0,0.8-0.1,1.2-0.2c0.7-0.1,1.5-0.2,2.3,0.1c1.2,0.5,1.9,1.4,2.6,2c0.3,0.3,1,0.9,1,0.9l0,0
	c0.9,0.6,2.1,0.7,2.8,0c0.7-0.7,0.7-1.9,0-2.8l0,0c0,0-0.6-0.7-0.9-1c-0.6-0.6-1.5-1.4-2-2.6c-0.3-0.8-0.3-1.5-0.1-2.3
	c0.1-0.4,0.2-0.8,0.2-1.3c0-0.2,0-0.6,0-0.6c0-0.6-0.1-1.3-0.3-1.9c-0.1-0.7-0.1-1.3,0.2-2c0.3-0.7,0.8-1.3,1.3-1.8c0,0,0,0,0,0
	c0.1-0.1,0.2-0.2,0.4-0.4c0.1-0.1,0.3-0.2,0.4-0.4c0,0,0,0,0,0c0.5-0.5,1.1-0.9,1.8-1.3c0.8-0.3,1.4-0.3,2.1-0.2
	c0.6,0.1,1.2,0.2,1.8,0.2c0,0,0.1,0,0.2,0c0,0,0.3,0,0.4,0c0.4,0,0.8-0.1,1.2-0.2c0.7-0.1,1.5-0.2,2.3,0.1c1.2,0.5,1.9,1.4,2.6,2
	c0.3,0.3,1,0.9,1,0.9l0,0c0.9,0.6,2.1,0.7,2.8,0c0.7-0.7,0.7-1.9,0-2.8l0,0c0,0-0.6-0.7-0.9-1c-0.6-0.6-1.5-1.4-2-2.6
	C46,11,46,10.2,46.2,9.5c0.1-0.4,0.2-0.8,0.2-1.3c0-0.2,0-0.6,0-0.6c0-1.9-0.8-3.8-2.2-5.3c-3-3-7.8-3-10.7,0
	c-1.5,1.5-2.2,3.4-2.2,5.3c0,0,0,0.1,0,0.1c0,0.6,0.1,1.3,0.2,1.9c0.1,0.7,0.2,1.4-0.2,2.1c-0.3,0.7-0.8,1.3-1.3,1.8c0,0,0,0,0,0
	c-0.1,0.1-0.2,0.2-0.4,0.4c-0.1,0.1-0.3,0.2-0.4,0.4c0,0,0,0,0,0c-0.5,0.5-1.1,0.9-1.8,1.3c-0.7,0.3-1.4,0.3-2,0.2
	c-2.5-0.7-5.4,0-7.4,2c-1.5,1.5-2.2,3.4-2.2,5.3c0,0,0,0,0,0c0,0.7,0.1,1.3,0.3,2c0.1,0.7,0.1,1.3-0.2,2.1c-0.3,0.7-0.8,1.3-1.3,1.8
	c0,0,0,0,0,0c-0.1,0.1-0.2,0.2-0.4,0.4c-0.1,0.1-0.3,0.2-0.4,0.4c0,0,0,0,0,0c-0.5,0.5-1.1,0.9-1.8,1.3c-0.8,0.3-1.4,0.3-2.1,0.2
	C9.2,31,8.6,31,8,31c0,0-0.1,0-0.1,0c-1.9,0-3.8,0.8-5.3,2.2c-3,3-3,7.8,0,10.7c1.5,1.5,3.4,2.2,5.3,2.2l0,0c0.2,0,0.4,0,0.6,0
	c0.4,0,0.8-0.1,1.3-0.2c0.7-0.1,1.5-0.2,2.3,0.1c1.2,0.5,1.9,1.4,2.6,2c0.3,0.3,1,0.9,1,0.9l0,0c0.9,0.6,2.1,0.7,2.8,0
	c0.7-0.7,0.7-1.9,0-2.8l0,0c0,0-0.6-0.7-0.9-1c-0.7-0.6-1.5-1.4-2-2.6c-0.3-0.8-0.3-1.5-0.1-2.3c0.1-0.4,0.2-0.8,0.2-1.2
	c0-0.1,0-0.3,0-0.4l0,0c0,0,0,0,0,0c0-0.1,0-0.2,0-0.2c0-0.6-0.1-1.2-0.2-1.8c-0.1-0.7-0.1-1.4,0.2-2.1c0.3-0.7,0.8-1.3,1.3-1.8
	c0,0,0,0,0,0c0.1-0.1,0.2-0.2,0.4-0.4c0.1-0.1,0.3-0.2,0.4-0.4c0,0,0,0,0,0c0.5-0.5,1.1-0.9,1.8-1.3c0.7-0.3,1.4-0.3,2.1-0.2
	c0.6,0.2,1.2,0.2,1.8,0.3C23.3,30.7,23.7,30.7,23.9,30.7z"/>
</svg>
