<?xml version="1.0" encoding="utf-8"?>
<!-- Generator: Adobe Illustrator 19.0.0, SVG Export Plug-In . SVG Version: 6.00 Build 0)  -->
<svg version="1.1" id="Layer_1" xmlns="http://www.w3.org/2000/svg" xmlns:xlink="http://www.w3.org/1999/xlink" x="0px" y="0px"
	 viewBox="0 0 283.5 311.8" style="enable-background:new 0 0 283.5 311.8;" xml:space="preserve">
<polygon id="XMLID_4_" points="122.3,126.5 122.3,186.5 177.3,154.4 "/>
<path id="XMLID_3_" d="M111.6,9c0,0-63.4,35-74,41.1C19.4,60.5,0.1,65.4,0.1,108.3s-0.5,83.8,0.4,94.4c0.9,10.6,4.9,50.1,40.6,31
	s64.7-38,64.7-38s0-131.3,0.2-156.3C106.2,16.8,111.6,9,111.6,9z"/>
<path id="XMLID_2_" d="M283.4,199.4c0,0,0-70.3-0.1-82.4c-0.1-21,4.7-39.9-32.7-60.9S178,14.3,168.3,9.8
	c-9.7-4.5-44.8-20.7-45.6,19.8s-0.4,76.9-0.4,76.9s108.7,56.2,130.6,67.9C279,188.4,283.4,199.4,283.4,199.4z"/>
<path id="XMLID_1_" d="M31.7,252.7c0,0,62.5,36.5,73.1,42.5c18.3,10.3,32.2,24,69.1,2s72.4-42.2,81.1-48.3s40.5-29.9,5.9-50.7
	S194,162.8,194,162.8S84,228.6,62.4,240.9C41.6,252.8,31.7,252.7,31.7,252.7z"/>
</svg>
