<?xml version="1.0" encoding="utf-8"?>
<!-- Generator: Adobe Illustrator 19.0.0, SVG Export Plug-In . SVG Version: 6.00 Build 0)  -->
<svg version="1.1" id="Layer_1" xmlns="http://www.w3.org/2000/svg" xmlns:xlink="http://www.w3.org/1999/xlink" x="0px" y="0px"
	 viewBox="1866.6 111.5 85 59.5" style="enable-background:new 1866.6 111.5 85 59.5;" xml:space="preserve">
<g>
	<path d="M1950.6,158.4l-11.9-31.5l-2.6-6.7l-3.4-8.7h-9.9l-6.1,15.8l0,0c0.9,2.7,1.4,5.6,1.4,8.6c0,9.9-5.4,18.6-13.5,23.3
		l-0.4,1.1h9.2l2.1-5.7l2.1-5.6h20.2l2.1,5.6l2.2,5.7h9.1L1950.6,158.4z M1921,140.8l6.7-17.8l0.2-0.6l0.2,0.5l6.8,17.9H1921z"/>
	<path d="M1899,159c9.8-3.2,16.9-12.3,16.9-23.1c0-1.7-0.2-3.3-0.5-4.9c-0.2-0.9-0.4-1.9-0.7-2.8c-0.7-2.1-1.7-4.1-2.9-5.9
		c-4.4-6.5-11.9-10.8-20.4-10.8c-13.5,0-24.5,10.9-24.5,24.3c0,0.3,0,0.7,0,1c0.5,11.8,9.4,21.4,20.9,23.1
		c4.6,6.2,12.9,10.4,21.8,11l3.1-8.1c-0.6,0-1.4,0-1.8,0C1906.4,162.8,1902.2,161.4,1899,159z M1891.4,152c-2.8,0-5.5-0.7-7.8-2
		c-4.7-2.5-7.9-7.2-8.4-12.7c0-0.5-0.1-1-0.1-1.4c0-8.9,7.3-16.2,16.3-16.2c4.1,0,7.8,1.5,10.6,3.9c2.2,1.9,4,4.4,4.9,7.3
		c0,0.1,0.1,0.3,0.1,0.4c0.4,1.5,0.7,3,0.7,4.6c0,8.2-6.2,15-14.1,16C1892.8,152,1892.1,152,1891.4,152z"/>
</g>
</svg>
