<?xml version="1.0" encoding="utf-8"?>
<!-- Generator: Adobe Illustrator 19.0.0, SVG Export Plug-In . SVG Version: 6.00 Build 0)  -->
<svg version="1.1" id="Layer_1" xmlns="http://www.w3.org/2000/svg" xmlns:xlink="http://www.w3.org/1999/xlink" x="0px" y="0px"
	 viewBox="62 209 289.1 51" style="enable-background:new 62 209 289.1 51;" xml:space="preserve">
<style type="text/css">
	.st0{fill:none;stroke:#FFFFFF;stroke-width:0.99;}
	.st1{fill:#FFFFFF;}
	.st2{clip-path:url(#SVGID_2_);fill:#FFFFFF;}
	.st3{clip-path:url(#SVGID_4_);fill:#FFFFFF;}
	.st4{clip-path:url(#SVGID_6_);fill:#FFFFFF;}
	.st5{clip-path:url(#SVGID_8_);fill:#FFFFFF;}
	.st6{clip-path:url(#SVGID_10_);fill:#FFFFFF;}
	.st7{clip-path:url(#SVGID_12_);fill:#FFFFFF;}
	.st8{clip-path:url(#SVGID_14_);fill:#FFFFFF;}
	.st9{clip-path:url(#SVGID_16_);fill:#FFFFFF;}
	.st10{clip-path:url(#SVGID_18_);fill:#FFFFFF;}
	.st11{clip-path:url(#SVGID_20_);fill:#FFFFFF;}
	.st12{clip-path:url(#SVGID_22_);fill:#FFFFFF;}
	.st13{clip-path:url(#SVGID_24_);fill:#FFFFFF;}
	.st14{clip-path:url(#SVGID_26_);fill:#FFFFFF;}
	.st15{clip-path:url(#SVGID_28_);fill:#FFFFFF;}
	.st16{clip-path:url(#SVGID_30_);fill:#FFFFFF;}
	.st17{clip-path:url(#SVGID_32_);fill:#FFFFFF;}
	.st18{clip-path:url(#SVGID_34_);fill:#FFFFFF;}
	.st19{clip-path:url(#SVGID_36_);fill:#FFFFFF;}
	.st20{clip-path:url(#SVGID_38_);fill:#FFFFFF;}
	.st21{clip-path:url(#SVGID_40_);fill:#FFFFFF;}
	.st22{clip-path:url(#SVGID_42_);fill:#FFFFFF;}
	.st23{clip-path:url(#SVGID_44_);fill:#FFFFFF;}
	.st24{clip-path:url(#SVGID_46_);fill:#FFFFFF;}
	.st25{clip-path:url(#SVGID_48_);fill:#FFFFFF;}
	.st26{clip-path:url(#SVGID_50_);fill:#FFFFFF;}
	.st27{clip-path:url(#SVGID_52_);fill:#FFFFFF;}
	.st28{enable-background:new    ;}
</style>
<line id="XMLID_4_" class="st0" x1="188.5" y1="210.1" x2="188.5" y2="259"/>
<g id="XMLID_69_">
	<path id="XMLID_66_" class="st1" d="M93.6,241.7h1.9l1.4,5.9h-1l-0.3-1.2h-2.1l-0.3,1.2h-1L93.6,241.7z M93.7,245.5h1.7l-0.7-2.9
		h-0.3L93.7,245.5z"/>
	<g id="XMLID_5_">
		<g>
			<rect id="XMLID_6_" x="63" y="217.6" class="st1" width="111.5" height="32.1"/>
		</g>
		<g>
			<defs>
				<rect id="SVGID_1_" x="63" y="217.6" width="111.5" height="32.1"/>
			</defs>
			<clipPath id="SVGID_2_">
				<use xlink:href="#SVGID_1_"  style="overflow:visible;"/>
			</clipPath>
			<path id="XMLID_65_" class="st2" d="M100.5,244.3c0,0-1-0.1-1.5-0.1c-0.4,0-0.7,0.2-0.7,0.5s0.2,0.3,0.8,0.5
				c1.1,0.2,1.5,0.5,1.5,1.3c0,1-0.7,1.4-1.7,1.4c-0.6,0-1.6-0.2-1.6-0.2v-0.8c0,0,1,0.1,1.4,0.1c0.6,0,0.8-0.1,0.8-0.5
				c0-0.3-0.1-0.3-0.8-0.5c-1-0.2-1.5-0.4-1.5-1.3c0-1,0.8-1.3,1.6-1.3c0.6,0,1.6,0.2,1.6,0.2L100.5,244.3z"/>
		</g>
		<g>
			<defs>
				<rect id="SVGID_3_" x="63" y="217.6" width="111.5" height="32.1"/>
			</defs>
			<clipPath id="SVGID_4_">
				<use xlink:href="#SVGID_3_"  style="overflow:visible;"/>
			</clipPath>
			<polygon id="XMLID_64_" class="st3" points="101.6,247.6 101.6,241.6 102.6,241.6 102.6,245 103,245 104,243.4 105.1,243.4 
				103.9,245.4 105.2,247.6 104.1,247.6 103.1,245.9 102.6,246 102.6,247.6 			"/>
		</g>
		<g>
			<defs>
				<rect id="SVGID_5_" x="63" y="217.6" width="111.5" height="32.1"/>
			</defs>
			<clipPath id="SVGID_6_">
				<use xlink:href="#SVGID_5_"  style="overflow:visible;"/>
			</clipPath>
			<path id="XMLID_60_" class="st4" d="M110.3,241.7c1,0,1.8,0.4,1.8,1.5c0,0.8-0.2,1.1-0.7,1.4c0.5,0.2,0.8,0.6,0.8,1.4
				c0,1.2-0.8,1.7-1.9,1.7h-2.2v-5.9h2.2V241.7z M109.1,242.6v1.6h1.1c0.5,0,0.8-0.3,0.8-0.8s-0.3-0.8-0.8-0.8H109.1z M109.1,245.1
				v1.6h1.1c0.5,0,0.9-0.3,0.9-0.8c0-0.6-0.5-0.8-0.9-0.8H109.1z"/>
		</g>
		<g>
			<defs>
				<rect id="SVGID_7_" x="63" y="217.6" width="111.5" height="32.1"/>
			</defs>
			<clipPath id="SVGID_8_">
				<use xlink:href="#SVGID_7_"  style="overflow:visible;"/>
			</clipPath>
			<path id="XMLID_57_" class="st5" d="M113.4,241.7h1v1h-1V241.7z M113.4,243.4h1v4.3h-1V243.4z"/>
		</g>
		<g>
			<defs>
				<rect id="SVGID_9_" x="63" y="217.6" width="111.5" height="32.1"/>
			</defs>
			<clipPath id="SVGID_10_">
				<use xlink:href="#SVGID_9_"  style="overflow:visible;"/>
			</clipPath>
			<path id="XMLID_53_" class="st6" d="M115.1,248.4c0-0.4,0.2-0.7,0.6-1c-0.2-0.1-0.3-0.3-0.3-0.6c0-0.2,0.3-0.7,0.3-0.7
				c-0.3-0.2-0.6-0.6-0.6-1.3c0-1,0.8-1.5,1.7-1.5c0.3,0,0.8,0.1,0.8,0.1h1.3v0.8h-0.6c0.1,0.1,0.2,0.3,0.2,0.6
				c0,1.1-0.6,1.5-1.7,1.5c-0.1,0-0.2,0-0.3,0c0,0-0.1,0.3-0.1,0.4c0,0.3,0.1,0.3,0.8,0.3c1.2,0,1.8,0.3,1.8,1.3
				c0,1.1-0.9,1.5-1.9,1.5C115.9,249.7,115.1,249.4,115.1,248.4 M116.4,247.7c-0.2,0.2-0.3,0.3-0.3,0.6c0,0.4,0.4,0.5,1,0.5
				c0.6,0,1-0.2,1-0.6c0-0.4-0.3-0.5-0.9-0.5C116.9,247.8,116.4,247.7,116.4,247.7 M117.6,244.8c0-0.5-0.2-0.7-0.7-0.7
				s-0.7,0.2-0.7,0.7c0,0.4,0.2,0.7,0.7,0.7S117.6,245.3,117.6,244.8"/>
		</g>
		<g>
			<defs>
				<rect id="SVGID_11_" x="63" y="217.6" width="111.5" height="32.1"/>
			</defs>
			<clipPath id="SVGID_12_">
				<use xlink:href="#SVGID_11_"  style="overflow:visible;"/>
			</clipPath>
			<path id="XMLID_49_" class="st7" d="M119.6,248.4c0-0.4,0.2-0.7,0.6-1c-0.2-0.1-0.3-0.3-0.3-0.6c0-0.2,0.3-0.7,0.3-0.7
				c-0.3-0.2-0.6-0.6-0.6-1.3c0-1,0.8-1.5,1.7-1.5c0.3,0,0.8,0.1,0.8,0.1h1.3v0.8h-0.6c0.1,0.1,0.2,0.3,0.2,0.6
				c0,1.1-0.6,1.5-1.7,1.5c-0.1,0-0.2,0-0.3,0c0,0-0.1,0.3-0.1,0.4c0,0.3,0.1,0.3,0.8,0.3c1.2,0,1.8,0.3,1.8,1.3
				c0,1.1-0.9,1.5-1.9,1.5C120.4,249.7,119.6,249.4,119.6,248.4 M120.8,247.7c-0.2,0.2-0.3,0.3-0.3,0.6c0,0.4,0.4,0.5,1,0.5
				s1-0.2,1-0.6c0-0.4-0.3-0.5-0.9-0.5C121.3,247.8,120.8,247.7,120.8,247.7 M122,244.8c0-0.5-0.2-0.7-0.7-0.7s-0.7,0.2-0.7,0.7
				c0,0.4,0.2,0.7,0.7,0.7S122,245.3,122,244.8"/>
		</g>
		<g>
			<defs>
				<rect id="SVGID_13_" x="63" y="217.6" width="111.5" height="32.1"/>
			</defs>
			<clipPath id="SVGID_14_">
				<use xlink:href="#SVGID_13_"  style="overflow:visible;"/>
			</clipPath>
			<path id="XMLID_46_" class="st8" d="M127.5,246.8v0.7c0,0-0.8,0.2-1.6,0.2c-1.3,0-1.8-0.8-1.8-2.2s0.6-2.3,1.8-2.3
				c1.2,0,1.8,0.7,1.8,1.9l-0.1,0.7h-2.5c0,0.6,0.2,1,0.9,1C126.6,246.9,127.5,246.8,127.5,246.8 M126.7,245.2
				c0-0.7-0.2-1.1-0.8-1.1c-0.6,0-0.8,0.4-0.8,1.1H126.7z"/>
		</g>
		<g>
			<defs>
				<rect id="SVGID_15_" x="63" y="217.6" width="111.5" height="32.1"/>
			</defs>
			<clipPath id="SVGID_16_">
				<use xlink:href="#SVGID_15_"  style="overflow:visible;"/>
			</clipPath>
			<path id="XMLID_45_" class="st9" d="M128.8,243.4h1v0.5c0,0,0.5-0.4,1.2-0.6v1c-0.8,0.2-1.2,0.4-1.2,0.4v2.9h-1V243.4z"/>
		</g>
		<g>
			<defs>
				<rect id="SVGID_17_" x="63" y="217.6" width="111.5" height="32.1"/>
			</defs>
			<clipPath id="SVGID_18_">
				<use xlink:href="#SVGID_17_"  style="overflow:visible;"/>
			</clipPath>
			<path id="XMLID_42_" class="st10" d="M136.6,247.7c-0.1,0-0.3,0-0.5,0c-1.8,0-2.3-1-2.3-3s0.6-3.1,2.3-3.1c1.8,0,2.3,1.1,2.3,3.1
				c0,1.3-0.2,2.2-0.9,2.6l0.6,1.1l-0.9,0.4L136.6,247.7z M137.4,244.7c0-1.4-0.3-2.2-1.3-2.2s-1.3,0.7-1.3,2.2
				c0,1.4,0.3,2.1,1.3,2.1S137.4,246.2,137.4,244.7"/>
		</g>
		<g>
			<defs>
				<rect id="SVGID_19_" x="63" y="217.6" width="111.5" height="32.1"/>
			</defs>
			<clipPath id="SVGID_20_">
				<use xlink:href="#SVGID_19_"  style="overflow:visible;"/>
			</clipPath>
			<path id="XMLID_41_" class="st11" d="M142.9,243.4v4.3h-1v-0.2c0,0-0.6,0.3-1.1,0.3c-1.1,0-1.4-0.6-1.4-2.1v-2.2h1v2.2
				c0,0.9,0.1,1.3,0.7,1.3c0.4,0,0.9-0.2,0.9-0.2v-3.3h0.9V243.4z"/>
		</g>
		<g>
			<defs>
				<rect id="SVGID_21_" x="63" y="217.6" width="111.5" height="32.1"/>
			</defs>
			<clipPath id="SVGID_22_">
				<use xlink:href="#SVGID_21_"  style="overflow:visible;"/>
			</clipPath>
			<path id="XMLID_38_" class="st12" d="M147.1,246.8v0.7c0,0-0.8,0.2-1.6,0.2c-1.3,0-1.8-0.8-1.8-2.2s0.6-2.3,1.8-2.3
				c1.2,0,1.8,0.7,1.8,1.9l-0.1,0.7h-2.5c0,0.6,0.2,1,0.9,1C146.2,246.9,147.1,246.8,147.1,246.8 M146.3,245.2
				c0-0.7-0.2-1.1-0.8-1.1s-0.8,0.4-0.8,1.1H146.3z"/>
		</g>
		<g>
			<defs>
				<rect id="SVGID_23_" x="63" y="217.6" width="111.5" height="32.1"/>
			</defs>
			<clipPath id="SVGID_24_">
				<use xlink:href="#SVGID_23_"  style="overflow:visible;"/>
			</clipPath>
			<path id="XMLID_37_" class="st13" d="M151.2,244.3c0,0-1-0.1-1.5-0.1c-0.4,0-0.7,0.2-0.7,0.5s0.2,0.3,0.8,0.5
				c1.1,0.2,1.5,0.5,1.5,1.3c0,1-0.7,1.4-1.7,1.4c-0.6,0-1.6-0.2-1.6-0.2v-0.8c0,0,1,0.1,1.4,0.1c0.6,0,0.8-0.1,0.8-0.5
				c0-0.3-0.1-0.3-0.8-0.5c-1-0.2-1.5-0.4-1.5-1.3c0-1,0.8-1.3,1.6-1.3c0.6,0,1.6,0.2,1.6,0.2L151.2,244.3z"/>
		</g>
		<g>
			<defs>
				<rect id="SVGID_25_" x="63" y="217.6" width="111.5" height="32.1"/>
			</defs>
			<clipPath id="SVGID_26_">
				<use xlink:href="#SVGID_25_"  style="overflow:visible;"/>
			</clipPath>
			<path id="XMLID_36_" class="st14" d="M153.6,244.2v1.8c0,0.6,0.1,0.8,0.4,0.8c0.2,0,0.6,0,0.6,0v0.8c0,0-0.5,0.1-0.8,0.1
				c-0.9,0-1.3-0.5-1.3-1.6v-1.9H152v-0.9h0.5v-1.2h1v1.2h1.1v0.9C154.6,244.2,153.6,244.2,153.6,244.2z"/>
		</g>
		<g>
			<defs>
				<rect id="SVGID_27_" x="63" y="217.6" width="111.5" height="32.1"/>
			</defs>
			<clipPath id="SVGID_28_">
				<use xlink:href="#SVGID_27_"  style="overflow:visible;"/>
			</clipPath>
			<path id="XMLID_33_" class="st15" d="M155.7,241.7h1v1h-1V241.7z M155.7,243.4h1v4.3h-1V243.4z"/>
		</g>
		<g>
			<defs>
				<rect id="SVGID_29_" x="63" y="217.6" width="111.5" height="32.1"/>
			</defs>
			<clipPath id="SVGID_30_">
				<use xlink:href="#SVGID_29_"  style="overflow:visible;"/>
			</clipPath>
			<path id="XMLID_30_" class="st16" d="M161.3,245.5c0,1.3-0.4,2.2-1.9,2.2s-1.9-0.9-1.9-2.2s0.4-2.2,1.9-2.2
				S161.3,244.2,161.3,245.5 M160.3,245.5c0-0.8-0.2-1.4-0.9-1.4c-0.7,0-0.9,0.5-0.9,1.4c0,0.8,0.1,1.4,0.9,1.4
				C160.2,246.9,160.3,246.3,160.3,245.5"/>
		</g>
		<g>
			<defs>
				<rect id="SVGID_31_" x="63" y="217.6" width="111.5" height="32.1"/>
			</defs>
			<clipPath id="SVGID_32_">
				<use xlink:href="#SVGID_31_"  style="overflow:visible;"/>
			</clipPath>
			<path id="XMLID_29_" class="st17" d="M162.2,247.6v-4.3h1v0.2c0,0,0.6-0.3,1.1-0.3c1.1,0,1.4,0.8,1.4,2.1v2.2h-1v-2.2
				c0-0.7-0.1-1.3-0.7-1.3c-0.4,0-0.9,0.2-0.9,0.2v3.3h-0.9V247.6z"/>
		</g>
		<g>
			<defs>
				<rect id="SVGID_33_" x="63" y="217.6" width="111.5" height="32.1"/>
			</defs>
			<clipPath id="SVGID_34_">
				<use xlink:href="#SVGID_33_"  style="overflow:visible;"/>
			</clipPath>
			<path id="XMLID_28_" class="st18" d="M169.7,244.3c0,0-1-0.1-1.5-0.1c-0.4,0-0.7,0.2-0.7,0.5s0.2,0.3,0.8,0.5
				c1.1,0.2,1.5,0.5,1.5,1.3c0,1-0.7,1.4-1.7,1.4c-0.6,0-1.6-0.2-1.6-0.2v-0.8c0,0,1,0.1,1.4,0.1c0.6,0,0.8-0.1,0.8-0.5
				c0-0.3-0.1-0.3-0.8-0.5c-1-0.2-1.5-0.4-1.5-1.3c0-1,0.8-1.3,1.6-1.3c0.6,0,1.6,0.2,1.6,0.2L169.7,244.3z"/>
		</g>
		<g>
			<defs>
				<rect id="SVGID_35_" x="63" y="217.6" width="111.5" height="32.1"/>
			</defs>
			<clipPath id="SVGID_36_">
				<use xlink:href="#SVGID_35_"  style="overflow:visible;"/>
			</clipPath>
			<path id="XMLID_27_" class="st19" d="M155.7,222.2c-1.1,0-2.1,0.1-3.1,0.4c-0.5,0.1-0.9,0.3-1.3,0.5c-0.1-0.1-0.2-0.2-0.3-0.3
				c-0.4-0.4-0.9-0.6-1.4-0.6h-2.1V238h4.1v-8.2c0-1.6,0.3-2.2,0.8-2.8c0.5-0.5,1.4-0.8,2.5-0.8h1.8v-4H155.7"/>
		</g>
		<g>
			<defs>
				<rect id="SVGID_37_" x="63" y="217.6" width="111.5" height="32.1"/>
			</defs>
			<clipPath id="SVGID_38_">
				<use xlink:href="#SVGID_37_"  style="overflow:visible;"/>
			</clipPath>
			<path id="XMLID_26_" class="st20" d="M80.7,217.6h-2.1V236c0,0.5,0.2,1,0.6,1.4c0.4,0.4,0.9,0.6,1.4,0.6h2.1v-18.5
				c0-0.5-0.2-1-0.6-1.4C81.7,217.8,81.2,217.6,80.7,217.6"/>
		</g>
		<g>
			<defs>
				<rect id="SVGID_39_" x="63" y="217.6" width="111.5" height="32.1"/>
			</defs>
			<clipPath id="SVGID_40_">
				<use xlink:href="#SVGID_39_"  style="overflow:visible;"/>
			</clipPath>
			<path id="XMLID_23_" class="st21" d="M91.4,234.8c2.4,0,3.2-2.6,3.2-4.7c0-2.1-0.8-4.8-3.2-4.8c-2.4,0-3.2,2.6-3.2,4.8
				C88.2,232.3,89,234.8,91.4,234.8 M91.4,221.8c4.6,0,7.2,3.1,7.2,8.2s-2.6,8.1-7.2,8.1c-4.7,0-7.2-3-7.2-8.1
				S86.7,221.8,91.4,221.8"/>
		</g>
		<g>
			<defs>
				<rect id="SVGID_41_" x="63" y="217.6" width="111.5" height="32.1"/>
			</defs>
			<clipPath id="SVGID_42_">
				<use xlink:href="#SVGID_41_"  style="overflow:visible;"/>
			</clipPath>
			<path id="XMLID_22_" class="st22" d="M70.2,234.8c-2.5,0-3.2-2.6-3.2-4.8s0.7-4.8,3.2-4.8c1.3,0,2.1,0.7,2.6,1.7H77
				c-0.9-3.3-3.2-5.1-6.8-5.1c-4.7,0-7.2,3.1-7.2,8.2s2.5,8.1,7.2,8.1c3.6,0,6-1.9,6.8-5.1h-2.8c0,0-0.8,0-1.2,0.4
				C72.3,234.1,71.7,234.8,70.2,234.8"/>
		</g>
		<g>
			<defs>
				<rect id="SVGID_43_" x="63" y="217.6" width="111.5" height="32.1"/>
			</defs>
			<clipPath id="SVGID_44_">
				<use xlink:href="#SVGID_43_"  style="overflow:visible;"/>
			</clipPath>
			<path id="XMLID_21_" class="st23" d="M113.2,222.8c-0.4-0.4-0.9-0.6-1.4-0.6h-2.1v9.9c0,0.9-0.3,1.6-0.9,2.1
				c-0.6,0.4-1.2,0.6-1.9,0.6c-0.7,0-1.3-0.2-1.9-0.6c-0.6-0.4-0.9-1.1-0.9-2.1v-7.9c0-0.5-0.2-1-0.6-1.4c-0.4-0.4-0.9-0.6-1.4-0.6
				H100v9.2c0,2.8,0.8,4.5,2.2,5.5s2.9,1.3,4.6,1.3c1.7,0,3.3-0.3,4.6-1.3c1.4-1,2.2-2.7,2.2-5.5v-7.2
				C113.8,223.7,113.6,223.2,113.2,222.8"/>
		</g>
		<g>
			<defs>
				<rect id="SVGID_45_" x="63" y="217.6" width="111.5" height="32.1"/>
			</defs>
			<clipPath id="SVGID_46_">
				<use xlink:href="#SVGID_45_"  style="overflow:visible;"/>
			</clipPath>
			<path id="XMLID_18_" class="st24" d="M129.5,218.1c-0.4-0.4-0.9-0.6-1.4-0.6H126v5.8c-0.6-0.6-1.9-1.6-3.9-1.6
				c-4.2,0-6.6,3.1-6.6,8.2c0,5.1,2.5,8.1,7.3,8.1c4.7,0,7.3-3,7.3-8.1l0,0v-10.4C130,219,129.8,218.5,129.5,218.1 M122.7,234.8
				c-2.5,0-3.2-2.6-3.2-4.7c0-2.1,0.8-4.8,3.2-4.8c2.5,0,3.3,2.6,3.3,4.7v0.1l0,0C126,232.2,125.2,234.8,122.7,234.8"/>
		</g>
		<g>
			<defs>
				<rect id="SVGID_47_" x="63" y="217.6" width="111.5" height="32.1"/>
			</defs>
			<clipPath id="SVGID_48_">
				<use xlink:href="#SVGID_47_"  style="overflow:visible;"/>
			</clipPath>
			<path id="XMLID_15_" class="st25" d="M145.9,229.1c0,0.3-0.1,0.6-0.2,0.9c-0.1,0.2-0.2,0.3-0.3,0.5c-0.4,0.4-0.8,0.6-1.4,0.6
				h-8.3c0.1,1.9,1.1,3.7,3.1,3.7c1.5,0,2.1-0.6,2.9-1.3c0.4-0.4,1.2-0.4,1.2-0.4h2.8c-0.9,3.2-3.2,5.1-6.8,5.1
				c-4.7,0-7.2-3-7.2-8.1c0-5.1,2.5-8.2,7.2-8.2c3.6,0,6,1.9,6.8,5.1c0.2,0.6,0.3,1.2,0.3,1.9L145.9,229.1z M138.8,225.3
				c-1.7,0-2.8,1.3-3,2.8h5.9C141.7,226.5,140.4,225.3,138.8,225.3"/>
		</g>
		<g>
			<defs>
				<rect id="SVGID_49_" x="63" y="217.6" width="111.5" height="32.1"/>
			</defs>
			<clipPath id="SVGID_50_">
				<use xlink:href="#SVGID_49_"  style="overflow:visible;"/>
			</clipPath>
			<path id="XMLID_12_" class="st26" d="M170.4,226.2c0-1.4-0.6-2.5-1.7-3.3c-1.1-0.7-2.7-1.1-4.9-1.1c-2,0-3.5,0.4-4.5,1.3
				c-0.9,0.8-1.5,1.8-1.7,3h3.9c0.2-0.5,0.5-0.8,1-0.9c0.4-0.2,0.9-0.2,1.5-0.2c0.7,0,1.2,0.1,1.7,0.3c0.6,0.2,0.9,0.6,0.9,1.1
				c0,0.6-0.9,1.2-2.6,1.4c-2.1,0.3-3.7,0.5-5.2,1.6c-1,0.7-1.6,2-1.6,3.6c0,1.7,0.5,3,1.6,3.8c0.9,0.7,2.4,1.3,4.9,1.3
				c2.2,0,3.8-0.5,4.9-1.2c1.1-0.8,1.8-1.7,1.8-3.3L170.4,226.2L170.4,226.2z M166,233.9c-0.6,0.6-1.5,0.9-2.6,0.9
				c-0.3,0-1.4-0.1-1.9-0.5c-0.3-0.3-0.5-0.7-0.5-1.2c0-0.4,0.1-0.8,0.4-1.1c0.6-0.6,1.2-0.7,2.6-1c0.9-0.2,2-0.5,2.6-0.9v1.2
				C166.6,232.4,166.6,233.2,166,233.9"/>
		</g>
		<g>
			<defs>
				<rect id="SVGID_51_" x="63" y="217.6" width="111.5" height="32.1"/>
			</defs>
			<clipPath id="SVGID_52_">
				<use xlink:href="#SVGID_51_"  style="overflow:visible;"/>
			</clipPath>
			<path id="XMLID_7_" class="st27" d="M173,221.9c0.9,0,1.6,0.7,1.6,1.6s-0.6,1.6-1.6,1.6c-0.9,0-1.6-0.7-1.6-1.6
				C171.4,222.7,172,221.9,173,221.9 M173,224.9c0.7,0,1.3-0.6,1.3-1.4s-0.6-1.4-1.3-1.4c-0.7,0-1.3,0.6-1.3,1.4
				C171.6,224.3,172.2,224.9,173,224.9 M173,223.8h-0.3v0.7h-0.3v-1.9h0.6c0.5,0,0.7,0.1,0.7,0.6c0,0.3-0.1,0.5-0.3,0.6l0.3,0.7
				h-0.4L173,223.8z M172.6,223.5h0.4c0.2,0,0.3-0.1,0.3-0.3s-0.1-0.3-0.4-0.3h-0.3V223.5z"/>
		</g>
	</g>
</g>
<g class="st28">
	<path class="st1" d="M220.5,239.4c-1.3,1.7-3.5,2.6-6.7,2.6c-3.2,0-5.4-0.9-6.7-2.6c-1.3-1.7-2-4.4-2-8.1c0-3.7,0.7-6.4,2-8.2
		c1.3-1.8,3.5-2.7,6.7-2.7c3.2,0,5.4,0.9,6.7,2.7c1.3,1.8,2,4.5,2,8.2C222.5,235,221.8,237.7,220.5,239.4z M210.4,236.7
		c0.6,1.1,1.7,1.6,3.4,1.6c1.7,0,2.8-0.5,3.4-1.6c0.6-1.1,0.9-2.9,0.9-5.4c0-2.5-0.3-4.4-0.9-5.5c-0.6-1.1-1.7-1.7-3.4-1.7
		c-1.6,0-2.8,0.6-3.4,1.7c-0.6,1.1-0.9,3-0.9,5.5C209.5,233.8,209.8,235.6,210.4,236.7z"/>
	<path class="st1" d="M229.9,241.6h-4.1v-15.4h4.1v0.9c1.4-0.8,2.7-1.2,3.8-1.2c2.1,0,3.5,0.6,4.2,1.8c0.8,1.2,1.2,3.1,1.2,5.6v8.3
		H235v-8.2c0-1.3-0.2-2.3-0.5-2.9s-0.9-0.9-1.8-0.9c-0.8,0-1.7,0.1-2.4,0.4l-0.4,0.1V241.6z"/>
	<path class="st1" d="M250.2,241.6h-7v-20.9h7c1.8,0,3.3,0.2,4.5,0.6s2.1,1,2.7,1.9c0.6,0.9,1.1,1.9,1.3,3.1
		c0.2,1.2,0.4,2.7,0.4,4.6c0,1.9-0.1,3.5-0.3,4.7c-0.2,1.2-0.7,2.3-1.3,3.3c-0.6,1-1.5,1.7-2.7,2.1
		C253.6,241.4,252,241.6,250.2,241.6z M254.7,233.3c0-0.7,0.1-1.6,0.1-2.7s0-2.1-0.1-2.8c-0.1-0.7-0.3-1.3-0.6-1.9
		c-0.3-0.6-0.8-1-1.4-1.2c-0.6-0.2-1.4-0.3-2.4-0.3h-2.8v13.5h2.8c1.5,0,2.7-0.4,3.4-1.2C254.1,236.1,254.5,235,254.7,233.3z"/>
	<path class="st1" d="M266.6,237.7c0.5,0.4,1.2,0.6,2.1,0.6c1.9,0,3.6-0.1,5.1-0.2l0.9-0.1l0.1,3c-2.4,0.6-4.5,0.9-6.4,0.9
		c-2.3,0-4-0.6-5-1.8c-1-1.2-1.6-3.2-1.6-6c0-5.5,2.3-8.3,6.8-8.3c4.5,0,6.7,2.3,6.7,7l-0.3,2.9h-9
		C265.8,236.6,266.1,237.3,266.6,237.7z M271.1,232.6c0-1.2-0.2-2.1-0.6-2.6s-1.1-0.7-2-0.7c-1,0-1.7,0.3-2.1,0.8
		c-0.4,0.5-0.6,1.3-0.6,2.5H271.1z"/>
	<path class="st1" d="M282.2,241.6h-4.1v-15.4h4.1v0.9c1.4-0.8,2.6-1.2,3.6-1.2c1.7,0,2.9,0.5,3.8,1.4c1.9-1,3.6-1.4,5.2-1.4
		c2,0,3.4,0.6,4.2,1.8c0.8,1.2,1.2,3.1,1.2,5.6v8.3h-4.1v-8.2c0-1.3-0.1-2.3-0.4-2.9s-0.9-0.9-1.7-0.9c-0.7,0-1.5,0.1-2.4,0.4
		l-0.5,0.2c0.1,1.5,0.1,2.7,0.1,3.5v8h-4.1v-7.9c0-1.5-0.1-2.6-0.4-3.2s-0.9-0.9-1.8-0.9c-0.8,0-1.6,0.1-2.4,0.4l-0.4,0.1V241.6z"/>
	<path class="st1" d="M315.7,231v6.4c0,0.5,0.1,0.8,0.2,1c0.1,0.2,0.4,0.3,0.8,0.4l-0.1,3.1c-1,0-1.9-0.1-2.5-0.2
		c-0.6-0.1-1.3-0.4-1.9-0.9c-1.5,0.7-3,1.1-4.5,1.1c-3.2,0-4.8-1.7-4.8-5c0-1.6,0.4-2.8,1.3-3.5c0.9-0.7,2.2-1.1,4.1-1.2l3.3-0.2v-1
		c0-0.6-0.1-1.1-0.4-1.3c-0.3-0.2-0.7-0.4-1.4-0.4l-5.8,0.2l-0.1-2.9c2.2-0.6,4.3-0.9,6.3-0.9s3.4,0.4,4.3,1.2
		C315.3,227.9,315.7,229.2,315.7,231z M308.8,235.1c-1.1,0.1-1.7,0.7-1.7,1.8c0,1.1,0.5,1.7,1.5,1.7c0.8,0,1.6-0.1,2.6-0.4l0.5-0.1
		v-3.3L308.8,235.1z"/>
	<path class="st1" d="M323.8,241.6h-4.1v-15.4h4.1v0.9c1.4-0.8,2.7-1.2,3.8-1.2c2.1,0,3.5,0.6,4.2,1.8c0.8,1.2,1.2,3.1,1.2,5.6v8.3
		h-4.1v-8.2c0-1.3-0.2-2.3-0.5-2.9c-0.3-0.6-0.9-0.9-1.8-0.9c-0.8,0-1.7,0.1-2.4,0.4l-0.4,0.1V241.6z"/>
	<path class="st1" d="M349.7,220.1v21.5h-4.1V241c-1.4,0.7-2.7,1-3.7,1c-2.2,0-3.8-0.6-4.7-1.9c-0.9-1.3-1.3-3.3-1.3-6.1
		c0-2.8,0.5-4.8,1.6-6.1c1.1-1.3,2.7-1.9,4.8-1.9c0.7,0,1.6,0.1,2.7,0.3l0.6,0.1v-6.2H349.7z M345.2,237.9l0.4-0.1v-8.1
		c-1.1-0.2-2.1-0.3-3-0.3c-1.7,0-2.5,1.5-2.5,4.4c0,1.6,0.2,2.7,0.6,3.4s1,1,1.8,1S344.2,238.2,345.2,237.9z"/>
</g>
</svg>
